# Original Breakwater Station authored geometry
o airlock_floor
v -5.65 0 -7.65
v -5.65 0.008 -7.65
v 5.65 0.008 -7.65
v 5.65 0 -7.65
vt 0 0
vt 0.008 0
vt 0.008 11.3
vt 0 11.3
vn 0 0 -1
vn 0 0 -1
vn 0 0 -1
vn 0 0 -1
f 1/1/1 2/2/2 3/3/3
f 1/1/1 3/3/3 4/4/4
v -5.65 0 7.65
v 5.65 0 7.65
v 5.65 0.008 7.65
v -5.65 0.008 7.65
vt 0 0
vt 11.3 0
vt 11.3 0.008
vt 0 0.008
vn 0 0 1
vn 0 0 1
vn 0 0 1
vn 0 0 1
f 5/5/5 6/6/6 7/7/7
f 5/5/5 7/7/7 8/8/8
v -5.65 0 -7.65
v -5.65 0 7.65
v -5.65 0.008 7.65
v -5.65 0.008 -7.65
vt 0 0
vt 15.3 0
vt 15.3 0.008
vt 0 0.008
vn -1 0 0
vn -1 0 0
vn -1 0 0
vn -1 0 0
f 9/9/9 10/10/10 11/11/11
f 9/9/9 11/11/11 12/12/12
v 5.65 0 -7.65
v 5.65 0.008 -7.65
v 5.65 0.008 7.65
v 5.65 0 7.65
vt 0 0
vt 0.008 0
vt 0.008 15.3
vt 0 15.3
vn 1 0 0
vn 1 0 0
vn 1 0 0
vn 1 0 0
f 13/13/13 14/14/14 15/15/15
f 13/13/13 15/15/15 16/16/16
v -5.65 0 -7.65
v 5.65 0 -7.65
v 5.65 0 7.65
v -5.65 0 7.65
vt 0 0
vt 11.3 0
vt 11.3 15.3
vt 0 15.3
vn 0 -1 0
vn 0 -1 0
vn 0 -1 0
vn 0 -1 0
f 17/17/17 18/18/18 19/19/19
f 17/17/17 19/19/19 20/20/20
v -5.65 0.008 -7.65
v -5.65 0.008 7.65
v 5.65 0.008 7.65
v 5.65 0.008 -7.65
vt 0 0
vt 15.3 0
vt 15.3 11.3
vt 0 11.3
vn 0 1 0
vn 0 1 0
vn 0 1 0
vn 0 1 0
f 21/21/21 22/22/22 23/23/23
f 21/21/21 23/23/23 24/24/24
