# Original Breakwater Station authored geometry
o airlock_brass
v -2 0 -8
v -2 0.018 -8
v 2 0.018 -8
v 2 0 -8
vt 0 0
vt 0.018 0
vt 0.018 4
vt 0 4
vn 0 0 -1
vn 0 0 -1
vn 0 0 -1
vn 0 0 -1
f 1/1/1 2/2/2 3/3/3
f 1/1/1 3/3/3 4/4/4
v -2 0 -7.3
v 2 0 -7.3
v 2 0.018 -7.3
v -2 0.018 -7.3
vt 0 0
vt 4 0
vt 4 0.018
vt 0 0.018
vn 0 0 1
vn 0 0 1
vn 0 0 1
vn 0 0 1
f 5/5/5 6/6/6 7/7/7
f 5/5/5 7/7/7 8/8/8
v -2 0 -8
v -2 0 -7.3
v -2 0.018 -7.3
v -2 0.018 -8
vt 0 0
vt 0.7 0
vt 0.7 0.018
vt 0 0.018
vn -1 0 0
vn -1 0 0
vn -1 0 0
vn -1 0 0
f 9/9/9 10/10/10 11/11/11
f 9/9/9 11/11/11 12/12/12
v 2 0 -8
v 2 0.018 -8
v 2 0.018 -7.3
v 2 0 -7.3
vt 0 0
vt 0.018 0
vt 0.018 0.7
vt 0 0.7
vn 1 0 0
vn 1 0 0
vn 1 0 0
vn 1 0 0
f 13/13/13 14/14/14 15/15/15
f 13/13/13 15/15/15 16/16/16
v -2 0 -8
v 2 0 -8
v 2 0 -7.3
v -2 0 -7.3
vt 0 0
vt 4 0
vt 4 0.7
vt 0 0.7
vn 0 -1 0
vn 0 -1 0
vn 0 -1 0
vn 0 -1 0
f 17/17/17 18/18/18 19/19/19
f 17/17/17 19/19/19 20/20/20
v -2 0.018 -8
v -2 0.018 -7.3
v 2 0.018 -7.3
v 2 0.018 -8
vt 0 0
vt 0.7 0
vt 0.7 4
vt 0 4
vn 0 1 0
vn 0 1 0
vn 0 1 0
vn 0 1 0
f 21/21/21 22/22/22 23/23/23
f 21/21/21 23/23/23 24/24/24
v -2.5425 0.018 -7.65
v -2.5425 0.034 -7.65
v -2.4575 0.034 -7.65
v -2.4575 0.018 -7.65
vt 0 0
vt 0.016 0
vt 0.016 0.085
vt 0 0.085
vn 0 0 -1
vn 0 0 -1
vn 0 0 -1
vn 0 0 -1
f 25/25/25 26/26/26 27/27/27
f 25/25/25 27/27/27 28/28/28
v -2.5425 0.018 7.05
v -2.4575 0.018 7.05
v -2.4575 0.034 7.05
v -2.5425 0.034 7.05
vt 0 0
vt 0.085 0
vt 0.085 0.016
vt 0 0.016
vn 0 0 1
vn 0 0 1
vn 0 0 1
vn 0 0 1
f 29/29/29 30/30/30 31/31/31
f 29/29/29 31/31/31 32/32/32
v -2.5425 0.018 -7.65
v -2.5425 0.018 7.05
v -2.5425 0.034 7.05
v -2.5425 0.034 -7.65
vt 0 0
vt 14.7 0
vt 14.7 0.016
vt 0 0.016
vn -1 0 0
vn -1 0 0
vn -1 0 0
vn -1 0 0
f 33/33/33 34/34/34 35/35/35
f 33/33/33 35/35/35 36/36/36
v -2.4575 0.018 -7.65
v -2.4575 0.034 -7.65
v -2.4575 0.034 7.05
v -2.4575 0.018 7.05
vt 0 0
vt 0.016 0
vt 0.016 14.7
vt 0 14.7
vn 1 0 0
vn 1 0 0
vn 1 0 0
vn 1 0 0
f 37/37/37 38/38/38 39/39/39
f 37/37/37 39/39/39 40/40/40
v -2.5425 0.018 -7.65
v -2.4575 0.018 -7.65
v -2.4575 0.018 7.05
v -2.5425 0.018 7.05
vt 0 0
vt 0.085 0
vt 0.085 14.7
vt 0 14.7
vn 0 -1 0
vn 0 -1 0
vn 0 -1 0
vn 0 -1 0
f 41/41/41 42/42/42 43/43/43
f 41/41/41 43/43/43 44/44/44
v -2.5425 0.034 -7.65
v -2.5425 0.034 7.05
v -2.4575 0.034 7.05
v -2.4575 0.034 -7.65
vt 0 0
vt 14.7 0
vt 14.7 0.085
vt 0 0.085
vn 0 1 0
vn 0 1 0
vn 0 1 0
vn 0 1 0
f 45/45/45 46/46/46 47/47/47
f 45/45/45 47/47/47 48/48/48
v 2.4575 0.018 -7.65
v 2.4575 0.034 -7.65
v 2.5425 0.034 -7.65
v 2.5425 0.018 -7.65
vt 0 0
vt 0.016 0
vt 0.016 0.085
vt 0 0.085
vn 0 0 -1
vn 0 0 -1
vn 0 0 -1
vn 0 0 -1
f 49/49/49 50/50/50 51/51/51
f 49/49/49 51/51/51 52/52/52
v 2.4575 0.018 7.05
v 2.5425 0.018 7.05
v 2.5425 0.034 7.05
v 2.4575 0.034 7.05
vt 0 0
vt 0.085 0
vt 0.085 0.016
vt 0 0.016
vn 0 0 1
vn 0 0 1
vn 0 0 1
vn 0 0 1
f 53/53/53 54/54/54 55/55/55
f 53/53/53 55/55/55 56/56/56
v 2.4575 0.018 -7.65
v 2.4575 0.018 7.05
v 2.4575 0.034 7.05
v 2.4575 0.034 -7.65
vt 0 0
vt 14.7 0
vt 14.7 0.016
vt 0 0.016
vn -1 0 0
vn -1 0 0
vn -1 0 0
vn -1 0 0
f 57/57/57 58/58/58 59/59/59
f 57/57/57 59/59/59 60/60/60
v 2.5425 0.018 -7.65
v 2.5425 0.034 -7.65
v 2.5425 0.034 7.05
v 2.5425 0.018 7.05
vt 0 0
vt 0.016 0
vt 0.016 14.7
vt 0 14.7
vn 1 0 0
vn 1 0 0
vn 1 0 0
vn 1 0 0
f 61/61/61 62/62/62 63/63/63
f 61/61/61 63/63/63 64/64/64
v 2.4575 0.018 -7.65
v 2.5425 0.018 -7.65
v 2.5425 0.018 7.05
v 2.4575 0.018 7.05
vt 0 0
vt 0.085 0
vt 0.085 14.7
vt 0 14.7
vn 0 -1 0
vn 0 -1 0
vn 0 -1 0
vn 0 -1 0
f 65/65/65 66/66/66 67/67/67
f 65/65/65 67/67/67 68/68/68
v 2.4575 0.034 -7.65
v 2.4575 0.034 7.05
v 2.5425 0.034 7.05
v 2.5425 0.034 -7.65
vt 0 0
vt 14.7 0
vt 14.7 0.085
vt 0 0.085
vn 0 1 0
vn 0 1 0
vn 0 1 0
vn 0 1 0
f 69/69/69 70/70/70 71/71/71
f 69/69/69 71/71/71 72/72/72
v -2 0.025 -6.29
v -2 0.043 -6.29
v 2 0.043 -6.29
v 2 0.025 -6.29
vt 0 0
vt 0.018 0
vt 0.018 4
vt 0 4
vn 0 0 -1
vn 0 0 -1
vn 0 0 -1
vn 0 0 -1
f 73/73/73 74/74/74 75/75/75
f 73/73/73 75/75/75 76/76/76
v -2 0.025 -6.21
v 2 0.025 -6.21
v 2 0.043 -6.21
v -2 0.043 -6.21
vt 0 0
vt 4 0
vt 4 0.018
vt 0 0.018
vn 0 0 1
vn 0 0 1
vn 0 0 1
vn 0 0 1
f 77/77/77 78/78/78 79/79/79
f 77/77/77 79/79/79 80/80/80
v -2 0.025 -6.29
v -2 0.025 -6.21
v -2 0.043 -6.21
v -2 0.043 -6.29
vt 0 0
vt 0.08 0
vt 0.08 0.018
vt 0 0.018
vn -1 0 0
vn -1 0 0
vn -1 0 0
vn -1 0 0
f 81/81/81 82/82/82 83/83/83
f 81/81/81 83/83/83 84/84/84
v 2 0.025 -6.29
v 2 0.043 -6.29
v 2 0.043 -6.21
v 2 0.025 -6.21
vt 0 0
vt 0.018 0
vt 0.018 0.08
vt 0 0.08
vn 1 0 0
vn 1 0 0
vn 1 0 0
vn 1 0 0
f 85/85/85 86/86/86 87/87/87
f 85/85/85 87/87/87 88/88/88
v -2 0.025 -6.29
v 2 0.025 -6.29
v 2 0.025 -6.21
v -2 0.025 -6.21
vt 0 0
vt 4 0
vt 4 0.08
vt 0 0.08
vn 0 -1 0
vn 0 -1 0
vn 0 -1 0
vn 0 -1 0
f 89/89/89 90/90/90 91/91/91
f 89/89/89 91/91/91 92/92/92
v -2 0.043 -6.29
v -2 0.043 -6.21
v 2 0.043 -6.21
v 2 0.043 -6.29
vt 0 0
vt 0.08 0
vt 0.08 4
vt 0 4
vn 0 1 0
vn 0 1 0
vn 0 1 0
vn 0 1 0
f 93/93/93 94/94/94 95/95/95
f 93/93/93 95/95/95 96/96/96
v -2 0.025 -5.99
v -2 0.043 -5.99
v 2 0.043 -5.99
v 2 0.025 -5.99
vt 0 0
vt 0.018 0
vt 0.018 4
vt 0 4
vn 0 0 -1
vn 0 0 -1
vn 0 0 -1
vn 0 0 -1
f 97/97/97 98/98/98 99/99/99
f 97/97/97 99/99/99 100/100/100
v -2 0.025 -5.91
v 2 0.025 -5.91
v 2 0.043 -5.91
v -2 0.043 -5.91
vt 0 0
vt 4 0
vt 4 0.018
vt 0 0.018
vn 0 0 1
vn 0 0 1
vn 0 0 1
vn 0 0 1
f 101/101/101 102/102/102 103/103/103
f 101/101/101 103/103/103 104/104/104
v -2 0.025 -5.99
v -2 0.025 -5.91
v -2 0.043 -5.91
v -2 0.043 -5.99
vt 0 0
vt 0.08 0
vt 0.08 0.018
vt 0 0.018
vn -1 0 0
vn -1 0 0
vn -1 0 0
vn -1 0 0
f 105/105/105 106/106/106 107/107/107
f 105/105/105 107/107/107 108/108/108
v 2 0.025 -5.99
v 2 0.043 -5.99
v 2 0.043 -5.91
v 2 0.025 -5.91
vt 0 0
vt 0.018 0
vt 0.018 0.08
vt 0 0.08
vn 1 0 0
vn 1 0 0
vn 1 0 0
vn 1 0 0
f 109/109/109 110/110/110 111/111/111
f 109/109/109 111/111/111 112/112/112
v -2 0.025 -5.99
v 2 0.025 -5.99
v 2 0.025 -5.91
v -2 0.025 -5.91
vt 0 0
vt 4 0
vt 4 0.08
vt 0 0.08
vn 0 -1 0
vn 0 -1 0
vn 0 -1 0
vn 0 -1 0
f 113/113/113 114/114/114 115/115/115
f 113/113/113 115/115/115 116/116/116
v -2 0.043 -5.99
v -2 0.043 -5.91
v 2 0.043 -5.91
v 2 0.043 -5.99
vt 0 0
vt 0.08 0
vt 0.08 4
vt 0 4
vn 0 1 0
vn 0 1 0
vn 0 1 0
vn 0 1 0
f 117/117/117 118/118/118 119/119/119
f 117/117/117 119/119/119 120/120/120
v -4.1 0.99 1.67
v -4.1 1.31 1.67
v -4.02 1.31 1.67
v -4.02 0.99 1.67
vt 0 0
vt 0.32 0
vt 0.32 0.08
vt 0 0.08
vn 0 0 -1
vn 0 0 -1
vn 0 0 -1
vn 0 0 -1
f 121/121/121 122/122/122 123/123/123
f 121/121/121 123/123/123 124/124/124
v -4.1 0.99 1.73
v -4.02 0.99 1.73
v -4.02 1.31 1.73
v -4.1 1.31 1.73
vt 0 0
vt 0.08 0
vt 0.08 0.32
vt 0 0.32
vn 0 0 1
vn 0 0 1
vn 0 0 1
vn 0 0 1
f 125/125/125 126/126/126 127/127/127
f 125/125/125 127/127/127 128/128/128
v -4.1 0.99 1.67
v -4.1 0.99 1.73
v -4.1 1.31 1.73
v -4.1 1.31 1.67
vt 0 0
vt 0.06 0
vt 0.06 0.32
vt 0 0.32
vn -1 0 0
vn -1 0 0
vn -1 0 0
vn -1 0 0
f 129/129/129 130/130/130 131/131/131
f 129/129/129 131/131/131 132/132/132
v -4.02 0.99 1.67
v -4.02 1.31 1.67
v -4.02 1.31 1.73
v -4.02 0.99 1.73
vt 0 0
vt 0.32 0
vt 0.32 0.06
vt 0 0.06
vn 1 0 0
vn 1 0 0
vn 1 0 0
vn 1 0 0
f 133/133/133 134/134/134 135/135/135
f 133/133/133 135/135/135 136/136/136
v -4.1 0.99 1.67
v -4.02 0.99 1.67
v -4.02 0.99 1.73
v -4.1 0.99 1.73
vt 0 0
vt 0.08 0
vt 0.08 0.06
vt 0 0.06
vn 0 -1 0
vn 0 -1 0
vn 0 -1 0
vn 0 -1 0
f 137/137/137 138/138/138 139/139/139
f 137/137/137 139/139/139 140/140/140
v -4.1 1.31 1.67
v -4.1 1.31 1.73
v -4.02 1.31 1.73
v -4.02 1.31 1.67
vt 0 0
vt 0.06 0
vt 0.06 0.08
vt 0 0.08
vn 0 1 0
vn 0 1 0
vn 0 1 0
vn 0 1 0
f 141/141/141 142/142/142 143/143/143
f 141/141/141 143/143/143 144/144/144
v -4.1 0.99 3.12
v -4.1 1.31 3.12
v -4.02 1.31 3.12
v -4.02 0.99 3.12
vt 0 0
vt 0.32 0
vt 0.32 0.08
vt 0 0.08
vn 0 0 -1
vn 0 0 -1
vn 0 0 -1
vn 0 0 -1
f 145/145/145 146/146/146 147/147/147
f 145/145/145 147/147/147 148/148/148
v -4.1 0.99 3.18
v -4.02 0.99 3.18
v -4.02 1.31 3.18
v -4.1 1.31 3.18
vt 0 0
vt 0.08 0
vt 0.08 0.32
vt 0 0.32
vn 0 0 1
vn 0 0 1
vn 0 0 1
vn 0 0 1
f 149/149/149 150/150/150 151/151/151
f 149/149/149 151/151/151 152/152/152
v -4.1 0.99 3.12
v -4.1 0.99 3.18
v -4.1 1.31 3.18
v -4.1 1.31 3.12
vt 0 0
vt 0.06 0
vt 0.06 0.32
vt 0 0.32
vn -1 0 0
vn -1 0 0
vn -1 0 0
vn -1 0 0
f 153/153/153 154/154/154 155/155/155
f 153/153/153 155/155/155 156/156/156
v -4.02 0.99 3.12
v -4.02 1.31 3.12
v -4.02 1.31 3.18
v -4.02 0.99 3.18
vt 0 0
vt 0.32 0
vt 0.32 0.06
vt 0 0.06
vn 1 0 0
vn 1 0 0
vn 1 0 0
vn 1 0 0
f 157/157/157 158/158/158 159/159/159
f 157/157/157 159/159/159 160/160/160
v -4.1 0.99 3.12
v -4.02 0.99 3.12
v -4.02 0.99 3.18
v -4.1 0.99 3.18
vt 0 0
vt 0.08 0
vt 0.08 0.06
vt 0 0.06
vn 0 -1 0
vn 0 -1 0
vn 0 -1 0
vn 0 -1 0
f 161/161/161 162/162/162 163/163/163
f 161/161/161 163/163/163 164/164/164
v -4.1 1.31 3.12
v -4.1 1.31 3.18
v -4.02 1.31 3.18
v -4.02 1.31 3.12
vt 0 0
vt 0.06 0
vt 0.06 0.08
vt 0 0.08
vn 0 1 0
vn 0 1 0
vn 0 1 0
vn 0 1 0
f 165/165/165 166/166/166 167/167/167
f 165/165/165 167/167/167 168/168/168
v -4.1 0.99 4.57
v -4.1 1.31 4.57
v -4.02 1.31 4.57
v -4.02 0.99 4.57
vt 0 0
vt 0.32 0
vt 0.32 0.08
vt 0 0.08
vn 0 0 -1
vn 0 0 -1
vn 0 0 -1
vn 0 0 -1
f 169/169/169 170/170/170 171/171/171
f 169/169/169 171/171/171 172/172/172
v -4.1 0.99 4.63
v -4.02 0.99 4.63
v -4.02 1.31 4.63
v -4.1 1.31 4.63
vt 0 0
vt 0.08 0
vt 0.08 0.32
vt 0 0.32
vn 0 0 1
vn 0 0 1
vn 0 0 1
vn 0 0 1
f 173/173/173 174/174/174 175/175/175
f 173/173/173 175/175/175 176/176/176
v -4.1 0.99 4.57
v -4.1 0.99 4.63
v -4.1 1.31 4.63
v -4.1 1.31 4.57
vt 0 0
vt 0.06 0
vt 0.06 0.32
vt 0 0.32
vn -1 0 0
vn -1 0 0
vn -1 0 0
vn -1 0 0
f 177/177/177 178/178/178 179/179/179
f 177/177/177 179/179/179 180/180/180
v -4.02 0.99 4.57
v -4.02 1.31 4.57
v -4.02 1.31 4.63
v -4.02 0.99 4.63
vt 0 0
vt 0.32 0
vt 0.32 0.06
vt 0 0.06
vn 1 0 0
vn 1 0 0
vn 1 0 0
vn 1 0 0
f 181/181/181 182/182/182 183/183/183
f 181/181/181 183/183/183 184/184/184
v -4.1 0.99 4.57
v -4.02 0.99 4.57
v -4.02 0.99 4.63
v -4.1 0.99 4.63
vt 0 0
vt 0.08 0
vt 0.08 0.06
vt 0 0.06
vn 0 -1 0
vn 0 -1 0
vn 0 -1 0
vn 0 -1 0
f 185/185/185 186/186/186 187/187/187
f 185/185/185 187/187/187 188/188/188
v -4.1 1.31 4.57
v -4.1 1.31 4.63
v -4.02 1.31 4.63
v -4.02 1.31 4.57
vt 0 0
vt 0.06 0
vt 0.06 0.08
vt 0 0.08
vn 0 1 0
vn 0 1 0
vn 0 1 0
vn 0 1 0
f 189/189/189 190/190/190 191/191/191
f 189/189/189 191/191/191 192/192/192
v -4.35 0.655 -3.1
v -4.374472 0.655 -2.945492
v -4.445492 0.655 -2.806107
v -4.556107 0.655 -2.695492
v -4.695492 0.655 -2.624472
v -4.85 0.655 -2.6
v -5.004508 0.655 -2.624472
v -5.143893 0.655 -2.695492
v -5.254508 0.655 -2.806107
v -5.325528 0.655 -2.945492
v -5.35 0.655 -3.1
v -5.325528 0.655 -3.254508
v -5.254508 0.655 -3.393893
v -5.143893 0.655 -3.504508
v -5.004508 0.655 -3.575528
v -4.85 0.655 -3.6
v -4.695492 0.655 -3.575528
v -4.556107 0.655 -3.504508
v -4.445492 0.655 -3.393893
v -4.374472 0.655 -3.254508
vt 0 0
vt 0.156434 0
vt 0.305212 0.048341
vt 0.431771 0.140291
vt 0.52372 0.266849
vt 0.572061 0.415627
vt 0.572061 0.572061
vt 0.52372 0.720839
vt 0.431771 0.847398
vt 0.305212 0.939347
vt 0.156434 0.987688
vt 0 0.987688
vt -0.148778 0.939347
vt -0.275336 0.847398
vt -0.367286 0.720839
vt -0.415627 0.572061
vt -0.415627 0.415627
vt -0.367286 0.266849
vt -0.275336 0.140291
vt -0.148778 0.048341
vn 0 -1 0
vn 0 -1 0
vn 0 -1 0
vn 0 -1 0
vn 0 -1 0
vn 0 -1 0
vn 0 -1 0
vn 0 -1 0
vn 0 -1 0
vn 0 -1 0
vn 0 -1 0
vn 0 -1 0
vn 0 -1 0
vn 0 -1 0
vn 0 -1 0
vn 0 -1 0
vn 0 -1 0
vn 0 -1 0
vn 0 -1 0
vn 0 -1 0
f 193/193/193 194/194/194 195/195/195
f 193/193/193 195/195/195 196/196/196
f 193/193/193 196/196/196 197/197/197
f 193/193/193 197/197/197 198/198/198
f 193/193/193 198/198/198 199/199/199
f 193/193/193 199/199/199 200/200/200
f 193/193/193 200/200/200 201/201/201
f 193/193/193 201/201/201 202/202/202
f 193/193/193 202/202/202 203/203/203
f 193/193/193 203/203/203 204/204/204
f 193/193/193 204/204/204 205/205/205
f 193/193/193 205/205/205 206/206/206
f 193/193/193 206/206/206 207/207/207
f 193/193/193 207/207/207 208/208/208
f 193/193/193 208/208/208 209/209/209
f 193/193/193 209/209/209 210/210/210
f 193/193/193 210/210/210 211/211/211
f 193/193/193 211/211/211 212/212/212
v -4.374472 0.745 -3.254508
v -4.445492 0.745 -3.393893
v -4.556107 0.745 -3.504508
v -4.695492 0.745 -3.575528
v -4.85 0.745 -3.6
v -5.004508 0.745 -3.575528
v -5.143893 0.745 -3.504508
v -5.254508 0.745 -3.393893
v -5.325528 0.745 -3.254508
v -5.35 0.745 -3.1
v -5.325528 0.745 -2.945492
v -5.254508 0.745 -2.806107
v -5.143893 0.745 -2.695492
v -5.004508 0.745 -2.624472
v -4.85 0.745 -2.6
v -4.695492 0.745 -2.624472
v -4.556107 0.745 -2.695492
v -4.445492 0.745 -2.806107
v -4.374472 0.745 -2.945492
v -4.35 0.745 -3.1
vt 0 0
vt 0.156434 0
vt 0.305212 0.048341
vt 0.431771 0.140291
vt 0.52372 0.266849
vt 0.572061 0.415627
vt 0.572061 0.572061
vt 0.52372 0.720839
vt 0.431771 0.847398
vt 0.305212 0.939347
vt 0.156434 0.987688
vt 0 0.987688
vt -0.148778 0.939347
vt -0.275336 0.847398
vt -0.367286 0.720839
vt -0.415627 0.572061
vt -0.415627 0.415627
vt -0.367286 0.266849
vt -0.275336 0.140291
vt -0.148778 0.048341
vn 0 1 0
vn 0 1 0
vn 0 1 0
vn 0 1 0
vn 0 1 0
vn 0 1 0
vn 0 1 0
vn 0 1 0
vn 0 1 0
vn 0 1 0
vn 0 1 0
vn 0 1 0
vn 0 1 0
vn 0 1 0
vn 0 1 0
vn 0 1 0
vn 0 1 0
vn 0 1 0
vn 0 1 0
vn 0 1 0
f 213/213/213 214/214/214 215/215/215
f 213/213/213 215/215/215 216/216/216
f 213/213/213 216/216/216 217/217/217
f 213/213/213 217/217/217 218/218/218
f 213/213/213 218/218/218 219/219/219
f 213/213/213 219/219/219 220/220/220
f 213/213/213 220/220/220 221/221/221
f 213/213/213 221/221/221 222/222/222
f 213/213/213 222/222/222 223/223/223
f 213/213/213 223/223/223 224/224/224
f 213/213/213 224/224/224 225/225/225
f 213/213/213 225/225/225 226/226/226
f 213/213/213 226/226/226 227/227/227
f 213/213/213 227/227/227 228/228/228
f 213/213/213 228/228/228 229/229/229
f 213/213/213 229/229/229 230/230/230
f 213/213/213 230/230/230 231/231/231
f 213/213/213 231/231/231 232/232/232
v -4.35 0.655 -3.1
v -4.35 0.745 -3.1
v -4.374472 0.745 -2.945492
v -4.374472 0.655 -2.945492
vt 0 0
vt 0.09 0
vt 0.09 0.156434
vt 0 0.156434
vn 0.987688 0 0.156434
vn 0.987688 0 0.156434
vn 0.987688 0 0.156434
vn 0.987688 0 0.156434
f 233/233/233 234/234/234 235/235/235
f 233/233/233 235/235/235 236/236/236
v -4.374472 0.655 -2.945492
v -4.374472 0.745 -2.945492
v -4.445492 0.745 -2.806107
v -4.445492 0.655 -2.806107
vt 0 0
vt 0.09 0
vt 0.09 0.156434
vt 0 0.156434
vn 0.891007 0 0.45399
vn 0.891007 0 0.45399
vn 0.891007 0 0.45399
vn 0.891007 0 0.45399
f 237/237/237 238/238/238 239/239/239
f 237/237/237 239/239/239 240/240/240
v -4.445492 0.655 -2.806107
v -4.445492 0.745 -2.806107
v -4.556107 0.745 -2.695492
v -4.556107 0.655 -2.695492
vt 0 0
vt 0.09 0
vt 0.09 0.156434
vt 0 0.156434
vn 0.707107 0 0.707107
vn 0.707107 0 0.707107
vn 0.707107 0 0.707107
vn 0.707107 0 0.707107
f 241/241/241 242/242/242 243/243/243
f 241/241/241 243/243/243 244/244/244
v -4.556107 0.655 -2.695492
v -4.556107 0.745 -2.695492
v -4.695492 0.745 -2.624472
v -4.695492 0.655 -2.624472
vt 0 0
vt 0.09 0
vt 0.09 0.156434
vt 0 0.156434
vn 0.45399 0 0.891007
vn 0.45399 0 0.891007
vn 0.45399 0 0.891007
vn 0.45399 0 0.891007
f 245/245/245 246/246/246 247/247/247
f 245/245/245 247/247/247 248/248/248
v -4.695492 0.655 -2.624472
v -4.695492 0.745 -2.624472
v -4.85 0.745 -2.6
v -4.85 0.655 -2.6
vt 0 0
vt 0.09 0
vt 0.09 0.156434
vt 0 0.156434
vn 0.156434 0 0.987688
vn 0.156434 0 0.987688
vn 0.156434 0 0.987688
vn 0.156434 0 0.987688
f 249/249/249 250/250/250 251/251/251
f 249/249/249 251/251/251 252/252/252
v -4.85 0.655 -2.6
v -4.85 0.745 -2.6
v -5.004508 0.745 -2.624472
v -5.004508 0.655 -2.624472
vt 0 0
vt 0.09 0
vt 0.09 0.156434
vt 0 0.156434
vn -0.156434 0 0.987688
vn -0.156434 0 0.987688
vn -0.156434 0 0.987688
vn -0.156434 0 0.987688
f 253/253/253 254/254/254 255/255/255
f 253/253/253 255/255/255 256/256/256
v -5.004508 0.655 -2.624472
v -5.004508 0.745 -2.624472
v -5.143893 0.745 -2.695492
v -5.143893 0.655 -2.695492
vt 0 0
vt 0.09 0
vt 0.09 0.156434
vt 0 0.156434
vn -0.45399 0 0.891007
vn -0.45399 0 0.891007
vn -0.45399 0 0.891007
vn -0.45399 0 0.891007
f 257/257/257 258/258/258 259/259/259
f 257/257/257 259/259/259 260/260/260
v -5.143893 0.655 -2.695492
v -5.143893 0.745 -2.695492
v -5.254508 0.745 -2.806107
v -5.254508 0.655 -2.806107
vt 0 0
vt 0.09 0
vt 0.09 0.156434
vt 0 0.156434
vn -0.707107 0 0.707107
vn -0.707107 0 0.707107
vn -0.707107 0 0.707107
vn -0.707107 0 0.707107
f 261/261/261 262/262/262 263/263/263
f 261/261/261 263/263/263 264/264/264
v -5.254508 0.655 -2.806107
v -5.254508 0.745 -2.806107
v -5.325528 0.745 -2.945492
v -5.325528 0.655 -2.945492
vt 0 0
vt 0.09 0
vt 0.09 0.156434
vt 0 0.156434
vn -0.891007 0 0.45399
vn -0.891007 0 0.45399
vn -0.891007 0 0.45399
vn -0.891007 0 0.45399
f 265/265/265 266/266/266 267/267/267
f 265/265/265 267/267/267 268/268/268
v -5.325528 0.655 -2.945492
v -5.325528 0.745 -2.945492
v -5.35 0.745 -3.1
v -5.35 0.655 -3.1
vt 0 0
vt 0.09 0
vt 0.09 0.156434
vt 0 0.156434
vn -0.987688 0 0.156434
vn -0.987688 0 0.156434
vn -0.987688 0 0.156434
vn -0.987688 0 0.156434
f 269/269/269 270/270/270 271/271/271
f 269/269/269 271/271/271 272/272/272
v -5.35 0.655 -3.1
v -5.35 0.745 -3.1
v -5.325528 0.745 -3.254508
v -5.325528 0.655 -3.254508
vt 0 0
vt 0.09 0
vt 0.09 0.156434
vt 0 0.156434
vn -0.987688 0 -0.156434
vn -0.987688 0 -0.156434
vn -0.987688 0 -0.156434
vn -0.987688 0 -0.156434
f 273/273/273 274/274/274 275/275/275
f 273/273/273 275/275/275 276/276/276
v -5.325528 0.655 -3.254508
v -5.325528 0.745 -3.254508
v -5.254508 0.745 -3.393893
v -5.254508 0.655 -3.393893
vt 0 0
vt 0.09 0
vt 0.09 0.156434
vt 0 0.156434
vn -0.891007 0 -0.45399
vn -0.891007 0 -0.45399
vn -0.891007 0 -0.45399
vn -0.891007 0 -0.45399
f 277/277/277 278/278/278 279/279/279
f 277/277/277 279/279/279 280/280/280
v -5.254508 0.655 -3.393893
v -5.254508 0.745 -3.393893
v -5.143893 0.745 -3.504508
v -5.143893 0.655 -3.504508
vt 0 0
vt 0.09 0
vt 0.09 0.156434
vt 0 0.156434
vn -0.707107 0 -0.707107
vn -0.707107 0 -0.707107
vn -0.707107 0 -0.707107
vn -0.707107 0 -0.707107
f 281/281/281 282/282/282 283/283/283
f 281/281/281 283/283/283 284/284/284
v -5.143893 0.655 -3.504508
v -5.143893 0.745 -3.504508
v -5.004508 0.745 -3.575528
v -5.004508 0.655 -3.575528
vt 0 0
vt 0.09 0
vt 0.09 0.156434
vt 0 0.156434
vn -0.45399 0 -0.891007
vn -0.45399 0 -0.891007
vn -0.45399 0 -0.891007
vn -0.45399 0 -0.891007
f 285/285/285 286/286/286 287/287/287
f 285/285/285 287/287/287 288/288/288
v -5.004508 0.655 -3.575528
v -5.004508 0.745 -3.575528
v -4.85 0.745 -3.6
v -4.85 0.655 -3.6
vt 0 0
vt 0.09 0
vt 0.09 0.156434
vt 0 0.156434
vn -0.156434 0 -0.987688
vn -0.156434 0 -0.987688
vn -0.156434 0 -0.987688
vn -0.156434 0 -0.987688
f 289/289/289 290/290/290 291/291/291
f 289/289/289 291/291/291 292/292/292
v -4.85 0.655 -3.6
v -4.85 0.745 -3.6
v -4.695492 0.745 -3.575528
v -4.695492 0.655 -3.575528
vt 0 0
vt 0.09 0
vt 0.09 0.156434
vt 0 0.156434
vn 0.156434 0 -0.987688
vn 0.156434 0 -0.987688
vn 0.156434 0 -0.987688
vn 0.156434 0 -0.987688
f 293/293/293 294/294/294 295/295/295
f 293/293/293 295/295/295 296/296/296
v -4.695492 0.655 -3.575528
v -4.695492 0.745 -3.575528
v -4.556107 0.745 -3.504508
v -4.556107 0.655 -3.504508
vt 0 0
vt 0.09 0
vt 0.09 0.156434
vt 0 0.156434
vn 0.45399 0 -0.891007
vn 0.45399 0 -0.891007
vn 0.45399 0 -0.891007
vn 0.45399 0 -0.891007
f 297/297/297 298/298/298 299/299/299
f 297/297/297 299/299/299 300/300/300
v -4.556107 0.655 -3.504508
v -4.556107 0.745 -3.504508
v -4.445492 0.745 -3.393893
v -4.445492 0.655 -3.393893
vt 0 0
vt 0.09 0
vt 0.09 0.156434
vt 0 0.156434
vn 0.707107 0 -0.707107
vn 0.707107 0 -0.707107
vn 0.707107 0 -0.707107
vn 0.707107 0 -0.707107
f 301/301/301 302/302/302 303/303/303
f 301/301/301 303/303/303 304/304/304
v -4.445492 0.655 -3.393893
v -4.445492 0.745 -3.393893
v -4.374472 0.745 -3.254508
v -4.374472 0.655 -3.254508
vt 0 0
vt 0.09 0
vt 0.09 0.156434
vt 0 0.156434
vn 0.891007 0 -0.45399
vn 0.891007 0 -0.45399
vn 0.891007 0 -0.45399
vn 0.891007 0 -0.45399
f 305/305/305 306/306/306 307/307/307
f 305/305/305 307/307/307 308/308/308
v -4.374472 0.655 -3.254508
v -4.374472 0.745 -3.254508
v -4.35 0.745 -3.1
v -4.35 0.655 -3.1
vt 0 0
vt 0.09 0
vt 0.09 0.156434
vt 0 0.156434
vn 0.987688 0 -0.156434
vn 0.987688 0 -0.156434
vn 0.987688 0 -0.156434
vn 0.987688 0 -0.156434
f 309/309/309 310/310/310 311/311/311
f 309/309/309 311/311/311 312/312/312
v -4.35 2.655 -3.1
v -4.374472 2.655 -2.945492
v -4.445492 2.655 -2.806107
v -4.556107 2.655 -2.695492
v -4.695492 2.655 -2.624472
v -4.85 2.655 -2.6
v -5.004508 2.655 -2.624472
v -5.143893 2.655 -2.695492
v -5.254508 2.655 -2.806107
v -5.325528 2.655 -2.945492
v -5.35 2.655 -3.1
v -5.325528 2.655 -3.254508
v -5.254508 2.655 -3.393893
v -5.143893 2.655 -3.504508
v -5.004508 2.655 -3.575528
v -4.85 2.655 -3.6
v -4.695492 2.655 -3.575528
v -4.556107 2.655 -3.504508
v -4.445492 2.655 -3.393893
v -4.374472 2.655 -3.254508
vt 0 0
vt 0.156434 0
vt 0.305212 0.048341
vt 0.431771 0.140291
vt 0.52372 0.266849
vt 0.572061 0.415627
vt 0.572061 0.572061
vt 0.52372 0.720839
vt 0.431771 0.847398
vt 0.305212 0.939347
vt 0.156434 0.987688
vt 0 0.987688
vt -0.148778 0.939347
vt -0.275336 0.847398
vt -0.367286 0.720839
vt -0.415627 0.572061
vt -0.415627 0.415627
vt -0.367286 0.266849
vt -0.275336 0.140291
vt -0.148778 0.048341
vn 0 -1 0
vn 0 -1 0
vn 0 -1 0
vn 0 -1 0
vn 0 -1 0
vn 0 -1 0
vn 0 -1 0
vn 0 -1 0
vn 0 -1 0
vn 0 -1 0
vn 0 -1 0
vn 0 -1 0
vn 0 -1 0
vn 0 -1 0
vn 0 -1 0
vn 0 -1 0
vn 0 -1 0
vn 0 -1 0
vn 0 -1 0
vn 0 -1 0
f 313/313/313 314/314/314 315/315/315
f 313/313/313 315/315/315 316/316/316
f 313/313/313 316/316/316 317/317/317
f 313/313/313 317/317/317 318/318/318
f 313/313/313 318/318/318 319/319/319
f 313/313/313 319/319/319 320/320/320
f 313/313/313 320/320/320 321/321/321
f 313/313/313 321/321/321 322/322/322
f 313/313/313 322/322/322 323/323/323
f 313/313/313 323/323/323 324/324/324
f 313/313/313 324/324/324 325/325/325
f 313/313/313 325/325/325 326/326/326
f 313/313/313 326/326/326 327/327/327
f 313/313/313 327/327/327 328/328/328
f 313/313/313 328/328/328 329/329/329
f 313/313/313 329/329/329 330/330/330
f 313/313/313 330/330/330 331/331/331
f 313/313/313 331/331/331 332/332/332
v -4.374472 2.745 -3.254508
v -4.445492 2.745 -3.393893
v -4.556107 2.745 -3.504508
v -4.695492 2.745 -3.575528
v -4.85 2.745 -3.6
v -5.004508 2.745 -3.575528
v -5.143893 2.745 -3.504508
v -5.254508 2.745 -3.393893
v -5.325528 2.745 -3.254508
v -5.35 2.745 -3.1
v -5.325528 2.745 -2.945492
v -5.254508 2.745 -2.806107
v -5.143893 2.745 -2.695492
v -5.004508 2.745 -2.624472
v -4.85 2.745 -2.6
v -4.695492 2.745 -2.624472
v -4.556107 2.745 -2.695492
v -4.445492 2.745 -2.806107
v -4.374472 2.745 -2.945492
v -4.35 2.745 -3.1
vt 0 0
vt 0.156434 0
vt 0.305212 0.048341
vt 0.431771 0.140291
vt 0.52372 0.266849
vt 0.572061 0.415627
vt 0.572061 0.572061
vt 0.52372 0.720839
vt 0.431771 0.847398
vt 0.305212 0.939347
vt 0.156434 0.987688
vt 0 0.987688
vt -0.148778 0.939347
vt -0.275336 0.847398
vt -0.367286 0.720839
vt -0.415627 0.572061
vt -0.415627 0.415627
vt -0.367286 0.266849
vt -0.275336 0.140291
vt -0.148778 0.048341
vn 0 1 0
vn 0 1 0
vn 0 1 0
vn 0 1 0
vn 0 1 0
vn 0 1 0
vn 0 1 0
vn 0 1 0
vn 0 1 0
vn 0 1 0
vn 0 1 0
vn 0 1 0
vn 0 1 0
vn 0 1 0
vn 0 1 0
vn 0 1 0
vn 0 1 0
vn 0 1 0
vn 0 1 0
vn 0 1 0
f 333/333/333 334/334/334 335/335/335
f 333/333/333 335/335/335 336/336/336
f 333/333/333 336/336/336 337/337/337
f 333/333/333 337/337/337 338/338/338
f 333/333/333 338/338/338 339/339/339
f 333/333/333 339/339/339 340/340/340
f 333/333/333 340/340/340 341/341/341
f 333/333/333 341/341/341 342/342/342
f 333/333/333 342/342/342 343/343/343
f 333/333/333 343/343/343 344/344/344
f 333/333/333 344/344/344 345/345/345
f 333/333/333 345/345/345 346/346/346
f 333/333/333 346/346/346 347/347/347
f 333/333/333 347/347/347 348/348/348
f 333/333/333 348/348/348 349/349/349
f 333/333/333 349/349/349 350/350/350
f 333/333/333 350/350/350 351/351/351
f 333/333/333 351/351/351 352/352/352
v -4.35 2.655 -3.1
v -4.35 2.745 -3.1
v -4.374472 2.745 -2.945492
v -4.374472 2.655 -2.945492
vt 0 0
vt 0.09 0
vt 0.09 0.156434
vt 0 0.156434
vn 0.987688 0 0.156434
vn 0.987688 0 0.156434
vn 0.987688 0 0.156434
vn 0.987688 0 0.156434
f 353/353/353 354/354/354 355/355/355
f 353/353/353 355/355/355 356/356/356
v -4.374472 2.655 -2.945492
v -4.374472 2.745 -2.945492
v -4.445492 2.745 -2.806107
v -4.445492 2.655 -2.806107
vt 0 0
vt 0.09 0
vt 0.09 0.156434
vt 0 0.156434
vn 0.891007 0 0.45399
vn 0.891007 0 0.45399
vn 0.891007 0 0.45399
vn 0.891007 0 0.45399
f 357/357/357 358/358/358 359/359/359
f 357/357/357 359/359/359 360/360/360
v -4.445492 2.655 -2.806107
v -4.445492 2.745 -2.806107
v -4.556107 2.745 -2.695492
v -4.556107 2.655 -2.695492
vt 0 0
vt 0.09 0
vt 0.09 0.156434
vt 0 0.156434
vn 0.707107 0 0.707107
vn 0.707107 0 0.707107
vn 0.707107 0 0.707107
vn 0.707107 0 0.707107
f 361/361/361 362/362/362 363/363/363
f 361/361/361 363/363/363 364/364/364
v -4.556107 2.655 -2.695492
v -4.556107 2.745 -2.695492
v -4.695492 2.745 -2.624472
v -4.695492 2.655 -2.624472
vt 0 0
vt 0.09 0
vt 0.09 0.156434
vt 0 0.156434
vn 0.45399 0 0.891007
vn 0.45399 0 0.891007
vn 0.45399 0 0.891007
vn 0.45399 0 0.891007
f 365/365/365 366/366/366 367/367/367
f 365/365/365 367/367/367 368/368/368
v -4.695492 2.655 -2.624472
v -4.695492 2.745 -2.624472
v -4.85 2.745 -2.6
v -4.85 2.655 -2.6
vt 0 0
vt 0.09 0
vt 0.09 0.156434
vt 0 0.156434
vn 0.156434 0 0.987688
vn 0.156434 0 0.987688
vn 0.156434 0 0.987688
vn 0.156434 0 0.987688
f 369/369/369 370/370/370 371/371/371
f 369/369/369 371/371/371 372/372/372
v -4.85 2.655 -2.6
v -4.85 2.745 -2.6
v -5.004508 2.745 -2.624472
v -5.004508 2.655 -2.624472
vt 0 0
vt 0.09 0
vt 0.09 0.156434
vt 0 0.156434
vn -0.156434 0 0.987688
vn -0.156434 0 0.987688
vn -0.156434 0 0.987688
vn -0.156434 0 0.987688
f 373/373/373 374/374/374 375/375/375
f 373/373/373 375/375/375 376/376/376
v -5.004508 2.655 -2.624472
v -5.004508 2.745 -2.624472
v -5.143893 2.745 -2.695492
v -5.143893 2.655 -2.695492
vt 0 0
vt 0.09 0
vt 0.09 0.156434
vt 0 0.156434
vn -0.45399 0 0.891007
vn -0.45399 0 0.891007
vn -0.45399 0 0.891007
vn -0.45399 0 0.891007
f 377/377/377 378/378/378 379/379/379
f 377/377/377 379/379/379 380/380/380
v -5.143893 2.655 -2.695492
v -5.143893 2.745 -2.695492
v -5.254508 2.745 -2.806107
v -5.254508 2.655 -2.806107
vt 0 0
vt 0.09 0
vt 0.09 0.156434
vt 0 0.156434
vn -0.707107 0 0.707107
vn -0.707107 0 0.707107
vn -0.707107 0 0.707107
vn -0.707107 0 0.707107
f 381/381/381 382/382/382 383/383/383
f 381/381/381 383/383/383 384/384/384
v -5.254508 2.655 -2.806107
v -5.254508 2.745 -2.806107
v -5.325528 2.745 -2.945492
v -5.325528 2.655 -2.945492
vt 0 0
vt 0.09 0
vt 0.09 0.156434
vt 0 0.156434
vn -0.891007 0 0.45399
vn -0.891007 0 0.45399
vn -0.891007 0 0.45399
vn -0.891007 0 0.45399
f 385/385/385 386/386/386 387/387/387
f 385/385/385 387/387/387 388/388/388
v -5.325528 2.655 -2.945492
v -5.325528 2.745 -2.945492
v -5.35 2.745 -3.1
v -5.35 2.655 -3.1
vt 0 0
vt 0.09 0
vt 0.09 0.156434
vt 0 0.156434
vn -0.987688 0 0.156434
vn -0.987688 0 0.156434
vn -0.987688 0 0.156434
vn -0.987688 0 0.156434
f 389/389/389 390/390/390 391/391/391
f 389/389/389 391/391/391 392/392/392
v -5.35 2.655 -3.1
v -5.35 2.745 -3.1
v -5.325528 2.745 -3.254508
v -5.325528 2.655 -3.254508
vt 0 0
vt 0.09 0
vt 0.09 0.156434
vt 0 0.156434
vn -0.987688 0 -0.156434
vn -0.987688 0 -0.156434
vn -0.987688 0 -0.156434
vn -0.987688 0 -0.156434
f 393/393/393 394/394/394 395/395/395
f 393/393/393 395/395/395 396/396/396
v -5.325528 2.655 -3.254508
v -5.325528 2.745 -3.254508
v -5.254508 2.745 -3.393893
v -5.254508 2.655 -3.393893
vt 0 0
vt 0.09 0
vt 0.09 0.156434
vt 0 0.156434
vn -0.891007 0 -0.45399
vn -0.891007 0 -0.45399
vn -0.891007 0 -0.45399
vn -0.891007 0 -0.45399
f 397/397/397 398/398/398 399/399/399
f 397/397/397 399/399/399 400/400/400
v -5.254508 2.655 -3.393893
v -5.254508 2.745 -3.393893
v -5.143893 2.745 -3.504508
v -5.143893 2.655 -3.504508
vt 0 0
vt 0.09 0
vt 0.09 0.156434
vt 0 0.156434
vn -0.707107 0 -0.707107
vn -0.707107 0 -0.707107
vn -0.707107 0 -0.707107
vn -0.707107 0 -0.707107
f 401/401/401 402/402/402 403/403/403
f 401/401/401 403/403/403 404/404/404
v -5.143893 2.655 -3.504508
v -5.143893 2.745 -3.504508
v -5.004508 2.745 -3.575528
v -5.004508 2.655 -3.575528
vt 0 0
vt 0.09 0
vt 0.09 0.156434
vt 0 0.156434
vn -0.45399 0 -0.891007
vn -0.45399 0 -0.891007
vn -0.45399 0 -0.891007
vn -0.45399 0 -0.891007
f 405/405/405 406/406/406 407/407/407
f 405/405/405 407/407/407 408/408/408
v -5.004508 2.655 -3.575528
v -5.004508 2.745 -3.575528
v -4.85 2.745 -3.6
v -4.85 2.655 -3.6
vt 0 0
vt 0.09 0
vt 0.09 0.156434
vt 0 0.156434
vn -0.156434 0 -0.987688
vn -0.156434 0 -0.987688
vn -0.156434 0 -0.987688
vn -0.156434 0 -0.987688
f 409/409/409 410/410/410 411/411/411
f 409/409/409 411/411/411 412/412/412
v -4.85 2.655 -3.6
v -4.85 2.745 -3.6
v -4.695492 2.745 -3.575528
v -4.695492 2.655 -3.575528
vt 0 0
vt 0.09 0
vt 0.09 0.156434
vt 0 0.156434
vn 0.156434 0 -0.987688
vn 0.156434 0 -0.987688
vn 0.156434 0 -0.987688
vn 0.156434 0 -0.987688
f 413/413/413 414/414/414 415/415/415
f 413/413/413 415/415/415 416/416/416
v -4.695492 2.655 -3.575528
v -4.695492 2.745 -3.575528
v -4.556107 2.745 -3.504508
v -4.556107 2.655 -3.504508
vt 0 0
vt 0.09 0
vt 0.09 0.156434
vt 0 0.156434
vn 0.45399 0 -0.891007
vn 0.45399 0 -0.891007
vn 0.45399 0 -0.891007
vn 0.45399 0 -0.891007
f 417/417/417 418/418/418 419/419/419
f 417/417/417 419/419/419 420/420/420
v -4.556107 2.655 -3.504508
v -4.556107 2.745 -3.504508
v -4.445492 2.745 -3.393893
v -4.445492 2.655 -3.393893
vt 0 0
vt 0.09 0
vt 0.09 0.156434
vt 0 0.156434
vn 0.707107 0 -0.707107
vn 0.707107 0 -0.707107
vn 0.707107 0 -0.707107
vn 0.707107 0 -0.707107
f 421/421/421 422/422/422 423/423/423
f 421/421/421 423/423/423 424/424/424
v -4.445492 2.655 -3.393893
v -4.445492 2.745 -3.393893
v -4.374472 2.745 -3.254508
v -4.374472 2.655 -3.254508
vt 0 0
vt 0.09 0
vt 0.09 0.156434
vt 0 0.156434
vn 0.891007 0 -0.45399
vn 0.891007 0 -0.45399
vn 0.891007 0 -0.45399
vn 0.891007 0 -0.45399
f 425/425/425 426/426/426 427/427/427
f 425/425/425 427/427/427 428/428/428
v -4.374472 2.655 -3.254508
v -4.374472 2.745 -3.254508
v -4.35 2.745 -3.1
v -4.35 2.655 -3.1
vt 0 0
vt 0.09 0
vt 0.09 0.156434
vt 0 0.156434
vn 0.987688 0 -0.156434
vn 0.987688 0 -0.156434
vn 0.987688 0 -0.156434
vn 0.987688 0 -0.156434
f 429/429/429 430/430/430 431/431/431
f 429/429/429 431/431/431 432/432/432
v -4.35 0.655 -1.3
v -4.374472 0.655 -1.145492
v -4.445492 0.655 -1.006107
v -4.556107 0.655 -0.895492
v -4.695492 0.655 -0.824472
v -4.85 0.655 -0.8
v -5.004508 0.655 -0.824472
v -5.143893 0.655 -0.895492
v -5.254508 0.655 -1.006107
v -5.325528 0.655 -1.145492
v -5.35 0.655 -1.3
v -5.325528 0.655 -1.454508
v -5.254508 0.655 -1.593893
v -5.143893 0.655 -1.704508
v -5.004508 0.655 -1.775528
v -4.85 0.655 -1.8
v -4.695492 0.655 -1.775528
v -4.556107 0.655 -1.704508
v -4.445492 0.655 -1.593893
v -4.374472 0.655 -1.454508
vt 0 0
vt 0.156434 0
vt 0.305212 0.048341
vt 0.431771 0.140291
vt 0.52372 0.266849
vt 0.572061 0.415627
vt 0.572061 0.572061
vt 0.52372 0.720839
vt 0.431771 0.847398
vt 0.305212 0.939347
vt 0.156434 0.987688
vt 0 0.987688
vt -0.148778 0.939347
vt -0.275336 0.847398
vt -0.367286 0.720839
vt -0.415627 0.572061
vt -0.415627 0.415627
vt -0.367286 0.266849
vt -0.275336 0.140291
vt -0.148778 0.048341
vn 0 -1 0
vn 0 -1 0
vn 0 -1 0
vn 0 -1 0
vn 0 -1 0
vn 0 -1 0
vn 0 -1 0
vn 0 -1 0
vn 0 -1 0
vn 0 -1 0
vn 0 -1 0
vn 0 -1 0
vn 0 -1 0
vn 0 -1 0
vn 0 -1 0
vn 0 -1 0
vn 0 -1 0
vn 0 -1 0
vn 0 -1 0
vn 0 -1 0
f 433/433/433 434/434/434 435/435/435
f 433/433/433 435/435/435 436/436/436
f 433/433/433 436/436/436 437/437/437
f 433/433/433 437/437/437 438/438/438
f 433/433/433 438/438/438 439/439/439
f 433/433/433 439/439/439 440/440/440
f 433/433/433 440/440/440 441/441/441
f 433/433/433 441/441/441 442/442/442
f 433/433/433 442/442/442 443/443/443
f 433/433/433 443/443/443 444/444/444
f 433/433/433 444/444/444 445/445/445
f 433/433/433 445/445/445 446/446/446
f 433/433/433 446/446/446 447/447/447
f 433/433/433 447/447/447 448/448/448
f 433/433/433 448/448/448 449/449/449
f 433/433/433 449/449/449 450/450/450
f 433/433/433 450/450/450 451/451/451
f 433/433/433 451/451/451 452/452/452
v -4.374472 0.745 -1.454508
v -4.445492 0.745 -1.593893
v -4.556107 0.745 -1.704508
v -4.695492 0.745 -1.775528
v -4.85 0.745 -1.8
v -5.004508 0.745 -1.775528
v -5.143893 0.745 -1.704508
v -5.254508 0.745 -1.593893
v -5.325528 0.745 -1.454508
v -5.35 0.745 -1.3
v -5.325528 0.745 -1.145492
v -5.254508 0.745 -1.006107
v -5.143893 0.745 -0.895492
v -5.004508 0.745 -0.824472
v -4.85 0.745 -0.8
v -4.695492 0.745 -0.824472
v -4.556107 0.745 -0.895492
v -4.445492 0.745 -1.006107
v -4.374472 0.745 -1.145492
v -4.35 0.745 -1.3
vt 0 0
vt 0.156434 0
vt 0.305212 0.048341
vt 0.431771 0.140291
vt 0.52372 0.266849
vt 0.572061 0.415627
vt 0.572061 0.572061
vt 0.52372 0.720839
vt 0.431771 0.847398
vt 0.305212 0.939347
vt 0.156434 0.987688
vt 0 0.987688
vt -0.148778 0.939347
vt -0.275336 0.847398
vt -0.367286 0.720839
vt -0.415627 0.572061
vt -0.415627 0.415627
vt -0.367286 0.266849
vt -0.275336 0.140291
vt -0.148778 0.048341
vn 0 1 0
vn 0 1 0
vn 0 1 0
vn 0 1 0
vn 0 1 0
vn 0 1 0
vn 0 1 0
vn 0 1 0
vn 0 1 0
vn 0 1 0
vn 0 1 0
vn 0 1 0
vn 0 1 0
vn 0 1 0
vn 0 1 0
vn 0 1 0
vn 0 1 0
vn 0 1 0
vn 0 1 0
vn 0 1 0
f 453/453/453 454/454/454 455/455/455
f 453/453/453 455/455/455 456/456/456
f 453/453/453 456/456/456 457/457/457
f 453/453/453 457/457/457 458/458/458
f 453/453/453 458/458/458 459/459/459
f 453/453/453 459/459/459 460/460/460
f 453/453/453 460/460/460 461/461/461
f 453/453/453 461/461/461 462/462/462
f 453/453/453 462/462/462 463/463/463
f 453/453/453 463/463/463 464/464/464
f 453/453/453 464/464/464 465/465/465
f 453/453/453 465/465/465 466/466/466
f 453/453/453 466/466/466 467/467/467
f 453/453/453 467/467/467 468/468/468
f 453/453/453 468/468/468 469/469/469
f 453/453/453 469/469/469 470/470/470
f 453/453/453 470/470/470 471/471/471
f 453/453/453 471/471/471 472/472/472
v -4.35 0.655 -1.3
v -4.35 0.745 -1.3
v -4.374472 0.745 -1.145492
v -4.374472 0.655 -1.145492
vt 0 0
vt 0.09 0
vt 0.09 0.156434
vt 0 0.156434
vn 0.987688 0 0.156434
vn 0.987688 0 0.156434
vn 0.987688 0 0.156434
vn 0.987688 0 0.156434
f 473/473/473 474/474/474 475/475/475
f 473/473/473 475/475/475 476/476/476
v -4.374472 0.655 -1.145492
v -4.374472 0.745 -1.145492
v -4.445492 0.745 -1.006107
v -4.445492 0.655 -1.006107
vt 0 0
vt 0.09 0
vt 0.09 0.156434
vt 0 0.156434
vn 0.891007 0 0.45399
vn 0.891007 0 0.45399
vn 0.891007 0 0.45399
vn 0.891007 0 0.45399
f 477/477/477 478/478/478 479/479/479
f 477/477/477 479/479/479 480/480/480
v -4.445492 0.655 -1.006107
v -4.445492 0.745 -1.006107
v -4.556107 0.745 -0.895492
v -4.556107 0.655 -0.895492
vt 0 0
vt 0.09 0
vt 0.09 0.156434
vt 0 0.156434
vn 0.707107 0 0.707107
vn 0.707107 0 0.707107
vn 0.707107 0 0.707107
vn 0.707107 0 0.707107
f 481/481/481 482/482/482 483/483/483
f 481/481/481 483/483/483 484/484/484
v -4.556107 0.655 -0.895492
v -4.556107 0.745 -0.895492
v -4.695492 0.745 -0.824472
v -4.695492 0.655 -0.824472
vt 0 0
vt 0.09 0
vt 0.09 0.156434
vt 0 0.156434
vn 0.45399 0 0.891007
vn 0.45399 0 0.891007
vn 0.45399 0 0.891007
vn 0.45399 0 0.891007
f 485/485/485 486/486/486 487/487/487
f 485/485/485 487/487/487 488/488/488
v -4.695492 0.655 -0.824472
v -4.695492 0.745 -0.824472
v -4.85 0.745 -0.8
v -4.85 0.655 -0.8
vt 0 0
vt 0.09 0
vt 0.09 0.156434
vt 0 0.156434
vn 0.156434 0 0.987688
vn 0.156434 0 0.987688
vn 0.156434 0 0.987688
vn 0.156434 0 0.987688
f 489/489/489 490/490/490 491/491/491
f 489/489/489 491/491/491 492/492/492
v -4.85 0.655 -0.8
v -4.85 0.745 -0.8
v -5.004508 0.745 -0.824472
v -5.004508 0.655 -0.824472
vt 0 0
vt 0.09 0
vt 0.09 0.156434
vt 0 0.156434
vn -0.156434 0 0.987688
vn -0.156434 0 0.987688
vn -0.156434 0 0.987688
vn -0.156434 0 0.987688
f 493/493/493 494/494/494 495/495/495
f 493/493/493 495/495/495 496/496/496
v -5.004508 0.655 -0.824472
v -5.004508 0.745 -0.824472
v -5.143893 0.745 -0.895492
v -5.143893 0.655 -0.895492
vt 0 0
vt 0.09 0
vt 0.09 0.156434
vt 0 0.156434
vn -0.45399 0 0.891007
vn -0.45399 0 0.891007
vn -0.45399 0 0.891007
vn -0.45399 0 0.891007
f 497/497/497 498/498/498 499/499/499
f 497/497/497 499/499/499 500/500/500
v -5.143893 0.655 -0.895492
v -5.143893 0.745 -0.895492
v -5.254508 0.745 -1.006107
v -5.254508 0.655 -1.006107
vt 0 0
vt 0.09 0
vt 0.09 0.156434
vt 0 0.156434
vn -0.707107 0 0.707107
vn -0.707107 0 0.707107
vn -0.707107 0 0.707107
vn -0.707107 0 0.707107
f 501/501/501 502/502/502 503/503/503
f 501/501/501 503/503/503 504/504/504
v -5.254508 0.655 -1.006107
v -5.254508 0.745 -1.006107
v -5.325528 0.745 -1.145492
v -5.325528 0.655 -1.145492
vt 0 0
vt 0.09 0
vt 0.09 0.156434
vt 0 0.156434
vn -0.891007 0 0.45399
vn -0.891007 0 0.45399
vn -0.891007 0 0.45399
vn -0.891007 0 0.45399
f 505/505/505 506/506/506 507/507/507
f 505/505/505 507/507/507 508/508/508
v -5.325528 0.655 -1.145492
v -5.325528 0.745 -1.145492
v -5.35 0.745 -1.3
v -5.35 0.655 -1.3
vt 0 0
vt 0.09 0
vt 0.09 0.156434
vt 0 0.156434
vn -0.987688 0 0.156434
vn -0.987688 0 0.156434
vn -0.987688 0 0.156434
vn -0.987688 0 0.156434
f 509/509/509 510/510/510 511/511/511
f 509/509/509 511/511/511 512/512/512
v -5.35 0.655 -1.3
v -5.35 0.745 -1.3
v -5.325528 0.745 -1.454508
v -5.325528 0.655 -1.454508
vt 0 0
vt 0.09 0
vt 0.09 0.156434
vt 0 0.156434
vn -0.987688 0 -0.156434
vn -0.987688 0 -0.156434
vn -0.987688 0 -0.156434
vn -0.987688 0 -0.156434
f 513/513/513 514/514/514 515/515/515
f 513/513/513 515/515/515 516/516/516
v -5.325528 0.655 -1.454508
v -5.325528 0.745 -1.454508
v -5.254508 0.745 -1.593893
v -5.254508 0.655 -1.593893
vt 0 0
vt 0.09 0
vt 0.09 0.156434
vt 0 0.156434
vn -0.891007 0 -0.45399
vn -0.891007 0 -0.45399
vn -0.891007 0 -0.45399
vn -0.891007 0 -0.45399
f 517/517/517 518/518/518 519/519/519
f 517/517/517 519/519/519 520/520/520
v -5.254508 0.655 -1.593893
v -5.254508 0.745 -1.593893
v -5.143893 0.745 -1.704508
v -5.143893 0.655 -1.704508
vt 0 0
vt 0.09 0
vt 0.09 0.156434
vt 0 0.156434
vn -0.707107 0 -0.707107
vn -0.707107 0 -0.707107
vn -0.707107 0 -0.707107
vn -0.707107 0 -0.707107
f 521/521/521 522/522/522 523/523/523
f 521/521/521 523/523/523 524/524/524
v -5.143893 0.655 -1.704508
v -5.143893 0.745 -1.704508
v -5.004508 0.745 -1.775528
v -5.004508 0.655 -1.775528
vt 0 0
vt 0.09 0
vt 0.09 0.156434
vt 0 0.156434
vn -0.45399 0 -0.891007
vn -0.45399 0 -0.891007
vn -0.45399 0 -0.891007
vn -0.45399 0 -0.891007
f 525/525/525 526/526/526 527/527/527
f 525/525/525 527/527/527 528/528/528
v -5.004508 0.655 -1.775528
v -5.004508 0.745 -1.775528
v -4.85 0.745 -1.8
v -4.85 0.655 -1.8
vt 0 0
vt 0.09 0
vt 0.09 0.156434
vt 0 0.156434
vn -0.156434 0 -0.987688
vn -0.156434 0 -0.987688
vn -0.156434 0 -0.987688
vn -0.156434 0 -0.987688
f 529/529/529 530/530/530 531/531/531
f 529/529/529 531/531/531 532/532/532
v -4.85 0.655 -1.8
v -4.85 0.745 -1.8
v -4.695492 0.745 -1.775528
v -4.695492 0.655 -1.775528
vt 0 0
vt 0.09 0
vt 0.09 0.156434
vt 0 0.156434
vn 0.156434 0 -0.987688
vn 0.156434 0 -0.987688
vn 0.156434 0 -0.987688
vn 0.156434 0 -0.987688
f 533/533/533 534/534/534 535/535/535
f 533/533/533 535/535/535 536/536/536
v -4.695492 0.655 -1.775528
v -4.695492 0.745 -1.775528
v -4.556107 0.745 -1.704508
v -4.556107 0.655 -1.704508
vt 0 0
vt 0.09 0
vt 0.09 0.156434
vt 0 0.156434
vn 0.45399 0 -0.891007
vn 0.45399 0 -0.891007
vn 0.45399 0 -0.891007
vn 0.45399 0 -0.891007
f 537/537/537 538/538/538 539/539/539
f 537/537/537 539/539/539 540/540/540
v -4.556107 0.655 -1.704508
v -4.556107 0.745 -1.704508
v -4.445492 0.745 -1.593893
v -4.445492 0.655 -1.593893
vt 0 0
vt 0.09 0
vt 0.09 0.156434
vt 0 0.156434
vn 0.707107 0 -0.707107
vn 0.707107 0 -0.707107
vn 0.707107 0 -0.707107
vn 0.707107 0 -0.707107
f 541/541/541 542/542/542 543/543/543
f 541/541/541 543/543/543 544/544/544
v -4.445492 0.655 -1.593893
v -4.445492 0.745 -1.593893
v -4.374472 0.745 -1.454508
v -4.374472 0.655 -1.454508
vt 0 0
vt 0.09 0
vt 0.09 0.156434
vt 0 0.156434
vn 0.891007 0 -0.45399
vn 0.891007 0 -0.45399
vn 0.891007 0 -0.45399
vn 0.891007 0 -0.45399
f 545/545/545 546/546/546 547/547/547
f 545/545/545 547/547/547 548/548/548
v -4.374472 0.655 -1.454508
v -4.374472 0.745 -1.454508
v -4.35 0.745 -1.3
v -4.35 0.655 -1.3
vt 0 0
vt 0.09 0
vt 0.09 0.156434
vt 0 0.156434
vn 0.987688 0 -0.156434
vn 0.987688 0 -0.156434
vn 0.987688 0 -0.156434
vn 0.987688 0 -0.156434
f 549/549/549 550/550/550 551/551/551
f 549/549/549 551/551/551 552/552/552
v -4.35 2.655 -1.3
v -4.374472 2.655 -1.145492
v -4.445492 2.655 -1.006107
v -4.556107 2.655 -0.895492
v -4.695492 2.655 -0.824472
v -4.85 2.655 -0.8
v -5.004508 2.655 -0.824472
v -5.143893 2.655 -0.895492
v -5.254508 2.655 -1.006107
v -5.325528 2.655 -1.145492
v -5.35 2.655 -1.3
v -5.325528 2.655 -1.454508
v -5.254508 2.655 -1.593893
v -5.143893 2.655 -1.704508
v -5.004508 2.655 -1.775528
v -4.85 2.655 -1.8
v -4.695492 2.655 -1.775528
v -4.556107 2.655 -1.704508
v -4.445492 2.655 -1.593893
v -4.374472 2.655 -1.454508
vt 0 0
vt 0.156434 0
vt 0.305212 0.048341
vt 0.431771 0.140291
vt 0.52372 0.266849
vt 0.572061 0.415627
vt 0.572061 0.572061
vt 0.52372 0.720839
vt 0.431771 0.847398
vt 0.305212 0.939347
vt 0.156434 0.987688
vt 0 0.987688
vt -0.148778 0.939347
vt -0.275336 0.847398
vt -0.367286 0.720839
vt -0.415627 0.572061
vt -0.415627 0.415627
vt -0.367286 0.266849
vt -0.275336 0.140291
vt -0.148778 0.048341
vn 0 -1 0
vn 0 -1 0
vn 0 -1 0
vn 0 -1 0
vn 0 -1 0
vn 0 -1 0
vn 0 -1 0
vn 0 -1 0
vn 0 -1 0
vn 0 -1 0
vn 0 -1 0
vn 0 -1 0
vn 0 -1 0
vn 0 -1 0
vn 0 -1 0
vn 0 -1 0
vn 0 -1 0
vn 0 -1 0
vn 0 -1 0
vn 0 -1 0
f 553/553/553 554/554/554 555/555/555
f 553/553/553 555/555/555 556/556/556
f 553/553/553 556/556/556 557/557/557
f 553/553/553 557/557/557 558/558/558
f 553/553/553 558/558/558 559/559/559
f 553/553/553 559/559/559 560/560/560
f 553/553/553 560/560/560 561/561/561
f 553/553/553 561/561/561 562/562/562
f 553/553/553 562/562/562 563/563/563
f 553/553/553 563/563/563 564/564/564
f 553/553/553 564/564/564 565/565/565
f 553/553/553 565/565/565 566/566/566
f 553/553/553 566/566/566 567/567/567
f 553/553/553 567/567/567 568/568/568
f 553/553/553 568/568/568 569/569/569
f 553/553/553 569/569/569 570/570/570
f 553/553/553 570/570/570 571/571/571
f 553/553/553 571/571/571 572/572/572
v -4.374472 2.745 -1.454508
v -4.445492 2.745 -1.593893
v -4.556107 2.745 -1.704508
v -4.695492 2.745 -1.775528
v -4.85 2.745 -1.8
v -5.004508 2.745 -1.775528
v -5.143893 2.745 -1.704508
v -5.254508 2.745 -1.593893
v -5.325528 2.745 -1.454508
v -5.35 2.745 -1.3
v -5.325528 2.745 -1.145492
v -5.254508 2.745 -1.006107
v -5.143893 2.745 -0.895492
v -5.004508 2.745 -0.824472
v -4.85 2.745 -0.8
v -4.695492 2.745 -0.824472
v -4.556107 2.745 -0.895492
v -4.445492 2.745 -1.006107
v -4.374472 2.745 -1.145492
v -4.35 2.745 -1.3
vt 0 0
vt 0.156434 0
vt 0.305212 0.048341
vt 0.431771 0.140291
vt 0.52372 0.266849
vt 0.572061 0.415627
vt 0.572061 0.572061
vt 0.52372 0.720839
vt 0.431771 0.847398
vt 0.305212 0.939347
vt 0.156434 0.987688
vt 0 0.987688
vt -0.148778 0.939347
vt -0.275336 0.847398
vt -0.367286 0.720839
vt -0.415627 0.572061
vt -0.415627 0.415627
vt -0.367286 0.266849
vt -0.275336 0.140291
vt -0.148778 0.048341
vn 0 1 0
vn 0 1 0
vn 0 1 0
vn 0 1 0
vn 0 1 0
vn 0 1 0
vn 0 1 0
vn 0 1 0
vn 0 1 0
vn 0 1 0
vn 0 1 0
vn 0 1 0
vn 0 1 0
vn 0 1 0
vn 0 1 0
vn 0 1 0
vn 0 1 0
vn 0 1 0
vn 0 1 0
vn 0 1 0
f 573/573/573 574/574/574 575/575/575
f 573/573/573 575/575/575 576/576/576
f 573/573/573 576/576/576 577/577/577
f 573/573/573 577/577/577 578/578/578
f 573/573/573 578/578/578 579/579/579
f 573/573/573 579/579/579 580/580/580
f 573/573/573 580/580/580 581/581/581
f 573/573/573 581/581/581 582/582/582
f 573/573/573 582/582/582 583/583/583
f 573/573/573 583/583/583 584/584/584
f 573/573/573 584/584/584 585/585/585
f 573/573/573 585/585/585 586/586/586
f 573/573/573 586/586/586 587/587/587
f 573/573/573 587/587/587 588/588/588
f 573/573/573 588/588/588 589/589/589
f 573/573/573 589/589/589 590/590/590
f 573/573/573 590/590/590 591/591/591
f 573/573/573 591/591/591 592/592/592
v -4.35 2.655 -1.3
v -4.35 2.745 -1.3
v -4.374472 2.745 -1.145492
v -4.374472 2.655 -1.145492
vt 0 0
vt 0.09 0
vt 0.09 0.156434
vt 0 0.156434
vn 0.987688 0 0.156434
vn 0.987688 0 0.156434
vn 0.987688 0 0.156434
vn 0.987688 0 0.156434
f 593/593/593 594/594/594 595/595/595
f 593/593/593 595/595/595 596/596/596
v -4.374472 2.655 -1.145492
v -4.374472 2.745 -1.145492
v -4.445492 2.745 -1.006107
v -4.445492 2.655 -1.006107
vt 0 0
vt 0.09 0
vt 0.09 0.156434
vt 0 0.156434
vn 0.891007 0 0.45399
vn 0.891007 0 0.45399
vn 0.891007 0 0.45399
vn 0.891007 0 0.45399
f 597/597/597 598/598/598 599/599/599
f 597/597/597 599/599/599 600/600/600
v -4.445492 2.655 -1.006107
v -4.445492 2.745 -1.006107
v -4.556107 2.745 -0.895492
v -4.556107 2.655 -0.895492
vt 0 0
vt 0.09 0
vt 0.09 0.156434
vt 0 0.156434
vn 0.707107 0 0.707107
vn 0.707107 0 0.707107
vn 0.707107 0 0.707107
vn 0.707107 0 0.707107
f 601/601/601 602/602/602 603/603/603
f 601/601/601 603/603/603 604/604/604
v -4.556107 2.655 -0.895492
v -4.556107 2.745 -0.895492
v -4.695492 2.745 -0.824472
v -4.695492 2.655 -0.824472
vt 0 0
vt 0.09 0
vt 0.09 0.156434
vt 0 0.156434
vn 0.45399 0 0.891007
vn 0.45399 0 0.891007
vn 0.45399 0 0.891007
vn 0.45399 0 0.891007
f 605/605/605 606/606/606 607/607/607
f 605/605/605 607/607/607 608/608/608
v -4.695492 2.655 -0.824472
v -4.695492 2.745 -0.824472
v -4.85 2.745 -0.8
v -4.85 2.655 -0.8
vt 0 0
vt 0.09 0
vt 0.09 0.156434
vt 0 0.156434
vn 0.156434 0 0.987688
vn 0.156434 0 0.987688
vn 0.156434 0 0.987688
vn 0.156434 0 0.987688
f 609/609/609 610/610/610 611/611/611
f 609/609/609 611/611/611 612/612/612
v -4.85 2.655 -0.8
v -4.85 2.745 -0.8
v -5.004508 2.745 -0.824472
v -5.004508 2.655 -0.824472
vt 0 0
vt 0.09 0
vt 0.09 0.156434
vt 0 0.156434
vn -0.156434 0 0.987688
vn -0.156434 0 0.987688
vn -0.156434 0 0.987688
vn -0.156434 0 0.987688
f 613/613/613 614/614/614 615/615/615
f 613/613/613 615/615/615 616/616/616
v -5.004508 2.655 -0.824472
v -5.004508 2.745 -0.824472
v -5.143893 2.745 -0.895492
v -5.143893 2.655 -0.895492
vt 0 0
vt 0.09 0
vt 0.09 0.156434
vt 0 0.156434
vn -0.45399 0 0.891007
vn -0.45399 0 0.891007
vn -0.45399 0 0.891007
vn -0.45399 0 0.891007
f 617/617/617 618/618/618 619/619/619
f 617/617/617 619/619/619 620/620/620
v -5.143893 2.655 -0.895492
v -5.143893 2.745 -0.895492
v -5.254508 2.745 -1.006107
v -5.254508 2.655 -1.006107
vt 0 0
vt 0.09 0
vt 0.09 0.156434
vt 0 0.156434
vn -0.707107 0 0.707107
vn -0.707107 0 0.707107
vn -0.707107 0 0.707107
vn -0.707107 0 0.707107
f 621/621/621 622/622/622 623/623/623
f 621/621/621 623/623/623 624/624/624
v -5.254508 2.655 -1.006107
v -5.254508 2.745 -1.006107
v -5.325528 2.745 -1.145492
v -5.325528 2.655 -1.145492
vt 0 0
vt 0.09 0
vt 0.09 0.156434
vt 0 0.156434
vn -0.891007 0 0.45399
vn -0.891007 0 0.45399
vn -0.891007 0 0.45399
vn -0.891007 0 0.45399
f 625/625/625 626/626/626 627/627/627
f 625/625/625 627/627/627 628/628/628
v -5.325528 2.655 -1.145492
v -5.325528 2.745 -1.145492
v -5.35 2.745 -1.3
v -5.35 2.655 -1.3
vt 0 0
vt 0.09 0
vt 0.09 0.156434
vt 0 0.156434
vn -0.987688 0 0.156434
vn -0.987688 0 0.156434
vn -0.987688 0 0.156434
vn -0.987688 0 0.156434
f 629/629/629 630/630/630 631/631/631
f 629/629/629 631/631/631 632/632/632
v -5.35 2.655 -1.3
v -5.35 2.745 -1.3
v -5.325528 2.745 -1.454508
v -5.325528 2.655 -1.454508
vt 0 0
vt 0.09 0
vt 0.09 0.156434
vt 0 0.156434
vn -0.987688 0 -0.156434
vn -0.987688 0 -0.156434
vn -0.987688 0 -0.156434
vn -0.987688 0 -0.156434
f 633/633/633 634/634/634 635/635/635
f 633/633/633 635/635/635 636/636/636
v -5.325528 2.655 -1.454508
v -5.325528 2.745 -1.454508
v -5.254508 2.745 -1.593893
v -5.254508 2.655 -1.593893
vt 0 0
vt 0.09 0
vt 0.09 0.156434
vt 0 0.156434
vn -0.891007 0 -0.45399
vn -0.891007 0 -0.45399
vn -0.891007 0 -0.45399
vn -0.891007 0 -0.45399
f 637/637/637 638/638/638 639/639/639
f 637/637/637 639/639/639 640/640/640
v -5.254508 2.655 -1.593893
v -5.254508 2.745 -1.593893
v -5.143893 2.745 -1.704508
v -5.143893 2.655 -1.704508
vt 0 0
vt 0.09 0
vt 0.09 0.156434
vt 0 0.156434
vn -0.707107 0 -0.707107
vn -0.707107 0 -0.707107
vn -0.707107 0 -0.707107
vn -0.707107 0 -0.707107
f 641/641/641 642/642/642 643/643/643
f 641/641/641 643/643/643 644/644/644
v -5.143893 2.655 -1.704508
v -5.143893 2.745 -1.704508
v -5.004508 2.745 -1.775528
v -5.004508 2.655 -1.775528
vt 0 0
vt 0.09 0
vt 0.09 0.156434
vt 0 0.156434
vn -0.45399 0 -0.891007
vn -0.45399 0 -0.891007
vn -0.45399 0 -0.891007
vn -0.45399 0 -0.891007
f 645/645/645 646/646/646 647/647/647
f 645/645/645 647/647/647 648/648/648
v -5.004508 2.655 -1.775528
v -5.004508 2.745 -1.775528
v -4.85 2.745 -1.8
v -4.85 2.655 -1.8
vt 0 0
vt 0.09 0
vt 0.09 0.156434
vt 0 0.156434
vn -0.156434 0 -0.987688
vn -0.156434 0 -0.987688
vn -0.156434 0 -0.987688
vn -0.156434 0 -0.987688
f 649/649/649 650/650/650 651/651/651
f 649/649/649 651/651/651 652/652/652
v -4.85 2.655 -1.8
v -4.85 2.745 -1.8
v -4.695492 2.745 -1.775528
v -4.695492 2.655 -1.775528
vt 0 0
vt 0.09 0
vt 0.09 0.156434
vt 0 0.156434
vn 0.156434 0 -0.987688
vn 0.156434 0 -0.987688
vn 0.156434 0 -0.987688
vn 0.156434 0 -0.987688
f 653/653/653 654/654/654 655/655/655
f 653/653/653 655/655/655 656/656/656
v -4.695492 2.655 -1.775528
v -4.695492 2.745 -1.775528
v -4.556107 2.745 -1.704508
v -4.556107 2.655 -1.704508
vt 0 0
vt 0.09 0
vt 0.09 0.156434
vt 0 0.156434
vn 0.45399 0 -0.891007
vn 0.45399 0 -0.891007
vn 0.45399 0 -0.891007
vn 0.45399 0 -0.891007
f 657/657/657 658/658/658 659/659/659
f 657/657/657 659/659/659 660/660/660
v -4.556107 2.655 -1.704508
v -4.556107 2.745 -1.704508
v -4.445492 2.745 -1.593893
v -4.445492 2.655 -1.593893
vt 0 0
vt 0.09 0
vt 0.09 0.156434
vt 0 0.156434
vn 0.707107 0 -0.707107
vn 0.707107 0 -0.707107
vn 0.707107 0 -0.707107
vn 0.707107 0 -0.707107
f 661/661/661 662/662/662 663/663/663
f 661/661/661 663/663/663 664/664/664
v -4.445492 2.655 -1.593893
v -4.445492 2.745 -1.593893
v -4.374472 2.745 -1.454508
v -4.374472 2.655 -1.454508
vt 0 0
vt 0.09 0
vt 0.09 0.156434
vt 0 0.156434
vn 0.891007 0 -0.45399
vn 0.891007 0 -0.45399
vn 0.891007 0 -0.45399
vn 0.891007 0 -0.45399
f 665/665/665 666/666/666 667/667/667
f 665/665/665 667/667/667 668/668/668
v -4.374472 2.655 -1.454508
v -4.374472 2.745 -1.454508
v -4.35 2.745 -1.3
v -4.35 2.655 -1.3
vt 0 0
vt 0.09 0
vt 0.09 0.156434
vt 0 0.156434
vn 0.987688 0 -0.156434
vn 0.987688 0 -0.156434
vn 0.987688 0 -0.156434
vn 0.987688 0 -0.156434
f 669/669/669 670/670/670 671/671/671
f 669/669/669 671/671/671 672/672/672
v -5.27 4.13 -5.0275
v -5.27 4.47 -5.0275
v -4.93 4.47 -5.0275
v -4.93 4.13 -5.0275
vt 0 0
vt 0.34 0
vt 0.34 0.34
vt 0 0.34
vn 0 0 -1
vn 0 0 -1
vn 0 0 -1
vn 0 0 -1
f 673/673/673 674/674/674 675/675/675
f 673/673/673 675/675/675 676/676/676
v -5.27 4.13 -4.9725
v -4.93 4.13 -4.9725
v -4.93 4.47 -4.9725
v -5.27 4.47 -4.9725
vt 0 0
vt 0.34 0
vt 0.34 0.34
vt 0 0.34
vn 0 0 1
vn 0 0 1
vn 0 0 1
vn 0 0 1
f 677/677/677 678/678/678 679/679/679
f 677/677/677 679/679/679 680/680/680
v -5.27 4.13 -5.0275
v -5.27 4.13 -4.9725
v -5.27 4.47 -4.9725
v -5.27 4.47 -5.0275
vt 0 0
vt 0.055 0
vt 0.055 0.34
vt 0 0.34
vn -1 0 0
vn -1 0 0
vn -1 0 0
vn -1 0 0
f 681/681/681 682/682/682 683/683/683
f 681/681/681 683/683/683 684/684/684
v -4.93 4.13 -5.0275
v -4.93 4.47 -5.0275
v -4.93 4.47 -4.9725
v -4.93 4.13 -4.9725
vt 0 0
vt 0.34 0
vt 0.34 0.055
vt 0 0.055
vn 1 0 0
vn 1 0 0
vn 1 0 0
vn 1 0 0
f 685/685/685 686/686/686 687/687/687
f 685/685/685 687/687/687 688/688/688
v -5.27 4.13 -5.0275
v -4.93 4.13 -5.0275
v -4.93 4.13 -4.9725
v -5.27 4.13 -4.9725
vt 0 0
vt 0.34 0
vt 0.34 0.055
vt 0 0.055
vn 0 -1 0
vn 0 -1 0
vn 0 -1 0
vn 0 -1 0
f 689/689/689 690/690/690 691/691/691
f 689/689/689 691/691/691 692/692/692
v -5.27 4.47 -5.0275
v -5.27 4.47 -4.9725
v -4.93 4.47 -4.9725
v -4.93 4.47 -5.0275
vt 0 0
vt 0.055 0
vt 0.055 0.34
vt 0 0.34
vn 0 1 0
vn 0 1 0
vn 0 1 0
vn 0 1 0
f 693/693/693 694/694/694 695/695/695
f 693/693/693 695/695/695 696/696/696
v -5.27 4.13 -0.0275
v -5.27 4.47 -0.0275
v -4.93 4.47 -0.0275
v -4.93 4.13 -0.0275
vt 0 0
vt 0.34 0
vt 0.34 0.34
vt 0 0.34
vn 0 0 -1
vn 0 0 -1
vn 0 0 -1
vn 0 0 -1
f 697/697/697 698/698/698 699/699/699
f 697/697/697 699/699/699 700/700/700
v -5.27 4.13 0.0275
v -4.93 4.13 0.0275
v -4.93 4.47 0.0275
v -5.27 4.47 0.0275
vt 0 0
vt 0.34 0
vt 0.34 0.34
vt 0 0.34
vn 0 0 1
vn 0 0 1
vn 0 0 1
vn 0 0 1
f 701/701/701 702/702/702 703/703/703
f 701/701/701 703/703/703 704/704/704
v -5.27 4.13 -0.0275
v -5.27 4.13 0.0275
v -5.27 4.47 0.0275
v -5.27 4.47 -0.0275
vt 0 0
vt 0.055 0
vt 0.055 0.34
vt 0 0.34
vn -1 0 0
vn -1 0 0
vn -1 0 0
vn -1 0 0
f 705/705/705 706/706/706 707/707/707
f 705/705/705 707/707/707 708/708/708
v -4.93 4.13 -0.0275
v -4.93 4.47 -0.0275
v -4.93 4.47 0.0275
v -4.93 4.13 0.0275
vt 0 0
vt 0.34 0
vt 0.34 0.055
vt 0 0.055
vn 1 0 0
vn 1 0 0
vn 1 0 0
vn 1 0 0
f 709/709/709 710/710/710 711/711/711
f 709/709/709 711/711/711 712/712/712
v -5.27 4.13 -0.0275
v -4.93 4.13 -0.0275
v -4.93 4.13 0.0275
v -5.27 4.13 0.0275
vt 0 0
vt 0.34 0
vt 0.34 0.055
vt 0 0.055
vn 0 -1 0
vn 0 -1 0
vn 0 -1 0
vn 0 -1 0
f 713/713/713 714/714/714 715/715/715
f 713/713/713 715/715/715 716/716/716
v -5.27 4.47 -0.0275
v -5.27 4.47 0.0275
v -4.93 4.47 0.0275
v -4.93 4.47 -0.0275
vt 0 0
vt 0.055 0
vt 0.055 0.34
vt 0 0.34
vn 0 1 0
vn 0 1 0
vn 0 1 0
vn 0 1 0
f 717/717/717 718/718/718 719/719/719
f 717/717/717 719/719/719 720/720/720
v -5.27 4.13 4.9725
v -5.27 4.47 4.9725
v -4.93 4.47 4.9725
v -4.93 4.13 4.9725
vt 0 0
vt 0.34 0
vt 0.34 0.34
vt 0 0.34
vn 0 0 -1
vn 0 0 -1
vn 0 0 -1
vn 0 0 -1
f 721/721/721 722/722/722 723/723/723
f 721/721/721 723/723/723 724/724/724
v -5.27 4.13 5.0275
v -4.93 4.13 5.0275
v -4.93 4.47 5.0275
v -5.27 4.47 5.0275
vt 0 0
vt 0.34 0
vt 0.34 0.34
vt 0 0.34
vn 0 0 1
vn 0 0 1
vn 0 0 1
vn 0 0 1
f 725/725/725 726/726/726 727/727/727
f 725/725/725 727/727/727 728/728/728
v -5.27 4.13 4.9725
v -5.27 4.13 5.0275
v -5.27 4.47 5.0275
v -5.27 4.47 4.9725
vt 0 0
vt 0.055 0
vt 0.055 0.34
vt 0 0.34
vn -1 0 0
vn -1 0 0
vn -1 0 0
vn -1 0 0
f 729/729/729 730/730/730 731/731/731
f 729/729/729 731/731/731 732/732/732
v -4.93 4.13 4.9725
v -4.93 4.47 4.9725
v -4.93 4.47 5.0275
v -4.93 4.13 5.0275
vt 0 0
vt 0.34 0
vt 0.34 0.055
vt 0 0.055
vn 1 0 0
vn 1 0 0
vn 1 0 0
vn 1 0 0
f 733/733/733 734/734/734 735/735/735
f 733/733/733 735/735/735 736/736/736
v -5.27 4.13 4.9725
v -4.93 4.13 4.9725
v -4.93 4.13 5.0275
v -5.27 4.13 5.0275
vt 0 0
vt 0.34 0
vt 0.34 0.055
vt 0 0.055
vn 0 -1 0
vn 0 -1 0
vn 0 -1 0
vn 0 -1 0
f 737/737/737 738/738/738 739/739/739
f 737/737/737 739/739/739 740/740/740
v -5.27 4.47 4.9725
v -5.27 4.47 5.0275
v -4.93 4.47 5.0275
v -4.93 4.47 4.9725
vt 0 0
vt 0.055 0
vt 0.055 0.34
vt 0 0.34
vn 0 1 0
vn 0 1 0
vn 0 1 0
vn 0 1 0
f 741/741/741 742/742/742 743/743/743
f 741/741/741 743/743/743 744/744/744
v 4.93 4.13 -5.0275
v 4.93 4.47 -5.0275
v 5.27 4.47 -5.0275
v 5.27 4.13 -5.0275
vt 0 0
vt 0.34 0
vt 0.34 0.34
vt 0 0.34
vn 0 0 -1
vn 0 0 -1
vn 0 0 -1
vn 0 0 -1
f 745/745/745 746/746/746 747/747/747
f 745/745/745 747/747/747 748/748/748
v 4.93 4.13 -4.9725
v 5.27 4.13 -4.9725
v 5.27 4.47 -4.9725
v 4.93 4.47 -4.9725
vt 0 0
vt 0.34 0
vt 0.34 0.34
vt 0 0.34
vn 0 0 1
vn 0 0 1
vn 0 0 1
vn 0 0 1
f 749/749/749 750/750/750 751/751/751
f 749/749/749 751/751/751 752/752/752
v 4.93 4.13 -5.0275
v 4.93 4.13 -4.9725
v 4.93 4.47 -4.9725
v 4.93 4.47 -5.0275
vt 0 0
vt 0.055 0
vt 0.055 0.34
vt 0 0.34
vn -1 0 0
vn -1 0 0
vn -1 0 0
vn -1 0 0
f 753/753/753 754/754/754 755/755/755
f 753/753/753 755/755/755 756/756/756
v 5.27 4.13 -5.0275
v 5.27 4.47 -5.0275
v 5.27 4.47 -4.9725
v 5.27 4.13 -4.9725
vt 0 0
vt 0.34 0
vt 0.34 0.055
vt 0 0.055
vn 1 0 0
vn 1 0 0
vn 1 0 0
vn 1 0 0
f 757/757/757 758/758/758 759/759/759
f 757/757/757 759/759/759 760/760/760
v 4.93 4.13 -5.0275
v 5.27 4.13 -5.0275
v 5.27 4.13 -4.9725
v 4.93 4.13 -4.9725
vt 0 0
vt 0.34 0
vt 0.34 0.055
vt 0 0.055
vn 0 -1 0
vn 0 -1 0
vn 0 -1 0
vn 0 -1 0
f 761/761/761 762/762/762 763/763/763
f 761/761/761 763/763/763 764/764/764
v 4.93 4.47 -5.0275
v 4.93 4.47 -4.9725
v 5.27 4.47 -4.9725
v 5.27 4.47 -5.0275
vt 0 0
vt 0.055 0
vt 0.055 0.34
vt 0 0.34
vn 0 1 0
vn 0 1 0
vn 0 1 0
vn 0 1 0
f 765/765/765 766/766/766 767/767/767
f 765/765/765 767/767/767 768/768/768
v 4.93 4.13 -0.0275
v 4.93 4.47 -0.0275
v 5.27 4.47 -0.0275
v 5.27 4.13 -0.0275
vt 0 0
vt 0.34 0
vt 0.34 0.34
vt 0 0.34
vn 0 0 -1
vn 0 0 -1
vn 0 0 -1
vn 0 0 -1
f 769/769/769 770/770/770 771/771/771
f 769/769/769 771/771/771 772/772/772
v 4.93 4.13 0.0275
v 5.27 4.13 0.0275
v 5.27 4.47 0.0275
v 4.93 4.47 0.0275
vt 0 0
vt 0.34 0
vt 0.34 0.34
vt 0 0.34
vn 0 0 1
vn 0 0 1
vn 0 0 1
vn 0 0 1
f 773/773/773 774/774/774 775/775/775
f 773/773/773 775/775/775 776/776/776
v 4.93 4.13 -0.0275
v 4.93 4.13 0.0275
v 4.93 4.47 0.0275
v 4.93 4.47 -0.0275
vt 0 0
vt 0.055 0
vt 0.055 0.34
vt 0 0.34
vn -1 0 0
vn -1 0 0
vn -1 0 0
vn -1 0 0
f 777/777/777 778/778/778 779/779/779
f 777/777/777 779/779/779 780/780/780
v 5.27 4.13 -0.0275
v 5.27 4.47 -0.0275
v 5.27 4.47 0.0275
v 5.27 4.13 0.0275
vt 0 0
vt 0.34 0
vt 0.34 0.055
vt 0 0.055
vn 1 0 0
vn 1 0 0
vn 1 0 0
vn 1 0 0
f 781/781/781 782/782/782 783/783/783
f 781/781/781 783/783/783 784/784/784
v 4.93 4.13 -0.0275
v 5.27 4.13 -0.0275
v 5.27 4.13 0.0275
v 4.93 4.13 0.0275
vt 0 0
vt 0.34 0
vt 0.34 0.055
vt 0 0.055
vn 0 -1 0
vn 0 -1 0
vn 0 -1 0
vn 0 -1 0
f 785/785/785 786/786/786 787/787/787
f 785/785/785 787/787/787 788/788/788
v 4.93 4.47 -0.0275
v 4.93 4.47 0.0275
v 5.27 4.47 0.0275
v 5.27 4.47 -0.0275
vt 0 0
vt 0.055 0
vt 0.055 0.34
vt 0 0.34
vn 0 1 0
vn 0 1 0
vn 0 1 0
vn 0 1 0
f 789/789/789 790/790/790 791/791/791
f 789/789/789 791/791/791 792/792/792
v 4.93 4.13 4.9725
v 4.93 4.47 4.9725
v 5.27 4.47 4.9725
v 5.27 4.13 4.9725
vt 0 0
vt 0.34 0
vt 0.34 0.34
vt 0 0.34
vn 0 0 -1
vn 0 0 -1
vn 0 0 -1
vn 0 0 -1
f 793/793/793 794/794/794 795/795/795
f 793/793/793 795/795/795 796/796/796
v 4.93 4.13 5.0275
v 5.27 4.13 5.0275
v 5.27 4.47 5.0275
v 4.93 4.47 5.0275
vt 0 0
vt 0.34 0
vt 0.34 0.34
vt 0 0.34
vn 0 0 1
vn 0 0 1
vn 0 0 1
vn 0 0 1
f 797/797/797 798/798/798 799/799/799
f 797/797/797 799/799/799 800/800/800
v 4.93 4.13 4.9725
v 4.93 4.13 5.0275
v 4.93 4.47 5.0275
v 4.93 4.47 4.9725
vt 0 0
vt 0.055 0
vt 0.055 0.34
vt 0 0.34
vn -1 0 0
vn -1 0 0
vn -1 0 0
vn -1 0 0
f 801/801/801 802/802/802 803/803/803
f 801/801/801 803/803/803 804/804/804
v 5.27 4.13 4.9725
v 5.27 4.47 4.9725
v 5.27 4.47 5.0275
v 5.27 4.13 5.0275
vt 0 0
vt 0.34 0
vt 0.34 0.055
vt 0 0.055
vn 1 0 0
vn 1 0 0
vn 1 0 0
vn 1 0 0
f 805/805/805 806/806/806 807/807/807
f 805/805/805 807/807/807 808/808/808
v 4.93 4.13 4.9725
v 5.27 4.13 4.9725
v 5.27 4.13 5.0275
v 4.93 4.13 5.0275
vt 0 0
vt 0.34 0
vt 0.34 0.055
vt 0 0.055
vn 0 -1 0
vn 0 -1 0
vn 0 -1 0
vn 0 -1 0
f 809/809/809 810/810/810 811/811/811
f 809/809/809 811/811/811 812/812/812
v 4.93 4.47 4.9725
v 4.93 4.47 5.0275
v 5.27 4.47 5.0275
v 5.27 4.47 4.9725
vt 0 0
vt 0.055 0
vt 0.055 0.34
vt 0 0.34
vn 0 1 0
vn 0 1 0
vn 0 1 0
vn 0 1 0
f 813/813/813 814/814/814 815/815/815
f 813/813/813 815/815/815 816/816/816
v -4.875 0.0335 -5.820833
v -4.875 0.0455 -5.820833
v -3.325 0.0455 -5.820833
v -3.325 0.0335 -5.820833
vt 0 0
vt 0.012 0
vt 0.012 1.55
vt 0 1.55
vn 0 0 -1
vn 0 0 -1
vn 0 0 -1
vn 0 0 -1
f 817/817/817 818/818/818 819/819/819
f 817/817/817 819/819/819 820/820/820
v -4.875 0.0335 -5.795833
v -3.325 0.0335 -5.795833
v -3.325 0.0455 -5.795833
v -4.875 0.0455 -5.795833
vt 0 0
vt 1.55 0
vt 1.55 0.012
vt 0 0.012
vn 0 0 1
vn 0 0 1
vn 0 0 1
vn 0 0 1
f 821/821/821 822/822/822 823/823/823
f 821/821/821 823/823/823 824/824/824
v -4.875 0.0335 -5.820833
v -4.875 0.0335 -5.795833
v -4.875 0.0455 -5.795833
v -4.875 0.0455 -5.820833
vt 0 0
vt 0.025 0
vt 0.025 0.012
vt 0 0.012
vn -1 0 0
vn -1 0 0
vn -1 0 0
vn -1 0 0
f 825/825/825 826/826/826 827/827/827
f 825/825/825 827/827/827 828/828/828
v -3.325 0.0335 -5.820833
v -3.325 0.0455 -5.820833
v -3.325 0.0455 -5.795833
v -3.325 0.0335 -5.795833
vt 0 0
vt 0.012 0
vt 0.012 0.025
vt 0 0.025
vn 1 0 0
vn 1 0 0
vn 1 0 0
vn 1 0 0
f 829/829/829 830/830/830 831/831/831
f 829/829/829 831/831/831 832/832/832
v -4.875 0.0335 -5.820833
v -3.325 0.0335 -5.820833
v -3.325 0.0335 -5.795833
v -4.875 0.0335 -5.795833
vt 0 0
vt 1.55 0
vt 1.55 0.025
vt 0 0.025
vn 0 -1 0
vn 0 -1 0
vn 0 -1 0
vn 0 -1 0
f 833/833/833 834/834/834 835/835/835
f 833/833/833 835/835/835 836/836/836
v -4.875 0.0455 -5.820833
v -4.875 0.0455 -5.795833
v -3.325 0.0455 -5.795833
v -3.325 0.0455 -5.820833
vt 0 0
vt 0.025 0
vt 0.025 1.55
vt 0 1.55
vn 0 1 0
vn 0 1 0
vn 0 1 0
vn 0 1 0
f 837/837/837 838/838/838 839/839/839
f 837/837/837 839/839/839 840/840/840
v -4.875 0.0335 -5.6375
v -4.875 0.0455 -5.6375
v -3.325 0.0455 -5.6375
v -3.325 0.0335 -5.6375
vt 0 0
vt 0.012 0
vt 0.012 1.55
vt 0 1.55
vn 0 0 -1
vn 0 0 -1
vn 0 0 -1
vn 0 0 -1
f 841/841/841 842/842/842 843/843/843
f 841/841/841 843/843/843 844/844/844
v -4.875 0.0335 -5.6125
v -3.325 0.0335 -5.6125
v -3.325 0.0455 -5.6125
v -4.875 0.0455 -5.6125
vt 0 0
vt 1.55 0
vt 1.55 0.012
vt 0 0.012
vn 0 0 1
vn 0 0 1
vn 0 0 1
vn 0 0 1
f 845/845/845 846/846/846 847/847/847
f 845/845/845 847/847/847 848/848/848
v -4.875 0.0335 -5.6375
v -4.875 0.0335 -5.6125
v -4.875 0.0455 -5.6125
v -4.875 0.0455 -5.6375
vt 0 0
vt 0.025 0
vt 0.025 0.012
vt 0 0.012
vn -1 0 0
vn -1 0 0
vn -1 0 0
vn -1 0 0
f 849/849/849 850/850/850 851/851/851
f 849/849/849 851/851/851 852/852/852
v -3.325 0.0335 -5.6375
v -3.325 0.0455 -5.6375
v -3.325 0.0455 -5.6125
v -3.325 0.0335 -5.6125
vt 0 0
vt 0.012 0
vt 0.012 0.025
vt 0 0.025
vn 1 0 0
vn 1 0 0
vn 1 0 0
vn 1 0 0
f 853/853/853 854/854/854 855/855/855
f 853/853/853 855/855/855 856/856/856
v -4.875 0.0335 -5.6375
v -3.325 0.0335 -5.6375
v -3.325 0.0335 -5.6125
v -4.875 0.0335 -5.6125
vt 0 0
vt 1.55 0
vt 1.55 0.025
vt 0 0.025
vn 0 -1 0
vn 0 -1 0
vn 0 -1 0
vn 0 -1 0
f 857/857/857 858/858/858 859/859/859
f 857/857/857 859/859/859 860/860/860
v -4.875 0.0455 -5.6375
v -4.875 0.0455 -5.6125
v -3.325 0.0455 -5.6125
v -3.325 0.0455 -5.6375
vt 0 0
vt 0.025 0
vt 0.025 1.55
vt 0 1.55
vn 0 1 0
vn 0 1 0
vn 0 1 0
vn 0 1 0
f 861/861/861 862/862/862 863/863/863
f 861/861/861 863/863/863 864/864/864
v -4.875 0.0335 -5.454167
v -4.875 0.0455 -5.454167
v -3.325 0.0455 -5.454167
v -3.325 0.0335 -5.454167
vt 0 0
vt 0.012 0
vt 0.012 1.55
vt 0 1.55
vn 0 0 -1
vn 0 0 -1
vn 0 0 -1
vn 0 0 -1
f 865/865/865 866/866/866 867/867/867
f 865/865/865 867/867/867 868/868/868
v -4.875 0.0335 -5.429167
v -3.325 0.0335 -5.429167
v -3.325 0.0455 -5.429167
v -4.875 0.0455 -5.429167
vt 0 0
vt 1.55 0
vt 1.55 0.012
vt 0 0.012
vn 0 0 1
vn 0 0 1
vn 0 0 1
vn 0 0 1
f 869/869/869 870/870/870 871/871/871
f 869/869/869 871/871/871 872/872/872
v -4.875 0.0335 -5.454167
v -4.875 0.0335 -5.429167
v -4.875 0.0455 -5.429167
v -4.875 0.0455 -5.454167
vt 0 0
vt 0.025 0
vt 0.025 0.012
vt 0 0.012
vn -1 0 0
vn -1 0 0
vn -1 0 0
vn -1 0 0
f 873/873/873 874/874/874 875/875/875
f 873/873/873 875/875/875 876/876/876
v -3.325 0.0335 -5.454167
v -3.325 0.0455 -5.454167
v -3.325 0.0455 -5.429167
v -3.325 0.0335 -5.429167
vt 0 0
vt 0.012 0
vt 0.012 0.025
vt 0 0.025
vn 1 0 0
vn 1 0 0
vn 1 0 0
vn 1 0 0
f 877/877/877 878/878/878 879/879/879
f 877/877/877 879/879/879 880/880/880
v -4.875 0.0335 -5.454167
v -3.325 0.0335 -5.454167
v -3.325 0.0335 -5.429167
v -4.875 0.0335 -5.429167
vt 0 0
vt 1.55 0
vt 1.55 0.025
vt 0 0.025
vn 0 -1 0
vn 0 -1 0
vn 0 -1 0
vn 0 -1 0
f 881/881/881 882/882/882 883/883/883
f 881/881/881 883/883/883 884/884/884
v -4.875 0.0455 -5.454167
v -4.875 0.0455 -5.429167
v -3.325 0.0455 -5.429167
v -3.325 0.0455 -5.454167
vt 0 0
vt 0.025 0
vt 0.025 1.55
vt 0 1.55
vn 0 1 0
vn 0 1 0
vn 0 1 0
vn 0 1 0
f 885/885/885 886/886/886 887/887/887
f 885/885/885 887/887/887 888/888/888
v -4.875 0.0335 -5.270833
v -4.875 0.0455 -5.270833
v -3.325 0.0455 -5.270833
v -3.325 0.0335 -5.270833
vt 0 0
vt 0.012 0
vt 0.012 1.55
vt 0 1.55
vn 0 0 -1
vn 0 0 -1
vn 0 0 -1
vn 0 0 -1
f 889/889/889 890/890/890 891/891/891
f 889/889/889 891/891/891 892/892/892
v -4.875 0.0335 -5.245833
v -3.325 0.0335 -5.245833
v -3.325 0.0455 -5.245833
v -4.875 0.0455 -5.245833
vt 0 0
vt 1.55 0
vt 1.55 0.012
vt 0 0.012
vn 0 0 1
vn 0 0 1
vn 0 0 1
vn 0 0 1
f 893/893/893 894/894/894 895/895/895
f 893/893/893 895/895/895 896/896/896
v -4.875 0.0335 -5.270833
v -4.875 0.0335 -5.245833
v -4.875 0.0455 -5.245833
v -4.875 0.0455 -5.270833
vt 0 0
vt 0.025 0
vt 0.025 0.012
vt 0 0.012
vn -1 0 0
vn -1 0 0
vn -1 0 0
vn -1 0 0
f 897/897/897 898/898/898 899/899/899
f 897/897/897 899/899/899 900/900/900
v -3.325 0.0335 -5.270833
v -3.325 0.0455 -5.270833
v -3.325 0.0455 -5.245833
v -3.325 0.0335 -5.245833
vt 0 0
vt 0.012 0
vt 0.012 0.025
vt 0 0.025
vn 1 0 0
vn 1 0 0
vn 1 0 0
vn 1 0 0
f 901/901/901 902/902/902 903/903/903
f 901/901/901 903/903/903 904/904/904
v -4.875 0.0335 -5.270833
v -3.325 0.0335 -5.270833
v -3.325 0.0335 -5.245833
v -4.875 0.0335 -5.245833
vt 0 0
vt 1.55 0
vt 1.55 0.025
vt 0 0.025
vn 0 -1 0
vn 0 -1 0
vn 0 -1 0
vn 0 -1 0
f 905/905/905 906/906/906 907/907/907
f 905/905/905 907/907/907 908/908/908
v -4.875 0.0455 -5.270833
v -4.875 0.0455 -5.245833
v -3.325 0.0455 -5.245833
v -3.325 0.0455 -5.270833
vt 0 0
vt 0.025 0
vt 0.025 1.55
vt 0 1.55
vn 0 1 0
vn 0 1 0
vn 0 1 0
vn 0 1 0
f 909/909/909 910/910/910 911/911/911
f 909/909/909 911/911/911 912/912/912
v -4.875 0.0335 -5.0875
v -4.875 0.0455 -5.0875
v -3.325 0.0455 -5.0875
v -3.325 0.0335 -5.0875
vt 0 0
vt 0.012 0
vt 0.012 1.55
vt 0 1.55
vn 0 0 -1
vn 0 0 -1
vn 0 0 -1
vn 0 0 -1
f 913/913/913 914/914/914 915/915/915
f 913/913/913 915/915/915 916/916/916
v -4.875 0.0335 -5.0625
v -3.325 0.0335 -5.0625
v -3.325 0.0455 -5.0625
v -4.875 0.0455 -5.0625
vt 0 0
vt 1.55 0
vt 1.55 0.012
vt 0 0.012
vn 0 0 1
vn 0 0 1
vn 0 0 1
vn 0 0 1
f 917/917/917 918/918/918 919/919/919
f 917/917/917 919/919/919 920/920/920
v -4.875 0.0335 -5.0875
v -4.875 0.0335 -5.0625
v -4.875 0.0455 -5.0625
v -4.875 0.0455 -5.0875
vt 0 0
vt 0.025 0
vt 0.025 0.012
vt 0 0.012
vn -1 0 0
vn -1 0 0
vn -1 0 0
vn -1 0 0
f 921/921/921 922/922/922 923/923/923
f 921/921/921 923/923/923 924/924/924
v -3.325 0.0335 -5.0875
v -3.325 0.0455 -5.0875
v -3.325 0.0455 -5.0625
v -3.325 0.0335 -5.0625
vt 0 0
vt 0.012 0
vt 0.012 0.025
vt 0 0.025
vn 1 0 0
vn 1 0 0
vn 1 0 0
vn 1 0 0
f 925/925/925 926/926/926 927/927/927
f 925/925/925 927/927/927 928/928/928
v -4.875 0.0335 -5.0875
v -3.325 0.0335 -5.0875
v -3.325 0.0335 -5.0625
v -4.875 0.0335 -5.0625
vt 0 0
vt 1.55 0
vt 1.55 0.025
vt 0 0.025
vn 0 -1 0
vn 0 -1 0
vn 0 -1 0
vn 0 -1 0
f 929/929/929 930/930/930 931/931/931
f 929/929/929 931/931/931 932/932/932
v -4.875 0.0455 -5.0875
v -4.875 0.0455 -5.0625
v -3.325 0.0455 -5.0625
v -3.325 0.0455 -5.0875
vt 0 0
vt 0.025 0
vt 0.025 1.55
vt 0 1.55
vn 0 1 0
vn 0 1 0
vn 0 1 0
vn 0 1 0
f 933/933/933 934/934/934 935/935/935
f 933/933/933 935/935/935 936/936/936
v -4.875 0.0335 -4.904167
v -4.875 0.0455 -4.904167
v -3.325 0.0455 -4.904167
v -3.325 0.0335 -4.904167
vt 0 0
vt 0.012 0
vt 0.012 1.55
vt 0 1.55
vn 0 0 -1
vn 0 0 -1
vn 0 0 -1
vn 0 0 -1
f 937/937/937 938/938/938 939/939/939
f 937/937/937 939/939/939 940/940/940
v -4.875 0.0335 -4.879167
v -3.325 0.0335 -4.879167
v -3.325 0.0455 -4.879167
v -4.875 0.0455 -4.879167
vt 0 0
vt 1.55 0
vt 1.55 0.012
vt 0 0.012
vn 0 0 1
vn 0 0 1
vn 0 0 1
vn 0 0 1
f 941/941/941 942/942/942 943/943/943
f 941/941/941 943/943/943 944/944/944
v -4.875 0.0335 -4.904167
v -4.875 0.0335 -4.879167
v -4.875 0.0455 -4.879167
v -4.875 0.0455 -4.904167
vt 0 0
vt 0.025 0
vt 0.025 0.012
vt 0 0.012
vn -1 0 0
vn -1 0 0
vn -1 0 0
vn -1 0 0
f 945/945/945 946/946/946 947/947/947
f 945/945/945 947/947/947 948/948/948
v -3.325 0.0335 -4.904167
v -3.325 0.0455 -4.904167
v -3.325 0.0455 -4.879167
v -3.325 0.0335 -4.879167
vt 0 0
vt 0.012 0
vt 0.012 0.025
vt 0 0.025
vn 1 0 0
vn 1 0 0
vn 1 0 0
vn 1 0 0
f 949/949/949 950/950/950 951/951/951
f 949/949/949 951/951/951 952/952/952
v -4.875 0.0335 -4.904167
v -3.325 0.0335 -4.904167
v -3.325 0.0335 -4.879167
v -4.875 0.0335 -4.879167
vt 0 0
vt 1.55 0
vt 1.55 0.025
vt 0 0.025
vn 0 -1 0
vn 0 -1 0
vn 0 -1 0
vn 0 -1 0
f 953/953/953 954/954/954 955/955/955
f 953/953/953 955/955/955 956/956/956
v -4.875 0.0455 -4.904167
v -4.875 0.0455 -4.879167
v -3.325 0.0455 -4.879167
v -3.325 0.0455 -4.904167
vt 0 0
vt 0.025 0
vt 0.025 1.55
vt 0 1.55
vn 0 1 0
vn 0 1 0
vn 0 1 0
vn 0 1 0
f 957/957/957 958/958/958 959/959/959
f 957/957/957 959/959/959 960/960/960
v -4.875 0.0335 -4.720833
v -4.875 0.0455 -4.720833
v -3.325 0.0455 -4.720833
v -3.325 0.0335 -4.720833
vt 0 0
vt 0.012 0
vt 0.012 1.55
vt 0 1.55
vn 0 0 -1
vn 0 0 -1
vn 0 0 -1
vn 0 0 -1
f 961/961/961 962/962/962 963/963/963
f 961/961/961 963/963/963 964/964/964
v -4.875 0.0335 -4.695833
v -3.325 0.0335 -4.695833
v -3.325 0.0455 -4.695833
v -4.875 0.0455 -4.695833
vt 0 0
vt 1.55 0
vt 1.55 0.012
vt 0 0.012
vn 0 0 1
vn 0 0 1
vn 0 0 1
vn 0 0 1
f 965/965/965 966/966/966 967/967/967
f 965/965/965 967/967/967 968/968/968
v -4.875 0.0335 -4.720833
v -4.875 0.0335 -4.695833
v -4.875 0.0455 -4.695833
v -4.875 0.0455 -4.720833
vt 0 0
vt 0.025 0
vt 0.025 0.012
vt 0 0.012
vn -1 0 0
vn -1 0 0
vn -1 0 0
vn -1 0 0
f 969/969/969 970/970/970 971/971/971
f 969/969/969 971/971/971 972/972/972
v -3.325 0.0335 -4.720833
v -3.325 0.0455 -4.720833
v -3.325 0.0455 -4.695833
v -3.325 0.0335 -4.695833
vt 0 0
vt 0.012 0
vt 0.012 0.025
vt 0 0.025
vn 1 0 0
vn 1 0 0
vn 1 0 0
vn 1 0 0
f 973/973/973 974/974/974 975/975/975
f 973/973/973 975/975/975 976/976/976
v -4.875 0.0335 -4.720833
v -3.325 0.0335 -4.720833
v -3.325 0.0335 -4.695833
v -4.875 0.0335 -4.695833
vt 0 0
vt 1.55 0
vt 1.55 0.025
vt 0 0.025
vn 0 -1 0
vn 0 -1 0
vn 0 -1 0
vn 0 -1 0
f 977/977/977 978/978/978 979/979/979
f 977/977/977 979/979/979 980/980/980
v -4.875 0.0455 -4.720833
v -4.875 0.0455 -4.695833
v -3.325 0.0455 -4.695833
v -3.325 0.0455 -4.720833
vt 0 0
vt 0.025 0
vt 0.025 1.55
vt 0 1.55
vn 0 1 0
vn 0 1 0
vn 0 1 0
vn 0 1 0
f 981/981/981 982/982/982 983/983/983
f 981/981/981 983/983/983 984/984/984
v -4.875 0.0335 -4.5375
v -4.875 0.0455 -4.5375
v -3.325 0.0455 -4.5375
v -3.325 0.0335 -4.5375
vt 0 0
vt 0.012 0
vt 0.012 1.55
vt 0 1.55
vn 0 0 -1
vn 0 0 -1
vn 0 0 -1
vn 0 0 -1
f 985/985/985 986/986/986 987/987/987
f 985/985/985 987/987/987 988/988/988
v -4.875 0.0335 -4.5125
v -3.325 0.0335 -4.5125
v -3.325 0.0455 -4.5125
v -4.875 0.0455 -4.5125
vt 0 0
vt 1.55 0
vt 1.55 0.012
vt 0 0.012
vn 0 0 1
vn 0 0 1
vn 0 0 1
vn 0 0 1
f 989/989/989 990/990/990 991/991/991
f 989/989/989 991/991/991 992/992/992
v -4.875 0.0335 -4.5375
v -4.875 0.0335 -4.5125
v -4.875 0.0455 -4.5125
v -4.875 0.0455 -4.5375
vt 0 0
vt 0.025 0
vt 0.025 0.012
vt 0 0.012
vn -1 0 0
vn -1 0 0
vn -1 0 0
vn -1 0 0
f 993/993/993 994/994/994 995/995/995
f 993/993/993 995/995/995 996/996/996
v -3.325 0.0335 -4.5375
v -3.325 0.0455 -4.5375
v -3.325 0.0455 -4.5125
v -3.325 0.0335 -4.5125
vt 0 0
vt 0.012 0
vt 0.012 0.025
vt 0 0.025
vn 1 0 0
vn 1 0 0
vn 1 0 0
vn 1 0 0
f 997/997/997 998/998/998 999/999/999
f 997/997/997 999/999/999 1000/1000/1000
v -4.875 0.0335 -4.5375
v -3.325 0.0335 -4.5375
v -3.325 0.0335 -4.5125
v -4.875 0.0335 -4.5125
vt 0 0
vt 1.55 0
vt 1.55 0.025
vt 0 0.025
vn 0 -1 0
vn 0 -1 0
vn 0 -1 0
vn 0 -1 0
f 1001/1001/1001 1002/1002/1002 1003/1003/1003
f 1001/1001/1001 1003/1003/1003 1004/1004/1004
v -4.875 0.0455 -4.5375
v -4.875 0.0455 -4.5125
v -3.325 0.0455 -4.5125
v -3.325 0.0455 -4.5375
vt 0 0
vt 0.025 0
vt 0.025 1.55
vt 0 1.55
vn 0 1 0
vn 0 1 0
vn 0 1 0
vn 0 1 0
f 1005/1005/1005 1006/1006/1006 1007/1007/1007
f 1005/1005/1005 1007/1007/1007 1008/1008/1008
v -4.875 0.0335 -4.354167
v -4.875 0.0455 -4.354167
v -3.325 0.0455 -4.354167
v -3.325 0.0335 -4.354167
vt 0 0
vt 0.012 0
vt 0.012 1.55
vt 0 1.55
vn 0 0 -1
vn 0 0 -1
vn 0 0 -1
vn 0 0 -1
f 1009/1009/1009 1010/1010/1010 1011/1011/1011
f 1009/1009/1009 1011/1011/1011 1012/1012/1012
v -4.875 0.0335 -4.329167
v -3.325 0.0335 -4.329167
v -3.325 0.0455 -4.329167
v -4.875 0.0455 -4.329167
vt 0 0
vt 1.55 0
vt 1.55 0.012
vt 0 0.012
vn 0 0 1
vn 0 0 1
vn 0 0 1
vn 0 0 1
f 1013/1013/1013 1014/1014/1014 1015/1015/1015
f 1013/1013/1013 1015/1015/1015 1016/1016/1016
v -4.875 0.0335 -4.354167
v -4.875 0.0335 -4.329167
v -4.875 0.0455 -4.329167
v -4.875 0.0455 -4.354167
vt 0 0
vt 0.025 0
vt 0.025 0.012
vt 0 0.012
vn -1 0 0
vn -1 0 0
vn -1 0 0
vn -1 0 0
f 1017/1017/1017 1018/1018/1018 1019/1019/1019
f 1017/1017/1017 1019/1019/1019 1020/1020/1020
v -3.325 0.0335 -4.354167
v -3.325 0.0455 -4.354167
v -3.325 0.0455 -4.329167
v -3.325 0.0335 -4.329167
vt 0 0
vt 0.012 0
vt 0.012 0.025
vt 0 0.025
vn 1 0 0
vn 1 0 0
vn 1 0 0
vn 1 0 0
f 1021/1021/1021 1022/1022/1022 1023/1023/1023
f 1021/1021/1021 1023/1023/1023 1024/1024/1024
v -4.875 0.0335 -4.354167
v -3.325 0.0335 -4.354167
v -3.325 0.0335 -4.329167
v -4.875 0.0335 -4.329167
vt 0 0
vt 1.55 0
vt 1.55 0.025
vt 0 0.025
vn 0 -1 0
vn 0 -1 0
vn 0 -1 0
vn 0 -1 0
f 1025/1025/1025 1026/1026/1026 1027/1027/1027
f 1025/1025/1025 1027/1027/1027 1028/1028/1028
v -4.875 0.0455 -4.354167
v -4.875 0.0455 -4.329167
v -3.325 0.0455 -4.329167
v -3.325 0.0455 -4.354167
vt 0 0
vt 0.025 0
vt 0.025 1.55
vt 0 1.55
vn 0 1 0
vn 0 1 0
vn 0 1 0
vn 0 1 0
f 1029/1029/1029 1030/1030/1030 1031/1031/1031
f 1029/1029/1029 1031/1031/1031 1032/1032/1032
v -4.875 0.0335 -4.170833
v -4.875 0.0455 -4.170833
v -3.325 0.0455 -4.170833
v -3.325 0.0335 -4.170833
vt 0 0
vt 0.012 0
vt 0.012 1.55
vt 0 1.55
vn 0 0 -1
vn 0 0 -1
vn 0 0 -1
vn 0 0 -1
f 1033/1033/1033 1034/1034/1034 1035/1035/1035
f 1033/1033/1033 1035/1035/1035 1036/1036/1036
v -4.875 0.0335 -4.145833
v -3.325 0.0335 -4.145833
v -3.325 0.0455 -4.145833
v -4.875 0.0455 -4.145833
vt 0 0
vt 1.55 0
vt 1.55 0.012
vt 0 0.012
vn 0 0 1
vn 0 0 1
vn 0 0 1
vn 0 0 1
f 1037/1037/1037 1038/1038/1038 1039/1039/1039
f 1037/1037/1037 1039/1039/1039 1040/1040/1040
v -4.875 0.0335 -4.170833
v -4.875 0.0335 -4.145833
v -4.875 0.0455 -4.145833
v -4.875 0.0455 -4.170833
vt 0 0
vt 0.025 0
vt 0.025 0.012
vt 0 0.012
vn -1 0 0
vn -1 0 0
vn -1 0 0
vn -1 0 0
f 1041/1041/1041 1042/1042/1042 1043/1043/1043
f 1041/1041/1041 1043/1043/1043 1044/1044/1044
v -3.325 0.0335 -4.170833
v -3.325 0.0455 -4.170833
v -3.325 0.0455 -4.145833
v -3.325 0.0335 -4.145833
vt 0 0
vt 0.012 0
vt 0.012 0.025
vt 0 0.025
vn 1 0 0
vn 1 0 0
vn 1 0 0
vn 1 0 0
f 1045/1045/1045 1046/1046/1046 1047/1047/1047
f 1045/1045/1045 1047/1047/1047 1048/1048/1048
v -4.875 0.0335 -4.170833
v -3.325 0.0335 -4.170833
v -3.325 0.0335 -4.145833
v -4.875 0.0335 -4.145833
vt 0 0
vt 1.55 0
vt 1.55 0.025
vt 0 0.025
vn 0 -1 0
vn 0 -1 0
vn 0 -1 0
vn 0 -1 0
f 1049/1049/1049 1050/1050/1050 1051/1051/1051
f 1049/1049/1049 1051/1051/1051 1052/1052/1052
v -4.875 0.0455 -4.170833
v -4.875 0.0455 -4.145833
v -3.325 0.0455 -4.145833
v -3.325 0.0455 -4.170833
vt 0 0
vt 0.025 0
vt 0.025 1.55
vt 0 1.55
vn 0 1 0
vn 0 1 0
vn 0 1 0
vn 0 1 0
f 1053/1053/1053 1054/1054/1054 1055/1055/1055
f 1053/1053/1053 1055/1055/1055 1056/1056/1056
v -4.875 0.0335 -3.9875
v -4.875 0.0455 -3.9875
v -3.325 0.0455 -3.9875
v -3.325 0.0335 -3.9875
vt 0 0
vt 0.012 0
vt 0.012 1.55
vt 0 1.55
vn 0 0 -1
vn 0 0 -1
vn 0 0 -1
vn 0 0 -1
f 1057/1057/1057 1058/1058/1058 1059/1059/1059
f 1057/1057/1057 1059/1059/1059 1060/1060/1060
v -4.875 0.0335 -3.9625
v -3.325 0.0335 -3.9625
v -3.325 0.0455 -3.9625
v -4.875 0.0455 -3.9625
vt 0 0
vt 1.55 0
vt 1.55 0.012
vt 0 0.012
vn 0 0 1
vn 0 0 1
vn 0 0 1
vn 0 0 1
f 1061/1061/1061 1062/1062/1062 1063/1063/1063
f 1061/1061/1061 1063/1063/1063 1064/1064/1064
v -4.875 0.0335 -3.9875
v -4.875 0.0335 -3.9625
v -4.875 0.0455 -3.9625
v -4.875 0.0455 -3.9875
vt 0 0
vt 0.025 0
vt 0.025 0.012
vt 0 0.012
vn -1 0 0
vn -1 0 0
vn -1 0 0
vn -1 0 0
f 1065/1065/1065 1066/1066/1066 1067/1067/1067
f 1065/1065/1065 1067/1067/1067 1068/1068/1068
v -3.325 0.0335 -3.9875
v -3.325 0.0455 -3.9875
v -3.325 0.0455 -3.9625
v -3.325 0.0335 -3.9625
vt 0 0
vt 0.012 0
vt 0.012 0.025
vt 0 0.025
vn 1 0 0
vn 1 0 0
vn 1 0 0
vn 1 0 0
f 1069/1069/1069 1070/1070/1070 1071/1071/1071
f 1069/1069/1069 1071/1071/1071 1072/1072/1072
v -4.875 0.0335 -3.9875
v -3.325 0.0335 -3.9875
v -3.325 0.0335 -3.9625
v -4.875 0.0335 -3.9625
vt 0 0
vt 1.55 0
vt 1.55 0.025
vt 0 0.025
vn 0 -1 0
vn 0 -1 0
vn 0 -1 0
vn 0 -1 0
f 1073/1073/1073 1074/1074/1074 1075/1075/1075
f 1073/1073/1073 1075/1075/1075 1076/1076/1076
v -4.875 0.0455 -3.9875
v -4.875 0.0455 -3.9625
v -3.325 0.0455 -3.9625
v -3.325 0.0455 -3.9875
vt 0 0
vt 0.025 0
vt 0.025 1.55
vt 0 1.55
vn 0 1 0
vn 0 1 0
vn 0 1 0
vn 0 1 0
f 1077/1077/1077 1078/1078/1078 1079/1079/1079
f 1077/1077/1077 1079/1079/1079 1080/1080/1080
v -4.875 0.0335 -3.804167
v -4.875 0.0455 -3.804167
v -3.325 0.0455 -3.804167
v -3.325 0.0335 -3.804167
vt 0 0
vt 0.012 0
vt 0.012 1.55
vt 0 1.55
vn 0 0 -1
vn 0 0 -1
vn 0 0 -1
vn 0 0 -1
f 1081/1081/1081 1082/1082/1082 1083/1083/1083
f 1081/1081/1081 1083/1083/1083 1084/1084/1084
v -4.875 0.0335 -3.779167
v -3.325 0.0335 -3.779167
v -3.325 0.0455 -3.779167
v -4.875 0.0455 -3.779167
vt 0 0
vt 1.55 0
vt 1.55 0.012
vt 0 0.012
vn 0 0 1
vn 0 0 1
vn 0 0 1
vn 0 0 1
f 1085/1085/1085 1086/1086/1086 1087/1087/1087
f 1085/1085/1085 1087/1087/1087 1088/1088/1088
v -4.875 0.0335 -3.804167
v -4.875 0.0335 -3.779167
v -4.875 0.0455 -3.779167
v -4.875 0.0455 -3.804167
vt 0 0
vt 0.025 0
vt 0.025 0.012
vt 0 0.012
vn -1 0 0
vn -1 0 0
vn -1 0 0
vn -1 0 0
f 1089/1089/1089 1090/1090/1090 1091/1091/1091
f 1089/1089/1089 1091/1091/1091 1092/1092/1092
v -3.325 0.0335 -3.804167
v -3.325 0.0455 -3.804167
v -3.325 0.0455 -3.779167
v -3.325 0.0335 -3.779167
vt 0 0
vt 0.012 0
vt 0.012 0.025
vt 0 0.025
vn 1 0 0
vn 1 0 0
vn 1 0 0
vn 1 0 0
f 1093/1093/1093 1094/1094/1094 1095/1095/1095
f 1093/1093/1093 1095/1095/1095 1096/1096/1096
v -4.875 0.0335 -3.804167
v -3.325 0.0335 -3.804167
v -3.325 0.0335 -3.779167
v -4.875 0.0335 -3.779167
vt 0 0
vt 1.55 0
vt 1.55 0.025
vt 0 0.025
vn 0 -1 0
vn 0 -1 0
vn 0 -1 0
vn 0 -1 0
f 1097/1097/1097 1098/1098/1098 1099/1099/1099
f 1097/1097/1097 1099/1099/1099 1100/1100/1100
v -4.875 0.0455 -3.804167
v -4.875 0.0455 -3.779167
v -3.325 0.0455 -3.779167
v -3.325 0.0455 -3.804167
vt 0 0
vt 0.025 0
vt 0.025 1.55
vt 0 1.55
vn 0 1 0
vn 0 1 0
vn 0 1 0
vn 0 1 0
f 1101/1101/1101 1102/1102/1102 1103/1103/1103
f 1101/1101/1101 1103/1103/1103 1104/1104/1104
v 3.325 0.0335 -5.820833
v 3.325 0.0455 -5.820833
v 4.875 0.0455 -5.820833
v 4.875 0.0335 -5.820833
vt 0 0
vt 0.012 0
vt 0.012 1.55
vt 0 1.55
vn 0 0 -1
vn 0 0 -1
vn 0 0 -1
vn 0 0 -1
f 1105/1105/1105 1106/1106/1106 1107/1107/1107
f 1105/1105/1105 1107/1107/1107 1108/1108/1108
v 3.325 0.0335 -5.795833
v 4.875 0.0335 -5.795833
v 4.875 0.0455 -5.795833
v 3.325 0.0455 -5.795833
vt 0 0
vt 1.55 0
vt 1.55 0.012
vt 0 0.012
vn 0 0 1
vn 0 0 1
vn 0 0 1
vn 0 0 1
f 1109/1109/1109 1110/1110/1110 1111/1111/1111
f 1109/1109/1109 1111/1111/1111 1112/1112/1112
v 3.325 0.0335 -5.820833
v 3.325 0.0335 -5.795833
v 3.325 0.0455 -5.795833
v 3.325 0.0455 -5.820833
vt 0 0
vt 0.025 0
vt 0.025 0.012
vt 0 0.012
vn -1 0 0
vn -1 0 0
vn -1 0 0
vn -1 0 0
f 1113/1113/1113 1114/1114/1114 1115/1115/1115
f 1113/1113/1113 1115/1115/1115 1116/1116/1116
v 4.875 0.0335 -5.820833
v 4.875 0.0455 -5.820833
v 4.875 0.0455 -5.795833
v 4.875 0.0335 -5.795833
vt 0 0
vt 0.012 0
vt 0.012 0.025
vt 0 0.025
vn 1 0 0
vn 1 0 0
vn 1 0 0
vn 1 0 0
f 1117/1117/1117 1118/1118/1118 1119/1119/1119
f 1117/1117/1117 1119/1119/1119 1120/1120/1120
v 3.325 0.0335 -5.820833
v 4.875 0.0335 -5.820833
v 4.875 0.0335 -5.795833
v 3.325 0.0335 -5.795833
vt 0 0
vt 1.55 0
vt 1.55 0.025
vt 0 0.025
vn 0 -1 0
vn 0 -1 0
vn 0 -1 0
vn 0 -1 0
f 1121/1121/1121 1122/1122/1122 1123/1123/1123
f 1121/1121/1121 1123/1123/1123 1124/1124/1124
v 3.325 0.0455 -5.820833
v 3.325 0.0455 -5.795833
v 4.875 0.0455 -5.795833
v 4.875 0.0455 -5.820833
vt 0 0
vt 0.025 0
vt 0.025 1.55
vt 0 1.55
vn 0 1 0
vn 0 1 0
vn 0 1 0
vn 0 1 0
f 1125/1125/1125 1126/1126/1126 1127/1127/1127
f 1125/1125/1125 1127/1127/1127 1128/1128/1128
v 3.325 0.0335 -5.6375
v 3.325 0.0455 -5.6375
v 4.875 0.0455 -5.6375
v 4.875 0.0335 -5.6375
vt 0 0
vt 0.012 0
vt 0.012 1.55
vt 0 1.55
vn 0 0 -1
vn 0 0 -1
vn 0 0 -1
vn 0 0 -1
f 1129/1129/1129 1130/1130/1130 1131/1131/1131
f 1129/1129/1129 1131/1131/1131 1132/1132/1132
v 3.325 0.0335 -5.6125
v 4.875 0.0335 -5.6125
v 4.875 0.0455 -5.6125
v 3.325 0.0455 -5.6125
vt 0 0
vt 1.55 0
vt 1.55 0.012
vt 0 0.012
vn 0 0 1
vn 0 0 1
vn 0 0 1
vn 0 0 1
f 1133/1133/1133 1134/1134/1134 1135/1135/1135
f 1133/1133/1133 1135/1135/1135 1136/1136/1136
v 3.325 0.0335 -5.6375
v 3.325 0.0335 -5.6125
v 3.325 0.0455 -5.6125
v 3.325 0.0455 -5.6375
vt 0 0
vt 0.025 0
vt 0.025 0.012
vt 0 0.012
vn -1 0 0
vn -1 0 0
vn -1 0 0
vn -1 0 0
f 1137/1137/1137 1138/1138/1138 1139/1139/1139
f 1137/1137/1137 1139/1139/1139 1140/1140/1140
v 4.875 0.0335 -5.6375
v 4.875 0.0455 -5.6375
v 4.875 0.0455 -5.6125
v 4.875 0.0335 -5.6125
vt 0 0
vt 0.012 0
vt 0.012 0.025
vt 0 0.025
vn 1 0 0
vn 1 0 0
vn 1 0 0
vn 1 0 0
f 1141/1141/1141 1142/1142/1142 1143/1143/1143
f 1141/1141/1141 1143/1143/1143 1144/1144/1144
v 3.325 0.0335 -5.6375
v 4.875 0.0335 -5.6375
v 4.875 0.0335 -5.6125
v 3.325 0.0335 -5.6125
vt 0 0
vt 1.55 0
vt 1.55 0.025
vt 0 0.025
vn 0 -1 0
vn 0 -1 0
vn 0 -1 0
vn 0 -1 0
f 1145/1145/1145 1146/1146/1146 1147/1147/1147
f 1145/1145/1145 1147/1147/1147 1148/1148/1148
v 3.325 0.0455 -5.6375
v 3.325 0.0455 -5.6125
v 4.875 0.0455 -5.6125
v 4.875 0.0455 -5.6375
vt 0 0
vt 0.025 0
vt 0.025 1.55
vt 0 1.55
vn 0 1 0
vn 0 1 0
vn 0 1 0
vn 0 1 0
f 1149/1149/1149 1150/1150/1150 1151/1151/1151
f 1149/1149/1149 1151/1151/1151 1152/1152/1152
v 3.325 0.0335 -5.454167
v 3.325 0.0455 -5.454167
v 4.875 0.0455 -5.454167
v 4.875 0.0335 -5.454167
vt 0 0
vt 0.012 0
vt 0.012 1.55
vt 0 1.55
vn 0 0 -1
vn 0 0 -1
vn 0 0 -1
vn 0 0 -1
f 1153/1153/1153 1154/1154/1154 1155/1155/1155
f 1153/1153/1153 1155/1155/1155 1156/1156/1156
v 3.325 0.0335 -5.429167
v 4.875 0.0335 -5.429167
v 4.875 0.0455 -5.429167
v 3.325 0.0455 -5.429167
vt 0 0
vt 1.55 0
vt 1.55 0.012
vt 0 0.012
vn 0 0 1
vn 0 0 1
vn 0 0 1
vn 0 0 1
f 1157/1157/1157 1158/1158/1158 1159/1159/1159
f 1157/1157/1157 1159/1159/1159 1160/1160/1160
v 3.325 0.0335 -5.454167
v 3.325 0.0335 -5.429167
v 3.325 0.0455 -5.429167
v 3.325 0.0455 -5.454167
vt 0 0
vt 0.025 0
vt 0.025 0.012
vt 0 0.012
vn -1 0 0
vn -1 0 0
vn -1 0 0
vn -1 0 0
f 1161/1161/1161 1162/1162/1162 1163/1163/1163
f 1161/1161/1161 1163/1163/1163 1164/1164/1164
v 4.875 0.0335 -5.454167
v 4.875 0.0455 -5.454167
v 4.875 0.0455 -5.429167
v 4.875 0.0335 -5.429167
vt 0 0
vt 0.012 0
vt 0.012 0.025
vt 0 0.025
vn 1 0 0
vn 1 0 0
vn 1 0 0
vn 1 0 0
f 1165/1165/1165 1166/1166/1166 1167/1167/1167
f 1165/1165/1165 1167/1167/1167 1168/1168/1168
v 3.325 0.0335 -5.454167
v 4.875 0.0335 -5.454167
v 4.875 0.0335 -5.429167
v 3.325 0.0335 -5.429167
vt 0 0
vt 1.55 0
vt 1.55 0.025
vt 0 0.025
vn 0 -1 0
vn 0 -1 0
vn 0 -1 0
vn 0 -1 0
f 1169/1169/1169 1170/1170/1170 1171/1171/1171
f 1169/1169/1169 1171/1171/1171 1172/1172/1172
v 3.325 0.0455 -5.454167
v 3.325 0.0455 -5.429167
v 4.875 0.0455 -5.429167
v 4.875 0.0455 -5.454167
vt 0 0
vt 0.025 0
vt 0.025 1.55
vt 0 1.55
vn 0 1 0
vn 0 1 0
vn 0 1 0
vn 0 1 0
f 1173/1173/1173 1174/1174/1174 1175/1175/1175
f 1173/1173/1173 1175/1175/1175 1176/1176/1176
v 3.325 0.0335 -5.270833
v 3.325 0.0455 -5.270833
v 4.875 0.0455 -5.270833
v 4.875 0.0335 -5.270833
vt 0 0
vt 0.012 0
vt 0.012 1.55
vt 0 1.55
vn 0 0 -1
vn 0 0 -1
vn 0 0 -1
vn 0 0 -1
f 1177/1177/1177 1178/1178/1178 1179/1179/1179
f 1177/1177/1177 1179/1179/1179 1180/1180/1180
v 3.325 0.0335 -5.245833
v 4.875 0.0335 -5.245833
v 4.875 0.0455 -5.245833
v 3.325 0.0455 -5.245833
vt 0 0
vt 1.55 0
vt 1.55 0.012
vt 0 0.012
vn 0 0 1
vn 0 0 1
vn 0 0 1
vn 0 0 1
f 1181/1181/1181 1182/1182/1182 1183/1183/1183
f 1181/1181/1181 1183/1183/1183 1184/1184/1184
v 3.325 0.0335 -5.270833
v 3.325 0.0335 -5.245833
v 3.325 0.0455 -5.245833
v 3.325 0.0455 -5.270833
vt 0 0
vt 0.025 0
vt 0.025 0.012
vt 0 0.012
vn -1 0 0
vn -1 0 0
vn -1 0 0
vn -1 0 0
f 1185/1185/1185 1186/1186/1186 1187/1187/1187
f 1185/1185/1185 1187/1187/1187 1188/1188/1188
v 4.875 0.0335 -5.270833
v 4.875 0.0455 -5.270833
v 4.875 0.0455 -5.245833
v 4.875 0.0335 -5.245833
vt 0 0
vt 0.012 0
vt 0.012 0.025
vt 0 0.025
vn 1 0 0
vn 1 0 0
vn 1 0 0
vn 1 0 0
f 1189/1189/1189 1190/1190/1190 1191/1191/1191
f 1189/1189/1189 1191/1191/1191 1192/1192/1192
v 3.325 0.0335 -5.270833
v 4.875 0.0335 -5.270833
v 4.875 0.0335 -5.245833
v 3.325 0.0335 -5.245833
vt 0 0
vt 1.55 0
vt 1.55 0.025
vt 0 0.025
vn 0 -1 0
vn 0 -1 0
vn 0 -1 0
vn 0 -1 0
f 1193/1193/1193 1194/1194/1194 1195/1195/1195
f 1193/1193/1193 1195/1195/1195 1196/1196/1196
v 3.325 0.0455 -5.270833
v 3.325 0.0455 -5.245833
v 4.875 0.0455 -5.245833
v 4.875 0.0455 -5.270833
vt 0 0
vt 0.025 0
vt 0.025 1.55
vt 0 1.55
vn 0 1 0
vn 0 1 0
vn 0 1 0
vn 0 1 0
f 1197/1197/1197 1198/1198/1198 1199/1199/1199
f 1197/1197/1197 1199/1199/1199 1200/1200/1200
v 3.325 0.0335 -5.0875
v 3.325 0.0455 -5.0875
v 4.875 0.0455 -5.0875
v 4.875 0.0335 -5.0875
vt 0 0
vt 0.012 0
vt 0.012 1.55
vt 0 1.55
vn 0 0 -1
vn 0 0 -1
vn 0 0 -1
vn 0 0 -1
f 1201/1201/1201 1202/1202/1202 1203/1203/1203
f 1201/1201/1201 1203/1203/1203 1204/1204/1204
v 3.325 0.0335 -5.0625
v 4.875 0.0335 -5.0625
v 4.875 0.0455 -5.0625
v 3.325 0.0455 -5.0625
vt 0 0
vt 1.55 0
vt 1.55 0.012
vt 0 0.012
vn 0 0 1
vn 0 0 1
vn 0 0 1
vn 0 0 1
f 1205/1205/1205 1206/1206/1206 1207/1207/1207
f 1205/1205/1205 1207/1207/1207 1208/1208/1208
v 3.325 0.0335 -5.0875
v 3.325 0.0335 -5.0625
v 3.325 0.0455 -5.0625
v 3.325 0.0455 -5.0875
vt 0 0
vt 0.025 0
vt 0.025 0.012
vt 0 0.012
vn -1 0 0
vn -1 0 0
vn -1 0 0
vn -1 0 0
f 1209/1209/1209 1210/1210/1210 1211/1211/1211
f 1209/1209/1209 1211/1211/1211 1212/1212/1212
v 4.875 0.0335 -5.0875
v 4.875 0.0455 -5.0875
v 4.875 0.0455 -5.0625
v 4.875 0.0335 -5.0625
vt 0 0
vt 0.012 0
vt 0.012 0.025
vt 0 0.025
vn 1 0 0
vn 1 0 0
vn 1 0 0
vn 1 0 0
f 1213/1213/1213 1214/1214/1214 1215/1215/1215
f 1213/1213/1213 1215/1215/1215 1216/1216/1216
v 3.325 0.0335 -5.0875
v 4.875 0.0335 -5.0875
v 4.875 0.0335 -5.0625
v 3.325 0.0335 -5.0625
vt 0 0
vt 1.55 0
vt 1.55 0.025
vt 0 0.025
vn 0 -1 0
vn 0 -1 0
vn 0 -1 0
vn 0 -1 0
f 1217/1217/1217 1218/1218/1218 1219/1219/1219
f 1217/1217/1217 1219/1219/1219 1220/1220/1220
v 3.325 0.0455 -5.0875
v 3.325 0.0455 -5.0625
v 4.875 0.0455 -5.0625
v 4.875 0.0455 -5.0875
vt 0 0
vt 0.025 0
vt 0.025 1.55
vt 0 1.55
vn 0 1 0
vn 0 1 0
vn 0 1 0
vn 0 1 0
f 1221/1221/1221 1222/1222/1222 1223/1223/1223
f 1221/1221/1221 1223/1223/1223 1224/1224/1224
v 3.325 0.0335 -4.904167
v 3.325 0.0455 -4.904167
v 4.875 0.0455 -4.904167
v 4.875 0.0335 -4.904167
vt 0 0
vt 0.012 0
vt 0.012 1.55
vt 0 1.55
vn 0 0 -1
vn 0 0 -1
vn 0 0 -1
vn 0 0 -1
f 1225/1225/1225 1226/1226/1226 1227/1227/1227
f 1225/1225/1225 1227/1227/1227 1228/1228/1228
v 3.325 0.0335 -4.879167
v 4.875 0.0335 -4.879167
v 4.875 0.0455 -4.879167
v 3.325 0.0455 -4.879167
vt 0 0
vt 1.55 0
vt 1.55 0.012
vt 0 0.012
vn 0 0 1
vn 0 0 1
vn 0 0 1
vn 0 0 1
f 1229/1229/1229 1230/1230/1230 1231/1231/1231
f 1229/1229/1229 1231/1231/1231 1232/1232/1232
v 3.325 0.0335 -4.904167
v 3.325 0.0335 -4.879167
v 3.325 0.0455 -4.879167
v 3.325 0.0455 -4.904167
vt 0 0
vt 0.025 0
vt 0.025 0.012
vt 0 0.012
vn -1 0 0
vn -1 0 0
vn -1 0 0
vn -1 0 0
f 1233/1233/1233 1234/1234/1234 1235/1235/1235
f 1233/1233/1233 1235/1235/1235 1236/1236/1236
v 4.875 0.0335 -4.904167
v 4.875 0.0455 -4.904167
v 4.875 0.0455 -4.879167
v 4.875 0.0335 -4.879167
vt 0 0
vt 0.012 0
vt 0.012 0.025
vt 0 0.025
vn 1 0 0
vn 1 0 0
vn 1 0 0
vn 1 0 0
f 1237/1237/1237 1238/1238/1238 1239/1239/1239
f 1237/1237/1237 1239/1239/1239 1240/1240/1240
v 3.325 0.0335 -4.904167
v 4.875 0.0335 -4.904167
v 4.875 0.0335 -4.879167
v 3.325 0.0335 -4.879167
vt 0 0
vt 1.55 0
vt 1.55 0.025
vt 0 0.025
vn 0 -1 0
vn 0 -1 0
vn 0 -1 0
vn 0 -1 0
f 1241/1241/1241 1242/1242/1242 1243/1243/1243
f 1241/1241/1241 1243/1243/1243 1244/1244/1244
v 3.325 0.0455 -4.904167
v 3.325 0.0455 -4.879167
v 4.875 0.0455 -4.879167
v 4.875 0.0455 -4.904167
vt 0 0
vt 0.025 0
vt 0.025 1.55
vt 0 1.55
vn 0 1 0
vn 0 1 0
vn 0 1 0
vn 0 1 0
f 1245/1245/1245 1246/1246/1246 1247/1247/1247
f 1245/1245/1245 1247/1247/1247 1248/1248/1248
v 3.325 0.0335 -4.720833
v 3.325 0.0455 -4.720833
v 4.875 0.0455 -4.720833
v 4.875 0.0335 -4.720833
vt 0 0
vt 0.012 0
vt 0.012 1.55
vt 0 1.55
vn 0 0 -1
vn 0 0 -1
vn 0 0 -1
vn 0 0 -1
f 1249/1249/1249 1250/1250/1250 1251/1251/1251
f 1249/1249/1249 1251/1251/1251 1252/1252/1252
v 3.325 0.0335 -4.695833
v 4.875 0.0335 -4.695833
v 4.875 0.0455 -4.695833
v 3.325 0.0455 -4.695833
vt 0 0
vt 1.55 0
vt 1.55 0.012
vt 0 0.012
vn 0 0 1
vn 0 0 1
vn 0 0 1
vn 0 0 1
f 1253/1253/1253 1254/1254/1254 1255/1255/1255
f 1253/1253/1253 1255/1255/1255 1256/1256/1256
v 3.325 0.0335 -4.720833
v 3.325 0.0335 -4.695833
v 3.325 0.0455 -4.695833
v 3.325 0.0455 -4.720833
vt 0 0
vt 0.025 0
vt 0.025 0.012
vt 0 0.012
vn -1 0 0
vn -1 0 0
vn -1 0 0
vn -1 0 0
f 1257/1257/1257 1258/1258/1258 1259/1259/1259
f 1257/1257/1257 1259/1259/1259 1260/1260/1260
v 4.875 0.0335 -4.720833
v 4.875 0.0455 -4.720833
v 4.875 0.0455 -4.695833
v 4.875 0.0335 -4.695833
vt 0 0
vt 0.012 0
vt 0.012 0.025
vt 0 0.025
vn 1 0 0
vn 1 0 0
vn 1 0 0
vn 1 0 0
f 1261/1261/1261 1262/1262/1262 1263/1263/1263
f 1261/1261/1261 1263/1263/1263 1264/1264/1264
v 3.325 0.0335 -4.720833
v 4.875 0.0335 -4.720833
v 4.875 0.0335 -4.695833
v 3.325 0.0335 -4.695833
vt 0 0
vt 1.55 0
vt 1.55 0.025
vt 0 0.025
vn 0 -1 0
vn 0 -1 0
vn 0 -1 0
vn 0 -1 0
f 1265/1265/1265 1266/1266/1266 1267/1267/1267
f 1265/1265/1265 1267/1267/1267 1268/1268/1268
v 3.325 0.0455 -4.720833
v 3.325 0.0455 -4.695833
v 4.875 0.0455 -4.695833
v 4.875 0.0455 -4.720833
vt 0 0
vt 0.025 0
vt 0.025 1.55
vt 0 1.55
vn 0 1 0
vn 0 1 0
vn 0 1 0
vn 0 1 0
f 1269/1269/1269 1270/1270/1270 1271/1271/1271
f 1269/1269/1269 1271/1271/1271 1272/1272/1272
v 3.325 0.0335 -4.5375
v 3.325 0.0455 -4.5375
v 4.875 0.0455 -4.5375
v 4.875 0.0335 -4.5375
vt 0 0
vt 0.012 0
vt 0.012 1.55
vt 0 1.55
vn 0 0 -1
vn 0 0 -1
vn 0 0 -1
vn 0 0 -1
f 1273/1273/1273 1274/1274/1274 1275/1275/1275
f 1273/1273/1273 1275/1275/1275 1276/1276/1276
v 3.325 0.0335 -4.5125
v 4.875 0.0335 -4.5125
v 4.875 0.0455 -4.5125
v 3.325 0.0455 -4.5125
vt 0 0
vt 1.55 0
vt 1.55 0.012
vt 0 0.012
vn 0 0 1
vn 0 0 1
vn 0 0 1
vn 0 0 1
f 1277/1277/1277 1278/1278/1278 1279/1279/1279
f 1277/1277/1277 1279/1279/1279 1280/1280/1280
v 3.325 0.0335 -4.5375
v 3.325 0.0335 -4.5125
v 3.325 0.0455 -4.5125
v 3.325 0.0455 -4.5375
vt 0 0
vt 0.025 0
vt 0.025 0.012
vt 0 0.012
vn -1 0 0
vn -1 0 0
vn -1 0 0
vn -1 0 0
f 1281/1281/1281 1282/1282/1282 1283/1283/1283
f 1281/1281/1281 1283/1283/1283 1284/1284/1284
v 4.875 0.0335 -4.5375
v 4.875 0.0455 -4.5375
v 4.875 0.0455 -4.5125
v 4.875 0.0335 -4.5125
vt 0 0
vt 0.012 0
vt 0.012 0.025
vt 0 0.025
vn 1 0 0
vn 1 0 0
vn 1 0 0
vn 1 0 0
f 1285/1285/1285 1286/1286/1286 1287/1287/1287
f 1285/1285/1285 1287/1287/1287 1288/1288/1288
v 3.325 0.0335 -4.5375
v 4.875 0.0335 -4.5375
v 4.875 0.0335 -4.5125
v 3.325 0.0335 -4.5125
vt 0 0
vt 1.55 0
vt 1.55 0.025
vt 0 0.025
vn 0 -1 0
vn 0 -1 0
vn 0 -1 0
vn 0 -1 0
f 1289/1289/1289 1290/1290/1290 1291/1291/1291
f 1289/1289/1289 1291/1291/1291 1292/1292/1292
v 3.325 0.0455 -4.5375
v 3.325 0.0455 -4.5125
v 4.875 0.0455 -4.5125
v 4.875 0.0455 -4.5375
vt 0 0
vt 0.025 0
vt 0.025 1.55
vt 0 1.55
vn 0 1 0
vn 0 1 0
vn 0 1 0
vn 0 1 0
f 1293/1293/1293 1294/1294/1294 1295/1295/1295
f 1293/1293/1293 1295/1295/1295 1296/1296/1296
v 3.325 0.0335 -4.354167
v 3.325 0.0455 -4.354167
v 4.875 0.0455 -4.354167
v 4.875 0.0335 -4.354167
vt 0 0
vt 0.012 0
vt 0.012 1.55
vt 0 1.55
vn 0 0 -1
vn 0 0 -1
vn 0 0 -1
vn 0 0 -1
f 1297/1297/1297 1298/1298/1298 1299/1299/1299
f 1297/1297/1297 1299/1299/1299 1300/1300/1300
v 3.325 0.0335 -4.329167
v 4.875 0.0335 -4.329167
v 4.875 0.0455 -4.329167
v 3.325 0.0455 -4.329167
vt 0 0
vt 1.55 0
vt 1.55 0.012
vt 0 0.012
vn 0 0 1
vn 0 0 1
vn 0 0 1
vn 0 0 1
f 1301/1301/1301 1302/1302/1302 1303/1303/1303
f 1301/1301/1301 1303/1303/1303 1304/1304/1304
v 3.325 0.0335 -4.354167
v 3.325 0.0335 -4.329167
v 3.325 0.0455 -4.329167
v 3.325 0.0455 -4.354167
vt 0 0
vt 0.025 0
vt 0.025 0.012
vt 0 0.012
vn -1 0 0
vn -1 0 0
vn -1 0 0
vn -1 0 0
f 1305/1305/1305 1306/1306/1306 1307/1307/1307
f 1305/1305/1305 1307/1307/1307 1308/1308/1308
v 4.875 0.0335 -4.354167
v 4.875 0.0455 -4.354167
v 4.875 0.0455 -4.329167
v 4.875 0.0335 -4.329167
vt 0 0
vt 0.012 0
vt 0.012 0.025
vt 0 0.025
vn 1 0 0
vn 1 0 0
vn 1 0 0
vn 1 0 0
f 1309/1309/1309 1310/1310/1310 1311/1311/1311
f 1309/1309/1309 1311/1311/1311 1312/1312/1312
v 3.325 0.0335 -4.354167
v 4.875 0.0335 -4.354167
v 4.875 0.0335 -4.329167
v 3.325 0.0335 -4.329167
vt 0 0
vt 1.55 0
vt 1.55 0.025
vt 0 0.025
vn 0 -1 0
vn 0 -1 0
vn 0 -1 0
vn 0 -1 0
f 1313/1313/1313 1314/1314/1314 1315/1315/1315
f 1313/1313/1313 1315/1315/1315 1316/1316/1316
v 3.325 0.0455 -4.354167
v 3.325 0.0455 -4.329167
v 4.875 0.0455 -4.329167
v 4.875 0.0455 -4.354167
vt 0 0
vt 0.025 0
vt 0.025 1.55
vt 0 1.55
vn 0 1 0
vn 0 1 0
vn 0 1 0
vn 0 1 0
f 1317/1317/1317 1318/1318/1318 1319/1319/1319
f 1317/1317/1317 1319/1319/1319 1320/1320/1320
v 3.325 0.0335 -4.170833
v 3.325 0.0455 -4.170833
v 4.875 0.0455 -4.170833
v 4.875 0.0335 -4.170833
vt 0 0
vt 0.012 0
vt 0.012 1.55
vt 0 1.55
vn 0 0 -1
vn 0 0 -1
vn 0 0 -1
vn 0 0 -1
f 1321/1321/1321 1322/1322/1322 1323/1323/1323
f 1321/1321/1321 1323/1323/1323 1324/1324/1324
v 3.325 0.0335 -4.145833
v 4.875 0.0335 -4.145833
v 4.875 0.0455 -4.145833
v 3.325 0.0455 -4.145833
vt 0 0
vt 1.55 0
vt 1.55 0.012
vt 0 0.012
vn 0 0 1
vn 0 0 1
vn 0 0 1
vn 0 0 1
f 1325/1325/1325 1326/1326/1326 1327/1327/1327
f 1325/1325/1325 1327/1327/1327 1328/1328/1328
v 3.325 0.0335 -4.170833
v 3.325 0.0335 -4.145833
v 3.325 0.0455 -4.145833
v 3.325 0.0455 -4.170833
vt 0 0
vt 0.025 0
vt 0.025 0.012
vt 0 0.012
vn -1 0 0
vn -1 0 0
vn -1 0 0
vn -1 0 0
f 1329/1329/1329 1330/1330/1330 1331/1331/1331
f 1329/1329/1329 1331/1331/1331 1332/1332/1332
v 4.875 0.0335 -4.170833
v 4.875 0.0455 -4.170833
v 4.875 0.0455 -4.145833
v 4.875 0.0335 -4.145833
vt 0 0
vt 0.012 0
vt 0.012 0.025
vt 0 0.025
vn 1 0 0
vn 1 0 0
vn 1 0 0
vn 1 0 0
f 1333/1333/1333 1334/1334/1334 1335/1335/1335
f 1333/1333/1333 1335/1335/1335 1336/1336/1336
v 3.325 0.0335 -4.170833
v 4.875 0.0335 -4.170833
v 4.875 0.0335 -4.145833
v 3.325 0.0335 -4.145833
vt 0 0
vt 1.55 0
vt 1.55 0.025
vt 0 0.025
vn 0 -1 0
vn 0 -1 0
vn 0 -1 0
vn 0 -1 0
f 1337/1337/1337 1338/1338/1338 1339/1339/1339
f 1337/1337/1337 1339/1339/1339 1340/1340/1340
v 3.325 0.0455 -4.170833
v 3.325 0.0455 -4.145833
v 4.875 0.0455 -4.145833
v 4.875 0.0455 -4.170833
vt 0 0
vt 0.025 0
vt 0.025 1.55
vt 0 1.55
vn 0 1 0
vn 0 1 0
vn 0 1 0
vn 0 1 0
f 1341/1341/1341 1342/1342/1342 1343/1343/1343
f 1341/1341/1341 1343/1343/1343 1344/1344/1344
v 3.325 0.0335 -3.9875
v 3.325 0.0455 -3.9875
v 4.875 0.0455 -3.9875
v 4.875 0.0335 -3.9875
vt 0 0
vt 0.012 0
vt 0.012 1.55
vt 0 1.55
vn 0 0 -1
vn 0 0 -1
vn 0 0 -1
vn 0 0 -1
f 1345/1345/1345 1346/1346/1346 1347/1347/1347
f 1345/1345/1345 1347/1347/1347 1348/1348/1348
v 3.325 0.0335 -3.9625
v 4.875 0.0335 -3.9625
v 4.875 0.0455 -3.9625
v 3.325 0.0455 -3.9625
vt 0 0
vt 1.55 0
vt 1.55 0.012
vt 0 0.012
vn 0 0 1
vn 0 0 1
vn 0 0 1
vn 0 0 1
f 1349/1349/1349 1350/1350/1350 1351/1351/1351
f 1349/1349/1349 1351/1351/1351 1352/1352/1352
v 3.325 0.0335 -3.9875
v 3.325 0.0335 -3.9625
v 3.325 0.0455 -3.9625
v 3.325 0.0455 -3.9875
vt 0 0
vt 0.025 0
vt 0.025 0.012
vt 0 0.012
vn -1 0 0
vn -1 0 0
vn -1 0 0
vn -1 0 0
f 1353/1353/1353 1354/1354/1354 1355/1355/1355
f 1353/1353/1353 1355/1355/1355 1356/1356/1356
v 4.875 0.0335 -3.9875
v 4.875 0.0455 -3.9875
v 4.875 0.0455 -3.9625
v 4.875 0.0335 -3.9625
vt 0 0
vt 0.012 0
vt 0.012 0.025
vt 0 0.025
vn 1 0 0
vn 1 0 0
vn 1 0 0
vn 1 0 0
f 1357/1357/1357 1358/1358/1358 1359/1359/1359
f 1357/1357/1357 1359/1359/1359 1360/1360/1360
v 3.325 0.0335 -3.9875
v 4.875 0.0335 -3.9875
v 4.875 0.0335 -3.9625
v 3.325 0.0335 -3.9625
vt 0 0
vt 1.55 0
vt 1.55 0.025
vt 0 0.025
vn 0 -1 0
vn 0 -1 0
vn 0 -1 0
vn 0 -1 0
f 1361/1361/1361 1362/1362/1362 1363/1363/1363
f 1361/1361/1361 1363/1363/1363 1364/1364/1364
v 3.325 0.0455 -3.9875
v 3.325 0.0455 -3.9625
v 4.875 0.0455 -3.9625
v 4.875 0.0455 -3.9875
vt 0 0
vt 0.025 0
vt 0.025 1.55
vt 0 1.55
vn 0 1 0
vn 0 1 0
vn 0 1 0
vn 0 1 0
f 1365/1365/1365 1366/1366/1366 1367/1367/1367
f 1365/1365/1365 1367/1367/1367 1368/1368/1368
v 3.325 0.0335 -3.804167
v 3.325 0.0455 -3.804167
v 4.875 0.0455 -3.804167
v 4.875 0.0335 -3.804167
vt 0 0
vt 0.012 0
vt 0.012 1.55
vt 0 1.55
vn 0 0 -1
vn 0 0 -1
vn 0 0 -1
vn 0 0 -1
f 1369/1369/1369 1370/1370/1370 1371/1371/1371
f 1369/1369/1369 1371/1371/1371 1372/1372/1372
v 3.325 0.0335 -3.779167
v 4.875 0.0335 -3.779167
v 4.875 0.0455 -3.779167
v 3.325 0.0455 -3.779167
vt 0 0
vt 1.55 0
vt 1.55 0.012
vt 0 0.012
vn 0 0 1
vn 0 0 1
vn 0 0 1
vn 0 0 1
f 1373/1373/1373 1374/1374/1374 1375/1375/1375
f 1373/1373/1373 1375/1375/1375 1376/1376/1376
v 3.325 0.0335 -3.804167
v 3.325 0.0335 -3.779167
v 3.325 0.0455 -3.779167
v 3.325 0.0455 -3.804167
vt 0 0
vt 0.025 0
vt 0.025 0.012
vt 0 0.012
vn -1 0 0
vn -1 0 0
vn -1 0 0
vn -1 0 0
f 1377/1377/1377 1378/1378/1378 1379/1379/1379
f 1377/1377/1377 1379/1379/1379 1380/1380/1380
v 4.875 0.0335 -3.804167
v 4.875 0.0455 -3.804167
v 4.875 0.0455 -3.779167
v 4.875 0.0335 -3.779167
vt 0 0
vt 0.012 0
vt 0.012 0.025
vt 0 0.025
vn 1 0 0
vn 1 0 0
vn 1 0 0
vn 1 0 0
f 1381/1381/1381 1382/1382/1382 1383/1383/1383
f 1381/1381/1381 1383/1383/1383 1384/1384/1384
v 3.325 0.0335 -3.804167
v 4.875 0.0335 -3.804167
v 4.875 0.0335 -3.779167
v 3.325 0.0335 -3.779167
vt 0 0
vt 1.55 0
vt 1.55 0.025
vt 0 0.025
vn 0 -1 0
vn 0 -1 0
vn 0 -1 0
vn 0 -1 0
f 1385/1385/1385 1386/1386/1386 1387/1387/1387
f 1385/1385/1385 1387/1387/1387 1388/1388/1388
v 3.325 0.0455 -3.804167
v 3.325 0.0455 -3.779167
v 4.875 0.0455 -3.779167
v 4.875 0.0455 -3.804167
vt 0 0
vt 0.025 0
vt 0.025 1.55
vt 0 1.55
vn 0 1 0
vn 0 1 0
vn 0 1 0
vn 0 1 0
f 1389/1389/1389 1390/1390/1390 1391/1391/1391
f 1389/1389/1389 1391/1391/1391 1392/1392/1392
v -0.0175 0.12 7.376
v -0.0175 3.12 7.376
v 0.0175 3.12 7.376
v 0.0175 0.12 7.376
vt 0 0
vt 3 0
vt 3 0.035
vt 0 0.035
vn 0 0 -1
vn 0 0 -1
vn 0 0 -1
vn 0 0 -1
f 1393/1393/1393 1394/1394/1394 1395/1395/1395
f 1393/1393/1393 1395/1395/1395 1396/1396/1396
v -0.0175 0.12 7.394
v 0.0175 0.12 7.394
v 0.0175 3.12 7.394
v -0.0175 3.12 7.394
vt 0 0
vt 0.035 0
vt 0.035 3
vt 0 3
vn 0 0 1
vn 0 0 1
vn 0 0 1
vn 0 0 1
f 1397/1397/1397 1398/1398/1398 1399/1399/1399
f 1397/1397/1397 1399/1399/1399 1400/1400/1400
v -0.0175 0.12 7.376
v -0.0175 0.12 7.394
v -0.0175 3.12 7.394
v -0.0175 3.12 7.376
vt 0 0
vt 0.018 0
vt 0.018 3
vt 0 3
vn -1 0 0
vn -1 0 0
vn -1 0 0
vn -1 0 0
f 1401/1401/1401 1402/1402/1402 1403/1403/1403
f 1401/1401/1401 1403/1403/1403 1404/1404/1404
v 0.0175 0.12 7.376
v 0.0175 3.12 7.376
v 0.0175 3.12 7.394
v 0.0175 0.12 7.394
vt 0 0
vt 3 0
vt 3 0.018
vt 0 0.018
vn 1 0 0
vn 1 0 0
vn 1 0 0
vn 1 0 0
f 1405/1405/1405 1406/1406/1406 1407/1407/1407
f 1405/1405/1405 1407/1407/1407 1408/1408/1408
v -0.0175 0.12 7.376
v 0.0175 0.12 7.376
v 0.0175 0.12 7.394
v -0.0175 0.12 7.394
vt 0 0
vt 0.035 0
vt 0.035 0.018
vt 0 0.018
vn 0 -1 0
vn 0 -1 0
vn 0 -1 0
vn 0 -1 0
f 1409/1409/1409 1410/1410/1410 1411/1411/1411
f 1409/1409/1409 1411/1411/1411 1412/1412/1412
v -0.0175 3.12 7.376
v -0.0175 3.12 7.394
v 0.0175 3.12 7.394
v 0.0175 3.12 7.376
vt 0 0
vt 0.018 0
vt 0.018 0.035
vt 0 0.035
vn 0 1 0
vn 0 1 0
vn 0 1 0
vn 0 1 0
f 1413/1413/1413 1414/1414/1414 1415/1415/1415
f 1413/1413/1413 1415/1415/1415 1416/1416/1416
