# Original Breakwater Station authored geometry
o airlock_cool_light
v -1.6 4.9775 -5.91
v -1.6 5.0025 -5.91
v 1.6 5.0025 -5.91
v 1.6 4.9775 -5.91
vt 0 0
vt 0.025 0
vt 0.025 3.2
vt 0 3.2
vn 0 0 -1
vn 0 0 -1
vn 0 0 -1
vn 0 0 -1
f 1/1/1 2/2/2 3/3/3
f 1/1/1 3/3/3 4/4/4
v -1.6 4.9775 -5.69
v 1.6 4.9775 -5.69
v 1.6 5.0025 -5.69
v -1.6 5.0025 -5.69
vt 0 0
vt 3.2 0
vt 3.2 0.025
vt 0 0.025
vn 0 0 1
vn 0 0 1
vn 0 0 1
vn 0 0 1
f 5/5/5 6/6/6 7/7/7
f 5/5/5 7/7/7 8/8/8
v -1.6 4.9775 -5.91
v -1.6 4.9775 -5.69
v -1.6 5.0025 -5.69
v -1.6 5.0025 -5.91
vt 0 0
vt 0.22 0
vt 0.22 0.025
vt 0 0.025
vn -1 0 0
vn -1 0 0
vn -1 0 0
vn -1 0 0
f 9/9/9 10/10/10 11/11/11
f 9/9/9 11/11/11 12/12/12
v 1.6 4.9775 -5.91
v 1.6 5.0025 -5.91
v 1.6 5.0025 -5.69
v 1.6 4.9775 -5.69
vt 0 0
vt 0.025 0
vt 0.025 0.22
vt 0 0.22
vn 1 0 0
vn 1 0 0
vn 1 0 0
vn 1 0 0
f 13/13/13 14/14/14 15/15/15
f 13/13/13 15/15/15 16/16/16
v -1.6 4.9775 -5.91
v 1.6 4.9775 -5.91
v 1.6 4.9775 -5.69
v -1.6 4.9775 -5.69
vt 0 0
vt 3.2 0
vt 3.2 0.22
vt 0 0.22
vn 0 -1 0
vn 0 -1 0
vn 0 -1 0
vn 0 -1 0
f 17/17/17 18/18/18 19/19/19
f 17/17/17 19/19/19 20/20/20
v -1.6 5.0025 -5.91
v -1.6 5.0025 -5.69
v 1.6 5.0025 -5.69
v 1.6 5.0025 -5.91
vt 0 0
vt 0.22 0
vt 0.22 3.2
vt 0 3.2
vn 0 1 0
vn 0 1 0
vn 0 1 0
vn 0 1 0
f 21/21/21 22/22/22 23/23/23
f 21/21/21 23/23/23 24/24/24
v -1.6 4.9775 -1.21
v -1.6 5.0025 -1.21
v 1.6 5.0025 -1.21
v 1.6 4.9775 -1.21
vt 0 0
vt 0.025 0
vt 0.025 3.2
vt 0 3.2
vn 0 0 -1
vn 0 0 -1
vn 0 0 -1
vn 0 0 -1
f 25/25/25 26/26/26 27/27/27
f 25/25/25 27/27/27 28/28/28
v -1.6 4.9775 -0.99
v 1.6 4.9775 -0.99
v 1.6 5.0025 -0.99
v -1.6 5.0025 -0.99
vt 0 0
vt 3.2 0
vt 3.2 0.025
vt 0 0.025
vn 0 0 1
vn 0 0 1
vn 0 0 1
vn 0 0 1
f 29/29/29 30/30/30 31/31/31
f 29/29/29 31/31/31 32/32/32
v -1.6 4.9775 -1.21
v -1.6 4.9775 -0.99
v -1.6 5.0025 -0.99
v -1.6 5.0025 -1.21
vt 0 0
vt 0.22 0
vt 0.22 0.025
vt 0 0.025
vn -1 0 0
vn -1 0 0
vn -1 0 0
vn -1 0 0
f 33/33/33 34/34/34 35/35/35
f 33/33/33 35/35/35 36/36/36
v 1.6 4.9775 -1.21
v 1.6 5.0025 -1.21
v 1.6 5.0025 -0.99
v 1.6 4.9775 -0.99
vt 0 0
vt 0.025 0
vt 0.025 0.22
vt 0 0.22
vn 1 0 0
vn 1 0 0
vn 1 0 0
vn 1 0 0
f 37/37/37 38/38/38 39/39/39
f 37/37/37 39/39/39 40/40/40
v -1.6 4.9775 -1.21
v 1.6 4.9775 -1.21
v 1.6 4.9775 -0.99
v -1.6 4.9775 -0.99
vt 0 0
vt 3.2 0
vt 3.2 0.22
vt 0 0.22
vn 0 -1 0
vn 0 -1 0
vn 0 -1 0
vn 0 -1 0
f 41/41/41 42/42/42 43/43/43
f 41/41/41 43/43/43 44/44/44
v -1.6 5.0025 -1.21
v -1.6 5.0025 -0.99
v 1.6 5.0025 -0.99
v 1.6 5.0025 -1.21
vt 0 0
vt 0.22 0
vt 0.22 3.2
vt 0 3.2
vn 0 1 0
vn 0 1 0
vn 0 1 0
vn 0 1 0
f 45/45/45 46/46/46 47/47/47
f 45/45/45 47/47/47 48/48/48
v -1.6 4.9775 4.69
v -1.6 5.0025 4.69
v 1.6 5.0025 4.69
v 1.6 4.9775 4.69
vt 0 0
vt 0.025 0
vt 0.025 3.2
vt 0 3.2
vn 0 0 -1
vn 0 0 -1
vn 0 0 -1
vn 0 0 -1
f 49/49/49 50/50/50 51/51/51
f 49/49/49 51/51/51 52/52/52
v -1.6 4.9775 4.91
v 1.6 4.9775 4.91
v 1.6 5.0025 4.91
v -1.6 5.0025 4.91
vt 0 0
vt 3.2 0
vt 3.2 0.025
vt 0 0.025
vn 0 0 1
vn 0 0 1
vn 0 0 1
vn 0 0 1
f 53/53/53 54/54/54 55/55/55
f 53/53/53 55/55/55 56/56/56
v -1.6 4.9775 4.69
v -1.6 4.9775 4.91
v -1.6 5.0025 4.91
v -1.6 5.0025 4.69
vt 0 0
vt 0.22 0
vt 0.22 0.025
vt 0 0.025
vn -1 0 0
vn -1 0 0
vn -1 0 0
vn -1 0 0
f 57/57/57 58/58/58 59/59/59
f 57/57/57 59/59/59 60/60/60
v 1.6 4.9775 4.69
v 1.6 5.0025 4.69
v 1.6 5.0025 4.91
v 1.6 4.9775 4.91
vt 0 0
vt 0.025 0
vt 0.025 0.22
vt 0 0.22
vn 1 0 0
vn 1 0 0
vn 1 0 0
vn 1 0 0
f 61/61/61 62/62/62 63/63/63
f 61/61/61 63/63/63 64/64/64
v -1.6 4.9775 4.69
v 1.6 4.9775 4.69
v 1.6 4.9775 4.91
v -1.6 4.9775 4.91
vt 0 0
vt 3.2 0
vt 3.2 0.22
vt 0 0.22
vn 0 -1 0
vn 0 -1 0
vn 0 -1 0
vn 0 -1 0
f 65/65/65 66/66/66 67/67/67
f 65/65/65 67/67/67 68/68/68
v -1.6 5.0025 4.69
v -1.6 5.0025 4.91
v 1.6 5.0025 4.91
v 1.6 5.0025 4.69
vt 0 0
vt 0.22 0
vt 0.22 3.2
vt 0 3.2
vn 0 1 0
vn 0 1 0
vn 0 1 0
vn 0 1 0
f 69/69/69 70/70/70 71/71/71
f 69/69/69 71/71/71 72/72/72
