# Original Breakwater Station authored geometry
o airlock_amber_light
v -2.1975 1.175 -7.3525
v -2.1975 2.625 -7.3525
v -2.1625 2.625 -7.3525
v -2.1625 1.175 -7.3525
vt 0 0
vt 1.45 0
vt 1.45 0.035
vt 0 0.035
vn 0 0 -1
vn 0 0 -1
vn 0 0 -1
vn 0 0 -1
f 1/1/1 2/2/2 3/3/3
f 1/1/1 3/3/3 4/4/4
v -2.1975 1.175 -7.3275
v -2.1625 1.175 -7.3275
v -2.1625 2.625 -7.3275
v -2.1975 2.625 -7.3275
vt 0 0
vt 0.035 0
vt 0.035 1.45
vt 0 1.45
vn 0 0 1
vn 0 0 1
vn 0 0 1
vn 0 0 1
f 5/5/5 6/6/6 7/7/7
f 5/5/5 7/7/7 8/8/8
v -2.1975 1.175 -7.3525
v -2.1975 1.175 -7.3275
v -2.1975 2.625 -7.3275
v -2.1975 2.625 -7.3525
vt 0 0
vt 0.025 0
vt 0.025 1.45
vt 0 1.45
vn -1 0 0
vn -1 0 0
vn -1 0 0
vn -1 0 0
f 9/9/9 10/10/10 11/11/11
f 9/9/9 11/11/11 12/12/12
v -2.1625 1.175 -7.3525
v -2.1625 2.625 -7.3525
v -2.1625 2.625 -7.3275
v -2.1625 1.175 -7.3275
vt 0 0
vt 1.45 0
vt 1.45 0.025
vt 0 0.025
vn 1 0 0
vn 1 0 0
vn 1 0 0
vn 1 0 0
f 13/13/13 14/14/14 15/15/15
f 13/13/13 15/15/15 16/16/16
v -2.1975 1.175 -7.3525
v -2.1625 1.175 -7.3525
v -2.1625 1.175 -7.3275
v -2.1975 1.175 -7.3275
vt 0 0
vt 0.035 0
vt 0.035 0.025
vt 0 0.025
vn 0 -1 0
vn 0 -1 0
vn 0 -1 0
vn 0 -1 0
f 17/17/17 18/18/18 19/19/19
f 17/17/17 19/19/19 20/20/20
v -2.1975 2.625 -7.3525
v -2.1975 2.625 -7.3275
v -2.1625 2.625 -7.3275
v -2.1625 2.625 -7.3525
vt 0 0
vt 0.025 0
vt 0.025 0.035
vt 0 0.035
vn 0 1 0
vn 0 1 0
vn 0 1 0
vn 0 1 0
f 21/21/21 22/22/22 23/23/23
f 21/21/21 23/23/23 24/24/24
v 2.1625 1.175 -7.3525
v 2.1625 2.625 -7.3525
v 2.1975 2.625 -7.3525
v 2.1975 1.175 -7.3525
vt 0 0
vt 1.45 0
vt 1.45 0.035
vt 0 0.035
vn 0 0 -1
vn 0 0 -1
vn 0 0 -1
vn 0 0 -1
f 25/25/25 26/26/26 27/27/27
f 25/25/25 27/27/27 28/28/28
v 2.1625 1.175 -7.3275
v 2.1975 1.175 -7.3275
v 2.1975 2.625 -7.3275
v 2.1625 2.625 -7.3275
vt 0 0
vt 0.035 0
vt 0.035 1.45
vt 0 1.45
vn 0 0 1
vn 0 0 1
vn 0 0 1
vn 0 0 1
f 29/29/29 30/30/30 31/31/31
f 29/29/29 31/31/31 32/32/32
v 2.1625 1.175 -7.3525
v 2.1625 1.175 -7.3275
v 2.1625 2.625 -7.3275
v 2.1625 2.625 -7.3525
vt 0 0
vt 0.025 0
vt 0.025 1.45
vt 0 1.45
vn -1 0 0
vn -1 0 0
vn -1 0 0
vn -1 0 0
f 33/33/33 34/34/34 35/35/35
f 33/33/33 35/35/35 36/36/36
v 2.1975 1.175 -7.3525
v 2.1975 2.625 -7.3525
v 2.1975 2.625 -7.3275
v 2.1975 1.175 -7.3275
vt 0 0
vt 1.45 0
vt 1.45 0.025
vt 0 0.025
vn 1 0 0
vn 1 0 0
vn 1 0 0
vn 1 0 0
f 37/37/37 38/38/38 39/39/39
f 37/37/37 39/39/39 40/40/40
v 2.1625 1.175 -7.3525
v 2.1975 1.175 -7.3525
v 2.1975 1.175 -7.3275
v 2.1625 1.175 -7.3275
vt 0 0
vt 0.035 0
vt 0.035 0.025
vt 0 0.025
vn 0 -1 0
vn 0 -1 0
vn 0 -1 0
vn 0 -1 0
f 41/41/41 42/42/42 43/43/43
f 41/41/41 43/43/43 44/44/44
v 2.1625 2.625 -7.3525
v 2.1625 2.625 -7.3275
v 2.1975 2.625 -7.3275
v 2.1975 2.625 -7.3525
vt 0 0
vt 0.025 0
vt 0.025 0.035
vt 0 0.035
vn 0 1 0
vn 0 1 0
vn 0 1 0
vn 0 1 0
f 45/45/45 46/46/46 47/47/47
f 45/45/45 47/47/47 48/48/48
v -4.0725 1.92 1.11
v -4.0725 1.98 1.11
v -4.0475 1.98 1.11
v -4.0475 1.92 1.11
vt 0 0
vt 0.06 0
vt 0.06 0.025
vt 0 0.025
vn 0 0 -1
vn 0 0 -1
vn 0 0 -1
vn 0 0 -1
f 49/49/49 50/50/50 51/51/51
f 49/49/49 51/51/51 52/52/52
v -4.0725 1.92 1.69
v -4.0475 1.92 1.69
v -4.0475 1.98 1.69
v -4.0725 1.98 1.69
vt 0 0
vt 0.025 0
vt 0.025 0.06
vt 0 0.06
vn 0 0 1
vn 0 0 1
vn 0 0 1
vn 0 0 1
f 53/53/53 54/54/54 55/55/55
f 53/53/53 55/55/55 56/56/56
v -4.0725 1.92 1.11
v -4.0725 1.92 1.69
v -4.0725 1.98 1.69
v -4.0725 1.98 1.11
vt 0 0
vt 0.58 0
vt 0.58 0.06
vt 0 0.06
vn -1 0 0
vn -1 0 0
vn -1 0 0
vn -1 0 0
f 57/57/57 58/58/58 59/59/59
f 57/57/57 59/59/59 60/60/60
v -4.0475 1.92 1.11
v -4.0475 1.98 1.11
v -4.0475 1.98 1.69
v -4.0475 1.92 1.69
vt 0 0
vt 0.06 0
vt 0.06 0.58
vt 0 0.58
vn 1 0 0
vn 1 0 0
vn 1 0 0
vn 1 0 0
f 61/61/61 62/62/62 63/63/63
f 61/61/61 63/63/63 64/64/64
v -4.0725 1.92 1.11
v -4.0475 1.92 1.11
v -4.0475 1.92 1.69
v -4.0725 1.92 1.69
vt 0 0
vt 0.025 0
vt 0.025 0.58
vt 0 0.58
vn 0 -1 0
vn 0 -1 0
vn 0 -1 0
vn 0 -1 0
f 65/65/65 66/66/66 67/67/67
f 65/65/65 67/67/67 68/68/68
v -4.0725 1.98 1.11
v -4.0725 1.98 1.69
v -4.0475 1.98 1.69
v -4.0475 1.98 1.11
vt 0 0
vt 0.58 0
vt 0.58 0.025
vt 0 0.025
vn 0 1 0
vn 0 1 0
vn 0 1 0
vn 0 1 0
f 69/69/69 70/70/70 71/71/71
f 69/69/69 71/71/71 72/72/72
v -4.0725 1.92 2.56
v -4.0725 1.98 2.56
v -4.0475 1.98 2.56
v -4.0475 1.92 2.56
vt 0 0
vt 0.06 0
vt 0.06 0.025
vt 0 0.025
vn 0 0 -1
vn 0 0 -1
vn 0 0 -1
vn 0 0 -1
f 73/73/73 74/74/74 75/75/75
f 73/73/73 75/75/75 76/76/76
v -4.0725 1.92 3.14
v -4.0475 1.92 3.14
v -4.0475 1.98 3.14
v -4.0725 1.98 3.14
vt 0 0
vt 0.025 0
vt 0.025 0.06
vt 0 0.06
vn 0 0 1
vn 0 0 1
vn 0 0 1
vn 0 0 1
f 77/77/77 78/78/78 79/79/79
f 77/77/77 79/79/79 80/80/80
v -4.0725 1.92 2.56
v -4.0725 1.92 3.14
v -4.0725 1.98 3.14
v -4.0725 1.98 2.56
vt 0 0
vt 0.58 0
vt 0.58 0.06
vt 0 0.06
vn -1 0 0
vn -1 0 0
vn -1 0 0
vn -1 0 0
f 81/81/81 82/82/82 83/83/83
f 81/81/81 83/83/83 84/84/84
v -4.0475 1.92 2.56
v -4.0475 1.98 2.56
v -4.0475 1.98 3.14
v -4.0475 1.92 3.14
vt 0 0
vt 0.06 0
vt 0.06 0.58
vt 0 0.58
vn 1 0 0
vn 1 0 0
vn 1 0 0
vn 1 0 0
f 85/85/85 86/86/86 87/87/87
f 85/85/85 87/87/87 88/88/88
v -4.0725 1.92 2.56
v -4.0475 1.92 2.56
v -4.0475 1.92 3.14
v -4.0725 1.92 3.14
vt 0 0
vt 0.025 0
vt 0.025 0.58
vt 0 0.58
vn 0 -1 0
vn 0 -1 0
vn 0 -1 0
vn 0 -1 0
f 89/89/89 90/90/90 91/91/91
f 89/89/89 91/91/91 92/92/92
v -4.0725 1.98 2.56
v -4.0725 1.98 3.14
v -4.0475 1.98 3.14
v -4.0475 1.98 2.56
vt 0 0
vt 0.58 0
vt 0.58 0.025
vt 0 0.025
vn 0 1 0
vn 0 1 0
vn 0 1 0
vn 0 1 0
f 93/93/93 94/94/94 95/95/95
f 93/93/93 95/95/95 96/96/96
v -4.0725 1.92 4.01
v -4.0725 1.98 4.01
v -4.0475 1.98 4.01
v -4.0475 1.92 4.01
vt 0 0
vt 0.06 0
vt 0.06 0.025
vt 0 0.025
vn 0 0 -1
vn 0 0 -1
vn 0 0 -1
vn 0 0 -1
f 97/97/97 98/98/98 99/99/99
f 97/97/97 99/99/99 100/100/100
v -4.0725 1.92 4.59
v -4.0475 1.92 4.59
v -4.0475 1.98 4.59
v -4.0725 1.98 4.59
vt 0 0
vt 0.025 0
vt 0.025 0.06
vt 0 0.06
vn 0 0 1
vn 0 0 1
vn 0 0 1
vn 0 0 1
f 101/101/101 102/102/102 103/103/103
f 101/101/101 103/103/103 104/104/104
v -4.0725 1.92 4.01
v -4.0725 1.92 4.59
v -4.0725 1.98 4.59
v -4.0725 1.98 4.01
vt 0 0
vt 0.58 0
vt 0.58 0.06
vt 0 0.06
vn -1 0 0
vn -1 0 0
vn -1 0 0
vn -1 0 0
f 105/105/105 106/106/106 107/107/107
f 105/105/105 107/107/107 108/108/108
v -4.0475 1.92 4.01
v -4.0475 1.98 4.01
v -4.0475 1.98 4.59
v -4.0475 1.92 4.59
vt 0 0
vt 0.06 0
vt 0.06 0.58
vt 0 0.58
vn 1 0 0
vn 1 0 0
vn 1 0 0
vn 1 0 0
f 109/109/109 110/110/110 111/111/111
f 109/109/109 111/111/111 112/112/112
v -4.0725 1.92 4.01
v -4.0475 1.92 4.01
v -4.0475 1.92 4.59
v -4.0725 1.92 4.59
vt 0 0
vt 0.025 0
vt 0.025 0.58
vt 0 0.58
vn 0 -1 0
vn 0 -1 0
vn 0 -1 0
vn 0 -1 0
f 113/113/113 114/114/114 115/115/115
f 113/113/113 115/115/115 116/116/116
v -4.0725 1.98 4.01
v -4.0725 1.98 4.59
v -4.0475 1.98 4.59
v -4.0475 1.98 4.01
vt 0 0
vt 0.58 0
vt 0.58 0.025
vt 0 0.025
vn 0 1 0
vn 0 1 0
vn 0 1 0
vn 0 1 0
f 117/117/117 118/118/118 119/119/119
f 117/117/117 119/119/119 120/120/120
v 3.95 2.9475 2.89
v 3.95 2.9725 2.89
v 5.45 2.9725 2.89
v 5.45 2.9475 2.89
vt 0 0
vt 0.025 0
vt 0.025 1.5
vt 0 1.5
vn 0 0 -1
vn 0 0 -1
vn 0 0 -1
vn 0 0 -1
f 121/121/121 122/122/122 123/123/123
f 121/121/121 123/123/123 124/124/124
v 3.95 2.9475 3.11
v 5.45 2.9475 3.11
v 5.45 2.9725 3.11
v 3.95 2.9725 3.11
vt 0 0
vt 1.5 0
vt 1.5 0.025
vt 0 0.025
vn 0 0 1
vn 0 0 1
vn 0 0 1
vn 0 0 1
f 125/125/125 126/126/126 127/127/127
f 125/125/125 127/127/127 128/128/128
v 3.95 2.9475 2.89
v 3.95 2.9475 3.11
v 3.95 2.9725 3.11
v 3.95 2.9725 2.89
vt 0 0
vt 0.22 0
vt 0.22 0.025
vt 0 0.025
vn -1 0 0
vn -1 0 0
vn -1 0 0
vn -1 0 0
f 129/129/129 130/130/130 131/131/131
f 129/129/129 131/131/131 132/132/132
v 5.45 2.9475 2.89
v 5.45 2.9725 2.89
v 5.45 2.9725 3.11
v 5.45 2.9475 3.11
vt 0 0
vt 0.025 0
vt 0.025 0.22
vt 0 0.22
vn 1 0 0
vn 1 0 0
vn 1 0 0
vn 1 0 0
f 133/133/133 134/134/134 135/135/135
f 133/133/133 135/135/135 136/136/136
v 3.95 2.9475 2.89
v 5.45 2.9475 2.89
v 5.45 2.9475 3.11
v 3.95 2.9475 3.11
vt 0 0
vt 1.5 0
vt 1.5 0.22
vt 0 0.22
vn 0 -1 0
vn 0 -1 0
vn 0 -1 0
vn 0 -1 0
f 137/137/137 138/138/138 139/139/139
f 137/137/137 139/139/139 140/140/140
v 3.95 2.9725 2.89
v 3.95 2.9725 3.11
v 5.45 2.9725 3.11
v 5.45 2.9725 2.89
vt 0 0
vt 0.22 0
vt 0.22 1.5
vt 0 1.5
vn 0 1 0
vn 0 1 0
vn 0 1 0
vn 0 1 0
f 141/141/141 142/142/142 143/143/143
f 141/141/141 143/143/143 144/144/144
