# Original Breakwater Station authored geometry
o coast_coast_rock
v 68 -3.1 -118
v 78.26 0.42 -112.24
v 106.88 6 -108.72
v 122 -3.1 -118
vt 0 0
vt 12.281515 0
vt 39.440868 11.180371
vt 45.1117 28.646221
vn -0.143836 0.937544 -0.316736
vn -0.143836 0.937544 -0.316736
vn -0.143836 0.937544 -0.316736
vn -0.143836 0.937544 -0.316736
f 1/1/1 2/2/2 3/3/3
f 1/1/1 3/3/3 4/4/4
v 122 -3.1 -118
v 106.88 6 -108.72
v 114.98 0.6 -92.72
v 122 -3.1 -86
vt 0 0
vt 19.938475 0
vt 18.778306 18.692887
vt 14.893817 28.314479
vn 0.525109 0.850769 0.021298
vn 0.525109 0.850769 0.021298
vn 0.525109 0.850769 0.021298
vn 0.525109 0.850769 0.021298
f 5/5/5 6/6/6 7/7/7
f 5/5/5 7/7/7 8/8/8
v 122 -3.1 -86
v 114.98 0.6 -92.72
v 79.88 2.04 -95.28
v 68 -3.1 -86
vt 0 0
vt 10.3985 0
vt 36.261192 23.911469
vt 36.455258 39.837321
vn 0.000824 0.876359 0.481658
vn 0.000824 0.876359 0.481658
vn 0.000824 0.876359 0.481658
vn 0.000824 0.876359 0.481658
f 9/9/9 10/10/10 11/11/11
f 9/9/9 11/11/11 12/12/12
v 68 -3.1 -86
v 79.88 2.04 -95.28
v 78.26 0.42 -112.24
v 68 -3.1 -118
vt 0 0
vt 15.927096 0
vt 24.07776 15.048491
vt 18.644955 25.966141
vn -0.426437 0.903369 -0.045556
vn -0.426437 0.903369 -0.045556
vn -0.426437 0.903369 -0.045556
vn -0.426437 0.903369 -0.045556
f 13/13/13 14/14/14 15/15/15
f 13/13/13 15/15/15 16/16/16
v 78.26 0.42 -112.24
v 79.88 2.04 -95.28
v 114.98 0.6 -92.72
vt 0 0
vt 17.114041 0
vt 22.837225 34.754602
vn 0.048033 0.993875 -0.099522
vn 0.048033 0.993875 -0.099522
vn 0.048033 0.993875 -0.099522
f 17/17/17 18/18/18 19/19/19
v 78.26 0.42 -112.24
v 114.98 0.6 -92.72
v 106.88 6 -108.72
vt 0 0
vt 41.58631 0
vt 26.947358 11.682084
vn -0.2229 0.883892 0.411157
vn -0.2229 0.883892 0.411157
vn -0.2229 0.883892 0.411157
f 20/20/20 21/21/21 22/22/22
v 101 -3.1 -94.5
v 107.84 -1.1 -89.28
v 126.92 2 -86.09
v 137 -3.1 -94.5
vt 0 0
vt 8.833686 0
vt 26.19439 9.079563
vt 27.875115 22.35222
vn -0.12221 0.969728 -0.211406
vn -0.12221 0.969728 -0.211406
vn -0.12221 0.969728 -0.211406
vn -0.12221 0.969728 -0.211406
f 23/23/23 24/24/24 25/25/25
f 23/23/23 25/25/25 26/26/26
v 137 -3.1 -94.5
v 126.92 2 -86.09
v 132.32 -1 -71.59
v 137 -3.1 -65.5
vt 0 0
vt 14.083483 0
vt 17.790876 15.318787
vt 17.317449 23.258853
vn 0.459716 0.887978 0.012515
vn 0.459716 0.887978 0.012515
vn 0.459716 0.887978 0.012515
vn 0.459716 0.887978 0.012515
f 27/27/27 28/28/28 29/29/29
f 27/27/27 29/29/29 30/30/30
v 137 -3.1 -65.5
v 132.32 -1 -71.59
v 108.92 -0.2 -73.91
v 101 -3.1 -65.5
vt 0 0
vt 7.962443 0
vt 23.701432 17.489043
vt 21.159335 29.12529
vn 0 0.945373 0.325991
vn 0 0.945373 0.325991
vn 0 0.945373 0.325991
vn 0 0.945373 0.325991
f 31/31/31 32/32/32 33/33/33
f 31/31/31 33/33/33 34/34/34
v 101 -3.1 -65.5
v 108.92 -0.2 -73.91
v 107.84 -1.1 -89.28
v 101 -3.1 -94.5
vt 0 0
vt 11.910688 0
vt 21.825993 11.827935
vt 20.476566 20.519103
vn -0.370119 0.928551 -0.028365
vn -0.370119 0.928551 -0.028365
vn -0.370119 0.928551 -0.028365
vn -0.370119 0.928551 -0.028365
f 35/35/35 36/36/36 37/37/37
f 35/35/35 37/37/37 38/38/38
v 107.84 -1.1 -89.28
v 108.92 -0.2 -73.91
v 132.32 -1 -71.59
vt 0 0
vt 15.43416 0
vt 19.335273 23.202666
vn 0.040166 0.997316 -0.061221
vn 0.040166 0.997316 -0.061221
vn 0.040166 0.997316 -0.061221
f 39/39/39 40/40/40 41/41/41
v 107.84 -1.1 -89.28
v 132.32 -1 -71.59
v 126.92 2 -86.09
vt 0 0
vt 30.202922 0
vt 17.343338 9.11269
vn -0.198089 0.942609 0.268794
vn -0.198089 0.942609 0.268794
vn -0.198089 0.942609 0.268794
f 42/42/42 43/43/43 44/44/44
v 84.5 -3.1 13.5
v 96.47 0.04 20.16
v 129.86 5 24.23
v 147.5 -3.1 13.5
vt 0 0
vt 14.053331 0
vt 45.530488 12.854849
vt 53.660589 32.243643
vn -0.112114 0.961285 -0.251716
vn -0.112114 0.961285 -0.251716
vn -0.112114 0.961285 -0.251716
vn -0.112114 0.961285 -0.251716
f 45/45/45 46/46/46 47/47/47
f 45/45/45 47/47/47 48/48/48
v 147.5 -3.1 13.5
v 129.86 5 24.23
v 139.31 0.2 42.73
v 147.5 -3.1 50.5
vt 0 0
vt 22.179101 0
vt 21.860197 21.31879
vt 17.900185 32.375592
vn 0.425847 0.904632 0.017188
vn 0.425847 0.904632 0.017188
vn 0.425847 0.904632 0.017188
vn 0.425847 0.904632 0.017188
f 49/49/49 50/50/50 51/51/51
f 49/49/49 51/51/51 52/52/52
v 147.5 -3.1 50.5
v 139.31 0.2 42.73
v 98.36 1.48 39.77
v 84.5 -3.1 50.5
vt 0 0
vt 11.76176 0
vt 42.590794 27.145408
vt 43.868434 45.216803
vn 0.000556 0.920638 0.390418
vn 0.000556 0.920638 0.390418
vn 0.000556 0.920638 0.390418
vn 0.000556 0.920638 0.390418
f 53/53/53 54/54/54 55/55/55
f 53/53/53 55/55/55 56/56/56
v 84.5 -3.1 50.5
v 98.36 1.48 39.77
v 96.47 0.04 20.16
v 84.5 -3.1 13.5
vt 0 0
vt 18.116537 0
vt 27.921098 17.148422
vt 21.914233 29.781782
vn -0.338832 0.940143 -0.03638
vn -0.338832 0.940143 -0.03638
vn -0.338832 0.940143 -0.03638
vn -0.338832 0.940143 -0.03638
f 57/57/57 58/58/58 59/59/59
f 57/57/57 59/59/59 60/60/60
v 96.47 0.04 20.16
v 98.36 1.48 39.77
v 139.31 0.2 42.73
vt 0 0
vt 19.753425 0
vt 26.516703 40.516177
vn 0.036689 0.996379 -0.076702
vn 0.036689 0.996379 -0.076702
vn 0.036689 0.996379 -0.076702
f 61/61/61 62/62/62 63/63/63
v 96.47 0.04 20.16
v 139.31 0.2 42.73
v 129.86 5 24.23
vt 0 0
vt 48.422062 0
vt 31.45428 12.910727
vn -0.178027 0.926562 0.331343
vn -0.178027 0.926562 0.331343
vn -0.178027 0.926562 0.331343
f 64/64/64 65/65/65 66/66/66
v 61.5 -3.1 34.5
v 69.29 -1.1 39
v 91.02 2 41.75
v 102.5 -3.1 34.5
vt 0 0
vt 9.21597 0
vt 29.599251 8.59577
vt 34.656146 21.466841
vn -0.106667 0.96395 -0.243769
vn -0.106667 0.96395 -0.243769
vn -0.106667 0.96395 -0.243769
vn -0.106667 0.96395 -0.243769
f 67/67/67 68/68/68 69/69/69
f 67/67/67 69/69/69 70/70/70
v 102.5 -3.1 34.5
v 91.02 2 41.75
v 97.17 -1 54.25
v 102.5 -3.1 59.5
vt 0 0
vt 14.503893 0
vt 14.829529 14.24663
vt 12.496645 21.649375
vn 0.41378 0.910255 0.014882
vn 0.41378 0.910255 0.014882
vn 0.41378 0.910255 0.014882
vn 0.41378 0.910255 0.014882
f 71/71/71 72/72/72 73/73/73
f 71/71/71 73/73/73 74/74/74
v 102.5 -3.1 59.5
v 97.17 -1 54.25
v 70.52 -0.2 52.25
v 61.5 -3.1 59.5
vt 0 0
vt 7.770547 0
vt 27.617863 17.914981
vt 28.122859 29.834624
vn 0 0.928477 0.371391
vn 0 0.928477 0.371391
vn 0 0.928477 0.371391
vn 0 0.928477 0.371391
f 75/75/75 76/76/76 77/77/77
f 75/75/75 77/77/77 78/78/78
v 61.5 -3.1 59.5
v 70.52 -0.2 52.25
v 69.29 -1.1 39
v 61.5 -3.1 34.5
vt 0 0
vt 11.930335 0
vt 18.83357 11.411869
vt 15.192364 19.836676
vn -0.330157 0.943334 -0.033427
vn -0.330157 0.943334 -0.033427
vn -0.330157 0.943334 -0.033427
vn -0.330157 0.943334 -0.033427
f 79/79/79 80/80/80 81/81/81
f 79/79/79 81/81/81 82/82/82
v 69.29 -1.1 39
v 70.52 -0.2 52.25
v 97.17 -1 54.25
vt 0 0
vt 13.337369 0
vt 17.728002 26.373942
vn 0.035251 0.996854 -0.070983
vn 0.035251 0.996854 -0.070983
vn 0.035251 0.996854 -0.070983
f 83/83/83 84/84/84 85/85/85
v 69.29 -1.1 39
v 97.17 -1 54.25
v 91.02 2 41.75
vt 0 0
vt 31.778403 0
vt 20.393721 8.57097
vn -0.172558 0.935165 0.309338
vn -0.172558 0.935165 0.309338
vn -0.172558 0.935165 0.309338
f 86/86/86 87/87/87 88/88/88
