# Original MODUS Black Start coastal presentation. Authored static geometry; no third-party source.
o coastal_return_landing_teal_enamel
v -11.000000 3.880000 -3.411436
v -11.000000 3.938564 -3.470000
v -11.000000 3.960000 -3.550000
v -11.000000 3.938564 -3.630000
v -11.000000 3.880000 -3.688564
v -11.000000 3.800000 -3.710000
v -11.000000 3.720000 -3.688564
v -11.000000 3.661436 -3.630000
v -11.000000 3.640000 -3.550000
v -11.000000 3.661436 -3.470000
v -11.000000 3.720000 -3.411436
v -11.000000 3.800000 -3.390000
vt -14.411436 3.880000
vt -14.470000 3.938564
vt -14.550000 3.960000
vt -14.630000 3.938564
vt -14.688564 3.880000
vt -14.710000 3.800000
vt -14.688564 3.720000
vt -14.630000 3.661436
vt -14.550000 3.640000
vt -14.470000 3.661436
vt -14.411436 3.720000
vt -14.390000 3.800000
vn -1.000000 0.000000 0.000000
vn -1.000000 0.000000 0.000000
vn -1.000000 0.000000 0.000000
vn -1.000000 0.000000 0.000000
vn -1.000000 0.000000 0.000000
vn -1.000000 0.000000 0.000000
vn -1.000000 0.000000 0.000000
vn -1.000000 0.000000 0.000000
vn -1.000000 0.000000 0.000000
vn -1.000000 0.000000 0.000000
vn -1.000000 0.000000 0.000000
vn -1.000000 0.000000 0.000000
f 1/1/1 2/2/2 3/3/3
f 1/1/1 3/3/3 4/4/4
f 1/1/1 4/4/4 5/5/5
f 1/1/1 5/5/5 6/6/6
f 1/1/1 6/6/6 7/7/7
f 1/1/1 7/7/7 8/8/8
f 1/1/1 8/8/8 9/9/9
f 1/1/1 9/9/9 10/10/10
f 1/1/1 10/10/10 11/11/11
f 1/1/1 11/11/11 12/12/12
v 11.000000 3.800000 -3.390000
v 11.000000 3.720000 -3.411436
v 11.000000 3.661436 -3.470000
v 11.000000 3.640000 -3.550000
v 11.000000 3.661436 -3.630000
v 11.000000 3.720000 -3.688564
v 11.000000 3.800000 -3.710000
v 11.000000 3.880000 -3.688564
v 11.000000 3.938564 -3.630000
v 11.000000 3.960000 -3.550000
v 11.000000 3.938564 -3.470000
v 11.000000 3.880000 -3.411436
vt 7.610000 3.800000
vt 7.588564 3.720000
vt 7.530000 3.661436
vt 7.450000 3.640000
vt 7.370000 3.661436
vt 7.311436 3.720000
vt 7.290000 3.800000
vt 7.311436 3.880000
vt 7.370000 3.938564
vt 7.450000 3.960000
vt 7.530000 3.938564
vt 7.588564 3.880000
vn 1.000000 0.000000 0.000000
vn 1.000000 0.000000 0.000000
vn 1.000000 0.000000 0.000000
vn 1.000000 0.000000 0.000000
vn 1.000000 0.000000 0.000000
vn 1.000000 0.000000 0.000000
vn 1.000000 0.000000 0.000000
vn 1.000000 0.000000 0.000000
vn 1.000000 0.000000 0.000000
vn 1.000000 0.000000 0.000000
vn 1.000000 0.000000 0.000000
vn 1.000000 0.000000 0.000000
f 13/13/13 14/14/14 15/15/15
f 13/13/13 15/15/15 16/16/16
f 13/13/13 16/16/16 17/17/17
f 13/13/13 17/17/17 18/18/18
f 13/13/13 18/18/18 19/19/19
f 13/13/13 19/19/19 20/20/20
f 13/13/13 20/20/20 21/21/21
f 13/13/13 21/21/21 22/22/22
f 13/13/13 22/22/22 23/23/23
f 13/13/13 23/23/23 24/24/24
v -11.000000 3.800000 -3.390000
v -11.000000 3.720000 -3.411436
v 11.000000 3.720000 -3.411436
v 11.000000 3.800000 -3.390000
vt -14.390000 3.800000
vt -14.411436 3.720000
vt 7.588564 3.720000
vt 7.610000 3.800000
vn 0.000000 -0.258819 0.965926
vn 0.000000 -0.258819 0.965926
vn 0.000000 -0.258819 0.965926
vn 0.000000 -0.258819 0.965926
f 25/25/25 26/26/26 27/27/27
f 25/25/25 27/27/27 28/28/28
v -11.000000 3.720000 -3.411436
v -11.000000 3.661436 -3.470000
v 11.000000 3.661436 -3.470000
v 11.000000 3.720000 -3.411436
vt -14.411436 3.720000
vt -14.470000 3.661436
vt 7.530000 3.661436
vt 7.588564 3.720000
vn 0.000000 -0.707107 0.707107
vn 0.000000 -0.707107 0.707107
vn 0.000000 -0.707107 0.707107
vn 0.000000 -0.707107 0.707107
f 29/29/29 30/30/30 31/31/31
f 29/29/29 31/31/31 32/32/32
v -11.000000 3.661436 -3.470000
v -11.000000 3.640000 -3.550000
v 11.000000 3.640000 -3.550000
v 11.000000 3.661436 -3.470000
vt -14.470000 3.661436
vt -14.550000 3.640000
vt 7.450000 3.640000
vt 7.530000 3.661436
vn 0.000000 -0.965926 0.258819
vn 0.000000 -0.965926 0.258819
vn 0.000000 -0.965926 0.258819
vn 0.000000 -0.965926 0.258819
f 33/33/33 34/34/34 35/35/35
f 33/33/33 35/35/35 36/36/36
v -11.000000 3.640000 -3.550000
v -11.000000 3.661436 -3.630000
v 11.000000 3.661436 -3.630000
v 11.000000 3.640000 -3.550000
vt -14.550000 3.640000
vt -14.630000 3.661436
vt 7.370000 3.661436
vt 7.450000 3.640000
vn 0.000000 -0.965926 -0.258819
vn 0.000000 -0.965926 -0.258819
vn 0.000000 -0.965926 -0.258819
vn 0.000000 -0.965926 -0.258819
f 37/37/37 38/38/38 39/39/39
f 37/37/37 39/39/39 40/40/40
v -11.000000 3.661436 -3.630000
v -11.000000 3.720000 -3.688564
v 11.000000 3.720000 -3.688564
v 11.000000 3.661436 -3.630000
vt -14.630000 3.661436
vt -14.688564 3.720000
vt 7.311436 3.720000
vt 7.370000 3.661436
vn 0.000000 -0.707107 -0.707107
vn 0.000000 -0.707107 -0.707107
vn 0.000000 -0.707107 -0.707107
vn 0.000000 -0.707107 -0.707107
f 41/41/41 42/42/42 43/43/43
f 41/41/41 43/43/43 44/44/44
v -11.000000 3.720000 -3.688564
v -11.000000 3.800000 -3.710000
v 11.000000 3.800000 -3.710000
v 11.000000 3.720000 -3.688564
vt -14.688564 3.720000
vt -14.710000 3.800000
vt 7.290000 3.800000
vt 7.311436 3.720000
vn 0.000000 -0.258819 -0.965926
vn 0.000000 -0.258819 -0.965926
vn 0.000000 -0.258819 -0.965926
vn 0.000000 -0.258819 -0.965926
f 45/45/45 46/46/46 47/47/47
f 45/45/45 47/47/47 48/48/48
v -11.000000 3.800000 -3.710000
v -11.000000 3.880000 -3.688564
v 11.000000 3.880000 -3.688564
v 11.000000 3.800000 -3.710000
vt -14.710000 3.800000
vt -14.688564 3.880000
vt 7.311436 3.880000
vt 7.290000 3.800000
vn 0.000000 0.258819 -0.965926
vn 0.000000 0.258819 -0.965926
vn 0.000000 0.258819 -0.965926
vn 0.000000 0.258819 -0.965926
f 49/49/49 50/50/50 51/51/51
f 49/49/49 51/51/51 52/52/52
v -11.000000 3.880000 -3.688564
v -11.000000 3.938564 -3.630000
v 11.000000 3.938564 -3.630000
v 11.000000 3.880000 -3.688564
vt -14.688564 3.880000
vt -14.630000 3.938564
vt 7.370000 3.938564
vt 7.311436 3.880000
vn 0.000000 0.707107 -0.707107
vn 0.000000 0.707107 -0.707107
vn 0.000000 0.707107 -0.707107
vn 0.000000 0.707107 -0.707107
f 53/53/53 54/54/54 55/55/55
f 53/53/53 55/55/55 56/56/56
v -11.000000 3.938564 -3.630000
v -11.000000 3.960000 -3.550000
v 11.000000 3.960000 -3.550000
v 11.000000 3.938564 -3.630000
vt -14.630000 3.938564
vt -14.550000 3.960000
vt 7.450000 3.960000
vt 7.370000 3.938564
vn 0.000000 0.965926 -0.258819
vn 0.000000 0.965926 -0.258819
vn 0.000000 0.965926 -0.258819
vn 0.000000 0.965926 -0.258819
f 57/57/57 58/58/58 59/59/59
f 57/57/57 59/59/59 60/60/60
v -11.000000 3.960000 -3.550000
v -11.000000 3.938564 -3.470000
v 11.000000 3.938564 -3.470000
v 11.000000 3.960000 -3.550000
vt -14.550000 3.960000
vt -14.470000 3.938564
vt 7.530000 3.938564
vt 7.450000 3.960000
vn 0.000000 0.965926 0.258819
vn 0.000000 0.965926 0.258819
vn 0.000000 0.965926 0.258819
vn 0.000000 0.965926 0.258819
f 61/61/61 62/62/62 63/63/63
f 61/61/61 63/63/63 64/64/64
v -11.000000 3.938564 -3.470000
v -11.000000 3.880000 -3.411436
v 11.000000 3.880000 -3.411436
v 11.000000 3.938564 -3.470000
vt -14.470000 3.938564
vt -14.411436 3.880000
vt 7.588564 3.880000
vt 7.530000 3.938564
vn 0.000000 0.707107 0.707107
vn 0.000000 0.707107 0.707107
vn 0.000000 0.707107 0.707107
vn 0.000000 0.707107 0.707107
f 65/65/65 66/66/66 67/67/67
f 65/65/65 67/67/67 68/68/68
v -11.000000 3.880000 -3.411436
v -11.000000 3.800000 -3.390000
v 11.000000 3.800000 -3.390000
v 11.000000 3.880000 -3.411436
vt -14.411436 3.880000
vt -14.390000 3.800000
vt 7.610000 3.800000
vt 7.588564 3.880000
vn 0.000000 0.258819 0.965926
vn 0.000000 0.258819 0.965926
vn 0.000000 0.258819 0.965926
vn 0.000000 0.258819 0.965926
f 69/69/69 70/70/70 71/71/71
f 69/69/69 71/71/71 72/72/72
v -11.000000 3.880000 3.688564
v -11.000000 3.938564 3.630000
v -11.000000 3.960000 3.550000
v -11.000000 3.938564 3.470000
v -11.000000 3.880000 3.411436
v -11.000000 3.800000 3.390000
v -11.000000 3.720000 3.411436
v -11.000000 3.661436 3.470000
v -11.000000 3.640000 3.550000
v -11.000000 3.661436 3.630000
v -11.000000 3.720000 3.688564
v -11.000000 3.800000 3.710000
vt -7.311436 3.880000
vt -7.370000 3.938564
vt -7.450000 3.960000
vt -7.530000 3.938564
vt -7.588564 3.880000
vt -7.610000 3.800000
vt -7.588564 3.720000
vt -7.530000 3.661436
vt -7.450000 3.640000
vt -7.370000 3.661436
vt -7.311436 3.720000
vt -7.290000 3.800000
vn -1.000000 0.000000 0.000000
vn -1.000000 0.000000 0.000000
vn -1.000000 0.000000 0.000000
vn -1.000000 0.000000 0.000000
vn -1.000000 0.000000 0.000000
vn -1.000000 0.000000 0.000000
vn -1.000000 0.000000 0.000000
vn -1.000000 0.000000 0.000000
vn -1.000000 0.000000 0.000000
vn -1.000000 0.000000 0.000000
vn -1.000000 0.000000 0.000000
vn -1.000000 0.000000 0.000000
f 73/73/73 74/74/74 75/75/75
f 73/73/73 75/75/75 76/76/76
f 73/73/73 76/76/76 77/77/77
f 73/73/73 77/77/77 78/78/78
f 73/73/73 78/78/78 79/79/79
f 73/73/73 79/79/79 80/80/80
f 73/73/73 80/80/80 81/81/81
f 73/73/73 81/81/81 82/82/82
f 73/73/73 82/82/82 83/83/83
f 73/73/73 83/83/83 84/84/84
v 11.000000 3.800000 3.710000
v 11.000000 3.720000 3.688564
v 11.000000 3.661436 3.630000
v 11.000000 3.640000 3.550000
v 11.000000 3.661436 3.470000
v 11.000000 3.720000 3.411436
v 11.000000 3.800000 3.390000
v 11.000000 3.880000 3.411436
v 11.000000 3.938564 3.470000
v 11.000000 3.960000 3.550000
v 11.000000 3.938564 3.630000
v 11.000000 3.880000 3.688564
vt 14.710000 3.800000
vt 14.688564 3.720000
vt 14.630000 3.661436
vt 14.550000 3.640000
vt 14.470000 3.661436
vt 14.411436 3.720000
vt 14.390000 3.800000
vt 14.411436 3.880000
vt 14.470000 3.938564
vt 14.550000 3.960000
vt 14.630000 3.938564
vt 14.688564 3.880000
vn 1.000000 0.000000 0.000000
vn 1.000000 0.000000 0.000000
vn 1.000000 0.000000 0.000000
vn 1.000000 0.000000 0.000000
vn 1.000000 0.000000 0.000000
vn 1.000000 0.000000 0.000000
vn 1.000000 0.000000 0.000000
vn 1.000000 0.000000 0.000000
vn 1.000000 0.000000 0.000000
vn 1.000000 0.000000 0.000000
vn 1.000000 0.000000 0.000000
vn 1.000000 0.000000 0.000000
f 85/85/85 86/86/86 87/87/87
f 85/85/85 87/87/87 88/88/88
f 85/85/85 88/88/88 89/89/89
f 85/85/85 89/89/89 90/90/90
f 85/85/85 90/90/90 91/91/91
f 85/85/85 91/91/91 92/92/92
f 85/85/85 92/92/92 93/93/93
f 85/85/85 93/93/93 94/94/94
f 85/85/85 94/94/94 95/95/95
f 85/85/85 95/95/95 96/96/96
v -11.000000 3.800000 3.710000
v -11.000000 3.720000 3.688564
v 11.000000 3.720000 3.688564
v 11.000000 3.800000 3.710000
vt -7.290000 3.800000
vt -7.311436 3.720000
vt 14.688564 3.720000
vt 14.710000 3.800000
vn 0.000000 -0.258819 0.965926
vn 0.000000 -0.258819 0.965926
vn 0.000000 -0.258819 0.965926
vn 0.000000 -0.258819 0.965926
f 97/97/97 98/98/98 99/99/99
f 97/97/97 99/99/99 100/100/100
v -11.000000 3.720000 3.688564
v -11.000000 3.661436 3.630000
v 11.000000 3.661436 3.630000
v 11.000000 3.720000 3.688564
vt -7.311436 3.720000
vt -7.370000 3.661436
vt 14.630000 3.661436
vt 14.688564 3.720000
vn 0.000000 -0.707107 0.707107
vn 0.000000 -0.707107 0.707107
vn 0.000000 -0.707107 0.707107
vn 0.000000 -0.707107 0.707107
f 101/101/101 102/102/102 103/103/103
f 101/101/101 103/103/103 104/104/104
v -11.000000 3.661436 3.630000
v -11.000000 3.640000 3.550000
v 11.000000 3.640000 3.550000
v 11.000000 3.661436 3.630000
vt -7.370000 3.661436
vt -7.450000 3.640000
vt 14.550000 3.640000
vt 14.630000 3.661436
vn 0.000000 -0.965926 0.258819
vn 0.000000 -0.965926 0.258819
vn 0.000000 -0.965926 0.258819
vn 0.000000 -0.965926 0.258819
f 105/105/105 106/106/106 107/107/107
f 105/105/105 107/107/107 108/108/108
v -11.000000 3.640000 3.550000
v -11.000000 3.661436 3.470000
v 11.000000 3.661436 3.470000
v 11.000000 3.640000 3.550000
vt -7.450000 3.640000
vt -7.530000 3.661436
vt 14.470000 3.661436
vt 14.550000 3.640000
vn 0.000000 -0.965926 -0.258819
vn 0.000000 -0.965926 -0.258819
vn 0.000000 -0.965926 -0.258819
vn 0.000000 -0.965926 -0.258819
f 109/109/109 110/110/110 111/111/111
f 109/109/109 111/111/111 112/112/112
v -11.000000 3.661436 3.470000
v -11.000000 3.720000 3.411436
v 11.000000 3.720000 3.411436
v 11.000000 3.661436 3.470000
vt -7.530000 3.661436
vt -7.588564 3.720000
vt 14.411436 3.720000
vt 14.470000 3.661436
vn 0.000000 -0.707107 -0.707107
vn 0.000000 -0.707107 -0.707107
vn 0.000000 -0.707107 -0.707107
vn 0.000000 -0.707107 -0.707107
f 113/113/113 114/114/114 115/115/115
f 113/113/113 115/115/115 116/116/116
v -11.000000 3.720000 3.411436
v -11.000000 3.800000 3.390000
v 11.000000 3.800000 3.390000
v 11.000000 3.720000 3.411436
vt -7.588564 3.720000
vt -7.610000 3.800000
vt 14.390000 3.800000
vt 14.411436 3.720000
vn 0.000000 -0.258819 -0.965926
vn 0.000000 -0.258819 -0.965926
vn 0.000000 -0.258819 -0.965926
vn 0.000000 -0.258819 -0.965926
f 117/117/117 118/118/118 119/119/119
f 117/117/117 119/119/119 120/120/120
v -11.000000 3.800000 3.390000
v -11.000000 3.880000 3.411436
v 11.000000 3.880000 3.411436
v 11.000000 3.800000 3.390000
vt -7.610000 3.800000
vt -7.588564 3.880000
vt 14.411436 3.880000
vt 14.390000 3.800000
vn 0.000000 0.258819 -0.965926
vn 0.000000 0.258819 -0.965926
vn 0.000000 0.258819 -0.965926
vn 0.000000 0.258819 -0.965926
f 121/121/121 122/122/122 123/123/123
f 121/121/121 123/123/123 124/124/124
v -11.000000 3.880000 3.411436
v -11.000000 3.938564 3.470000
v 11.000000 3.938564 3.470000
v 11.000000 3.880000 3.411436
vt -7.588564 3.880000
vt -7.530000 3.938564
vt 14.470000 3.938564
vt 14.411436 3.880000
vn 0.000000 0.707107 -0.707107
vn 0.000000 0.707107 -0.707107
vn 0.000000 0.707107 -0.707107
vn 0.000000 0.707107 -0.707107
f 125/125/125 126/126/126 127/127/127
f 125/125/125 127/127/127 128/128/128
v -11.000000 3.938564 3.470000
v -11.000000 3.960000 3.550000
v 11.000000 3.960000 3.550000
v 11.000000 3.938564 3.470000
vt -7.530000 3.938564
vt -7.450000 3.960000
vt 14.550000 3.960000
vt 14.470000 3.938564
vn 0.000000 0.965926 -0.258819
vn 0.000000 0.965926 -0.258819
vn 0.000000 0.965926 -0.258819
vn 0.000000 0.965926 -0.258819
f 129/129/129 130/130/130 131/131/131
f 129/129/129 131/131/131 132/132/132
v -11.000000 3.960000 3.550000
v -11.000000 3.938564 3.630000
v 11.000000 3.938564 3.630000
v 11.000000 3.960000 3.550000
vt -7.450000 3.960000
vt -7.370000 3.938564
vt 14.630000 3.938564
vt 14.550000 3.960000
vn 0.000000 0.965926 0.258819
vn 0.000000 0.965926 0.258819
vn 0.000000 0.965926 0.258819
vn 0.000000 0.965926 0.258819
f 133/133/133 134/134/134 135/135/135
f 133/133/133 135/135/135 136/136/136
v -11.000000 3.938564 3.630000
v -11.000000 3.880000 3.688564
v 11.000000 3.880000 3.688564
v 11.000000 3.938564 3.630000
vt -7.370000 3.938564
vt -7.311436 3.880000
vt 14.688564 3.880000
vt 14.630000 3.938564
vn 0.000000 0.707107 0.707107
vn 0.000000 0.707107 0.707107
vn 0.000000 0.707107 0.707107
vn 0.000000 0.707107 0.707107
f 137/137/137 138/138/138 139/139/139
f 137/137/137 139/139/139 140/140/140
v -11.000000 3.880000 3.688564
v -11.000000 3.800000 3.710000
v 11.000000 3.800000 3.710000
v 11.000000 3.880000 3.688564
vt -7.311436 3.880000
vt -7.290000 3.800000
vt 14.710000 3.800000
vt 14.688564 3.880000
vn 0.000000 0.258819 0.965926
vn 0.000000 0.258819 0.965926
vn 0.000000 0.258819 0.965926
vn 0.000000 0.258819 0.965926
f 141/141/141 142/142/142 143/143/143
f 141/141/141 143/143/143 144/144/144
v -6.628238 2.510225 -3.210000
v -6.480833 2.730833 -3.210000
v -6.260225 2.878238 -3.210000
v -6.000000 2.930000 -3.210000
v -5.739775 2.878238 -3.210000
v -5.519167 2.730833 -3.210000
v -5.371762 2.510225 -3.210000
v -5.320000 2.250000 -3.210000
v -5.371762 1.989775 -3.210000
v -5.519167 1.769167 -3.210000
v -5.739775 1.621762 -3.210000
v -6.000000 1.570000 -3.210000
v -6.260225 1.621762 -3.210000
v -6.480833 1.769167 -3.210000
v -6.628238 1.989775 -3.210000
v -6.680000 2.250000 -3.210000
vt -9.838238 2.510225
vt -9.690833 2.730833
vt -9.470225 2.878238
vt -9.210000 2.930000
vt -8.949775 2.878238
vt -8.729167 2.730833
vt -8.581762 2.510225
vt -8.530000 2.250000
vt -8.581762 1.989775
vt -8.729167 1.769167
vt -8.949775 1.621762
vt -9.210000 1.570000
vt -9.470225 1.621762
vt -9.690833 1.769167
vt -9.838238 1.989775
vt -9.890000 2.250000
vn 0.000000 0.000000 -1.000000
vn 0.000000 0.000000 -1.000000
vn 0.000000 0.000000 -1.000000
vn 0.000000 0.000000 -1.000000
vn 0.000000 0.000000 -1.000000
vn 0.000000 0.000000 -1.000000
vn 0.000000 0.000000 -1.000000
vn 0.000000 0.000000 -1.000000
vn 0.000000 0.000000 -1.000000
vn 0.000000 0.000000 -1.000000
vn 0.000000 0.000000 -1.000000
vn 0.000000 0.000000 -1.000000
vn 0.000000 0.000000 -1.000000
vn 0.000000 0.000000 -1.000000
vn 0.000000 0.000000 -1.000000
vn 0.000000 0.000000 -1.000000
f 145/145/145 146/146/146 147/147/147
f 145/145/145 147/147/147 148/148/148
f 145/145/145 148/148/148 149/149/149
f 145/145/145 149/149/149 150/150/150
f 145/145/145 150/150/150 151/151/151
f 145/145/145 151/151/151 152/152/152
f 145/145/145 152/152/152 153/153/153
f 145/145/145 153/153/153 154/154/154
f 145/145/145 154/154/154 155/155/155
f 145/145/145 155/155/155 156/156/156
f 145/145/145 156/156/156 157/157/157
f 145/145/145 157/157/157 158/158/158
f 145/145/145 158/158/158 159/159/159
f 145/145/145 159/159/159 160/160/160
v -6.680000 2.250000 -3.120000
v -6.628238 1.989775 -3.120000
v -6.480833 1.769167 -3.120000
v -6.260225 1.621762 -3.120000
v -6.000000 1.570000 -3.120000
v -5.739775 1.621762 -3.120000
v -5.519167 1.769167 -3.120000
v -5.371762 1.989775 -3.120000
v -5.320000 2.250000 -3.120000
v -5.371762 2.510225 -3.120000
v -5.519167 2.730833 -3.120000
v -5.739775 2.878238 -3.120000
v -6.000000 2.930000 -3.120000
v -6.260225 2.878238 -3.120000
v -6.480833 2.730833 -3.120000
v -6.628238 2.510225 -3.120000
vt -9.800000 2.250000
vt -9.748238 1.989775
vt -9.600833 1.769167
vt -9.380225 1.621762
vt -9.120000 1.570000
vt -8.859775 1.621762
vt -8.639167 1.769167
vt -8.491762 1.989775
vt -8.440000 2.250000
vt -8.491762 2.510225
vt -8.639167 2.730833
vt -8.859775 2.878238
vt -9.120000 2.930000
vt -9.380225 2.878238
vt -9.600833 2.730833
vt -9.748238 2.510225
vn 0.000000 0.000000 1.000000
vn 0.000000 0.000000 1.000000
vn 0.000000 0.000000 1.000000
vn 0.000000 0.000000 1.000000
vn 0.000000 0.000000 1.000000
vn 0.000000 0.000000 1.000000
vn 0.000000 0.000000 1.000000
vn 0.000000 0.000000 1.000000
vn 0.000000 0.000000 1.000000
vn 0.000000 0.000000 1.000000
vn 0.000000 0.000000 1.000000
vn 0.000000 0.000000 1.000000
vn 0.000000 0.000000 1.000000
vn 0.000000 0.000000 1.000000
vn 0.000000 0.000000 1.000000
vn 0.000000 0.000000 1.000000
f 161/161/161 162/162/162 163/163/163
f 161/161/161 163/163/163 164/164/164
f 161/161/161 164/164/164 165/165/165
f 161/161/161 165/165/165 166/166/166
f 161/161/161 166/166/166 167/167/167
f 161/161/161 167/167/167 168/168/168
f 161/161/161 168/168/168 169/169/169
f 161/161/161 169/169/169 170/170/170
f 161/161/161 170/170/170 171/171/171
f 161/161/161 171/171/171 172/172/172
f 161/161/161 172/172/172 173/173/173
f 161/161/161 173/173/173 174/174/174
f 161/161/161 174/174/174 175/175/175
f 161/161/161 175/175/175 176/176/176
v -6.680000 2.250000 -3.210000
v -6.628238 1.989775 -3.210000
v -6.628238 1.989775 -3.120000
v -6.680000 2.250000 -3.120000
vt -9.890000 2.250000
vt -9.838238 1.989775
vt -9.748238 1.989775
vt -9.800000 2.250000
vn -0.980785 -0.195090 0.000000
vn -0.980785 -0.195090 0.000000
vn -0.980785 -0.195090 0.000000
vn -0.980785 -0.195090 0.000000
f 177/177/177 178/178/178 179/179/179
f 177/177/177 179/179/179 180/180/180
v -6.628238 1.989775 -3.210000
v -6.480833 1.769167 -3.210000
v -6.480833 1.769167 -3.120000
v -6.628238 1.989775 -3.120000
vt -9.838238 1.989775
vt -9.690833 1.769167
vt -9.600833 1.769167
vt -9.748238 1.989775
vn -0.831470 -0.555570 0.000000
vn -0.831470 -0.555570 0.000000
vn -0.831470 -0.555570 0.000000
vn -0.831470 -0.555570 0.000000
f 181/181/181 182/182/182 183/183/183
f 181/181/181 183/183/183 184/184/184
v -6.480833 1.769167 -3.210000
v -6.260225 1.621762 -3.210000
v -6.260225 1.621762 -3.120000
v -6.480833 1.769167 -3.120000
vt -9.690833 1.769167
vt -9.470225 1.621762
vt -9.380225 1.621762
vt -9.600833 1.769167
vn -0.555570 -0.831470 0.000000
vn -0.555570 -0.831470 0.000000
vn -0.555570 -0.831470 0.000000
vn -0.555570 -0.831470 0.000000
f 185/185/185 186/186/186 187/187/187
f 185/185/185 187/187/187 188/188/188
v -6.260225 1.621762 -3.210000
v -6.000000 1.570000 -3.210000
v -6.000000 1.570000 -3.120000
v -6.260225 1.621762 -3.120000
vt -9.470225 1.621762
vt -9.210000 1.570000
vt -9.120000 1.570000
vt -9.380225 1.621762
vn -0.195090 -0.980785 0.000000
vn -0.195090 -0.980785 0.000000
vn -0.195090 -0.980785 0.000000
vn -0.195090 -0.980785 0.000000
f 189/189/189 190/190/190 191/191/191
f 189/189/189 191/191/191 192/192/192
v -6.000000 1.570000 -3.210000
v -5.739775 1.621762 -3.210000
v -5.739775 1.621762 -3.120000
v -6.000000 1.570000 -3.120000
vt -9.210000 1.570000
vt -8.949775 1.621762
vt -8.859775 1.621762
vt -9.120000 1.570000
vn 0.195090 -0.980785 0.000000
vn 0.195090 -0.980785 0.000000
vn 0.195090 -0.980785 0.000000
vn 0.195090 -0.980785 0.000000
f 193/193/193 194/194/194 195/195/195
f 193/193/193 195/195/195 196/196/196
v -5.739775 1.621762 -3.210000
v -5.519167 1.769167 -3.210000
v -5.519167 1.769167 -3.120000
v -5.739775 1.621762 -3.120000
vt -8.949775 1.621762
vt -8.729167 1.769167
vt -8.639167 1.769167
vt -8.859775 1.621762
vn 0.555570 -0.831470 0.000000
vn 0.555570 -0.831470 0.000000
vn 0.555570 -0.831470 0.000000
vn 0.555570 -0.831470 0.000000
f 197/197/197 198/198/198 199/199/199
f 197/197/197 199/199/199 200/200/200
v -5.519167 1.769167 -3.210000
v -5.371762 1.989775 -3.210000
v -5.371762 1.989775 -3.120000
v -5.519167 1.769167 -3.120000
vt -8.729167 1.769167
vt -8.581762 1.989775
vt -8.491762 1.989775
vt -8.639167 1.769167
vn 0.831470 -0.555570 0.000000
vn 0.831470 -0.555570 0.000000
vn 0.831470 -0.555570 0.000000
vn 0.831470 -0.555570 0.000000
f 201/201/201 202/202/202 203/203/203
f 201/201/201 203/203/203 204/204/204
v -5.371762 1.989775 -3.210000
v -5.320000 2.250000 -3.210000
v -5.320000 2.250000 -3.120000
v -5.371762 1.989775 -3.120000
vt -8.581762 1.989775
vt -8.530000 2.250000
vt -8.440000 2.250000
vt -8.491762 1.989775
vn 0.980785 -0.195090 0.000000
vn 0.980785 -0.195090 0.000000
vn 0.980785 -0.195090 0.000000
vn 0.980785 -0.195090 0.000000
f 205/205/205 206/206/206 207/207/207
f 205/205/205 207/207/207 208/208/208
v -5.320000 2.250000 -3.210000
v -5.371762 2.510225 -3.210000
v -5.371762 2.510225 -3.120000
v -5.320000 2.250000 -3.120000
vt -8.530000 2.250000
vt -8.581762 2.510225
vt -8.491762 2.510225
vt -8.440000 2.250000
vn 0.980785 0.195090 0.000000
vn 0.980785 0.195090 0.000000
vn 0.980785 0.195090 0.000000
vn 0.980785 0.195090 0.000000
f 209/209/209 210/210/210 211/211/211
f 209/209/209 211/211/211 212/212/212
v -5.371762 2.510225 -3.210000
v -5.519167 2.730833 -3.210000
v -5.519167 2.730833 -3.120000
v -5.371762 2.510225 -3.120000
vt -8.581762 2.510225
vt -8.729167 2.730833
vt -8.639167 2.730833
vt -8.491762 2.510225
vn 0.831470 0.555570 0.000000
vn 0.831470 0.555570 0.000000
vn 0.831470 0.555570 0.000000
vn 0.831470 0.555570 0.000000
f 213/213/213 214/214/214 215/215/215
f 213/213/213 215/215/215 216/216/216
v -5.519167 2.730833 -3.210000
v -5.739775 2.878238 -3.210000
v -5.739775 2.878238 -3.120000
v -5.519167 2.730833 -3.120000
vt -8.729167 2.730833
vt -8.949775 2.878238
vt -8.859775 2.878238
vt -8.639167 2.730833
vn 0.555570 0.831470 0.000000
vn 0.555570 0.831470 0.000000
vn 0.555570 0.831470 0.000000
vn 0.555570 0.831470 0.000000
f 217/217/217 218/218/218 219/219/219
f 217/217/217 219/219/219 220/220/220
v -5.739775 2.878238 -3.210000
v -6.000000 2.930000 -3.210000
v -6.000000 2.930000 -3.120000
v -5.739775 2.878238 -3.120000
vt -8.949775 2.878238
vt -9.210000 2.930000
vt -9.120000 2.930000
vt -8.859775 2.878238
vn 0.195090 0.980785 0.000000
vn 0.195090 0.980785 0.000000
vn 0.195090 0.980785 0.000000
vn 0.195090 0.980785 0.000000
f 221/221/221 222/222/222 223/223/223
f 221/221/221 223/223/223 224/224/224
v -6.000000 2.930000 -3.210000
v -6.260225 2.878238 -3.210000
v -6.260225 2.878238 -3.120000
v -6.000000 2.930000 -3.120000
vt -9.210000 2.930000
vt -9.470225 2.878238
vt -9.380225 2.878238
vt -9.120000 2.930000
vn -0.195090 0.980785 0.000000
vn -0.195090 0.980785 0.000000
vn -0.195090 0.980785 0.000000
vn -0.195090 0.980785 0.000000
f 225/225/225 226/226/226 227/227/227
f 225/225/225 227/227/227 228/228/228
v -6.260225 2.878238 -3.210000
v -6.480833 2.730833 -3.210000
v -6.480833 2.730833 -3.120000
v -6.260225 2.878238 -3.120000
vt -9.470225 2.878238
vt -9.690833 2.730833
vt -9.600833 2.730833
vt -9.380225 2.878238
vn -0.555570 0.831470 0.000000
vn -0.555570 0.831470 0.000000
vn -0.555570 0.831470 0.000000
vn -0.555570 0.831470 0.000000
f 229/229/229 230/230/230 231/231/231
f 229/229/229 231/231/231 232/232/232
v -6.480833 2.730833 -3.210000
v -6.628238 2.510225 -3.210000
v -6.628238 2.510225 -3.120000
v -6.480833 2.730833 -3.120000
vt -9.690833 2.730833
vt -9.838238 2.510225
vt -9.748238 2.510225
vt -9.600833 2.730833
vn -0.831470 0.555570 0.000000
vn -0.831470 0.555570 0.000000
vn -0.831470 0.555570 0.000000
vn -0.831470 0.555570 0.000000
f 233/233/233 234/234/234 235/235/235
f 233/233/233 235/235/235 236/236/236
v -6.628238 2.510225 -3.210000
v -6.680000 2.250000 -3.210000
v -6.680000 2.250000 -3.120000
v -6.628238 2.510225 -3.120000
vt -9.838238 2.510225
vt -9.890000 2.250000
vt -9.800000 2.250000
vt -9.748238 2.510225
vn -0.980785 0.195090 0.000000
vn -0.980785 0.195090 0.000000
vn -0.980785 0.195090 0.000000
vn -0.980785 0.195090 0.000000
f 237/237/237 238/238/238 239/239/239
f 237/237/237 239/239/239 240/240/240
v 1.371762 2.510225 -3.210000
v 1.519167 2.730833 -3.210000
v 1.739775 2.878238 -3.210000
v 2.000000 2.930000 -3.210000
v 2.260225 2.878238 -3.210000
v 2.480833 2.730833 -3.210000
v 2.628238 2.510225 -3.210000
v 2.680000 2.250000 -3.210000
v 2.628238 1.989775 -3.210000
v 2.480833 1.769167 -3.210000
v 2.260225 1.621762 -3.210000
v 2.000000 1.570000 -3.210000
v 1.739775 1.621762 -3.210000
v 1.519167 1.769167 -3.210000
v 1.371762 1.989775 -3.210000
v 1.320000 2.250000 -3.210000
vt -1.838238 2.510225
vt -1.690833 2.730833
vt -1.470225 2.878238
vt -1.210000 2.930000
vt -0.949775 2.878238
vt -0.729167 2.730833
vt -0.581762 2.510225
vt -0.530000 2.250000
vt -0.581762 1.989775
vt -0.729167 1.769167
vt -0.949775 1.621762
vt -1.210000 1.570000
vt -1.470225 1.621762
vt -1.690833 1.769167
vt -1.838238 1.989775
vt -1.890000 2.250000
vn 0.000000 0.000000 -1.000000
vn 0.000000 0.000000 -1.000000
vn 0.000000 0.000000 -1.000000
vn 0.000000 0.000000 -1.000000
vn 0.000000 0.000000 -1.000000
vn 0.000000 0.000000 -1.000000
vn 0.000000 0.000000 -1.000000
vn 0.000000 0.000000 -1.000000
vn 0.000000 0.000000 -1.000000
vn 0.000000 0.000000 -1.000000
vn 0.000000 0.000000 -1.000000
vn 0.000000 0.000000 -1.000000
vn 0.000000 0.000000 -1.000000
vn 0.000000 0.000000 -1.000000
vn 0.000000 0.000000 -1.000000
vn 0.000000 0.000000 -1.000000
f 241/241/241 242/242/242 243/243/243
f 241/241/241 243/243/243 244/244/244
f 241/241/241 244/244/244 245/245/245
f 241/241/241 245/245/245 246/246/246
f 241/241/241 246/246/246 247/247/247
f 241/241/241 247/247/247 248/248/248
f 241/241/241 248/248/248 249/249/249
f 241/241/241 249/249/249 250/250/250
f 241/241/241 250/250/250 251/251/251
f 241/241/241 251/251/251 252/252/252
f 241/241/241 252/252/252 253/253/253
f 241/241/241 253/253/253 254/254/254
f 241/241/241 254/254/254 255/255/255
f 241/241/241 255/255/255 256/256/256
v 1.320000 2.250000 -3.120000
v 1.371762 1.989775 -3.120000
v 1.519167 1.769167 -3.120000
v 1.739775 1.621762 -3.120000
v 2.000000 1.570000 -3.120000
v 2.260225 1.621762 -3.120000
v 2.480833 1.769167 -3.120000
v 2.628238 1.989775 -3.120000
v 2.680000 2.250000 -3.120000
v 2.628238 2.510225 -3.120000
v 2.480833 2.730833 -3.120000
v 2.260225 2.878238 -3.120000
v 2.000000 2.930000 -3.120000
v 1.739775 2.878238 -3.120000
v 1.519167 2.730833 -3.120000
v 1.371762 2.510225 -3.120000
vt -1.800000 2.250000
vt -1.748238 1.989775
vt -1.600833 1.769167
vt -1.380225 1.621762
vt -1.120000 1.570000
vt -0.859775 1.621762
vt -0.639167 1.769167
vt -0.491762 1.989775
vt -0.440000 2.250000
vt -0.491762 2.510225
vt -0.639167 2.730833
vt -0.859775 2.878238
vt -1.120000 2.930000
vt -1.380225 2.878238
vt -1.600833 2.730833
vt -1.748238 2.510225
vn 0.000000 0.000000 1.000000
vn 0.000000 0.000000 1.000000
vn 0.000000 0.000000 1.000000
vn 0.000000 0.000000 1.000000
vn 0.000000 0.000000 1.000000
vn 0.000000 0.000000 1.000000
vn 0.000000 0.000000 1.000000
vn 0.000000 0.000000 1.000000
vn 0.000000 0.000000 1.000000
vn 0.000000 0.000000 1.000000
vn 0.000000 0.000000 1.000000
vn 0.000000 0.000000 1.000000
vn 0.000000 0.000000 1.000000
vn 0.000000 0.000000 1.000000
vn 0.000000 0.000000 1.000000
vn 0.000000 0.000000 1.000000
f 257/257/257 258/258/258 259/259/259
f 257/257/257 259/259/259 260/260/260
f 257/257/257 260/260/260 261/261/261
f 257/257/257 261/261/261 262/262/262
f 257/257/257 262/262/262 263/263/263
f 257/257/257 263/263/263 264/264/264
f 257/257/257 264/264/264 265/265/265
f 257/257/257 265/265/265 266/266/266
f 257/257/257 266/266/266 267/267/267
f 257/257/257 267/267/267 268/268/268
f 257/257/257 268/268/268 269/269/269
f 257/257/257 269/269/269 270/270/270
f 257/257/257 270/270/270 271/271/271
f 257/257/257 271/271/271 272/272/272
v 1.320000 2.250000 -3.210000
v 1.371762 1.989775 -3.210000
v 1.371762 1.989775 -3.120000
v 1.320000 2.250000 -3.120000
vt -1.890000 2.250000
vt -1.838238 1.989775
vt -1.748238 1.989775
vt -1.800000 2.250000
vn -0.980785 -0.195090 0.000000
vn -0.980785 -0.195090 0.000000
vn -0.980785 -0.195090 0.000000
vn -0.980785 -0.195090 0.000000
f 273/273/273 274/274/274 275/275/275
f 273/273/273 275/275/275 276/276/276
v 1.371762 1.989775 -3.210000
v 1.519167 1.769167 -3.210000
v 1.519167 1.769167 -3.120000
v 1.371762 1.989775 -3.120000
vt -1.838238 1.989775
vt -1.690833 1.769167
vt -1.600833 1.769167
vt -1.748238 1.989775
vn -0.831470 -0.555570 0.000000
vn -0.831470 -0.555570 0.000000
vn -0.831470 -0.555570 0.000000
vn -0.831470 -0.555570 0.000000
f 277/277/277 278/278/278 279/279/279
f 277/277/277 279/279/279 280/280/280
v 1.519167 1.769167 -3.210000
v 1.739775 1.621762 -3.210000
v 1.739775 1.621762 -3.120000
v 1.519167 1.769167 -3.120000
vt -1.690833 1.769167
vt -1.470225 1.621762
vt -1.380225 1.621762
vt -1.600833 1.769167
vn -0.555570 -0.831470 0.000000
vn -0.555570 -0.831470 0.000000
vn -0.555570 -0.831470 0.000000
vn -0.555570 -0.831470 0.000000
f 281/281/281 282/282/282 283/283/283
f 281/281/281 283/283/283 284/284/284
v 1.739775 1.621762 -3.210000
v 2.000000 1.570000 -3.210000
v 2.000000 1.570000 -3.120000
v 1.739775 1.621762 -3.120000
vt -1.470225 1.621762
vt -1.210000 1.570000
vt -1.120000 1.570000
vt -1.380225 1.621762
vn -0.195090 -0.980785 0.000000
vn -0.195090 -0.980785 0.000000
vn -0.195090 -0.980785 0.000000
vn -0.195090 -0.980785 0.000000
f 285/285/285 286/286/286 287/287/287
f 285/285/285 287/287/287 288/288/288
v 2.000000 1.570000 -3.210000
v 2.260225 1.621762 -3.210000
v 2.260225 1.621762 -3.120000
v 2.000000 1.570000 -3.120000
vt -1.210000 1.570000
vt -0.949775 1.621762
vt -0.859775 1.621762
vt -1.120000 1.570000
vn 0.195090 -0.980785 0.000000
vn 0.195090 -0.980785 0.000000
vn 0.195090 -0.980785 0.000000
vn 0.195090 -0.980785 0.000000
f 289/289/289 290/290/290 291/291/291
f 289/289/289 291/291/291 292/292/292
v 2.260225 1.621762 -3.210000
v 2.480833 1.769167 -3.210000
v 2.480833 1.769167 -3.120000
v 2.260225 1.621762 -3.120000
vt -0.949775 1.621762
vt -0.729167 1.769167
vt -0.639167 1.769167
vt -0.859775 1.621762
vn 0.555570 -0.831470 0.000000
vn 0.555570 -0.831470 0.000000
vn 0.555570 -0.831470 0.000000
vn 0.555570 -0.831470 0.000000
f 293/293/293 294/294/294 295/295/295
f 293/293/293 295/295/295 296/296/296
v 2.480833 1.769167 -3.210000
v 2.628238 1.989775 -3.210000
v 2.628238 1.989775 -3.120000
v 2.480833 1.769167 -3.120000
vt -0.729167 1.769167
vt -0.581762 1.989775
vt -0.491762 1.989775
vt -0.639167 1.769167
vn 0.831470 -0.555570 0.000000
vn 0.831470 -0.555570 0.000000
vn 0.831470 -0.555570 0.000000
vn 0.831470 -0.555570 0.000000
f 297/297/297 298/298/298 299/299/299
f 297/297/297 299/299/299 300/300/300
v 2.628238 1.989775 -3.210000
v 2.680000 2.250000 -3.210000
v 2.680000 2.250000 -3.120000
v 2.628238 1.989775 -3.120000
vt -0.581762 1.989775
vt -0.530000 2.250000
vt -0.440000 2.250000
vt -0.491762 1.989775
vn 0.980785 -0.195090 0.000000
vn 0.980785 -0.195090 0.000000
vn 0.980785 -0.195090 0.000000
vn 0.980785 -0.195090 0.000000
f 301/301/301 302/302/302 303/303/303
f 301/301/301 303/303/303 304/304/304
v 2.680000 2.250000 -3.210000
v 2.628238 2.510225 -3.210000
v 2.628238 2.510225 -3.120000
v 2.680000 2.250000 -3.120000
vt -0.530000 2.250000
vt -0.581762 2.510225
vt -0.491762 2.510225
vt -0.440000 2.250000
vn 0.980785 0.195090 0.000000
vn 0.980785 0.195090 0.000000
vn 0.980785 0.195090 0.000000
vn 0.980785 0.195090 0.000000
f 305/305/305 306/306/306 307/307/307
f 305/305/305 307/307/307 308/308/308
v 2.628238 2.510225 -3.210000
v 2.480833 2.730833 -3.210000
v 2.480833 2.730833 -3.120000
v 2.628238 2.510225 -3.120000
vt -0.581762 2.510225
vt -0.729167 2.730833
vt -0.639167 2.730833
vt -0.491762 2.510225
vn 0.831470 0.555570 0.000000
vn 0.831470 0.555570 0.000000
vn 0.831470 0.555570 0.000000
vn 0.831470 0.555570 0.000000
f 309/309/309 310/310/310 311/311/311
f 309/309/309 311/311/311 312/312/312
v 2.480833 2.730833 -3.210000
v 2.260225 2.878238 -3.210000
v 2.260225 2.878238 -3.120000
v 2.480833 2.730833 -3.120000
vt -0.729167 2.730833
vt -0.949775 2.878238
vt -0.859775 2.878238
vt -0.639167 2.730833
vn 0.555570 0.831470 0.000000
vn 0.555570 0.831470 0.000000
vn 0.555570 0.831470 0.000000
vn 0.555570 0.831470 0.000000
f 313/313/313 314/314/314 315/315/315
f 313/313/313 315/315/315 316/316/316
v 2.260225 2.878238 -3.210000
v 2.000000 2.930000 -3.210000
v 2.000000 2.930000 -3.120000
v 2.260225 2.878238 -3.120000
vt -0.949775 2.878238
vt -1.210000 2.930000
vt -1.120000 2.930000
vt -0.859775 2.878238
vn 0.195090 0.980785 0.000000
vn 0.195090 0.980785 0.000000
vn 0.195090 0.980785 0.000000
vn 0.195090 0.980785 0.000000
f 317/317/317 318/318/318 319/319/319
f 317/317/317 319/319/319 320/320/320
v 2.000000 2.930000 -3.210000
v 1.739775 2.878238 -3.210000
v 1.739775 2.878238 -3.120000
v 2.000000 2.930000 -3.120000
vt -1.210000 2.930000
vt -1.470225 2.878238
vt -1.380225 2.878238
vt -1.120000 2.930000
vn -0.195090 0.980785 0.000000
vn -0.195090 0.980785 0.000000
vn -0.195090 0.980785 0.000000
vn -0.195090 0.980785 0.000000
f 321/321/321 322/322/322 323/323/323
f 321/321/321 323/323/323 324/324/324
v 1.739775 2.878238 -3.210000
v 1.519167 2.730833 -3.210000
v 1.519167 2.730833 -3.120000
v 1.739775 2.878238 -3.120000
vt -1.470225 2.878238
vt -1.690833 2.730833
vt -1.600833 2.730833
vt -1.380225 2.878238
vn -0.555570 0.831470 0.000000
vn -0.555570 0.831470 0.000000
vn -0.555570 0.831470 0.000000
vn -0.555570 0.831470 0.000000
f 325/325/325 326/326/326 327/327/327
f 325/325/325 327/327/327 328/328/328
v 1.519167 2.730833 -3.210000
v 1.371762 2.510225 -3.210000
v 1.371762 2.510225 -3.120000
v 1.519167 2.730833 -3.120000
vt -1.690833 2.730833
vt -1.838238 2.510225
vt -1.748238 2.510225
vt -1.600833 2.730833
vn -0.831470 0.555570 0.000000
vn -0.831470 0.555570 0.000000
vn -0.831470 0.555570 0.000000
vn -0.831470 0.555570 0.000000
f 329/329/329 330/330/330 331/331/331
f 329/329/329 331/331/331 332/332/332
v 1.371762 2.510225 -3.210000
v 1.320000 2.250000 -3.210000
v 1.320000 2.250000 -3.120000
v 1.371762 2.510225 -3.120000
vt -1.838238 2.510225
vt -1.890000 2.250000
vt -1.800000 2.250000
vt -1.748238 2.510225
vn -0.980785 0.195090 0.000000
vn -0.980785 0.195090 0.000000
vn -0.980785 0.195090 0.000000
vn -0.980785 0.195090 0.000000
f 333/333/333 334/334/334 335/335/335
f 333/333/333 335/335/335 336/336/336
