# Original MODUS Black Start coastal presentation. Authored static geometry; no third-party source.
o coastal_dock_amber_light
v -0.800000 4.930000 0.850000
v -0.800000 5.090000 0.850000
v 0.800000 5.090000 0.850000
v 0.800000 4.930000 0.850000
vt 0.050000 4.930000
vt 0.050000 5.090000
vt 1.650000 5.090000
vt 1.650000 4.930000
vn 0.000000 0.000000 -1.000000
vn 0.000000 0.000000 -1.000000
vn 0.000000 0.000000 -1.000000
vn 0.000000 0.000000 -1.000000
f 1/1/1 2/2/2 3/3/3
f 1/1/1 3/3/3 4/4/4
v -0.800000 4.930000 1.150000
v 0.800000 4.930000 1.150000
v 0.800000 5.090000 1.150000
v -0.800000 5.090000 1.150000
vt 0.350000 4.930000
vt 1.950000 4.930000
vt 1.950000 5.090000
vt 0.350000 5.090000
vn 0.000000 0.000000 1.000000
vn 0.000000 0.000000 1.000000
vn 0.000000 0.000000 1.000000
vn 0.000000 0.000000 1.000000
f 5/5/5 6/6/6 7/7/7
f 5/5/5 7/7/7 8/8/8
v -0.800000 4.930000 0.850000
v -0.800000 4.930000 1.150000
v -0.800000 5.090000 1.150000
v -0.800000 5.090000 0.850000
vt 0.050000 4.930000
vt 0.350000 4.930000
vt 0.350000 5.090000
vt 0.050000 5.090000
vn -1.000000 0.000000 0.000000
vn -1.000000 0.000000 0.000000
vn -1.000000 0.000000 0.000000
vn -1.000000 0.000000 0.000000
f 9/9/9 10/10/10 11/11/11
f 9/9/9 11/11/11 12/12/12
v 0.800000 4.930000 0.850000
v 0.800000 5.090000 0.850000
v 0.800000 5.090000 1.150000
v 0.800000 4.930000 1.150000
vt 1.650000 4.930000
vt 1.650000 5.090000
vt 1.950000 5.090000
vt 1.950000 4.930000
vn 1.000000 0.000000 0.000000
vn 1.000000 0.000000 0.000000
vn 1.000000 0.000000 0.000000
vn 1.000000 0.000000 0.000000
f 13/13/13 14/14/14 15/15/15
f 13/13/13 15/15/15 16/16/16
v -0.800000 4.930000 0.850000
v 0.800000 4.930000 0.850000
v 0.800000 4.930000 1.150000
v -0.800000 4.930000 1.150000
vt 0.050000 4.930000
vt 1.650000 4.930000
vt 1.950000 4.930000
vt 0.350000 4.930000
vn 0.000000 -1.000000 0.000000
vn 0.000000 -1.000000 0.000000
vn 0.000000 -1.000000 0.000000
vn 0.000000 -1.000000 0.000000
f 17/17/17 18/18/18 19/19/19
f 17/17/17 19/19/19 20/20/20
v -0.800000 5.090000 0.850000
v -0.800000 5.090000 1.150000
v 0.800000 5.090000 1.150000
v 0.800000 5.090000 0.850000
vt 0.050000 5.090000
vt 0.350000 5.090000
vt 1.950000 5.090000
vt 1.650000 5.090000
vn 0.000000 1.000000 0.000000
vn 0.000000 1.000000 0.000000
vn 0.000000 1.000000 0.000000
vn 0.000000 1.000000 0.000000
f 21/21/21 22/22/22 23/23/23
f 21/21/21 23/23/23 24/24/24
v -0.800000 4.930000 2.850000
v -0.800000 5.090000 2.850000
v 0.800000 5.090000 2.850000
v 0.800000 4.930000 2.850000
vt 2.050000 4.930000
vt 2.050000 5.090000
vt 3.650000 5.090000
vt 3.650000 4.930000
vn 0.000000 0.000000 -1.000000
vn 0.000000 0.000000 -1.000000
vn 0.000000 0.000000 -1.000000
vn 0.000000 0.000000 -1.000000
f 25/25/25 26/26/26 27/27/27
f 25/25/25 27/27/27 28/28/28
v -0.800000 4.930000 3.150000
v 0.800000 4.930000 3.150000
v 0.800000 5.090000 3.150000
v -0.800000 5.090000 3.150000
vt 2.350000 4.930000
vt 3.950000 4.930000
vt 3.950000 5.090000
vt 2.350000 5.090000
vn 0.000000 0.000000 1.000000
vn 0.000000 0.000000 1.000000
vn 0.000000 0.000000 1.000000
vn 0.000000 0.000000 1.000000
f 29/29/29 30/30/30 31/31/31
f 29/29/29 31/31/31 32/32/32
v -0.800000 4.930000 2.850000
v -0.800000 4.930000 3.150000
v -0.800000 5.090000 3.150000
v -0.800000 5.090000 2.850000
vt 2.050000 4.930000
vt 2.350000 4.930000
vt 2.350000 5.090000
vt 2.050000 5.090000
vn -1.000000 0.000000 0.000000
vn -1.000000 0.000000 0.000000
vn -1.000000 0.000000 0.000000
vn -1.000000 0.000000 0.000000
f 33/33/33 34/34/34 35/35/35
f 33/33/33 35/35/35 36/36/36
v 0.800000 4.930000 2.850000
v 0.800000 5.090000 2.850000
v 0.800000 5.090000 3.150000
v 0.800000 4.930000 3.150000
vt 3.650000 4.930000
vt 3.650000 5.090000
vt 3.950000 5.090000
vt 3.950000 4.930000
vn 1.000000 0.000000 0.000000
vn 1.000000 0.000000 0.000000
vn 1.000000 0.000000 0.000000
vn 1.000000 0.000000 0.000000
f 37/37/37 38/38/38 39/39/39
f 37/37/37 39/39/39 40/40/40
v -0.800000 4.930000 2.850000
v 0.800000 4.930000 2.850000
v 0.800000 4.930000 3.150000
v -0.800000 4.930000 3.150000
vt 2.050000 4.930000
vt 3.650000 4.930000
vt 3.950000 4.930000
vt 2.350000 4.930000
vn 0.000000 -1.000000 0.000000
vn 0.000000 -1.000000 0.000000
vn 0.000000 -1.000000 0.000000
vn 0.000000 -1.000000 0.000000
f 41/41/41 42/42/42 43/43/43
f 41/41/41 43/43/43 44/44/44
v -0.800000 5.090000 2.850000
v -0.800000 5.090000 3.150000
v 0.800000 5.090000 3.150000
v 0.800000 5.090000 2.850000
vt 2.050000 5.090000
vt 2.350000 5.090000
vt 3.950000 5.090000
vt 3.650000 5.090000
vn 0.000000 1.000000 0.000000
vn 0.000000 1.000000 0.000000
vn 0.000000 1.000000 0.000000
vn 0.000000 1.000000 0.000000
f 45/45/45 46/46/46 47/47/47
f 45/45/45 47/47/47 48/48/48
v -0.800000 4.930000 4.850000
v -0.800000 5.090000 4.850000
v 0.800000 5.090000 4.850000
v 0.800000 4.930000 4.850000
vt 4.050000 4.930000
vt 4.050000 5.090000
vt 5.650000 5.090000
vt 5.650000 4.930000
vn 0.000000 0.000000 -1.000000
vn 0.000000 0.000000 -1.000000
vn 0.000000 0.000000 -1.000000
vn 0.000000 0.000000 -1.000000
f 49/49/49 50/50/50 51/51/51
f 49/49/49 51/51/51 52/52/52
v -0.800000 4.930000 5.150000
v 0.800000 4.930000 5.150000
v 0.800000 5.090000 5.150000
v -0.800000 5.090000 5.150000
vt 4.350000 4.930000
vt 5.950000 4.930000
vt 5.950000 5.090000
vt 4.350000 5.090000
vn 0.000000 0.000000 1.000000
vn 0.000000 0.000000 1.000000
vn 0.000000 0.000000 1.000000
vn 0.000000 0.000000 1.000000
f 53/53/53 54/54/54 55/55/55
f 53/53/53 55/55/55 56/56/56
v -0.800000 4.930000 4.850000
v -0.800000 4.930000 5.150000
v -0.800000 5.090000 5.150000
v -0.800000 5.090000 4.850000
vt 4.050000 4.930000
vt 4.350000 4.930000
vt 4.350000 5.090000
vt 4.050000 5.090000
vn -1.000000 0.000000 0.000000
vn -1.000000 0.000000 0.000000
vn -1.000000 0.000000 0.000000
vn -1.000000 0.000000 0.000000
f 57/57/57 58/58/58 59/59/59
f 57/57/57 59/59/59 60/60/60
v 0.800000 4.930000 4.850000
v 0.800000 5.090000 4.850000
v 0.800000 5.090000 5.150000
v 0.800000 4.930000 5.150000
vt 5.650000 4.930000
vt 5.650000 5.090000
vt 5.950000 5.090000
vt 5.950000 4.930000
vn 1.000000 0.000000 0.000000
vn 1.000000 0.000000 0.000000
vn 1.000000 0.000000 0.000000
vn 1.000000 0.000000 0.000000
f 61/61/61 62/62/62 63/63/63
f 61/61/61 63/63/63 64/64/64
v -0.800000 4.930000 4.850000
v 0.800000 4.930000 4.850000
v 0.800000 4.930000 5.150000
v -0.800000 4.930000 5.150000
vt 4.050000 4.930000
vt 5.650000 4.930000
vt 5.950000 4.930000
vt 4.350000 4.930000
vn 0.000000 -1.000000 0.000000
vn 0.000000 -1.000000 0.000000
vn 0.000000 -1.000000 0.000000
vn 0.000000 -1.000000 0.000000
f 65/65/65 66/66/66 67/67/67
f 65/65/65 67/67/67 68/68/68
v -0.800000 5.090000 4.850000
v -0.800000 5.090000 5.150000
v 0.800000 5.090000 5.150000
v 0.800000 5.090000 4.850000
vt 4.050000 5.090000
vt 4.350000 5.090000
vt 5.950000 5.090000
vt 5.650000 5.090000
vn 0.000000 1.000000 0.000000
vn 0.000000 1.000000 0.000000
vn 0.000000 1.000000 0.000000
vn 0.000000 1.000000 0.000000
f 69/69/69 70/70/70 71/71/71
f 69/69/69 71/71/71 72/72/72
v -0.800000 4.930000 6.850000
v -0.800000 5.090000 6.850000
v 0.800000 5.090000 6.850000
v 0.800000 4.930000 6.850000
vt 6.050000 4.930000
vt 6.050000 5.090000
vt 7.650000 5.090000
vt 7.650000 4.930000
vn 0.000000 0.000000 -1.000000
vn 0.000000 0.000000 -1.000000
vn 0.000000 0.000000 -1.000000
vn 0.000000 0.000000 -1.000000
f 73/73/73 74/74/74 75/75/75
f 73/73/73 75/75/75 76/76/76
v -0.800000 4.930000 7.150000
v 0.800000 4.930000 7.150000
v 0.800000 5.090000 7.150000
v -0.800000 5.090000 7.150000
vt 6.350000 4.930000
vt 7.950000 4.930000
vt 7.950000 5.090000
vt 6.350000 5.090000
vn 0.000000 0.000000 1.000000
vn 0.000000 0.000000 1.000000
vn 0.000000 0.000000 1.000000
vn 0.000000 0.000000 1.000000
f 77/77/77 78/78/78 79/79/79
f 77/77/77 79/79/79 80/80/80
v -0.800000 4.930000 6.850000
v -0.800000 4.930000 7.150000
v -0.800000 5.090000 7.150000
v -0.800000 5.090000 6.850000
vt 6.050000 4.930000
vt 6.350000 4.930000
vt 6.350000 5.090000
vt 6.050000 5.090000
vn -1.000000 0.000000 0.000000
vn -1.000000 0.000000 0.000000
vn -1.000000 0.000000 0.000000
vn -1.000000 0.000000 0.000000
f 81/81/81 82/82/82 83/83/83
f 81/81/81 83/83/83 84/84/84
v 0.800000 4.930000 6.850000
v 0.800000 5.090000 6.850000
v 0.800000 5.090000 7.150000
v 0.800000 4.930000 7.150000
vt 7.650000 4.930000
vt 7.650000 5.090000
vt 7.950000 5.090000
vt 7.950000 4.930000
vn 1.000000 0.000000 0.000000
vn 1.000000 0.000000 0.000000
vn 1.000000 0.000000 0.000000
vn 1.000000 0.000000 0.000000
f 85/85/85 86/86/86 87/87/87
f 85/85/85 87/87/87 88/88/88
v -0.800000 4.930000 6.850000
v 0.800000 4.930000 6.850000
v 0.800000 4.930000 7.150000
v -0.800000 4.930000 7.150000
vt 6.050000 4.930000
vt 7.650000 4.930000
vt 7.950000 4.930000
vt 6.350000 4.930000
vn 0.000000 -1.000000 0.000000
vn 0.000000 -1.000000 0.000000
vn 0.000000 -1.000000 0.000000
vn 0.000000 -1.000000 0.000000
f 89/89/89 90/90/90 91/91/91
f 89/89/89 91/91/91 92/92/92
v -0.800000 5.090000 6.850000
v -0.800000 5.090000 7.150000
v 0.800000 5.090000 7.150000
v 0.800000 5.090000 6.850000
vt 6.050000 5.090000
vt 6.350000 5.090000
vt 7.950000 5.090000
vt 7.650000 5.090000
vn 0.000000 1.000000 0.000000
vn 0.000000 1.000000 0.000000
vn 0.000000 1.000000 0.000000
vn 0.000000 1.000000 0.000000
f 93/93/93 94/94/94 95/95/95
f 93/93/93 95/95/95 96/96/96
v -2.145000 1.850000 -7.485000
v -2.145000 3.150000 -7.485000
v -2.095000 3.150000 -7.485000
v -2.095000 1.850000 -7.485000
vt -9.630000 1.850000
vt -9.630000 3.150000
vt -9.580000 3.150000
vt -9.580000 1.850000
vn 0.000000 0.000000 -1.000000
vn 0.000000 0.000000 -1.000000
vn 0.000000 0.000000 -1.000000
vn 0.000000 0.000000 -1.000000
f 97/97/97 98/98/98 99/99/99
f 97/97/97 99/99/99 100/100/100
v -2.145000 1.850000 -7.435000
v -2.095000 1.850000 -7.435000
v -2.095000 3.150000 -7.435000
v -2.145000 3.150000 -7.435000
vt -9.580000 1.850000
vt -9.530000 1.850000
vt -9.530000 3.150000
vt -9.580000 3.150000
vn 0.000000 0.000000 1.000000
vn 0.000000 0.000000 1.000000
vn 0.000000 0.000000 1.000000
vn 0.000000 0.000000 1.000000
f 101/101/101 102/102/102 103/103/103
f 101/101/101 103/103/103 104/104/104
v -2.145000 1.850000 -7.485000
v -2.145000 1.850000 -7.435000
v -2.145000 3.150000 -7.435000
v -2.145000 3.150000 -7.485000
vt -9.630000 1.850000
vt -9.580000 1.850000
vt -9.580000 3.150000
vt -9.630000 3.150000
vn -1.000000 0.000000 0.000000
vn -1.000000 0.000000 0.000000
vn -1.000000 0.000000 0.000000
vn -1.000000 0.000000 0.000000
f 105/105/105 106/106/106 107/107/107
f 105/105/105 107/107/107 108/108/108
v -2.095000 1.850000 -7.485000
v -2.095000 3.150000 -7.485000
v -2.095000 3.150000 -7.435000
v -2.095000 1.850000 -7.435000
vt -9.580000 1.850000
vt -9.580000 3.150000
vt -9.530000 3.150000
vt -9.530000 1.850000
vn 1.000000 0.000000 0.000000
vn 1.000000 0.000000 0.000000
vn 1.000000 0.000000 0.000000
vn 1.000000 0.000000 0.000000
f 109/109/109 110/110/110 111/111/111
f 109/109/109 111/111/111 112/112/112
v -2.145000 1.850000 -7.485000
v -2.095000 1.850000 -7.485000
v -2.095000 1.850000 -7.435000
v -2.145000 1.850000 -7.435000
vt -9.630000 1.850000
vt -9.580000 1.850000
vt -9.530000 1.850000
vt -9.580000 1.850000
vn 0.000000 -1.000000 0.000000
vn 0.000000 -1.000000 0.000000
vn 0.000000 -1.000000 0.000000
vn 0.000000 -1.000000 0.000000
f 113/113/113 114/114/114 115/115/115
f 113/113/113 115/115/115 116/116/116
v -2.145000 3.150000 -7.485000
v -2.145000 3.150000 -7.435000
v -2.095000 3.150000 -7.435000
v -2.095000 3.150000 -7.485000
vt -9.630000 3.150000
vt -9.580000 3.150000
vt -9.530000 3.150000
vt -9.580000 3.150000
vn 0.000000 1.000000 0.000000
vn 0.000000 1.000000 0.000000
vn 0.000000 1.000000 0.000000
vn 0.000000 1.000000 0.000000
f 117/117/117 118/118/118 119/119/119
f 117/117/117 119/119/119 120/120/120
v 2.095000 1.850000 -7.485000
v 2.095000 3.150000 -7.485000
v 2.145000 3.150000 -7.485000
v 2.145000 1.850000 -7.485000
vt -5.390000 1.850000
vt -5.390000 3.150000
vt -5.340000 3.150000
vt -5.340000 1.850000
vn 0.000000 0.000000 -1.000000
vn 0.000000 0.000000 -1.000000
vn 0.000000 0.000000 -1.000000
vn 0.000000 0.000000 -1.000000
f 121/121/121 122/122/122 123/123/123
f 121/121/121 123/123/123 124/124/124
v 2.095000 1.850000 -7.435000
v 2.145000 1.850000 -7.435000
v 2.145000 3.150000 -7.435000
v 2.095000 3.150000 -7.435000
vt -5.340000 1.850000
vt -5.290000 1.850000
vt -5.290000 3.150000
vt -5.340000 3.150000
vn 0.000000 0.000000 1.000000
vn 0.000000 0.000000 1.000000
vn 0.000000 0.000000 1.000000
vn 0.000000 0.000000 1.000000
f 125/125/125 126/126/126 127/127/127
f 125/125/125 127/127/127 128/128/128
v 2.095000 1.850000 -7.485000
v 2.095000 1.850000 -7.435000
v 2.095000 3.150000 -7.435000
v 2.095000 3.150000 -7.485000
vt -5.390000 1.850000
vt -5.340000 1.850000
vt -5.340000 3.150000
vt -5.390000 3.150000
vn -1.000000 0.000000 0.000000
vn -1.000000 0.000000 0.000000
vn -1.000000 0.000000 0.000000
vn -1.000000 0.000000 0.000000
f 129/129/129 130/130/130 131/131/131
f 129/129/129 131/131/131 132/132/132
v 2.145000 1.850000 -7.485000
v 2.145000 3.150000 -7.485000
v 2.145000 3.150000 -7.435000
v 2.145000 1.850000 -7.435000
vt -5.340000 1.850000
vt -5.340000 3.150000
vt -5.290000 3.150000
vt -5.290000 1.850000
vn 1.000000 0.000000 0.000000
vn 1.000000 0.000000 0.000000
vn 1.000000 0.000000 0.000000
vn 1.000000 0.000000 0.000000
f 133/133/133 134/134/134 135/135/135
f 133/133/133 135/135/135 136/136/136
v 2.095000 1.850000 -7.485000
v 2.145000 1.850000 -7.485000
v 2.145000 1.850000 -7.435000
v 2.095000 1.850000 -7.435000
vt -5.390000 1.850000
vt -5.340000 1.850000
vt -5.290000 1.850000
vt -5.340000 1.850000
vn 0.000000 -1.000000 0.000000
vn 0.000000 -1.000000 0.000000
vn 0.000000 -1.000000 0.000000
vn 0.000000 -1.000000 0.000000
f 137/137/137 138/138/138 139/139/139
f 137/137/137 139/139/139 140/140/140
v 2.095000 3.150000 -7.485000
v 2.095000 3.150000 -7.435000
v 2.145000 3.150000 -7.435000
v 2.145000 3.150000 -7.485000
vt -5.390000 3.150000
vt -5.340000 3.150000
vt -5.290000 3.150000
vt -5.340000 3.150000
vn 0.000000 1.000000 0.000000
vn 0.000000 1.000000 0.000000
vn 0.000000 1.000000 0.000000
vn 0.000000 1.000000 0.000000
f 141/141/141 142/142/142 143/143/143
f 141/141/141 143/143/143 144/144/144
