# Original MODUS Black Start coastal presentation. Authored static geometry; no third-party source.
o coastal_hub_cool_light
v -8.800000 6.330000 -0.150000
v -8.800000 6.490000 -0.150000
v -7.200000 6.490000 -0.150000
v -7.200000 6.330000 -0.150000
vt -8.950000 6.330000
vt -8.950000 6.490000
vt -7.350000 6.490000
vt -7.350000 6.330000
vn 0.000000 0.000000 -1.000000
vn 0.000000 0.000000 -1.000000
vn 0.000000 0.000000 -1.000000
vn 0.000000 0.000000 -1.000000
f 1/1/1 2/2/2 3/3/3
f 1/1/1 3/3/3 4/4/4
v -8.800000 6.330000 0.150000
v -7.200000 6.330000 0.150000
v -7.200000 6.490000 0.150000
v -8.800000 6.490000 0.150000
vt -8.650000 6.330000
vt -7.050000 6.330000
vt -7.050000 6.490000
vt -8.650000 6.490000
vn 0.000000 0.000000 1.000000
vn 0.000000 0.000000 1.000000
vn 0.000000 0.000000 1.000000
vn 0.000000 0.000000 1.000000
f 5/5/5 6/6/6 7/7/7
f 5/5/5 7/7/7 8/8/8
v -8.800000 6.330000 -0.150000
v -8.800000 6.330000 0.150000
v -8.800000 6.490000 0.150000
v -8.800000 6.490000 -0.150000
vt -8.950000 6.330000
vt -8.650000 6.330000
vt -8.650000 6.490000
vt -8.950000 6.490000
vn -1.000000 0.000000 0.000000
vn -1.000000 0.000000 0.000000
vn -1.000000 0.000000 0.000000
vn -1.000000 0.000000 0.000000
f 9/9/9 10/10/10 11/11/11
f 9/9/9 11/11/11 12/12/12
v -7.200000 6.330000 -0.150000
v -7.200000 6.490000 -0.150000
v -7.200000 6.490000 0.150000
v -7.200000 6.330000 0.150000
vt -7.350000 6.330000
vt -7.350000 6.490000
vt -7.050000 6.490000
vt -7.050000 6.330000
vn 1.000000 0.000000 0.000000
vn 1.000000 0.000000 0.000000
vn 1.000000 0.000000 0.000000
vn 1.000000 0.000000 0.000000
f 13/13/13 14/14/14 15/15/15
f 13/13/13 15/15/15 16/16/16
v -8.800000 6.330000 -0.150000
v -7.200000 6.330000 -0.150000
v -7.200000 6.330000 0.150000
v -8.800000 6.330000 0.150000
vt -8.950000 6.330000
vt -7.350000 6.330000
vt -7.050000 6.330000
vt -8.650000 6.330000
vn 0.000000 -1.000000 0.000000
vn 0.000000 -1.000000 0.000000
vn 0.000000 -1.000000 0.000000
vn 0.000000 -1.000000 0.000000
f 17/17/17 18/18/18 19/19/19
f 17/17/17 19/19/19 20/20/20
v -8.800000 6.490000 -0.150000
v -8.800000 6.490000 0.150000
v -7.200000 6.490000 0.150000
v -7.200000 6.490000 -0.150000
vt -8.950000 6.490000
vt -8.650000 6.490000
vt -7.050000 6.490000
vt -7.350000 6.490000
vn 0.000000 1.000000 0.000000
vn 0.000000 1.000000 0.000000
vn 0.000000 1.000000 0.000000
vn 0.000000 1.000000 0.000000
f 21/21/21 22/22/22 23/23/23
f 21/21/21 23/23/23 24/24/24
v -0.800000 6.330000 -0.150000
v -0.800000 6.490000 -0.150000
v 0.800000 6.490000 -0.150000
v 0.800000 6.330000 -0.150000
vt -0.950000 6.330000
vt -0.950000 6.490000
vt 0.650000 6.490000
vt 0.650000 6.330000
vn 0.000000 0.000000 -1.000000
vn 0.000000 0.000000 -1.000000
vn 0.000000 0.000000 -1.000000
vn 0.000000 0.000000 -1.000000
f 25/25/25 26/26/26 27/27/27
f 25/25/25 27/27/27 28/28/28
v -0.800000 6.330000 0.150000
v 0.800000 6.330000 0.150000
v 0.800000 6.490000 0.150000
v -0.800000 6.490000 0.150000
vt -0.650000 6.330000
vt 0.950000 6.330000
vt 0.950000 6.490000
vt -0.650000 6.490000
vn 0.000000 0.000000 1.000000
vn 0.000000 0.000000 1.000000
vn 0.000000 0.000000 1.000000
vn 0.000000 0.000000 1.000000
f 29/29/29 30/30/30 31/31/31
f 29/29/29 31/31/31 32/32/32
v -0.800000 6.330000 -0.150000
v -0.800000 6.330000 0.150000
v -0.800000 6.490000 0.150000
v -0.800000 6.490000 -0.150000
vt -0.950000 6.330000
vt -0.650000 6.330000
vt -0.650000 6.490000
vt -0.950000 6.490000
vn -1.000000 0.000000 0.000000
vn -1.000000 0.000000 0.000000
vn -1.000000 0.000000 0.000000
vn -1.000000 0.000000 0.000000
f 33/33/33 34/34/34 35/35/35
f 33/33/33 35/35/35 36/36/36
v 0.800000 6.330000 -0.150000
v 0.800000 6.490000 -0.150000
v 0.800000 6.490000 0.150000
v 0.800000 6.330000 0.150000
vt 0.650000 6.330000
vt 0.650000 6.490000
vt 0.950000 6.490000
vt 0.950000 6.330000
vn 1.000000 0.000000 0.000000
vn 1.000000 0.000000 0.000000
vn 1.000000 0.000000 0.000000
vn 1.000000 0.000000 0.000000
f 37/37/37 38/38/38 39/39/39
f 37/37/37 39/39/39 40/40/40
v -0.800000 6.330000 -0.150000
v 0.800000 6.330000 -0.150000
v 0.800000 6.330000 0.150000
v -0.800000 6.330000 0.150000
vt -0.950000 6.330000
vt 0.650000 6.330000
vt 0.950000 6.330000
vt -0.650000 6.330000
vn 0.000000 -1.000000 0.000000
vn 0.000000 -1.000000 0.000000
vn 0.000000 -1.000000 0.000000
vn 0.000000 -1.000000 0.000000
f 41/41/41 42/42/42 43/43/43
f 41/41/41 43/43/43 44/44/44
v -0.800000 6.490000 -0.150000
v -0.800000 6.490000 0.150000
v 0.800000 6.490000 0.150000
v 0.800000 6.490000 -0.150000
vt -0.950000 6.490000
vt -0.650000 6.490000
vt 0.950000 6.490000
vt 0.650000 6.490000
vn 0.000000 1.000000 0.000000
vn 0.000000 1.000000 0.000000
vn 0.000000 1.000000 0.000000
vn 0.000000 1.000000 0.000000
f 45/45/45 46/46/46 47/47/47
f 45/45/45 47/47/47 48/48/48
v 7.200000 6.330000 -0.150000
v 7.200000 6.490000 -0.150000
v 8.800000 6.490000 -0.150000
v 8.800000 6.330000 -0.150000
vt 7.050000 6.330000
vt 7.050000 6.490000
vt 8.650000 6.490000
vt 8.650000 6.330000
vn 0.000000 0.000000 -1.000000
vn 0.000000 0.000000 -1.000000
vn 0.000000 0.000000 -1.000000
vn 0.000000 0.000000 -1.000000
f 49/49/49 50/50/50 51/51/51
f 49/49/49 51/51/51 52/52/52
v 7.200000 6.330000 0.150000
v 8.800000 6.330000 0.150000
v 8.800000 6.490000 0.150000
v 7.200000 6.490000 0.150000
vt 7.350000 6.330000
vt 8.950000 6.330000
vt 8.950000 6.490000
vt 7.350000 6.490000
vn 0.000000 0.000000 1.000000
vn 0.000000 0.000000 1.000000
vn 0.000000 0.000000 1.000000
vn 0.000000 0.000000 1.000000
f 53/53/53 54/54/54 55/55/55
f 53/53/53 55/55/55 56/56/56
v 7.200000 6.330000 -0.150000
v 7.200000 6.330000 0.150000
v 7.200000 6.490000 0.150000
v 7.200000 6.490000 -0.150000
vt 7.050000 6.330000
vt 7.350000 6.330000
vt 7.350000 6.490000
vt 7.050000 6.490000
vn -1.000000 0.000000 0.000000
vn -1.000000 0.000000 0.000000
vn -1.000000 0.000000 0.000000
vn -1.000000 0.000000 0.000000
f 57/57/57 58/58/58 59/59/59
f 57/57/57 59/59/59 60/60/60
v 8.800000 6.330000 -0.150000
v 8.800000 6.490000 -0.150000
v 8.800000 6.490000 0.150000
v 8.800000 6.330000 0.150000
vt 8.650000 6.330000
vt 8.650000 6.490000
vt 8.950000 6.490000
vt 8.950000 6.330000
vn 1.000000 0.000000 0.000000
vn 1.000000 0.000000 0.000000
vn 1.000000 0.000000 0.000000
vn 1.000000 0.000000 0.000000
f 61/61/61 62/62/62 63/63/63
f 61/61/61 63/63/63 64/64/64
v 7.200000 6.330000 -0.150000
v 8.800000 6.330000 -0.150000
v 8.800000 6.330000 0.150000
v 7.200000 6.330000 0.150000
vt 7.050000 6.330000
vt 8.650000 6.330000
vt 8.950000 6.330000
vt 7.350000 6.330000
vn 0.000000 -1.000000 0.000000
vn 0.000000 -1.000000 0.000000
vn 0.000000 -1.000000 0.000000
vn 0.000000 -1.000000 0.000000
f 65/65/65 66/66/66 67/67/67
f 65/65/65 67/67/67 68/68/68
v 7.200000 6.490000 -0.150000
v 7.200000 6.490000 0.150000
v 8.800000 6.490000 0.150000
v 8.800000 6.490000 -0.150000
vt 7.050000 6.490000
vt 7.350000 6.490000
vt 8.950000 6.490000
vt 8.650000 6.490000
vn 0.000000 1.000000 0.000000
vn 0.000000 1.000000 0.000000
vn 0.000000 1.000000 0.000000
vn 0.000000 1.000000 0.000000
f 69/69/69 70/70/70 71/71/71
f 69/69/69 71/71/71 72/72/72
v 4.700000 2.525000 -9.115000
v 4.700000 2.675000 -9.115000
v 5.300000 2.675000 -9.115000
v 5.300000 2.525000 -9.115000
vt -4.415000 2.525000
vt -4.415000 2.675000
vt -3.815000 2.675000
vt -3.815000 2.525000
vn 0.000000 0.000000 -1.000000
vn 0.000000 0.000000 -1.000000
vn 0.000000 0.000000 -1.000000
vn 0.000000 0.000000 -1.000000
f 73/73/73 74/74/74 75/75/75
f 73/73/73 75/75/75 76/76/76
v 4.700000 2.525000 -9.065000
v 5.300000 2.525000 -9.065000
v 5.300000 2.675000 -9.065000
v 4.700000 2.675000 -9.065000
vt -4.365000 2.525000
vt -3.765000 2.525000
vt -3.765000 2.675000
vt -4.365000 2.675000
vn 0.000000 0.000000 1.000000
vn 0.000000 0.000000 1.000000
vn 0.000000 0.000000 1.000000
vn 0.000000 0.000000 1.000000
f 77/77/77 78/78/78 79/79/79
f 77/77/77 79/79/79 80/80/80
v 4.700000 2.525000 -9.115000
v 4.700000 2.525000 -9.065000
v 4.700000 2.675000 -9.065000
v 4.700000 2.675000 -9.115000
vt -4.415000 2.525000
vt -4.365000 2.525000
vt -4.365000 2.675000
vt -4.415000 2.675000
vn -1.000000 0.000000 0.000000
vn -1.000000 0.000000 0.000000
vn -1.000000 0.000000 0.000000
vn -1.000000 0.000000 0.000000
f 81/81/81 82/82/82 83/83/83
f 81/81/81 83/83/83 84/84/84
v 5.300000 2.525000 -9.115000
v 5.300000 2.675000 -9.115000
v 5.300000 2.675000 -9.065000
v 5.300000 2.525000 -9.065000
vt -3.815000 2.525000
vt -3.815000 2.675000
vt -3.765000 2.675000
vt -3.765000 2.525000
vn 1.000000 0.000000 0.000000
vn 1.000000 0.000000 0.000000
vn 1.000000 0.000000 0.000000
vn 1.000000 0.000000 0.000000
f 85/85/85 86/86/86 87/87/87
f 85/85/85 87/87/87 88/88/88
v 4.700000 2.525000 -9.115000
v 5.300000 2.525000 -9.115000
v 5.300000 2.525000 -9.065000
v 4.700000 2.525000 -9.065000
vt -4.415000 2.525000
vt -3.815000 2.525000
vt -3.765000 2.525000
vt -4.365000 2.525000
vn 0.000000 -1.000000 0.000000
vn 0.000000 -1.000000 0.000000
vn 0.000000 -1.000000 0.000000
vn 0.000000 -1.000000 0.000000
f 89/89/89 90/90/90 91/91/91
f 89/89/89 91/91/91 92/92/92
v 4.700000 2.675000 -9.115000
v 4.700000 2.675000 -9.065000
v 5.300000 2.675000 -9.065000
v 5.300000 2.675000 -9.115000
vt -4.415000 2.675000
vt -4.365000 2.675000
vt -3.765000 2.675000
vt -3.815000 2.675000
vn 0.000000 1.000000 0.000000
vn 0.000000 1.000000 0.000000
vn 0.000000 1.000000 0.000000
vn 0.000000 1.000000 0.000000
f 93/93/93 94/94/94 95/95/95
f 93/93/93 95/95/95 96/96/96
v 6.900000 2.525000 -9.115000
v 6.900000 2.675000 -9.115000
v 7.500000 2.675000 -9.115000
v 7.500000 2.525000 -9.115000
vt -2.215000 2.525000
vt -2.215000 2.675000
vt -1.615000 2.675000
vt -1.615000 2.525000
vn 0.000000 0.000000 -1.000000
vn 0.000000 0.000000 -1.000000
vn 0.000000 0.000000 -1.000000
vn 0.000000 0.000000 -1.000000
f 97/97/97 98/98/98 99/99/99
f 97/97/97 99/99/99 100/100/100
v 6.900000 2.525000 -9.065000
v 7.500000 2.525000 -9.065000
v 7.500000 2.675000 -9.065000
v 6.900000 2.675000 -9.065000
vt -2.165000 2.525000
vt -1.565000 2.525000
vt -1.565000 2.675000
vt -2.165000 2.675000
vn 0.000000 0.000000 1.000000
vn 0.000000 0.000000 1.000000
vn 0.000000 0.000000 1.000000
vn 0.000000 0.000000 1.000000
f 101/101/101 102/102/102 103/103/103
f 101/101/101 103/103/103 104/104/104
v 6.900000 2.525000 -9.115000
v 6.900000 2.525000 -9.065000
v 6.900000 2.675000 -9.065000
v 6.900000 2.675000 -9.115000
vt -2.215000 2.525000
vt -2.165000 2.525000
vt -2.165000 2.675000
vt -2.215000 2.675000
vn -1.000000 0.000000 0.000000
vn -1.000000 0.000000 0.000000
vn -1.000000 0.000000 0.000000
vn -1.000000 0.000000 0.000000
f 105/105/105 106/106/106 107/107/107
f 105/105/105 107/107/107 108/108/108
v 7.500000 2.525000 -9.115000
v 7.500000 2.675000 -9.115000
v 7.500000 2.675000 -9.065000
v 7.500000 2.525000 -9.065000
vt -1.615000 2.525000
vt -1.615000 2.675000
vt -1.565000 2.675000
vt -1.565000 2.525000
vn 1.000000 0.000000 0.000000
vn 1.000000 0.000000 0.000000
vn 1.000000 0.000000 0.000000
vn 1.000000 0.000000 0.000000
f 109/109/109 110/110/110 111/111/111
f 109/109/109 111/111/111 112/112/112
v 6.900000 2.525000 -9.115000
v 7.500000 2.525000 -9.115000
v 7.500000 2.525000 -9.065000
v 6.900000 2.525000 -9.065000
vt -2.215000 2.525000
vt -1.615000 2.525000
vt -1.565000 2.525000
vt -2.165000 2.525000
vn 0.000000 -1.000000 0.000000
vn 0.000000 -1.000000 0.000000
vn 0.000000 -1.000000 0.000000
vn 0.000000 -1.000000 0.000000
f 113/113/113 114/114/114 115/115/115
f 113/113/113 115/115/115 116/116/116
v 6.900000 2.675000 -9.115000
v 6.900000 2.675000 -9.065000
v 7.500000 2.675000 -9.065000
v 7.500000 2.675000 -9.115000
vt -2.215000 2.675000
vt -2.165000 2.675000
vt -1.565000 2.675000
vt -1.615000 2.675000
vn 0.000000 1.000000 0.000000
vn 0.000000 1.000000 0.000000
vn 0.000000 1.000000 0.000000
vn 0.000000 1.000000 0.000000
f 117/117/117 118/118/118 119/119/119
f 117/117/117 119/119/119 120/120/120
v 9.100000 2.525000 -9.115000
v 9.100000 2.675000 -9.115000
v 9.700000 2.675000 -9.115000
v 9.700000 2.525000 -9.115000
vt -0.015000 2.525000
vt -0.015000 2.675000
vt 0.585000 2.675000
vt 0.585000 2.525000
vn 0.000000 0.000000 -1.000000
vn 0.000000 0.000000 -1.000000
vn 0.000000 0.000000 -1.000000
vn 0.000000 0.000000 -1.000000
f 121/121/121 122/122/122 123/123/123
f 121/121/121 123/123/123 124/124/124
v 9.100000 2.525000 -9.065000
v 9.700000 2.525000 -9.065000
v 9.700000 2.675000 -9.065000
v 9.100000 2.675000 -9.065000
vt 0.035000 2.525000
vt 0.635000 2.525000
vt 0.635000 2.675000
vt 0.035000 2.675000
vn 0.000000 0.000000 1.000000
vn 0.000000 0.000000 1.000000
vn 0.000000 0.000000 1.000000
vn 0.000000 0.000000 1.000000
f 125/125/125 126/126/126 127/127/127
f 125/125/125 127/127/127 128/128/128
v 9.100000 2.525000 -9.115000
v 9.100000 2.525000 -9.065000
v 9.100000 2.675000 -9.065000
v 9.100000 2.675000 -9.115000
vt -0.015000 2.525000
vt 0.035000 2.525000
vt 0.035000 2.675000
vt -0.015000 2.675000
vn -1.000000 0.000000 0.000000
vn -1.000000 0.000000 0.000000
vn -1.000000 0.000000 0.000000
vn -1.000000 0.000000 0.000000
f 129/129/129 130/130/130 131/131/131
f 129/129/129 131/131/131 132/132/132
v 9.700000 2.525000 -9.115000
v 9.700000 2.675000 -9.115000
v 9.700000 2.675000 -9.065000
v 9.700000 2.525000 -9.065000
vt 0.585000 2.525000
vt 0.585000 2.675000
vt 0.635000 2.675000
vt 0.635000 2.525000
vn 1.000000 0.000000 0.000000
vn 1.000000 0.000000 0.000000
vn 1.000000 0.000000 0.000000
vn 1.000000 0.000000 0.000000
f 133/133/133 134/134/134 135/135/135
f 133/133/133 135/135/135 136/136/136
v 9.100000 2.525000 -9.115000
v 9.700000 2.525000 -9.115000
v 9.700000 2.525000 -9.065000
v 9.100000 2.525000 -9.065000
vt -0.015000 2.525000
vt 0.585000 2.525000
vt 0.635000 2.525000
vt 0.035000 2.525000
vn 0.000000 -1.000000 0.000000
vn 0.000000 -1.000000 0.000000
vn 0.000000 -1.000000 0.000000
vn 0.000000 -1.000000 0.000000
f 137/137/137 138/138/138 139/139/139
f 137/137/137 139/139/139 140/140/140
v 9.100000 2.675000 -9.115000
v 9.100000 2.675000 -9.065000
v 9.700000 2.675000 -9.065000
v 9.700000 2.675000 -9.115000
vt -0.015000 2.675000
vt 0.035000 2.675000
vt 0.635000 2.675000
vt 0.585000 2.675000
vn 0.000000 1.000000 0.000000
vn 0.000000 1.000000 0.000000
vn 0.000000 1.000000 0.000000
vn 0.000000 1.000000 0.000000
f 141/141/141 142/142/142 143/143/143
f 141/141/141 143/143/143 144/144/144
v 13.120000 4.300000 -2.295000
v 13.120000 7.100000 -2.295000
v 13.180000 7.100000 -2.295000
v 13.180000 4.300000 -2.295000
vt 10.825000 4.300000
vt 10.825000 7.100000
vt 10.885000 7.100000
vt 10.885000 4.300000
vn 0.000000 0.000000 -1.000000
vn 0.000000 0.000000 -1.000000
vn 0.000000 0.000000 -1.000000
vn 0.000000 0.000000 -1.000000
f 145/145/145 146/146/146 147/147/147
f 145/145/145 147/147/147 148/148/148
v 13.120000 4.300000 -2.205000
v 13.180000 4.300000 -2.205000
v 13.180000 7.100000 -2.205000
v 13.120000 7.100000 -2.205000
vt 10.915000 4.300000
vt 10.975000 4.300000
vt 10.975000 7.100000
vt 10.915000 7.100000
vn 0.000000 0.000000 1.000000
vn 0.000000 0.000000 1.000000
vn 0.000000 0.000000 1.000000
vn 0.000000 0.000000 1.000000
f 149/149/149 150/150/150 151/151/151
f 149/149/149 151/151/151 152/152/152
v 13.120000 4.300000 -2.295000
v 13.120000 4.300000 -2.205000
v 13.120000 7.100000 -2.205000
v 13.120000 7.100000 -2.295000
vt 10.825000 4.300000
vt 10.915000 4.300000
vt 10.915000 7.100000
vt 10.825000 7.100000
vn -1.000000 0.000000 0.000000
vn -1.000000 0.000000 0.000000
vn -1.000000 0.000000 0.000000
vn -1.000000 0.000000 0.000000
f 153/153/153 154/154/154 155/155/155
f 153/153/153 155/155/155 156/156/156
v 13.180000 4.300000 -2.295000
v 13.180000 7.100000 -2.295000
v 13.180000 7.100000 -2.205000
v 13.180000 4.300000 -2.205000
vt 10.885000 4.300000
vt 10.885000 7.100000
vt 10.975000 7.100000
vt 10.975000 4.300000
vn 1.000000 0.000000 0.000000
vn 1.000000 0.000000 0.000000
vn 1.000000 0.000000 0.000000
vn 1.000000 0.000000 0.000000
f 157/157/157 158/158/158 159/159/159
f 157/157/157 159/159/159 160/160/160
v 13.120000 4.300000 -2.295000
v 13.180000 4.300000 -2.295000
v 13.180000 4.300000 -2.205000
v 13.120000 4.300000 -2.205000
vt 10.825000 4.300000
vt 10.885000 4.300000
vt 10.975000 4.300000
vt 10.915000 4.300000
vn 0.000000 -1.000000 0.000000
vn 0.000000 -1.000000 0.000000
vn 0.000000 -1.000000 0.000000
vn 0.000000 -1.000000 0.000000
f 161/161/161 162/162/162 163/163/163
f 161/161/161 163/163/163 164/164/164
v 13.120000 7.100000 -2.295000
v 13.120000 7.100000 -2.205000
v 13.180000 7.100000 -2.205000
v 13.180000 7.100000 -2.295000
vt 10.825000 7.100000
vt 10.915000 7.100000
vt 10.975000 7.100000
vt 10.885000 7.100000
vn 0.000000 1.000000 0.000000
vn 0.000000 1.000000 0.000000
vn 0.000000 1.000000 0.000000
vn 0.000000 1.000000 0.000000
f 165/165/165 166/166/166 167/167/167
f 165/165/165 167/167/167 168/168/168
v 13.120000 4.300000 2.205000
v 13.120000 7.100000 2.205000
v 13.180000 7.100000 2.205000
v 13.180000 4.300000 2.205000
vt 15.325000 4.300000
vt 15.325000 7.100000
vt 15.385000 7.100000
vt 15.385000 4.300000
vn 0.000000 0.000000 -1.000000
vn 0.000000 0.000000 -1.000000
vn 0.000000 0.000000 -1.000000
vn 0.000000 0.000000 -1.000000
f 169/169/169 170/170/170 171/171/171
f 169/169/169 171/171/171 172/172/172
v 13.120000 4.300000 2.295000
v 13.180000 4.300000 2.295000
v 13.180000 7.100000 2.295000
v 13.120000 7.100000 2.295000
vt 15.415000 4.300000
vt 15.475000 4.300000
vt 15.475000 7.100000
vt 15.415000 7.100000
vn 0.000000 0.000000 1.000000
vn 0.000000 0.000000 1.000000
vn 0.000000 0.000000 1.000000
vn 0.000000 0.000000 1.000000
f 173/173/173 174/174/174 175/175/175
f 173/173/173 175/175/175 176/176/176
v 13.120000 4.300000 2.205000
v 13.120000 4.300000 2.295000
v 13.120000 7.100000 2.295000
v 13.120000 7.100000 2.205000
vt 15.325000 4.300000
vt 15.415000 4.300000
vt 15.415000 7.100000
vt 15.325000 7.100000
vn -1.000000 0.000000 0.000000
vn -1.000000 0.000000 0.000000
vn -1.000000 0.000000 0.000000
vn -1.000000 0.000000 0.000000
f 177/177/177 178/178/178 179/179/179
f 177/177/177 179/179/179 180/180/180
v 13.180000 4.300000 2.205000
v 13.180000 7.100000 2.205000
v 13.180000 7.100000 2.295000
v 13.180000 4.300000 2.295000
vt 15.385000 4.300000
vt 15.385000 7.100000
vt 15.475000 7.100000
vt 15.475000 4.300000
vn 1.000000 0.000000 0.000000
vn 1.000000 0.000000 0.000000
vn 1.000000 0.000000 0.000000
vn 1.000000 0.000000 0.000000
f 181/181/181 182/182/182 183/183/183
f 181/181/181 183/183/183 184/184/184
v 13.120000 4.300000 2.205000
v 13.180000 4.300000 2.205000
v 13.180000 4.300000 2.295000
v 13.120000 4.300000 2.295000
vt 15.325000 4.300000
vt 15.385000 4.300000
vt 15.475000 4.300000
vt 15.415000 4.300000
vn 0.000000 -1.000000 0.000000
vn 0.000000 -1.000000 0.000000
vn 0.000000 -1.000000 0.000000
vn 0.000000 -1.000000 0.000000
f 185/185/185 186/186/186 187/187/187
f 185/185/185 187/187/187 188/188/188
v 13.120000 7.100000 2.205000
v 13.120000 7.100000 2.295000
v 13.180000 7.100000 2.295000
v 13.180000 7.100000 2.205000
vt 15.325000 7.100000
vt 15.415000 7.100000
vt 15.475000 7.100000
vt 15.385000 7.100000
vn 0.000000 1.000000 0.000000
vn 0.000000 1.000000 0.000000
vn 0.000000 1.000000 0.000000
vn 0.000000 1.000000 0.000000
f 189/189/189 190/190/190 191/191/191
f 189/189/189 191/191/191 192/192/192
