# Original MODUS Black Start coastal presentation. Authored static geometry; no third-party source.
o coastal_hub_teal_enamel
v -9.590000 1.500000 7.840000
v -9.590000 2.700000 7.840000
v -9.010000 2.700000 7.840000
v -9.010000 1.500000 7.840000
vt -1.750000 1.500000
vt -1.750000 2.700000
vt -1.170000 2.700000
vt -1.170000 1.500000
vn 0.000000 0.000000 -1.000000
vn 0.000000 0.000000 -1.000000
vn 0.000000 0.000000 -1.000000
vn 0.000000 0.000000 -1.000000
f 1/1/1 2/2/2 3/3/3
f 1/1/1 3/3/3 4/4/4
v -9.590000 1.500000 7.940000
v -9.010000 1.500000 7.940000
v -9.010000 2.700000 7.940000
v -9.590000 2.700000 7.940000
vt -1.650000 1.500000
vt -1.070000 1.500000
vt -1.070000 2.700000
vt -1.650000 2.700000
vn 0.000000 0.000000 1.000000
vn 0.000000 0.000000 1.000000
vn 0.000000 0.000000 1.000000
vn 0.000000 0.000000 1.000000
f 5/5/5 6/6/6 7/7/7
f 5/5/5 7/7/7 8/8/8
v -9.590000 1.500000 7.840000
v -9.590000 1.500000 7.940000
v -9.590000 2.700000 7.940000
v -9.590000 2.700000 7.840000
vt -1.750000 1.500000
vt -1.650000 1.500000
vt -1.650000 2.700000
vt -1.750000 2.700000
vn -1.000000 0.000000 0.000000
vn -1.000000 0.000000 0.000000
vn -1.000000 0.000000 0.000000
vn -1.000000 0.000000 0.000000
f 9/9/9 10/10/10 11/11/11
f 9/9/9 11/11/11 12/12/12
v -9.010000 1.500000 7.840000
v -9.010000 2.700000 7.840000
v -9.010000 2.700000 7.940000
v -9.010000 1.500000 7.940000
vt -1.170000 1.500000
vt -1.170000 2.700000
vt -1.070000 2.700000
vt -1.070000 1.500000
vn 1.000000 0.000000 0.000000
vn 1.000000 0.000000 0.000000
vn 1.000000 0.000000 0.000000
vn 1.000000 0.000000 0.000000
f 13/13/13 14/14/14 15/15/15
f 13/13/13 15/15/15 16/16/16
v -9.590000 1.500000 7.840000
v -9.010000 1.500000 7.840000
v -9.010000 1.500000 7.940000
v -9.590000 1.500000 7.940000
vt -1.750000 1.500000
vt -1.170000 1.500000
vt -1.070000 1.500000
vt -1.650000 1.500000
vn 0.000000 -1.000000 0.000000
vn 0.000000 -1.000000 0.000000
vn 0.000000 -1.000000 0.000000
vn 0.000000 -1.000000 0.000000
f 17/17/17 18/18/18 19/19/19
f 17/17/17 19/19/19 20/20/20
v -9.590000 2.700000 7.840000
v -9.590000 2.700000 7.940000
v -9.010000 2.700000 7.940000
v -9.010000 2.700000 7.840000
vt -1.750000 2.700000
vt -1.650000 2.700000
vt -1.070000 2.700000
vt -1.170000 2.700000
vn 0.000000 1.000000 0.000000
vn 0.000000 1.000000 0.000000
vn 0.000000 1.000000 0.000000
vn 0.000000 1.000000 0.000000
f 21/21/21 22/22/22 23/23/23
f 21/21/21 23/23/23 24/24/24
v -8.790000 1.500000 7.840000
v -8.790000 2.700000 7.840000
v -8.210000 2.700000 7.840000
v -8.210000 1.500000 7.840000
vt -0.950000 1.500000
vt -0.950000 2.700000
vt -0.370000 2.700000
vt -0.370000 1.500000
vn 0.000000 0.000000 -1.000000
vn 0.000000 0.000000 -1.000000
vn 0.000000 0.000000 -1.000000
vn 0.000000 0.000000 -1.000000
f 25/25/25 26/26/26 27/27/27
f 25/25/25 27/27/27 28/28/28
v -8.790000 1.500000 7.940000
v -8.210000 1.500000 7.940000
v -8.210000 2.700000 7.940000
v -8.790000 2.700000 7.940000
vt -0.850000 1.500000
vt -0.270000 1.500000
vt -0.270000 2.700000
vt -0.850000 2.700000
vn 0.000000 0.000000 1.000000
vn 0.000000 0.000000 1.000000
vn 0.000000 0.000000 1.000000
vn 0.000000 0.000000 1.000000
f 29/29/29 30/30/30 31/31/31
f 29/29/29 31/31/31 32/32/32
v -8.790000 1.500000 7.840000
v -8.790000 1.500000 7.940000
v -8.790000 2.700000 7.940000
v -8.790000 2.700000 7.840000
vt -0.950000 1.500000
vt -0.850000 1.500000
vt -0.850000 2.700000
vt -0.950000 2.700000
vn -1.000000 0.000000 0.000000
vn -1.000000 0.000000 0.000000
vn -1.000000 0.000000 0.000000
vn -1.000000 0.000000 0.000000
f 33/33/33 34/34/34 35/35/35
f 33/33/33 35/35/35 36/36/36
v -8.210000 1.500000 7.840000
v -8.210000 2.700000 7.840000
v -8.210000 2.700000 7.940000
v -8.210000 1.500000 7.940000
vt -0.370000 1.500000
vt -0.370000 2.700000
vt -0.270000 2.700000
vt -0.270000 1.500000
vn 1.000000 0.000000 0.000000
vn 1.000000 0.000000 0.000000
vn 1.000000 0.000000 0.000000
vn 1.000000 0.000000 0.000000
f 37/37/37 38/38/38 39/39/39
f 37/37/37 39/39/39 40/40/40
v -8.790000 1.500000 7.840000
v -8.210000 1.500000 7.840000
v -8.210000 1.500000 7.940000
v -8.790000 1.500000 7.940000
vt -0.950000 1.500000
vt -0.370000 1.500000
vt -0.270000 1.500000
vt -0.850000 1.500000
vn 0.000000 -1.000000 0.000000
vn 0.000000 -1.000000 0.000000
vn 0.000000 -1.000000 0.000000
vn 0.000000 -1.000000 0.000000
f 41/41/41 42/42/42 43/43/43
f 41/41/41 43/43/43 44/44/44
v -8.790000 2.700000 7.840000
v -8.790000 2.700000 7.940000
v -8.210000 2.700000 7.940000
v -8.210000 2.700000 7.840000
vt -0.950000 2.700000
vt -0.850000 2.700000
vt -0.270000 2.700000
vt -0.370000 2.700000
vn 0.000000 1.000000 0.000000
vn 0.000000 1.000000 0.000000
vn 0.000000 1.000000 0.000000
vn 0.000000 1.000000 0.000000
f 45/45/45 46/46/46 47/47/47
f 45/45/45 47/47/47 48/48/48
v -7.990000 1.500000 7.840000
v -7.990000 2.700000 7.840000
v -7.410000 2.700000 7.840000
v -7.410000 1.500000 7.840000
vt -0.150000 1.500000
vt -0.150000 2.700000
vt 0.430000 2.700000
vt 0.430000 1.500000
vn 0.000000 0.000000 -1.000000
vn 0.000000 0.000000 -1.000000
vn 0.000000 0.000000 -1.000000
vn 0.000000 0.000000 -1.000000
f 49/49/49 50/50/50 51/51/51
f 49/49/49 51/51/51 52/52/52
v -7.990000 1.500000 7.940000
v -7.410000 1.500000 7.940000
v -7.410000 2.700000 7.940000
v -7.990000 2.700000 7.940000
vt -0.050000 1.500000
vt 0.530000 1.500000
vt 0.530000 2.700000
vt -0.050000 2.700000
vn 0.000000 0.000000 1.000000
vn 0.000000 0.000000 1.000000
vn 0.000000 0.000000 1.000000
vn 0.000000 0.000000 1.000000
f 53/53/53 54/54/54 55/55/55
f 53/53/53 55/55/55 56/56/56
v -7.990000 1.500000 7.840000
v -7.990000 1.500000 7.940000
v -7.990000 2.700000 7.940000
v -7.990000 2.700000 7.840000
vt -0.150000 1.500000
vt -0.050000 1.500000
vt -0.050000 2.700000
vt -0.150000 2.700000
vn -1.000000 0.000000 0.000000
vn -1.000000 0.000000 0.000000
vn -1.000000 0.000000 0.000000
vn -1.000000 0.000000 0.000000
f 57/57/57 58/58/58 59/59/59
f 57/57/57 59/59/59 60/60/60
v -7.410000 1.500000 7.840000
v -7.410000 2.700000 7.840000
v -7.410000 2.700000 7.940000
v -7.410000 1.500000 7.940000
vt 0.430000 1.500000
vt 0.430000 2.700000
vt 0.530000 2.700000
vt 0.530000 1.500000
vn 1.000000 0.000000 0.000000
vn 1.000000 0.000000 0.000000
vn 1.000000 0.000000 0.000000
vn 1.000000 0.000000 0.000000
f 61/61/61 62/62/62 63/63/63
f 61/61/61 63/63/63 64/64/64
v -7.990000 1.500000 7.840000
v -7.410000 1.500000 7.840000
v -7.410000 1.500000 7.940000
v -7.990000 1.500000 7.940000
vt -0.150000 1.500000
vt 0.430000 1.500000
vt 0.530000 1.500000
vt -0.050000 1.500000
vn 0.000000 -1.000000 0.000000
vn 0.000000 -1.000000 0.000000
vn 0.000000 -1.000000 0.000000
vn 0.000000 -1.000000 0.000000
f 65/65/65 66/66/66 67/67/67
f 65/65/65 67/67/67 68/68/68
v -7.990000 2.700000 7.840000
v -7.990000 2.700000 7.940000
v -7.410000 2.700000 7.940000
v -7.410000 2.700000 7.840000
vt -0.150000 2.700000
vt -0.050000 2.700000
vt 0.530000 2.700000
vt 0.430000 2.700000
vn 0.000000 1.000000 0.000000
vn 0.000000 1.000000 0.000000
vn 0.000000 1.000000 0.000000
vn 0.000000 1.000000 0.000000
f 69/69/69 70/70/70 71/71/71
f 69/69/69 71/71/71 72/72/72
v -7.190000 1.500000 7.840000
v -7.190000 2.700000 7.840000
v -6.610000 2.700000 7.840000
v -6.610000 1.500000 7.840000
vt 0.650000 1.500000
vt 0.650000 2.700000
vt 1.230000 2.700000
vt 1.230000 1.500000
vn 0.000000 0.000000 -1.000000
vn 0.000000 0.000000 -1.000000
vn 0.000000 0.000000 -1.000000
vn 0.000000 0.000000 -1.000000
f 73/73/73 74/74/74 75/75/75
f 73/73/73 75/75/75 76/76/76
v -7.190000 1.500000 7.940000
v -6.610000 1.500000 7.940000
v -6.610000 2.700000 7.940000
v -7.190000 2.700000 7.940000
vt 0.750000 1.500000
vt 1.330000 1.500000
vt 1.330000 2.700000
vt 0.750000 2.700000
vn 0.000000 0.000000 1.000000
vn 0.000000 0.000000 1.000000
vn 0.000000 0.000000 1.000000
vn 0.000000 0.000000 1.000000
f 77/77/77 78/78/78 79/79/79
f 77/77/77 79/79/79 80/80/80
v -7.190000 1.500000 7.840000
v -7.190000 1.500000 7.940000
v -7.190000 2.700000 7.940000
v -7.190000 2.700000 7.840000
vt 0.650000 1.500000
vt 0.750000 1.500000
vt 0.750000 2.700000
vt 0.650000 2.700000
vn -1.000000 0.000000 0.000000
vn -1.000000 0.000000 0.000000
vn -1.000000 0.000000 0.000000
vn -1.000000 0.000000 0.000000
f 81/81/81 82/82/82 83/83/83
f 81/81/81 83/83/83 84/84/84
v -6.610000 1.500000 7.840000
v -6.610000 2.700000 7.840000
v -6.610000 2.700000 7.940000
v -6.610000 1.500000 7.940000
vt 1.230000 1.500000
vt 1.230000 2.700000
vt 1.330000 2.700000
vt 1.330000 1.500000
vn 1.000000 0.000000 0.000000
vn 1.000000 0.000000 0.000000
vn 1.000000 0.000000 0.000000
vn 1.000000 0.000000 0.000000
f 85/85/85 86/86/86 87/87/87
f 85/85/85 87/87/87 88/88/88
v -7.190000 1.500000 7.840000
v -6.610000 1.500000 7.840000
v -6.610000 1.500000 7.940000
v -7.190000 1.500000 7.940000
vt 0.650000 1.500000
vt 1.230000 1.500000
vt 1.330000 1.500000
vt 0.750000 1.500000
vn 0.000000 -1.000000 0.000000
vn 0.000000 -1.000000 0.000000
vn 0.000000 -1.000000 0.000000
vn 0.000000 -1.000000 0.000000
f 89/89/89 90/90/90 91/91/91
f 89/89/89 91/91/91 92/92/92
v -7.190000 2.700000 7.840000
v -7.190000 2.700000 7.940000
v -6.610000 2.700000 7.940000
v -6.610000 2.700000 7.840000
vt 0.650000 2.700000
vt 0.750000 2.700000
vt 1.330000 2.700000
vt 1.230000 2.700000
vn 0.000000 1.000000 0.000000
vn 0.000000 1.000000 0.000000
vn 0.000000 1.000000 0.000000
vn 0.000000 1.000000 0.000000
f 93/93/93 94/94/94 95/95/95
f 93/93/93 95/95/95 96/96/96
v -6.390000 1.500000 7.840000
v -6.390000 2.700000 7.840000
v -5.810000 2.700000 7.840000
v -5.810000 1.500000 7.840000
vt 1.450000 1.500000
vt 1.450000 2.700000
vt 2.030000 2.700000
vt 2.030000 1.500000
vn 0.000000 0.000000 -1.000000
vn 0.000000 0.000000 -1.000000
vn 0.000000 0.000000 -1.000000
vn 0.000000 0.000000 -1.000000
f 97/97/97 98/98/98 99/99/99
f 97/97/97 99/99/99 100/100/100
v -6.390000 1.500000 7.940000
v -5.810000 1.500000 7.940000
v -5.810000 2.700000 7.940000
v -6.390000 2.700000 7.940000
vt 1.550000 1.500000
vt 2.130000 1.500000
vt 2.130000 2.700000
vt 1.550000 2.700000
vn 0.000000 0.000000 1.000000
vn 0.000000 0.000000 1.000000
vn 0.000000 0.000000 1.000000
vn 0.000000 0.000000 1.000000
f 101/101/101 102/102/102 103/103/103
f 101/101/101 103/103/103 104/104/104
v -6.390000 1.500000 7.840000
v -6.390000 1.500000 7.940000
v -6.390000 2.700000 7.940000
v -6.390000 2.700000 7.840000
vt 1.450000 1.500000
vt 1.550000 1.500000
vt 1.550000 2.700000
vt 1.450000 2.700000
vn -1.000000 0.000000 0.000000
vn -1.000000 0.000000 0.000000
vn -1.000000 0.000000 0.000000
vn -1.000000 0.000000 0.000000
f 105/105/105 106/106/106 107/107/107
f 105/105/105 107/107/107 108/108/108
v -5.810000 1.500000 7.840000
v -5.810000 2.700000 7.840000
v -5.810000 2.700000 7.940000
v -5.810000 1.500000 7.940000
vt 2.030000 1.500000
vt 2.030000 2.700000
vt 2.130000 2.700000
vt 2.130000 1.500000
vn 1.000000 0.000000 0.000000
vn 1.000000 0.000000 0.000000
vn 1.000000 0.000000 0.000000
vn 1.000000 0.000000 0.000000
f 109/109/109 110/110/110 111/111/111
f 109/109/109 111/111/111 112/112/112
v -6.390000 1.500000 7.840000
v -5.810000 1.500000 7.840000
v -5.810000 1.500000 7.940000
v -6.390000 1.500000 7.940000
vt 1.450000 1.500000
vt 2.030000 1.500000
vt 2.130000 1.500000
vt 1.550000 1.500000
vn 0.000000 -1.000000 0.000000
vn 0.000000 -1.000000 0.000000
vn 0.000000 -1.000000 0.000000
vn 0.000000 -1.000000 0.000000
f 113/113/113 114/114/114 115/115/115
f 113/113/113 115/115/115 116/116/116
v -6.390000 2.700000 7.840000
v -6.390000 2.700000 7.940000
v -5.810000 2.700000 7.940000
v -5.810000 2.700000 7.840000
vt 1.450000 2.700000
vt 1.550000 2.700000
vt 2.130000 2.700000
vt 2.030000 2.700000
vn 0.000000 1.000000 0.000000
vn 0.000000 1.000000 0.000000
vn 0.000000 1.000000 0.000000
vn 0.000000 1.000000 0.000000
f 117/117/117 118/118/118 119/119/119
f 117/117/117 119/119/119 120/120/120
v -5.590000 1.500000 7.840000
v -5.590000 2.700000 7.840000
v -5.010000 2.700000 7.840000
v -5.010000 1.500000 7.840000
vt 2.250000 1.500000
vt 2.250000 2.700000
vt 2.830000 2.700000
vt 2.830000 1.500000
vn 0.000000 0.000000 -1.000000
vn 0.000000 0.000000 -1.000000
vn 0.000000 0.000000 -1.000000
vn 0.000000 0.000000 -1.000000
f 121/121/121 122/122/122 123/123/123
f 121/121/121 123/123/123 124/124/124
v -5.590000 1.500000 7.940000
v -5.010000 1.500000 7.940000
v -5.010000 2.700000 7.940000
v -5.590000 2.700000 7.940000
vt 2.350000 1.500000
vt 2.930000 1.500000
vt 2.930000 2.700000
vt 2.350000 2.700000
vn 0.000000 0.000000 1.000000
vn 0.000000 0.000000 1.000000
vn 0.000000 0.000000 1.000000
vn 0.000000 0.000000 1.000000
f 125/125/125 126/126/126 127/127/127
f 125/125/125 127/127/127 128/128/128
v -5.590000 1.500000 7.840000
v -5.590000 1.500000 7.940000
v -5.590000 2.700000 7.940000
v -5.590000 2.700000 7.840000
vt 2.250000 1.500000
vt 2.350000 1.500000
vt 2.350000 2.700000
vt 2.250000 2.700000
vn -1.000000 0.000000 0.000000
vn -1.000000 0.000000 0.000000
vn -1.000000 0.000000 0.000000
vn -1.000000 0.000000 0.000000
f 129/129/129 130/130/130 131/131/131
f 129/129/129 131/131/131 132/132/132
v -5.010000 1.500000 7.840000
v -5.010000 2.700000 7.840000
v -5.010000 2.700000 7.940000
v -5.010000 1.500000 7.940000
vt 2.830000 1.500000
vt 2.830000 2.700000
vt 2.930000 2.700000
vt 2.930000 1.500000
vn 1.000000 0.000000 0.000000
vn 1.000000 0.000000 0.000000
vn 1.000000 0.000000 0.000000
vn 1.000000 0.000000 0.000000
f 133/133/133 134/134/134 135/135/135
f 133/133/133 135/135/135 136/136/136
v -5.590000 1.500000 7.840000
v -5.010000 1.500000 7.840000
v -5.010000 1.500000 7.940000
v -5.590000 1.500000 7.940000
vt 2.250000 1.500000
vt 2.830000 1.500000
vt 2.930000 1.500000
vt 2.350000 1.500000
vn 0.000000 -1.000000 0.000000
vn 0.000000 -1.000000 0.000000
vn 0.000000 -1.000000 0.000000
vn 0.000000 -1.000000 0.000000
f 137/137/137 138/138/138 139/139/139
f 137/137/137 139/139/139 140/140/140
v -5.590000 2.700000 7.840000
v -5.590000 2.700000 7.940000
v -5.010000 2.700000 7.940000
v -5.010000 2.700000 7.840000
vt 2.250000 2.700000
vt 2.350000 2.700000
vt 2.930000 2.700000
vt 2.830000 2.700000
vn 0.000000 1.000000 0.000000
vn 0.000000 1.000000 0.000000
vn 0.000000 1.000000 0.000000
vn 0.000000 1.000000 0.000000
f 141/141/141 142/142/142 143/143/143
f 141/141/141 143/143/143 144/144/144
v 4.225000 0.350000 -9.300000
v 4.225000 2.950000 -9.300000
v 5.775000 2.950000 -9.300000
v 5.775000 0.350000 -9.300000
vt -5.075000 0.350000
vt -5.075000 2.950000
vt -3.525000 2.950000
vt -3.525000 0.350000
vn 0.000000 0.000000 -1.000000
vn 0.000000 0.000000 -1.000000
vn 0.000000 0.000000 -1.000000
vn 0.000000 0.000000 -1.000000
f 145/145/145 146/146/146 147/147/147
f 145/145/145 147/147/147 148/148/148
v 4.225000 0.350000 -9.120000
v 5.775000 0.350000 -9.120000
v 5.775000 2.950000 -9.120000
v 4.225000 2.950000 -9.120000
vt -4.895000 0.350000
vt -3.345000 0.350000
vt -3.345000 2.950000
vt -4.895000 2.950000
vn 0.000000 0.000000 1.000000
vn 0.000000 0.000000 1.000000
vn 0.000000 0.000000 1.000000
vn 0.000000 0.000000 1.000000
f 149/149/149 150/150/150 151/151/151
f 149/149/149 151/151/151 152/152/152
v 4.225000 0.350000 -9.300000
v 4.225000 0.350000 -9.120000
v 4.225000 2.950000 -9.120000
v 4.225000 2.950000 -9.300000
vt -5.075000 0.350000
vt -4.895000 0.350000
vt -4.895000 2.950000
vt -5.075000 2.950000
vn -1.000000 0.000000 0.000000
vn -1.000000 0.000000 0.000000
vn -1.000000 0.000000 0.000000
vn -1.000000 0.000000 0.000000
f 153/153/153 154/154/154 155/155/155
f 153/153/153 155/155/155 156/156/156
v 5.775000 0.350000 -9.300000
v 5.775000 2.950000 -9.300000
v 5.775000 2.950000 -9.120000
v 5.775000 0.350000 -9.120000
vt -3.525000 0.350000
vt -3.525000 2.950000
vt -3.345000 2.950000
vt -3.345000 0.350000
vn 1.000000 0.000000 0.000000
vn 1.000000 0.000000 0.000000
vn 1.000000 0.000000 0.000000
vn 1.000000 0.000000 0.000000
f 157/157/157 158/158/158 159/159/159
f 157/157/157 159/159/159 160/160/160
v 4.225000 0.350000 -9.300000
v 5.775000 0.350000 -9.300000
v 5.775000 0.350000 -9.120000
v 4.225000 0.350000 -9.120000
vt -5.075000 0.350000
vt -3.525000 0.350000
vt -3.345000 0.350000
vt -4.895000 0.350000
vn 0.000000 -1.000000 0.000000
vn 0.000000 -1.000000 0.000000
vn 0.000000 -1.000000 0.000000
vn 0.000000 -1.000000 0.000000
f 161/161/161 162/162/162 163/163/163
f 161/161/161 163/163/163 164/164/164
v 4.225000 2.950000 -9.300000
v 4.225000 2.950000 -9.120000
v 5.775000 2.950000 -9.120000
v 5.775000 2.950000 -9.300000
vt -5.075000 2.950000
vt -4.895000 2.950000
vt -3.345000 2.950000
vt -3.525000 2.950000
vn 0.000000 1.000000 0.000000
vn 0.000000 1.000000 0.000000
vn 0.000000 1.000000 0.000000
vn 0.000000 1.000000 0.000000
f 165/165/165 166/166/166 167/167/167
f 165/165/165 167/167/167 168/168/168
v 6.425000 0.350000 -9.300000
v 6.425000 2.950000 -9.300000
v 7.975000 2.950000 -9.300000
v 7.975000 0.350000 -9.300000
vt -2.875000 0.350000
vt -2.875000 2.950000
vt -1.325000 2.950000
vt -1.325000 0.350000
vn 0.000000 0.000000 -1.000000
vn 0.000000 0.000000 -1.000000
vn 0.000000 0.000000 -1.000000
vn 0.000000 0.000000 -1.000000
f 169/169/169 170/170/170 171/171/171
f 169/169/169 171/171/171 172/172/172
v 6.425000 0.350000 -9.120000
v 7.975000 0.350000 -9.120000
v 7.975000 2.950000 -9.120000
v 6.425000 2.950000 -9.120000
vt -2.695000 0.350000
vt -1.145000 0.350000
vt -1.145000 2.950000
vt -2.695000 2.950000
vn 0.000000 0.000000 1.000000
vn 0.000000 0.000000 1.000000
vn 0.000000 0.000000 1.000000
vn 0.000000 0.000000 1.000000
f 173/173/173 174/174/174 175/175/175
f 173/173/173 175/175/175 176/176/176
v 6.425000 0.350000 -9.300000
v 6.425000 0.350000 -9.120000
v 6.425000 2.950000 -9.120000
v 6.425000 2.950000 -9.300000
vt -2.875000 0.350000
vt -2.695000 0.350000
vt -2.695000 2.950000
vt -2.875000 2.950000
vn -1.000000 0.000000 0.000000
vn -1.000000 0.000000 0.000000
vn -1.000000 0.000000 0.000000
vn -1.000000 0.000000 0.000000
f 177/177/177 178/178/178 179/179/179
f 177/177/177 179/179/179 180/180/180
v 7.975000 0.350000 -9.300000
v 7.975000 2.950000 -9.300000
v 7.975000 2.950000 -9.120000
v 7.975000 0.350000 -9.120000
vt -1.325000 0.350000
vt -1.325000 2.950000
vt -1.145000 2.950000
vt -1.145000 0.350000
vn 1.000000 0.000000 0.000000
vn 1.000000 0.000000 0.000000
vn 1.000000 0.000000 0.000000
vn 1.000000 0.000000 0.000000
f 181/181/181 182/182/182 183/183/183
f 181/181/181 183/183/183 184/184/184
v 6.425000 0.350000 -9.300000
v 7.975000 0.350000 -9.300000
v 7.975000 0.350000 -9.120000
v 6.425000 0.350000 -9.120000
vt -2.875000 0.350000
vt -1.325000 0.350000
vt -1.145000 0.350000
vt -2.695000 0.350000
vn 0.000000 -1.000000 0.000000
vn 0.000000 -1.000000 0.000000
vn 0.000000 -1.000000 0.000000
vn 0.000000 -1.000000 0.000000
f 185/185/185 186/186/186 187/187/187
f 185/185/185 187/187/187 188/188/188
v 6.425000 2.950000 -9.300000
v 6.425000 2.950000 -9.120000
v 7.975000 2.950000 -9.120000
v 7.975000 2.950000 -9.300000
vt -2.875000 2.950000
vt -2.695000 2.950000
vt -1.145000 2.950000
vt -1.325000 2.950000
vn 0.000000 1.000000 0.000000
vn 0.000000 1.000000 0.000000
vn 0.000000 1.000000 0.000000
vn 0.000000 1.000000 0.000000
f 189/189/189 190/190/190 191/191/191
f 189/189/189 191/191/191 192/192/192
v 8.625000 0.350000 -9.300000
v 8.625000 2.950000 -9.300000
v 10.175000 2.950000 -9.300000
v 10.175000 0.350000 -9.300000
vt -0.675000 0.350000
vt -0.675000 2.950000
vt 0.875000 2.950000
vt 0.875000 0.350000
vn 0.000000 0.000000 -1.000000
vn 0.000000 0.000000 -1.000000
vn 0.000000 0.000000 -1.000000
vn 0.000000 0.000000 -1.000000
f 193/193/193 194/194/194 195/195/195
f 193/193/193 195/195/195 196/196/196
v 8.625000 0.350000 -9.120000
v 10.175000 0.350000 -9.120000
v 10.175000 2.950000 -9.120000
v 8.625000 2.950000 -9.120000
vt -0.495000 0.350000
vt 1.055000 0.350000
vt 1.055000 2.950000
vt -0.495000 2.950000
vn 0.000000 0.000000 1.000000
vn 0.000000 0.000000 1.000000
vn 0.000000 0.000000 1.000000
vn 0.000000 0.000000 1.000000
f 197/197/197 198/198/198 199/199/199
f 197/197/197 199/199/199 200/200/200
v 8.625000 0.350000 -9.300000
v 8.625000 0.350000 -9.120000
v 8.625000 2.950000 -9.120000
v 8.625000 2.950000 -9.300000
vt -0.675000 0.350000
vt -0.495000 0.350000
vt -0.495000 2.950000
vt -0.675000 2.950000
vn -1.000000 0.000000 0.000000
vn -1.000000 0.000000 0.000000
vn -1.000000 0.000000 0.000000
vn -1.000000 0.000000 0.000000
f 201/201/201 202/202/202 203/203/203
f 201/201/201 203/203/203 204/204/204
v 10.175000 0.350000 -9.300000
v 10.175000 2.950000 -9.300000
v 10.175000 2.950000 -9.120000
v 10.175000 0.350000 -9.120000
vt 0.875000 0.350000
vt 0.875000 2.950000
vt 1.055000 2.950000
vt 1.055000 0.350000
vn 1.000000 0.000000 0.000000
vn 1.000000 0.000000 0.000000
vn 1.000000 0.000000 0.000000
vn 1.000000 0.000000 0.000000
f 205/205/205 206/206/206 207/207/207
f 205/205/205 207/207/207 208/208/208
v 8.625000 0.350000 -9.300000
v 10.175000 0.350000 -9.300000
v 10.175000 0.350000 -9.120000
v 8.625000 0.350000 -9.120000
vt -0.675000 0.350000
vt 0.875000 0.350000
vt 1.055000 0.350000
vt -0.495000 0.350000
vn 0.000000 -1.000000 0.000000
vn 0.000000 -1.000000 0.000000
vn 0.000000 -1.000000 0.000000
vn 0.000000 -1.000000 0.000000
f 209/209/209 210/210/210 211/211/211
f 209/209/209 211/211/211 212/212/212
v 8.625000 2.950000 -9.300000
v 8.625000 2.950000 -9.120000
v 10.175000 2.950000 -9.120000
v 10.175000 2.950000 -9.300000
vt -0.675000 2.950000
vt -0.495000 2.950000
vt 1.055000 2.950000
vt 0.875000 2.950000
vn 0.000000 1.000000 0.000000
vn 0.000000 1.000000 0.000000
vn 0.000000 1.000000 0.000000
vn 0.000000 1.000000 0.000000
f 213/213/213 214/214/214 215/215/215
f 213/213/213 215/215/215 216/216/216
