# Original MODUS Black Start coastal presentation. Authored static geometry; no third-party source.
o coastal_dock_brass
v -7.450000 1.610000 3.190526
v -7.450000 1.690526 3.110000
v -7.450000 1.720000 3.000000
v -7.450000 1.690526 2.890000
v -7.450000 1.610000 2.809474
v -7.450000 1.500000 2.780000
v -7.450000 1.390000 2.809474
v -7.450000 1.309474 2.890000
v -7.450000 1.280000 3.000000
v -7.450000 1.309474 3.110000
v -7.450000 1.390000 3.190526
v -7.450000 1.500000 3.220000
vt -4.259474 1.610000
vt -4.340000 1.690526
vt -4.450000 1.720000
vt -4.560000 1.690526
vt -4.640526 1.610000
vt -4.670000 1.500000
vt -4.640526 1.390000
vt -4.560000 1.309474
vt -4.450000 1.280000
vt -4.340000 1.309474
vt -4.259474 1.390000
vt -4.230000 1.500000
vn -1.000000 0.000000 0.000000
vn -1.000000 0.000000 0.000000
vn -1.000000 0.000000 0.000000
vn -1.000000 0.000000 0.000000
vn -1.000000 0.000000 0.000000
vn -1.000000 0.000000 0.000000
vn -1.000000 0.000000 0.000000
vn -1.000000 0.000000 0.000000
vn -1.000000 0.000000 0.000000
vn -1.000000 0.000000 0.000000
vn -1.000000 0.000000 0.000000
vn -1.000000 0.000000 0.000000
f 1/1/1 2/2/2 3/3/3
f 1/1/1 3/3/3 4/4/4
f 1/1/1 4/4/4 5/5/5
f 1/1/1 5/5/5 6/6/6
f 1/1/1 6/6/6 7/7/7
f 1/1/1 7/7/7 8/8/8
f 1/1/1 8/8/8 9/9/9
f 1/1/1 9/9/9 10/10/10
f 1/1/1 10/10/10 11/11/11
f 1/1/1 11/11/11 12/12/12
v -6.550000 1.500000 3.220000
v -6.550000 1.390000 3.190526
v -6.550000 1.309474 3.110000
v -6.550000 1.280000 3.000000
v -6.550000 1.309474 2.890000
v -6.550000 1.390000 2.809474
v -6.550000 1.500000 2.780000
v -6.550000 1.610000 2.809474
v -6.550000 1.690526 2.890000
v -6.550000 1.720000 3.000000
v -6.550000 1.690526 3.110000
v -6.550000 1.610000 3.190526
vt -3.330000 1.500000
vt -3.359474 1.390000
vt -3.440000 1.309474
vt -3.550000 1.280000
vt -3.660000 1.309474
vt -3.740526 1.390000
vt -3.770000 1.500000
vt -3.740526 1.610000
vt -3.660000 1.690526
vt -3.550000 1.720000
vt -3.440000 1.690526
vt -3.359474 1.610000
vn 1.000000 0.000000 0.000000
vn 1.000000 0.000000 0.000000
vn 1.000000 0.000000 0.000000
vn 1.000000 0.000000 0.000000
vn 1.000000 0.000000 0.000000
vn 1.000000 0.000000 0.000000
vn 1.000000 0.000000 0.000000
vn 1.000000 0.000000 0.000000
vn 1.000000 0.000000 0.000000
vn 1.000000 0.000000 0.000000
vn 1.000000 0.000000 0.000000
vn 1.000000 0.000000 0.000000
f 13/13/13 14/14/14 15/15/15
f 13/13/13 15/15/15 16/16/16
f 13/13/13 16/16/16 17/17/17
f 13/13/13 17/17/17 18/18/18
f 13/13/13 18/18/18 19/19/19
f 13/13/13 19/19/19 20/20/20
f 13/13/13 20/20/20 21/21/21
f 13/13/13 21/21/21 22/22/22
f 13/13/13 22/22/22 23/23/23
f 13/13/13 23/23/23 24/24/24
v -7.450000 1.500000 3.220000
v -7.450000 1.390000 3.190526
v -6.550000 1.390000 3.190526
v -6.550000 1.500000 3.220000
vt -4.230000 1.500000
vt -4.259474 1.390000
vt -3.359474 1.390000
vt -3.330000 1.500000
vn 0.000000 -0.258819 0.965926
vn 0.000000 -0.258819 0.965926
vn 0.000000 -0.258819 0.965926
vn 0.000000 -0.258819 0.965926
f 25/25/25 26/26/26 27/27/27
f 25/25/25 27/27/27 28/28/28
v -7.450000 1.390000 3.190526
v -7.450000 1.309474 3.110000
v -6.550000 1.309474 3.110000
v -6.550000 1.390000 3.190526
vt -4.259474 1.390000
vt -4.340000 1.309474
vt -3.440000 1.309474
vt -3.359474 1.390000
vn 0.000000 -0.707107 0.707107
vn 0.000000 -0.707107 0.707107
vn 0.000000 -0.707107 0.707107
vn 0.000000 -0.707107 0.707107
f 29/29/29 30/30/30 31/31/31
f 29/29/29 31/31/31 32/32/32
v -7.450000 1.309474 3.110000
v -7.450000 1.280000 3.000000
v -6.550000 1.280000 3.000000
v -6.550000 1.309474 3.110000
vt -4.340000 1.309474
vt -4.450000 1.280000
vt -3.550000 1.280000
vt -3.440000 1.309474
vn 0.000000 -0.965926 0.258819
vn 0.000000 -0.965926 0.258819
vn 0.000000 -0.965926 0.258819
vn 0.000000 -0.965926 0.258819
f 33/33/33 34/34/34 35/35/35
f 33/33/33 35/35/35 36/36/36
v -7.450000 1.280000 3.000000
v -7.450000 1.309474 2.890000
v -6.550000 1.309474 2.890000
v -6.550000 1.280000 3.000000
vt -4.450000 1.280000
vt -4.560000 1.309474
vt -3.660000 1.309474
vt -3.550000 1.280000
vn 0.000000 -0.965926 -0.258819
vn 0.000000 -0.965926 -0.258819
vn 0.000000 -0.965926 -0.258819
vn 0.000000 -0.965926 -0.258819
f 37/37/37 38/38/38 39/39/39
f 37/37/37 39/39/39 40/40/40
v -7.450000 1.309474 2.890000
v -7.450000 1.390000 2.809474
v -6.550000 1.390000 2.809474
v -6.550000 1.309474 2.890000
vt -4.560000 1.309474
vt -4.640526 1.390000
vt -3.740526 1.390000
vt -3.660000 1.309474
vn 0.000000 -0.707107 -0.707107
vn 0.000000 -0.707107 -0.707107
vn 0.000000 -0.707107 -0.707107
vn 0.000000 -0.707107 -0.707107
f 41/41/41 42/42/42 43/43/43
f 41/41/41 43/43/43 44/44/44
v -7.450000 1.390000 2.809474
v -7.450000 1.500000 2.780000
v -6.550000 1.500000 2.780000
v -6.550000 1.390000 2.809474
vt -4.640526 1.390000
vt -4.670000 1.500000
vt -3.770000 1.500000
vt -3.740526 1.390000
vn 0.000000 -0.258819 -0.965926
vn 0.000000 -0.258819 -0.965926
vn 0.000000 -0.258819 -0.965926
vn 0.000000 -0.258819 -0.965926
f 45/45/45 46/46/46 47/47/47
f 45/45/45 47/47/47 48/48/48
v -7.450000 1.500000 2.780000
v -7.450000 1.610000 2.809474
v -6.550000 1.610000 2.809474
v -6.550000 1.500000 2.780000
vt -4.670000 1.500000
vt -4.640526 1.610000
vt -3.740526 1.610000
vt -3.770000 1.500000
vn 0.000000 0.258819 -0.965926
vn 0.000000 0.258819 -0.965926
vn 0.000000 0.258819 -0.965926
vn 0.000000 0.258819 -0.965926
f 49/49/49 50/50/50 51/51/51
f 49/49/49 51/51/51 52/52/52
v -7.450000 1.610000 2.809474
v -7.450000 1.690526 2.890000
v -6.550000 1.690526 2.890000
v -6.550000 1.610000 2.809474
vt -4.640526 1.610000
vt -4.560000 1.690526
vt -3.660000 1.690526
vt -3.740526 1.610000
vn 0.000000 0.707107 -0.707107
vn 0.000000 0.707107 -0.707107
vn 0.000000 0.707107 -0.707107
vn 0.000000 0.707107 -0.707107
f 53/53/53 54/54/54 55/55/55
f 53/53/53 55/55/55 56/56/56
v -7.450000 1.690526 2.890000
v -7.450000 1.720000 3.000000
v -6.550000 1.720000 3.000000
v -6.550000 1.690526 2.890000
vt -4.560000 1.690526
vt -4.450000 1.720000
vt -3.550000 1.720000
vt -3.660000 1.690526
vn 0.000000 0.965926 -0.258819
vn 0.000000 0.965926 -0.258819
vn 0.000000 0.965926 -0.258819
vn 0.000000 0.965926 -0.258819
f 57/57/57 58/58/58 59/59/59
f 57/57/57 59/59/59 60/60/60
v -7.450000 1.720000 3.000000
v -7.450000 1.690526 3.110000
v -6.550000 1.690526 3.110000
v -6.550000 1.720000 3.000000
vt -4.450000 1.720000
vt -4.340000 1.690526
vt -3.440000 1.690526
vt -3.550000 1.720000
vn 0.000000 0.965926 0.258819
vn 0.000000 0.965926 0.258819
vn 0.000000 0.965926 0.258819
vn 0.000000 0.965926 0.258819
f 61/61/61 62/62/62 63/63/63
f 61/61/61 63/63/63 64/64/64
v -7.450000 1.690526 3.110000
v -7.450000 1.610000 3.190526
v -6.550000 1.610000 3.190526
v -6.550000 1.690526 3.110000
vt -4.340000 1.690526
vt -4.259474 1.610000
vt -3.359474 1.610000
vt -3.440000 1.690526
vn 0.000000 0.707107 0.707107
vn 0.000000 0.707107 0.707107
vn 0.000000 0.707107 0.707107
vn 0.000000 0.707107 0.707107
f 65/65/65 66/66/66 67/67/67
f 65/65/65 67/67/67 68/68/68
v -7.450000 1.610000 3.190526
v -7.450000 1.500000 3.220000
v -6.550000 1.500000 3.220000
v -6.550000 1.610000 3.190526
vt -4.259474 1.610000
vt -4.230000 1.500000
vt -3.330000 1.500000
vt -3.359474 1.610000
vn 0.000000 0.258819 0.965926
vn 0.000000 0.258819 0.965926
vn 0.000000 0.258819 0.965926
vn 0.000000 0.258819 0.965926
f 69/69/69 70/70/70 71/71/71
f 69/69/69 71/71/71 72/72/72
v 6.550000 1.610000 3.190526
v 6.550000 1.690526 3.110000
v 6.550000 1.720000 3.000000
v 6.550000 1.690526 2.890000
v 6.550000 1.610000 2.809474
v 6.550000 1.500000 2.780000
v 6.550000 1.390000 2.809474
v 6.550000 1.309474 2.890000
v 6.550000 1.280000 3.000000
v 6.550000 1.309474 3.110000
v 6.550000 1.390000 3.190526
v 6.550000 1.500000 3.220000
vt 9.740526 1.610000
vt 9.660000 1.690526
vt 9.550000 1.720000
vt 9.440000 1.690526
vt 9.359474 1.610000
vt 9.330000 1.500000
vt 9.359474 1.390000
vt 9.440000 1.309474
vt 9.550000 1.280000
vt 9.660000 1.309474
vt 9.740526 1.390000
vt 9.770000 1.500000
vn -1.000000 0.000000 0.000000
vn -1.000000 0.000000 0.000000
vn -1.000000 0.000000 0.000000
vn -1.000000 0.000000 0.000000
vn -1.000000 0.000000 0.000000
vn -1.000000 0.000000 0.000000
vn -1.000000 0.000000 0.000000
vn -1.000000 0.000000 0.000000
vn -1.000000 0.000000 0.000000
vn -1.000000 0.000000 0.000000
vn -1.000000 0.000000 0.000000
vn -1.000000 0.000000 0.000000
f 73/73/73 74/74/74 75/75/75
f 73/73/73 75/75/75 76/76/76
f 73/73/73 76/76/76 77/77/77
f 73/73/73 77/77/77 78/78/78
f 73/73/73 78/78/78 79/79/79
f 73/73/73 79/79/79 80/80/80
f 73/73/73 80/80/80 81/81/81
f 73/73/73 81/81/81 82/82/82
f 73/73/73 82/82/82 83/83/83
f 73/73/73 83/83/83 84/84/84
v 7.450000 1.500000 3.220000
v 7.450000 1.390000 3.190526
v 7.450000 1.309474 3.110000
v 7.450000 1.280000 3.000000
v 7.450000 1.309474 2.890000
v 7.450000 1.390000 2.809474
v 7.450000 1.500000 2.780000
v 7.450000 1.610000 2.809474
v 7.450000 1.690526 2.890000
v 7.450000 1.720000 3.000000
v 7.450000 1.690526 3.110000
v 7.450000 1.610000 3.190526
vt 10.670000 1.500000
vt 10.640526 1.390000
vt 10.560000 1.309474
vt 10.450000 1.280000
vt 10.340000 1.309474
vt 10.259474 1.390000
vt 10.230000 1.500000
vt 10.259474 1.610000
vt 10.340000 1.690526
vt 10.450000 1.720000
vt 10.560000 1.690526
vt 10.640526 1.610000
vn 1.000000 0.000000 0.000000
vn 1.000000 0.000000 0.000000
vn 1.000000 0.000000 0.000000
vn 1.000000 0.000000 0.000000
vn 1.000000 0.000000 0.000000
vn 1.000000 0.000000 0.000000
vn 1.000000 0.000000 0.000000
vn 1.000000 0.000000 0.000000
vn 1.000000 0.000000 0.000000
vn 1.000000 0.000000 0.000000
vn 1.000000 0.000000 0.000000
vn 1.000000 0.000000 0.000000
f 85/85/85 86/86/86 87/87/87
f 85/85/85 87/87/87 88/88/88
f 85/85/85 88/88/88 89/89/89
f 85/85/85 89/89/89 90/90/90
f 85/85/85 90/90/90 91/91/91
f 85/85/85 91/91/91 92/92/92
f 85/85/85 92/92/92 93/93/93
f 85/85/85 93/93/93 94/94/94
f 85/85/85 94/94/94 95/95/95
f 85/85/85 95/95/95 96/96/96
v 6.550000 1.500000 3.220000
v 6.550000 1.390000 3.190526
v 7.450000 1.390000 3.190526
v 7.450000 1.500000 3.220000
vt 9.770000 1.500000
vt 9.740526 1.390000
vt 10.640526 1.390000
vt 10.670000 1.500000
vn 0.000000 -0.258819 0.965926
vn 0.000000 -0.258819 0.965926
vn 0.000000 -0.258819 0.965926
vn 0.000000 -0.258819 0.965926
f 97/97/97 98/98/98 99/99/99
f 97/97/97 99/99/99 100/100/100
v 6.550000 1.390000 3.190526
v 6.550000 1.309474 3.110000
v 7.450000 1.309474 3.110000
v 7.450000 1.390000 3.190526
vt 9.740526 1.390000
vt 9.660000 1.309474
vt 10.560000 1.309474
vt 10.640526 1.390000
vn 0.000000 -0.707107 0.707107
vn 0.000000 -0.707107 0.707107
vn 0.000000 -0.707107 0.707107
vn 0.000000 -0.707107 0.707107
f 101/101/101 102/102/102 103/103/103
f 101/101/101 103/103/103 104/104/104
v 6.550000 1.309474 3.110000
v 6.550000 1.280000 3.000000
v 7.450000 1.280000 3.000000
v 7.450000 1.309474 3.110000
vt 9.660000 1.309474
vt 9.550000 1.280000
vt 10.450000 1.280000
vt 10.560000 1.309474
vn 0.000000 -0.965926 0.258819
vn 0.000000 -0.965926 0.258819
vn 0.000000 -0.965926 0.258819
vn 0.000000 -0.965926 0.258819
f 105/105/105 106/106/106 107/107/107
f 105/105/105 107/107/107 108/108/108
v 6.550000 1.280000 3.000000
v 6.550000 1.309474 2.890000
v 7.450000 1.309474 2.890000
v 7.450000 1.280000 3.000000
vt 9.550000 1.280000
vt 9.440000 1.309474
vt 10.340000 1.309474
vt 10.450000 1.280000
vn 0.000000 -0.965926 -0.258819
vn 0.000000 -0.965926 -0.258819
vn 0.000000 -0.965926 -0.258819
vn 0.000000 -0.965926 -0.258819
f 109/109/109 110/110/110 111/111/111
f 109/109/109 111/111/111 112/112/112
v 6.550000 1.309474 2.890000
v 6.550000 1.390000 2.809474
v 7.450000 1.390000 2.809474
v 7.450000 1.309474 2.890000
vt 9.440000 1.309474
vt 9.359474 1.390000
vt 10.259474 1.390000
vt 10.340000 1.309474
vn 0.000000 -0.707107 -0.707107
vn 0.000000 -0.707107 -0.707107
vn 0.000000 -0.707107 -0.707107
vn 0.000000 -0.707107 -0.707107
f 113/113/113 114/114/114 115/115/115
f 113/113/113 115/115/115 116/116/116
v 6.550000 1.390000 2.809474
v 6.550000 1.500000 2.780000
v 7.450000 1.500000 2.780000
v 7.450000 1.390000 2.809474
vt 9.359474 1.390000
vt 9.330000 1.500000
vt 10.230000 1.500000
vt 10.259474 1.390000
vn 0.000000 -0.258819 -0.965926
vn 0.000000 -0.258819 -0.965926
vn 0.000000 -0.258819 -0.965926
vn 0.000000 -0.258819 -0.965926
f 117/117/117 118/118/118 119/119/119
f 117/117/117 119/119/119 120/120/120
v 6.550000 1.500000 2.780000
v 6.550000 1.610000 2.809474
v 7.450000 1.610000 2.809474
v 7.450000 1.500000 2.780000
vt 9.330000 1.500000
vt 9.359474 1.610000
vt 10.259474 1.610000
vt 10.230000 1.500000
vn 0.000000 0.258819 -0.965926
vn 0.000000 0.258819 -0.965926
vn 0.000000 0.258819 -0.965926
vn 0.000000 0.258819 -0.965926
f 121/121/121 122/122/122 123/123/123
f 121/121/121 123/123/123 124/124/124
v 6.550000 1.610000 2.809474
v 6.550000 1.690526 2.890000
v 7.450000 1.690526 2.890000
v 7.450000 1.610000 2.809474
vt 9.359474 1.610000
vt 9.440000 1.690526
vt 10.340000 1.690526
vt 10.259474 1.610000
vn 0.000000 0.707107 -0.707107
vn 0.000000 0.707107 -0.707107
vn 0.000000 0.707107 -0.707107
vn 0.000000 0.707107 -0.707107
f 125/125/125 126/126/126 127/127/127
f 125/125/125 127/127/127 128/128/128
v 6.550000 1.690526 2.890000
v 6.550000 1.720000 3.000000
v 7.450000 1.720000 3.000000
v 7.450000 1.690526 2.890000
vt 9.440000 1.690526
vt 9.550000 1.720000
vt 10.450000 1.720000
vt 10.340000 1.690526
vn 0.000000 0.965926 -0.258819
vn 0.000000 0.965926 -0.258819
vn 0.000000 0.965926 -0.258819
vn 0.000000 0.965926 -0.258819
f 129/129/129 130/130/130 131/131/131
f 129/129/129 131/131/131 132/132/132
v 6.550000 1.720000 3.000000
v 6.550000 1.690526 3.110000
v 7.450000 1.690526 3.110000
v 7.450000 1.720000 3.000000
vt 9.550000 1.720000
vt 9.660000 1.690526
vt 10.560000 1.690526
vt 10.450000 1.720000
vn 0.000000 0.965926 0.258819
vn 0.000000 0.965926 0.258819
vn 0.000000 0.965926 0.258819
vn 0.000000 0.965926 0.258819
f 133/133/133 134/134/134 135/135/135
f 133/133/133 135/135/135 136/136/136
v 6.550000 1.690526 3.110000
v 6.550000 1.610000 3.190526
v 7.450000 1.610000 3.190526
v 7.450000 1.690526 3.110000
vt 9.660000 1.690526
vt 9.740526 1.610000
vt 10.640526 1.610000
vt 10.560000 1.690526
vn 0.000000 0.707107 0.707107
vn 0.000000 0.707107 0.707107
vn 0.000000 0.707107 0.707107
vn 0.000000 0.707107 0.707107
f 137/137/137 138/138/138 139/139/139
f 137/137/137 139/139/139 140/140/140
v 6.550000 1.610000 3.190526
v 6.550000 1.500000 3.220000
v 7.450000 1.500000 3.220000
v 7.450000 1.610000 3.190526
vt 9.740526 1.610000
vt 9.770000 1.500000
vt 10.670000 1.500000
vt 10.640526 1.610000
vn 0.000000 0.258819 0.965926
vn 0.000000 0.258819 0.965926
vn 0.000000 0.258819 0.965926
vn 0.000000 0.258819 0.965926
f 141/141/141 142/142/142 143/143/143
f 141/141/141 143/143/143 144/144/144
v -1.735000 0.003000 -7.200000
v -1.735000 0.021000 -7.200000
v -1.665000 0.021000 -7.200000
v -1.665000 0.003000 -7.200000
vt -8.935000 0.003000
vt -8.935000 0.021000
vt -8.865000 0.021000
vt -8.865000 0.003000
vn 0.000000 0.000000 -1.000000
vn 0.000000 0.000000 -1.000000
vn 0.000000 0.000000 -1.000000
vn 0.000000 0.000000 -1.000000
f 145/145/145 146/146/146 147/147/147
f 145/145/145 147/147/147 148/148/148
v -1.735000 0.003000 6.800000
v -1.665000 0.003000 6.800000
v -1.665000 0.021000 6.800000
v -1.735000 0.021000 6.800000
vt 5.065000 0.003000
vt 5.135000 0.003000
vt 5.135000 0.021000
vt 5.065000 0.021000
vn 0.000000 0.000000 1.000000
vn 0.000000 0.000000 1.000000
vn 0.000000 0.000000 1.000000
vn 0.000000 0.000000 1.000000
f 149/149/149 150/150/150 151/151/151
f 149/149/149 151/151/151 152/152/152
v -1.735000 0.003000 -7.200000
v -1.735000 0.003000 6.800000
v -1.735000 0.021000 6.800000
v -1.735000 0.021000 -7.200000
vt -8.935000 0.003000
vt 5.065000 0.003000
vt 5.065000 0.021000
vt -8.935000 0.021000
vn -1.000000 0.000000 0.000000
vn -1.000000 0.000000 0.000000
vn -1.000000 0.000000 0.000000
vn -1.000000 0.000000 0.000000
f 153/153/153 154/154/154 155/155/155
f 153/153/153 155/155/155 156/156/156
v -1.665000 0.003000 -7.200000
v -1.665000 0.021000 -7.200000
v -1.665000 0.021000 6.800000
v -1.665000 0.003000 6.800000
vt -8.865000 0.003000
vt -8.865000 0.021000
vt 5.135000 0.021000
vt 5.135000 0.003000
vn 1.000000 0.000000 0.000000
vn 1.000000 0.000000 0.000000
vn 1.000000 0.000000 0.000000
vn 1.000000 0.000000 0.000000
f 157/157/157 158/158/158 159/159/159
f 157/157/157 159/159/159 160/160/160
v -1.735000 0.003000 -7.200000
v -1.665000 0.003000 -7.200000
v -1.665000 0.003000 6.800000
v -1.735000 0.003000 6.800000
vt -8.935000 0.003000
vt -8.865000 0.003000
vt 5.135000 0.003000
vt 5.065000 0.003000
vn 0.000000 -1.000000 0.000000
vn 0.000000 -1.000000 0.000000
vn 0.000000 -1.000000 0.000000
vn 0.000000 -1.000000 0.000000
f 161/161/161 162/162/162 163/163/163
f 161/161/161 163/163/163 164/164/164
v -1.735000 0.021000 -7.200000
v -1.735000 0.021000 6.800000
v -1.665000 0.021000 6.800000
v -1.665000 0.021000 -7.200000
vt -8.935000 0.021000
vt 5.065000 0.021000
vt 5.135000 0.021000
vt -8.865000 0.021000
vn 0.000000 1.000000 0.000000
vn 0.000000 1.000000 0.000000
vn 0.000000 1.000000 0.000000
vn 0.000000 1.000000 0.000000
f 165/165/165 166/166/166 167/167/167
f 165/165/165 167/167/167 168/168/168
v 1.665000 0.003000 -7.200000
v 1.665000 0.021000 -7.200000
v 1.735000 0.021000 -7.200000
v 1.735000 0.003000 -7.200000
vt -5.535000 0.003000
vt -5.535000 0.021000
vt -5.465000 0.021000
vt -5.465000 0.003000
vn 0.000000 0.000000 -1.000000
vn 0.000000 0.000000 -1.000000
vn 0.000000 0.000000 -1.000000
vn 0.000000 0.000000 -1.000000
f 169/169/169 170/170/170 171/171/171
f 169/169/169 171/171/171 172/172/172
v 1.665000 0.003000 6.800000
v 1.735000 0.003000 6.800000
v 1.735000 0.021000 6.800000
v 1.665000 0.021000 6.800000
vt 8.465000 0.003000
vt 8.535000 0.003000
vt 8.535000 0.021000
vt 8.465000 0.021000
vn 0.000000 0.000000 1.000000
vn 0.000000 0.000000 1.000000
vn 0.000000 0.000000 1.000000
vn 0.000000 0.000000 1.000000
f 173/173/173 174/174/174 175/175/175
f 173/173/173 175/175/175 176/176/176
v 1.665000 0.003000 -7.200000
v 1.665000 0.003000 6.800000
v 1.665000 0.021000 6.800000
v 1.665000 0.021000 -7.200000
vt -5.535000 0.003000
vt 8.465000 0.003000
vt 8.465000 0.021000
vt -5.535000 0.021000
vn -1.000000 0.000000 0.000000
vn -1.000000 0.000000 0.000000
vn -1.000000 0.000000 0.000000
vn -1.000000 0.000000 0.000000
f 177/177/177 178/178/178 179/179/179
f 177/177/177 179/179/179 180/180/180
v 1.735000 0.003000 -7.200000
v 1.735000 0.021000 -7.200000
v 1.735000 0.021000 6.800000
v 1.735000 0.003000 6.800000
vt -5.465000 0.003000
vt -5.465000 0.021000
vt 8.535000 0.021000
vt 8.535000 0.003000
vn 1.000000 0.000000 0.000000
vn 1.000000 0.000000 0.000000
vn 1.000000 0.000000 0.000000
vn 1.000000 0.000000 0.000000
f 181/181/181 182/182/182 183/183/183
f 181/181/181 183/183/183 184/184/184
v 1.665000 0.003000 -7.200000
v 1.735000 0.003000 -7.200000
v 1.735000 0.003000 6.800000
v 1.665000 0.003000 6.800000
vt -5.535000 0.003000
vt -5.465000 0.003000
vt 8.535000 0.003000
vt 8.465000 0.003000
vn 0.000000 -1.000000 0.000000
vn 0.000000 -1.000000 0.000000
vn 0.000000 -1.000000 0.000000
vn 0.000000 -1.000000 0.000000
f 185/185/185 186/186/186 187/187/187
f 185/185/185 187/187/187 188/188/188
v 1.665000 0.021000 -7.200000
v 1.665000 0.021000 6.800000
v 1.735000 0.021000 6.800000
v 1.735000 0.021000 -7.200000
vt -5.535000 0.021000
vt 8.465000 0.021000
vt 8.535000 0.021000
vt -5.465000 0.021000
vn 0.000000 1.000000 0.000000
vn 0.000000 1.000000 0.000000
vn 0.000000 1.000000 0.000000
vn 0.000000 1.000000 0.000000
f 189/189/189 190/190/190 191/191/191
f 189/189/189 191/191/191 192/192/192
