# Original MODUS Black Start coastal presentation. Authored static geometry; no third-party source.
o coastal_cavern_coast_water
v -4.000000 0.020000 -0.750000
v -4.000000 0.050000 -0.750000
v 9.000000 0.050000 -0.750000
v 9.000000 0.020000 -0.750000
vt -4.750000 0.020000
vt -4.750000 0.050000
vt 8.250000 0.050000
vt 8.250000 0.020000
vn 0.000000 0.000000 -1.000000
vn 0.000000 0.000000 -1.000000
vn 0.000000 0.000000 -1.000000
vn 0.000000 0.000000 -1.000000
f 1/1/1 2/2/2 3/3/3
f 1/1/1 3/3/3 4/4/4
v -4.000000 0.020000 18.750000
v 9.000000 0.020000 18.750000
v 9.000000 0.050000 18.750000
v -4.000000 0.050000 18.750000
vt 14.750000 0.020000
vt 27.750000 0.020000
vt 27.750000 0.050000
vt 14.750000 0.050000
vn 0.000000 0.000000 1.000000
vn 0.000000 0.000000 1.000000
vn 0.000000 0.000000 1.000000
vn 0.000000 0.000000 1.000000
f 5/5/5 6/6/6 7/7/7
f 5/5/5 7/7/7 8/8/8
v -4.000000 0.020000 -0.750000
v -4.000000 0.020000 18.750000
v -4.000000 0.050000 18.750000
v -4.000000 0.050000 -0.750000
vt -4.750000 0.020000
vt 14.750000 0.020000
vt 14.750000 0.050000
vt -4.750000 0.050000
vn -1.000000 0.000000 0.000000
vn -1.000000 0.000000 0.000000
vn -1.000000 0.000000 0.000000
vn -1.000000 0.000000 0.000000
f 9/9/9 10/10/10 11/11/11
f 9/9/9 11/11/11 12/12/12
v 9.000000 0.020000 -0.750000
v 9.000000 0.050000 -0.750000
v 9.000000 0.050000 18.750000
v 9.000000 0.020000 18.750000
vt 8.250000 0.020000
vt 8.250000 0.050000
vt 27.750000 0.050000
vt 27.750000 0.020000
vn 1.000000 0.000000 0.000000
vn 1.000000 0.000000 0.000000
vn 1.000000 0.000000 0.000000
vn 1.000000 0.000000 0.000000
f 13/13/13 14/14/14 15/15/15
f 13/13/13 15/15/15 16/16/16
v -4.000000 0.020000 -0.750000
v 9.000000 0.020000 -0.750000
v 9.000000 0.020000 18.750000
v -4.000000 0.020000 18.750000
vt -4.750000 0.020000
vt 8.250000 0.020000
vt 27.750000 0.020000
vt 14.750000 0.020000
vn 0.000000 -1.000000 0.000000
vn 0.000000 -1.000000 0.000000
vn 0.000000 -1.000000 0.000000
vn 0.000000 -1.000000 0.000000
f 17/17/17 18/18/18 19/19/19
f 17/17/17 19/19/19 20/20/20
v -4.000000 0.050000 -0.750000
v -4.000000 0.050000 18.750000
v 9.000000 0.050000 18.750000
v 9.000000 0.050000 -0.750000
vt -4.750000 0.050000
vt 14.750000 0.050000
vt 27.750000 0.050000
vt 8.250000 0.050000
vn 0.000000 1.000000 0.000000
vn 0.000000 1.000000 0.000000
vn 0.000000 1.000000 0.000000
vn 0.000000 1.000000 0.000000
f 21/21/21 22/22/22 23/23/23
f 21/21/21 23/23/23 24/24/24
v -4.000000 0.020000 -18.500000
v -4.000000 0.050000 -18.500000
v 9.000000 0.050000 -18.500000
v 9.000000 0.020000 -18.500000
vt -22.500000 0.020000
vt -22.500000 0.050000
vt -9.500000 0.050000
vt -9.500000 0.020000
vn 0.000000 0.000000 -1.000000
vn 0.000000 0.000000 -1.000000
vn 0.000000 0.000000 -1.000000
vn 0.000000 0.000000 -1.000000
f 25/25/25 26/26/26 27/27/27
f 25/25/25 27/27/27 28/28/28
v -4.000000 0.020000 -9.500000
v 9.000000 0.020000 -9.500000
v 9.000000 0.050000 -9.500000
v -4.000000 0.050000 -9.500000
vt -13.500000 0.020000
vt -0.500000 0.020000
vt -0.500000 0.050000
vt -13.500000 0.050000
vn 0.000000 0.000000 1.000000
vn 0.000000 0.000000 1.000000
vn 0.000000 0.000000 1.000000
vn 0.000000 0.000000 1.000000
f 29/29/29 30/30/30 31/31/31
f 29/29/29 31/31/31 32/32/32
v -4.000000 0.020000 -18.500000
v -4.000000 0.020000 -9.500000
v -4.000000 0.050000 -9.500000
v -4.000000 0.050000 -18.500000
vt -22.500000 0.020000
vt -13.500000 0.020000
vt -13.500000 0.050000
vt -22.500000 0.050000
vn -1.000000 0.000000 0.000000
vn -1.000000 0.000000 0.000000
vn -1.000000 0.000000 0.000000
vn -1.000000 0.000000 0.000000
f 33/33/33 34/34/34 35/35/35
f 33/33/33 35/35/35 36/36/36
v 9.000000 0.020000 -18.500000
v 9.000000 0.050000 -18.500000
v 9.000000 0.050000 -9.500000
v 9.000000 0.020000 -9.500000
vt -9.500000 0.020000
vt -9.500000 0.050000
vt -0.500000 0.050000
vt -0.500000 0.020000
vn 1.000000 0.000000 0.000000
vn 1.000000 0.000000 0.000000
vn 1.000000 0.000000 0.000000
vn 1.000000 0.000000 0.000000
f 37/37/37 38/38/38 39/39/39
f 37/37/37 39/39/39 40/40/40
v -4.000000 0.020000 -18.500000
v 9.000000 0.020000 -18.500000
v 9.000000 0.020000 -9.500000
v -4.000000 0.020000 -9.500000
vt -22.500000 0.020000
vt -9.500000 0.020000
vt -0.500000 0.020000
vt -13.500000 0.020000
vn 0.000000 -1.000000 0.000000
vn 0.000000 -1.000000 0.000000
vn 0.000000 -1.000000 0.000000
vn 0.000000 -1.000000 0.000000
f 41/41/41 42/42/42 43/43/43
f 41/41/41 43/43/43 44/44/44
v -4.000000 0.050000 -18.500000
v -4.000000 0.050000 -9.500000
v 9.000000 0.050000 -9.500000
v 9.000000 0.050000 -18.500000
vt -22.500000 0.050000
vt -13.500000 0.050000
vt -0.500000 0.050000
vt -9.500000 0.050000
vn 0.000000 1.000000 0.000000
vn 0.000000 1.000000 0.000000
vn 0.000000 1.000000 0.000000
vn 0.000000 1.000000 0.000000
f 45/45/45 46/46/46 47/47/47
f 45/45/45 47/47/47 48/48/48
