# Original MODUS Black Start coastal presentation. Authored static geometry; no third-party source.
o coastal_return_brass
v -2.608855 0.000000 -2.056631
v -2.583426 0.000000 -2.021631
v -2.583426 0.000000 -1.978369
v -2.608855 0.000000 -1.943369
v -2.650000 0.000000 -1.930000
v -2.691145 0.000000 -1.943369
v -2.716574 0.000000 -1.978369
v -2.716574 0.000000 -2.021631
v -2.691145 0.000000 -2.056631
v -2.650000 0.000000 -2.070000
vt -4.665486 0.000000
vt -4.605057 0.000000
vt -4.561795 0.000000
vt -4.552224 0.000000
vt -4.580000 0.000000
vt -4.634514 0.000000
vt -4.694943 0.000000
vt -4.738205 0.000000
vt -4.747776 0.000000
vt -4.720000 0.000000
vn 0.000000 -1.000000 0.000000
vn 0.000000 -1.000000 0.000000
vn 0.000000 -1.000000 0.000000
vn 0.000000 -1.000000 0.000000
vn 0.000000 -1.000000 0.000000
vn 0.000000 -1.000000 0.000000
vn 0.000000 -1.000000 0.000000
vn 0.000000 -1.000000 0.000000
vn 0.000000 -1.000000 0.000000
vn 0.000000 -1.000000 0.000000
f 1/1/1 2/2/2 3/3/3
f 1/1/1 3/3/3 4/4/4
f 1/1/1 4/4/4 5/5/5
f 1/1/1 5/5/5 6/6/6
f 1/1/1 6/6/6 7/7/7
f 1/1/1 7/7/7 8/8/8
f 1/1/1 8/8/8 9/9/9
f 1/1/1 9/9/9 10/10/10
v -2.650000 8.400000 -2.070000
v -2.691145 8.400000 -2.056631
v -2.716574 8.400000 -2.021631
v -2.716574 8.400000 -1.978369
v -2.691145 8.400000 -1.943369
v -2.650000 8.400000 -1.930000
v -2.608855 8.400000 -1.943369
v -2.583426 8.400000 -1.978369
v -2.583426 8.400000 -2.021631
v -2.608855 8.400000 -2.056631
vt -4.720000 8.400000
vt -4.747776 8.400000
vt -4.738205 8.400000
vt -4.694943 8.400000
vt -4.634514 8.400000
vt -4.580000 8.400000
vt -4.552224 8.400000
vt -4.561795 8.400000
vt -4.605057 8.400000
vt -4.665486 8.400000
vn 0.000000 1.000000 0.000000
vn 0.000000 1.000000 0.000000
vn 0.000000 1.000000 0.000000
vn 0.000000 1.000000 0.000000
vn 0.000000 1.000000 0.000000
vn 0.000000 1.000000 0.000000
vn 0.000000 1.000000 0.000000
vn 0.000000 1.000000 0.000000
vn 0.000000 1.000000 0.000000
vn 0.000000 1.000000 0.000000
f 11/11/11 12/12/12 13/13/13
f 11/11/11 13/13/13 14/14/14
f 11/11/11 14/14/14 15/15/15
f 11/11/11 15/15/15 16/16/16
f 11/11/11 16/16/16 17/17/17
f 11/11/11 17/17/17 18/18/18
f 11/11/11 18/18/18 19/19/19
f 11/11/11 19/19/19 20/20/20
v -2.650000 0.000000 -2.070000
v -2.691145 0.000000 -2.056631
v -2.691145 8.400000 -2.056631
v -2.650000 8.400000 -2.070000
vt -4.720000 0.000000
vt -4.747776 0.000000
vt -4.747776 8.400000
vt -4.720000 8.400000
vn -0.309017 0.000000 -0.951057
vn -0.309017 0.000000 -0.951057
vn -0.309017 0.000000 -0.951057
vn -0.309017 0.000000 -0.951057
f 21/21/21 22/22/22 23/23/23
f 21/21/21 23/23/23 24/24/24
v -2.691145 0.000000 -2.056631
v -2.716574 0.000000 -2.021631
v -2.716574 8.400000 -2.021631
v -2.691145 8.400000 -2.056631
vt -4.747776 0.000000
vt -4.738205 0.000000
vt -4.738205 8.400000
vt -4.747776 8.400000
vn -0.809017 0.000000 -0.587785
vn -0.809017 0.000000 -0.587785
vn -0.809017 0.000000 -0.587785
vn -0.809017 0.000000 -0.587785
f 25/25/25 26/26/26 27/27/27
f 25/25/25 27/27/27 28/28/28
v -2.716574 0.000000 -2.021631
v -2.716574 0.000000 -1.978369
v -2.716574 8.400000 -1.978369
v -2.716574 8.400000 -2.021631
vt -4.738205 0.000000
vt -4.694943 0.000000
vt -4.694943 8.400000
vt -4.738205 8.400000
vn -1.000000 0.000000 0.000000
vn -1.000000 0.000000 0.000000
vn -1.000000 0.000000 0.000000
vn -1.000000 0.000000 0.000000
f 29/29/29 30/30/30 31/31/31
f 29/29/29 31/31/31 32/32/32
v -2.716574 0.000000 -1.978369
v -2.691145 0.000000 -1.943369
v -2.691145 8.400000 -1.943369
v -2.716574 8.400000 -1.978369
vt -4.694943 0.000000
vt -4.634514 0.000000
vt -4.634514 8.400000
vt -4.694943 8.400000
vn -0.809017 0.000000 0.587785
vn -0.809017 0.000000 0.587785
vn -0.809017 0.000000 0.587785
vn -0.809017 0.000000 0.587785
f 33/33/33 34/34/34 35/35/35
f 33/33/33 35/35/35 36/36/36
v -2.691145 0.000000 -1.943369
v -2.650000 0.000000 -1.930000
v -2.650000 8.400000 -1.930000
v -2.691145 8.400000 -1.943369
vt -4.634514 0.000000
vt -4.580000 0.000000
vt -4.580000 8.400000
vt -4.634514 8.400000
vn -0.309017 0.000000 0.951057
vn -0.309017 0.000000 0.951057
vn -0.309017 0.000000 0.951057
vn -0.309017 0.000000 0.951057
f 37/37/37 38/38/38 39/39/39
f 37/37/37 39/39/39 40/40/40
v -2.650000 0.000000 -1.930000
v -2.608855 0.000000 -1.943369
v -2.608855 8.400000 -1.943369
v -2.650000 8.400000 -1.930000
vt -4.580000 0.000000
vt -4.552224 0.000000
vt -4.552224 8.400000
vt -4.580000 8.400000
vn 0.309017 0.000000 0.951057
vn 0.309017 0.000000 0.951057
vn 0.309017 0.000000 0.951057
vn 0.309017 0.000000 0.951057
f 41/41/41 42/42/42 43/43/43
f 41/41/41 43/43/43 44/44/44
v -2.608855 0.000000 -1.943369
v -2.583426 0.000000 -1.978369
v -2.583426 8.400000 -1.978369
v -2.608855 8.400000 -1.943369
vt -4.552224 0.000000
vt -4.561795 0.000000
vt -4.561795 8.400000
vt -4.552224 8.400000
vn 0.809017 0.000000 0.587785
vn 0.809017 0.000000 0.587785
vn 0.809017 0.000000 0.587785
vn 0.809017 0.000000 0.587785
f 45/45/45 46/46/46 47/47/47
f 45/45/45 47/47/47 48/48/48
v -2.583426 0.000000 -1.978369
v -2.583426 0.000000 -2.021631
v -2.583426 8.400000 -2.021631
v -2.583426 8.400000 -1.978369
vt -4.561795 0.000000
vt -4.605057 0.000000
vt -4.605057 8.400000
vt -4.561795 8.400000
vn 1.000000 0.000000 0.000000
vn 1.000000 0.000000 0.000000
vn 1.000000 0.000000 0.000000
vn 1.000000 0.000000 0.000000
f 49/49/49 50/50/50 51/51/51
f 49/49/49 51/51/51 52/52/52
v -2.583426 0.000000 -2.021631
v -2.608855 0.000000 -2.056631
v -2.608855 8.400000 -2.056631
v -2.583426 8.400000 -2.021631
vt -4.605057 0.000000
vt -4.665486 0.000000
vt -4.665486 8.400000
vt -4.605057 8.400000
vn 0.809017 0.000000 -0.587785
vn 0.809017 0.000000 -0.587785
vn 0.809017 0.000000 -0.587785
vn 0.809017 0.000000 -0.587785
f 53/53/53 54/54/54 55/55/55
f 53/53/53 55/55/55 56/56/56
v -2.608855 0.000000 -2.056631
v -2.650000 0.000000 -2.070000
v -2.650000 8.400000 -2.070000
v -2.608855 8.400000 -2.056631
vt -4.665486 0.000000
vt -4.720000 0.000000
vt -4.720000 8.400000
vt -4.665486 8.400000
vn 0.309017 0.000000 -0.951057
vn 0.309017 0.000000 -0.951057
vn 0.309017 0.000000 -0.951057
vn 0.309017 0.000000 -0.951057
f 57/57/57 58/58/58 59/59/59
f 57/57/57 59/59/59 60/60/60
v -3.010313 7.899247 -2.300000
v -2.925772 8.025772 -2.300000
v -2.799247 8.110313 -2.300000
v -2.650000 8.140000 -2.300000
v -2.500753 8.110313 -2.300000
v -2.374228 8.025772 -2.300000
v -2.289687 7.899247 -2.300000
v -2.260000 7.750000 -2.300000
v -2.289687 7.600753 -2.300000
v -2.374228 7.474228 -2.300000
v -2.500753 7.389687 -2.300000
v -2.650000 7.360000 -2.300000
v -2.799247 7.389687 -2.300000
v -2.925772 7.474228 -2.300000
v -3.010313 7.600753 -2.300000
v -3.040000 7.750000 -2.300000
vt -5.310313 7.899247
vt -5.225772 8.025772
vt -5.099247 8.110313
vt -4.950000 8.140000
vt -4.800753 8.110313
vt -4.674228 8.025772
vt -4.589687 7.899247
vt -4.560000 7.750000
vt -4.589687 7.600753
vt -4.674228 7.474228
vt -4.800753 7.389687
vt -4.950000 7.360000
vt -5.099247 7.389687
vt -5.225772 7.474228
vt -5.310313 7.600753
vt -5.340000 7.750000
vn 0.000000 0.000000 -1.000000
vn 0.000000 0.000000 -1.000000
vn 0.000000 0.000000 -1.000000
vn 0.000000 0.000000 -1.000000
vn 0.000000 0.000000 -1.000000
vn 0.000000 0.000000 -1.000000
vn 0.000000 0.000000 -1.000000
vn 0.000000 0.000000 -1.000000
vn 0.000000 0.000000 -1.000000
vn 0.000000 0.000000 -1.000000
vn 0.000000 0.000000 -1.000000
vn 0.000000 0.000000 -1.000000
vn 0.000000 0.000000 -1.000000
vn 0.000000 0.000000 -1.000000
vn 0.000000 0.000000 -1.000000
vn 0.000000 0.000000 -1.000000
f 61/61/61 62/62/62 63/63/63
f 61/61/61 63/63/63 64/64/64
f 61/61/61 64/64/64 65/65/65
f 61/61/61 65/65/65 66/66/66
f 61/61/61 66/66/66 67/67/67
f 61/61/61 67/67/67 68/68/68
f 61/61/61 68/68/68 69/69/69
f 61/61/61 69/69/69 70/70/70
f 61/61/61 70/70/70 71/71/71
f 61/61/61 71/71/71 72/72/72
f 61/61/61 72/72/72 73/73/73
f 61/61/61 73/73/73 74/74/74
f 61/61/61 74/74/74 75/75/75
f 61/61/61 75/75/75 76/76/76
v -3.040000 7.750000 -2.200000
v -3.010313 7.600753 -2.200000
v -2.925772 7.474228 -2.200000
v -2.799247 7.389687 -2.200000
v -2.650000 7.360000 -2.200000
v -2.500753 7.389687 -2.200000
v -2.374228 7.474228 -2.200000
v -2.289687 7.600753 -2.200000
v -2.260000 7.750000 -2.200000
v -2.289687 7.899247 -2.200000
v -2.374228 8.025772 -2.200000
v -2.500753 8.110313 -2.200000
v -2.650000 8.140000 -2.200000
v -2.799247 8.110313 -2.200000
v -2.925772 8.025772 -2.200000
v -3.010313 7.899247 -2.200000
vt -5.240000 7.750000
vt -5.210313 7.600753
vt -5.125772 7.474228
vt -4.999247 7.389687
vt -4.850000 7.360000
vt -4.700753 7.389687
vt -4.574228 7.474228
vt -4.489687 7.600753
vt -4.460000 7.750000
vt -4.489687 7.899247
vt -4.574228 8.025772
vt -4.700753 8.110313
vt -4.850000 8.140000
vt -4.999247 8.110313
vt -5.125772 8.025772
vt -5.210313 7.899247
vn 0.000000 0.000000 1.000000
vn 0.000000 0.000000 1.000000
vn 0.000000 0.000000 1.000000
vn 0.000000 0.000000 1.000000
vn 0.000000 0.000000 1.000000
vn 0.000000 0.000000 1.000000
vn 0.000000 0.000000 1.000000
vn 0.000000 0.000000 1.000000
vn 0.000000 0.000000 1.000000
vn 0.000000 0.000000 1.000000
vn 0.000000 0.000000 1.000000
vn 0.000000 0.000000 1.000000
vn 0.000000 0.000000 1.000000
vn 0.000000 0.000000 1.000000
vn 0.000000 0.000000 1.000000
vn 0.000000 0.000000 1.000000
f 77/77/77 78/78/78 79/79/79
f 77/77/77 79/79/79 80/80/80
f 77/77/77 80/80/80 81/81/81
f 77/77/77 81/81/81 82/82/82
f 77/77/77 82/82/82 83/83/83
f 77/77/77 83/83/83 84/84/84
f 77/77/77 84/84/84 85/85/85
f 77/77/77 85/85/85 86/86/86
f 77/77/77 86/86/86 87/87/87
f 77/77/77 87/87/87 88/88/88
f 77/77/77 88/88/88 89/89/89
f 77/77/77 89/89/89 90/90/90
f 77/77/77 90/90/90 91/91/91
f 77/77/77 91/91/91 92/92/92
v -3.040000 7.750000 -2.300000
v -3.010313 7.600753 -2.300000
v -3.010313 7.600753 -2.200000
v -3.040000 7.750000 -2.200000
vt -5.340000 7.750000
vt -5.310313 7.600753
vt -5.210313 7.600753
vt -5.240000 7.750000
vn -0.980785 -0.195090 0.000000
vn -0.980785 -0.195090 0.000000
vn -0.980785 -0.195090 0.000000
vn -0.980785 -0.195090 0.000000
f 93/93/93 94/94/94 95/95/95
f 93/93/93 95/95/95 96/96/96
v -3.010313 7.600753 -2.300000
v -2.925772 7.474228 -2.300000
v -2.925772 7.474228 -2.200000
v -3.010313 7.600753 -2.200000
vt -5.310313 7.600753
vt -5.225772 7.474228
vt -5.125772 7.474228
vt -5.210313 7.600753
vn -0.831470 -0.555570 0.000000
vn -0.831470 -0.555570 0.000000
vn -0.831470 -0.555570 0.000000
vn -0.831470 -0.555570 0.000000
f 97/97/97 98/98/98 99/99/99
f 97/97/97 99/99/99 100/100/100
v -2.925772 7.474228 -2.300000
v -2.799247 7.389687 -2.300000
v -2.799247 7.389687 -2.200000
v -2.925772 7.474228 -2.200000
vt -5.225772 7.474228
vt -5.099247 7.389687
vt -4.999247 7.389687
vt -5.125772 7.474228
vn -0.555570 -0.831470 0.000000
vn -0.555570 -0.831470 0.000000
vn -0.555570 -0.831470 0.000000
vn -0.555570 -0.831470 0.000000
f 101/101/101 102/102/102 103/103/103
f 101/101/101 103/103/103 104/104/104
v -2.799247 7.389687 -2.300000
v -2.650000 7.360000 -2.300000
v -2.650000 7.360000 -2.200000
v -2.799247 7.389687 -2.200000
vt -5.099247 7.389687
vt -4.950000 7.360000
vt -4.850000 7.360000
vt -4.999247 7.389687
vn -0.195090 -0.980785 0.000000
vn -0.195090 -0.980785 0.000000
vn -0.195090 -0.980785 0.000000
vn -0.195090 -0.980785 0.000000
f 105/105/105 106/106/106 107/107/107
f 105/105/105 107/107/107 108/108/108
v -2.650000 7.360000 -2.300000
v -2.500753 7.389687 -2.300000
v -2.500753 7.389687 -2.200000
v -2.650000 7.360000 -2.200000
vt -4.950000 7.360000
vt -4.800753 7.389687
vt -4.700753 7.389687
vt -4.850000 7.360000
vn 0.195090 -0.980785 0.000000
vn 0.195090 -0.980785 0.000000
vn 0.195090 -0.980785 0.000000
vn 0.195090 -0.980785 0.000000
f 109/109/109 110/110/110 111/111/111
f 109/109/109 111/111/111 112/112/112
v -2.500753 7.389687 -2.300000
v -2.374228 7.474228 -2.300000
v -2.374228 7.474228 -2.200000
v -2.500753 7.389687 -2.200000
vt -4.800753 7.389687
vt -4.674228 7.474228
vt -4.574228 7.474228
vt -4.700753 7.389687
vn 0.555570 -0.831470 0.000000
vn 0.555570 -0.831470 0.000000
vn 0.555570 -0.831470 0.000000
vn 0.555570 -0.831470 0.000000
f 113/113/113 114/114/114 115/115/115
f 113/113/113 115/115/115 116/116/116
v -2.374228 7.474228 -2.300000
v -2.289687 7.600753 -2.300000
v -2.289687 7.600753 -2.200000
v -2.374228 7.474228 -2.200000
vt -4.674228 7.474228
vt -4.589687 7.600753
vt -4.489687 7.600753
vt -4.574228 7.474228
vn 0.831470 -0.555570 0.000000
vn 0.831470 -0.555570 0.000000
vn 0.831470 -0.555570 0.000000
vn 0.831470 -0.555570 0.000000
f 117/117/117 118/118/118 119/119/119
f 117/117/117 119/119/119 120/120/120
v -2.289687 7.600753 -2.300000
v -2.260000 7.750000 -2.300000
v -2.260000 7.750000 -2.200000
v -2.289687 7.600753 -2.200000
vt -4.589687 7.600753
vt -4.560000 7.750000
vt -4.460000 7.750000
vt -4.489687 7.600753
vn 0.980785 -0.195090 0.000000
vn 0.980785 -0.195090 0.000000
vn 0.980785 -0.195090 0.000000
vn 0.980785 -0.195090 0.000000
f 121/121/121 122/122/122 123/123/123
f 121/121/121 123/123/123 124/124/124
v -2.260000 7.750000 -2.300000
v -2.289687 7.899247 -2.300000
v -2.289687 7.899247 -2.200000
v -2.260000 7.750000 -2.200000
vt -4.560000 7.750000
vt -4.589687 7.899247
vt -4.489687 7.899247
vt -4.460000 7.750000
vn 0.980785 0.195090 0.000000
vn 0.980785 0.195090 0.000000
vn 0.980785 0.195090 0.000000
vn 0.980785 0.195090 0.000000
f 125/125/125 126/126/126 127/127/127
f 125/125/125 127/127/127 128/128/128
v -2.289687 7.899247 -2.300000
v -2.374228 8.025772 -2.300000
v -2.374228 8.025772 -2.200000
v -2.289687 7.899247 -2.200000
vt -4.589687 7.899247
vt -4.674228 8.025772
vt -4.574228 8.025772
vt -4.489687 7.899247
vn 0.831470 0.555570 0.000000
vn 0.831470 0.555570 0.000000
vn 0.831470 0.555570 0.000000
vn 0.831470 0.555570 0.000000
f 129/129/129 130/130/130 131/131/131
f 129/129/129 131/131/131 132/132/132
v -2.374228 8.025772 -2.300000
v -2.500753 8.110313 -2.300000
v -2.500753 8.110313 -2.200000
v -2.374228 8.025772 -2.200000
vt -4.674228 8.025772
vt -4.800753 8.110313
vt -4.700753 8.110313
vt -4.574228 8.025772
vn 0.555570 0.831470 0.000000
vn 0.555570 0.831470 0.000000
vn 0.555570 0.831470 0.000000
vn 0.555570 0.831470 0.000000
f 133/133/133 134/134/134 135/135/135
f 133/133/133 135/135/135 136/136/136
v -2.500753 8.110313 -2.300000
v -2.650000 8.140000 -2.300000
v -2.650000 8.140000 -2.200000
v -2.500753 8.110313 -2.200000
vt -4.800753 8.110313
vt -4.950000 8.140000
vt -4.850000 8.140000
vt -4.700753 8.110313
vn 0.195090 0.980785 0.000000
vn 0.195090 0.980785 0.000000
vn 0.195090 0.980785 0.000000
vn 0.195090 0.980785 0.000000
f 137/137/137 138/138/138 139/139/139
f 137/137/137 139/139/139 140/140/140
v -2.650000 8.140000 -2.300000
v -2.799247 8.110313 -2.300000
v -2.799247 8.110313 -2.200000
v -2.650000 8.140000 -2.200000
vt -4.950000 8.140000
vt -5.099247 8.110313
vt -4.999247 8.110313
vt -4.850000 8.140000
vn -0.195090 0.980785 0.000000
vn -0.195090 0.980785 0.000000
vn -0.195090 0.980785 0.000000
vn -0.195090 0.980785 0.000000
f 141/141/141 142/142/142 143/143/143
f 141/141/141 143/143/143 144/144/144
v -2.799247 8.110313 -2.300000
v -2.925772 8.025772 -2.300000
v -2.925772 8.025772 -2.200000
v -2.799247 8.110313 -2.200000
vt -5.099247 8.110313
vt -5.225772 8.025772
vt -5.125772 8.025772
vt -4.999247 8.110313
vn -0.555570 0.831470 0.000000
vn -0.555570 0.831470 0.000000
vn -0.555570 0.831470 0.000000
vn -0.555570 0.831470 0.000000
f 145/145/145 146/146/146 147/147/147
f 145/145/145 147/147/147 148/148/148
v -2.925772 8.025772 -2.300000
v -3.010313 7.899247 -2.300000
v -3.010313 7.899247 -2.200000
v -2.925772 8.025772 -2.200000
vt -5.225772 8.025772
vt -5.310313 7.899247
vt -5.210313 7.899247
vt -5.125772 8.025772
vn -0.831470 0.555570 0.000000
vn -0.831470 0.555570 0.000000
vn -0.831470 0.555570 0.000000
vn -0.831470 0.555570 0.000000
f 149/149/149 150/150/150 151/151/151
f 149/149/149 151/151/151 152/152/152
v -3.010313 7.899247 -2.300000
v -3.040000 7.750000 -2.300000
v -3.040000 7.750000 -2.200000
v -3.010313 7.899247 -2.200000
vt -5.310313 7.899247
vt -5.340000 7.750000
vt -5.240000 7.750000
vt -5.210313 7.899247
vn -0.980785 0.195090 0.000000
vn -0.980785 0.195090 0.000000
vn -0.980785 0.195090 0.000000
vn -0.980785 0.195090 0.000000
f 153/153/153 154/154/154 155/155/155
f 153/153/153 155/155/155 156/156/156
v 2.691145 0.000000 -2.056631
v 2.716574 0.000000 -2.021631
v 2.716574 0.000000 -1.978369
v 2.691145 0.000000 -1.943369
v 2.650000 0.000000 -1.930000
v 2.608855 0.000000 -1.943369
v 2.583426 0.000000 -1.978369
v 2.583426 0.000000 -2.021631
v 2.608855 0.000000 -2.056631
v 2.650000 0.000000 -2.070000
vt 0.634514 0.000000
vt 0.694943 0.000000
vt 0.738205 0.000000
vt 0.747776 0.000000
vt 0.720000 0.000000
vt 0.665486 0.000000
vt 0.605057 0.000000
vt 0.561795 0.000000
vt 0.552224 0.000000
vt 0.580000 0.000000
vn 0.000000 -1.000000 0.000000
vn 0.000000 -1.000000 0.000000
vn 0.000000 -1.000000 0.000000
vn 0.000000 -1.000000 0.000000
vn 0.000000 -1.000000 0.000000
vn 0.000000 -1.000000 0.000000
vn 0.000000 -1.000000 0.000000
vn 0.000000 -1.000000 0.000000
vn 0.000000 -1.000000 0.000000
vn 0.000000 -1.000000 0.000000
f 157/157/157 158/158/158 159/159/159
f 157/157/157 159/159/159 160/160/160
f 157/157/157 160/160/160 161/161/161
f 157/157/157 161/161/161 162/162/162
f 157/157/157 162/162/162 163/163/163
f 157/157/157 163/163/163 164/164/164
f 157/157/157 164/164/164 165/165/165
f 157/157/157 165/165/165 166/166/166
v 2.650000 8.400000 -2.070000
v 2.608855 8.400000 -2.056631
v 2.583426 8.400000 -2.021631
v 2.583426 8.400000 -1.978369
v 2.608855 8.400000 -1.943369
v 2.650000 8.400000 -1.930000
v 2.691145 8.400000 -1.943369
v 2.716574 8.400000 -1.978369
v 2.716574 8.400000 -2.021631
v 2.691145 8.400000 -2.056631
vt 0.580000 8.400000
vt 0.552224 8.400000
vt 0.561795 8.400000
vt 0.605057 8.400000
vt 0.665486 8.400000
vt 0.720000 8.400000
vt 0.747776 8.400000
vt 0.738205 8.400000
vt 0.694943 8.400000
vt 0.634514 8.400000
vn 0.000000 1.000000 0.000000
vn 0.000000 1.000000 0.000000
vn 0.000000 1.000000 0.000000
vn 0.000000 1.000000 0.000000
vn 0.000000 1.000000 0.000000
vn 0.000000 1.000000 0.000000
vn 0.000000 1.000000 0.000000
vn 0.000000 1.000000 0.000000
vn 0.000000 1.000000 0.000000
vn 0.000000 1.000000 0.000000
f 167/167/167 168/168/168 169/169/169
f 167/167/167 169/169/169 170/170/170
f 167/167/167 170/170/170 171/171/171
f 167/167/167 171/171/171 172/172/172
f 167/167/167 172/172/172 173/173/173
f 167/167/167 173/173/173 174/174/174
f 167/167/167 174/174/174 175/175/175
f 167/167/167 175/175/175 176/176/176
v 2.650000 0.000000 -2.070000
v 2.608855 0.000000 -2.056631
v 2.608855 8.400000 -2.056631
v 2.650000 8.400000 -2.070000
vt 0.580000 0.000000
vt 0.552224 0.000000
vt 0.552224 8.400000
vt 0.580000 8.400000
vn -0.309017 0.000000 -0.951057
vn -0.309017 0.000000 -0.951057
vn -0.309017 0.000000 -0.951057
vn -0.309017 0.000000 -0.951057
f 177/177/177 178/178/178 179/179/179
f 177/177/177 179/179/179 180/180/180
v 2.608855 0.000000 -2.056631
v 2.583426 0.000000 -2.021631
v 2.583426 8.400000 -2.021631
v 2.608855 8.400000 -2.056631
vt 0.552224 0.000000
vt 0.561795 0.000000
vt 0.561795 8.400000
vt 0.552224 8.400000
vn -0.809017 0.000000 -0.587785
vn -0.809017 0.000000 -0.587785
vn -0.809017 0.000000 -0.587785
vn -0.809017 0.000000 -0.587785
f 181/181/181 182/182/182 183/183/183
f 181/181/181 183/183/183 184/184/184
v 2.583426 0.000000 -2.021631
v 2.583426 0.000000 -1.978369
v 2.583426 8.400000 -1.978369
v 2.583426 8.400000 -2.021631
vt 0.561795 0.000000
vt 0.605057 0.000000
vt 0.605057 8.400000
vt 0.561795 8.400000
vn -1.000000 0.000000 0.000000
vn -1.000000 0.000000 0.000000
vn -1.000000 0.000000 0.000000
vn -1.000000 0.000000 0.000000
f 185/185/185 186/186/186 187/187/187
f 185/185/185 187/187/187 188/188/188
v 2.583426 0.000000 -1.978369
v 2.608855 0.000000 -1.943369
v 2.608855 8.400000 -1.943369
v 2.583426 8.400000 -1.978369
vt 0.605057 0.000000
vt 0.665486 0.000000
vt 0.665486 8.400000
vt 0.605057 8.400000
vn -0.809017 0.000000 0.587785
vn -0.809017 0.000000 0.587785
vn -0.809017 0.000000 0.587785
vn -0.809017 0.000000 0.587785
f 189/189/189 190/190/190 191/191/191
f 189/189/189 191/191/191 192/192/192
v 2.608855 0.000000 -1.943369
v 2.650000 0.000000 -1.930000
v 2.650000 8.400000 -1.930000
v 2.608855 8.400000 -1.943369
vt 0.665486 0.000000
vt 0.720000 0.000000
vt 0.720000 8.400000
vt 0.665486 8.400000
vn -0.309017 0.000000 0.951057
vn -0.309017 0.000000 0.951057
vn -0.309017 0.000000 0.951057
vn -0.309017 0.000000 0.951057
f 193/193/193 194/194/194 195/195/195
f 193/193/193 195/195/195 196/196/196
v 2.650000 0.000000 -1.930000
v 2.691145 0.000000 -1.943369
v 2.691145 8.400000 -1.943369
v 2.650000 8.400000 -1.930000
vt 0.720000 0.000000
vt 0.747776 0.000000
vt 0.747776 8.400000
vt 0.720000 8.400000
vn 0.309017 0.000000 0.951057
vn 0.309017 0.000000 0.951057
vn 0.309017 0.000000 0.951057
vn 0.309017 0.000000 0.951057
f 197/197/197 198/198/198 199/199/199
f 197/197/197 199/199/199 200/200/200
v 2.691145 0.000000 -1.943369
v 2.716574 0.000000 -1.978369
v 2.716574 8.400000 -1.978369
v 2.691145 8.400000 -1.943369
vt 0.747776 0.000000
vt 0.738205 0.000000
vt 0.738205 8.400000
vt 0.747776 8.400000
vn 0.809017 0.000000 0.587785
vn 0.809017 0.000000 0.587785
vn 0.809017 0.000000 0.587785
vn 0.809017 0.000000 0.587785
f 201/201/201 202/202/202 203/203/203
f 201/201/201 203/203/203 204/204/204
v 2.716574 0.000000 -1.978369
v 2.716574 0.000000 -2.021631
v 2.716574 8.400000 -2.021631
v 2.716574 8.400000 -1.978369
vt 0.738205 0.000000
vt 0.694943 0.000000
vt 0.694943 8.400000
vt 0.738205 8.400000
vn 1.000000 0.000000 0.000000
vn 1.000000 0.000000 0.000000
vn 1.000000 0.000000 0.000000
vn 1.000000 0.000000 0.000000
f 205/205/205 206/206/206 207/207/207
f 205/205/205 207/207/207 208/208/208
v 2.716574 0.000000 -2.021631
v 2.691145 0.000000 -2.056631
v 2.691145 8.400000 -2.056631
v 2.716574 8.400000 -2.021631
vt 0.694943 0.000000
vt 0.634514 0.000000
vt 0.634514 8.400000
vt 0.694943 8.400000
vn 0.809017 0.000000 -0.587785
vn 0.809017 0.000000 -0.587785
vn 0.809017 0.000000 -0.587785
vn 0.809017 0.000000 -0.587785
f 209/209/209 210/210/210 211/211/211
f 209/209/209 211/211/211 212/212/212
v 2.691145 0.000000 -2.056631
v 2.650000 0.000000 -2.070000
v 2.650000 8.400000 -2.070000
v 2.691145 8.400000 -2.056631
vt 0.634514 0.000000
vt 0.580000 0.000000
vt 0.580000 8.400000
vt 0.634514 8.400000
vn 0.309017 0.000000 -0.951057
vn 0.309017 0.000000 -0.951057
vn 0.309017 0.000000 -0.951057
vn 0.309017 0.000000 -0.951057
f 213/213/213 214/214/214 215/215/215
f 213/213/213 215/215/215 216/216/216
v 2.289687 7.899247 -2.300000
v 2.374228 8.025772 -2.300000
v 2.500753 8.110313 -2.300000
v 2.650000 8.140000 -2.300000
v 2.799247 8.110313 -2.300000
v 2.925772 8.025772 -2.300000
v 3.010313 7.899247 -2.300000
v 3.040000 7.750000 -2.300000
v 3.010313 7.600753 -2.300000
v 2.925772 7.474228 -2.300000
v 2.799247 7.389687 -2.300000
v 2.650000 7.360000 -2.300000
v 2.500753 7.389687 -2.300000
v 2.374228 7.474228 -2.300000
v 2.289687 7.600753 -2.300000
v 2.260000 7.750000 -2.300000
vt -0.010313 7.899247
vt 0.074228 8.025772
vt 0.200753 8.110313
vt 0.350000 8.140000
vt 0.499247 8.110313
vt 0.625772 8.025772
vt 0.710313 7.899247
vt 0.740000 7.750000
vt 0.710313 7.600753
vt 0.625772 7.474228
vt 0.499247 7.389687
vt 0.350000 7.360000
vt 0.200753 7.389687
vt 0.074228 7.474228
vt -0.010313 7.600753
vt -0.040000 7.750000
vn 0.000000 0.000000 -1.000000
vn 0.000000 0.000000 -1.000000
vn 0.000000 0.000000 -1.000000
vn 0.000000 0.000000 -1.000000
vn 0.000000 0.000000 -1.000000
vn 0.000000 0.000000 -1.000000
vn 0.000000 0.000000 -1.000000
vn 0.000000 0.000000 -1.000000
vn 0.000000 0.000000 -1.000000
vn 0.000000 0.000000 -1.000000
vn 0.000000 0.000000 -1.000000
vn 0.000000 0.000000 -1.000000
vn 0.000000 0.000000 -1.000000
vn 0.000000 0.000000 -1.000000
vn 0.000000 0.000000 -1.000000
vn 0.000000 0.000000 -1.000000
f 217/217/217 218/218/218 219/219/219
f 217/217/217 219/219/219 220/220/220
f 217/217/217 220/220/220 221/221/221
f 217/217/217 221/221/221 222/222/222
f 217/217/217 222/222/222 223/223/223
f 217/217/217 223/223/223 224/224/224
f 217/217/217 224/224/224 225/225/225
f 217/217/217 225/225/225 226/226/226
f 217/217/217 226/226/226 227/227/227
f 217/217/217 227/227/227 228/228/228
f 217/217/217 228/228/228 229/229/229
f 217/217/217 229/229/229 230/230/230
f 217/217/217 230/230/230 231/231/231
f 217/217/217 231/231/231 232/232/232
v 2.260000 7.750000 -2.200000
v 2.289687 7.600753 -2.200000
v 2.374228 7.474228 -2.200000
v 2.500753 7.389687 -2.200000
v 2.650000 7.360000 -2.200000
v 2.799247 7.389687 -2.200000
v 2.925772 7.474228 -2.200000
v 3.010313 7.600753 -2.200000
v 3.040000 7.750000 -2.200000
v 3.010313 7.899247 -2.200000
v 2.925772 8.025772 -2.200000
v 2.799247 8.110313 -2.200000
v 2.650000 8.140000 -2.200000
v 2.500753 8.110313 -2.200000
v 2.374228 8.025772 -2.200000
v 2.289687 7.899247 -2.200000
vt 0.060000 7.750000
vt 0.089687 7.600753
vt 0.174228 7.474228
vt 0.300753 7.389687
vt 0.450000 7.360000
vt 0.599247 7.389687
vt 0.725772 7.474228
vt 0.810313 7.600753
vt 0.840000 7.750000
vt 0.810313 7.899247
vt 0.725772 8.025772
vt 0.599247 8.110313
vt 0.450000 8.140000
vt 0.300753 8.110313
vt 0.174228 8.025772
vt 0.089687 7.899247
vn 0.000000 0.000000 1.000000
vn 0.000000 0.000000 1.000000
vn 0.000000 0.000000 1.000000
vn 0.000000 0.000000 1.000000
vn 0.000000 0.000000 1.000000
vn 0.000000 0.000000 1.000000
vn 0.000000 0.000000 1.000000
vn 0.000000 0.000000 1.000000
vn 0.000000 0.000000 1.000000
vn 0.000000 0.000000 1.000000
vn 0.000000 0.000000 1.000000
vn 0.000000 0.000000 1.000000
vn 0.000000 0.000000 1.000000
vn 0.000000 0.000000 1.000000
vn 0.000000 0.000000 1.000000
vn 0.000000 0.000000 1.000000
f 233/233/233 234/234/234 235/235/235
f 233/233/233 235/235/235 236/236/236
f 233/233/233 236/236/236 237/237/237
f 233/233/233 237/237/237 238/238/238
f 233/233/233 238/238/238 239/239/239
f 233/233/233 239/239/239 240/240/240
f 233/233/233 240/240/240 241/241/241
f 233/233/233 241/241/241 242/242/242
f 233/233/233 242/242/242 243/243/243
f 233/233/233 243/243/243 244/244/244
f 233/233/233 244/244/244 245/245/245
f 233/233/233 245/245/245 246/246/246
f 233/233/233 246/246/246 247/247/247
f 233/233/233 247/247/247 248/248/248
v 2.260000 7.750000 -2.300000
v 2.289687 7.600753 -2.300000
v 2.289687 7.600753 -2.200000
v 2.260000 7.750000 -2.200000
vt -0.040000 7.750000
vt -0.010313 7.600753
vt 0.089687 7.600753
vt 0.060000 7.750000
vn -0.980785 -0.195090 0.000000
vn -0.980785 -0.195090 0.000000
vn -0.980785 -0.195090 0.000000
vn -0.980785 -0.195090 0.000000
f 249/249/249 250/250/250 251/251/251
f 249/249/249 251/251/251 252/252/252
v 2.289687 7.600753 -2.300000
v 2.374228 7.474228 -2.300000
v 2.374228 7.474228 -2.200000
v 2.289687 7.600753 -2.200000
vt -0.010313 7.600753
vt 0.074228 7.474228
vt 0.174228 7.474228
vt 0.089687 7.600753
vn -0.831470 -0.555570 0.000000
vn -0.831470 -0.555570 0.000000
vn -0.831470 -0.555570 0.000000
vn -0.831470 -0.555570 0.000000
f 253/253/253 254/254/254 255/255/255
f 253/253/253 255/255/255 256/256/256
v 2.374228 7.474228 -2.300000
v 2.500753 7.389687 -2.300000
v 2.500753 7.389687 -2.200000
v 2.374228 7.474228 -2.200000
vt 0.074228 7.474228
vt 0.200753 7.389687
vt 0.300753 7.389687
vt 0.174228 7.474228
vn -0.555570 -0.831470 0.000000
vn -0.555570 -0.831470 0.000000
vn -0.555570 -0.831470 0.000000
vn -0.555570 -0.831470 0.000000
f 257/257/257 258/258/258 259/259/259
f 257/257/257 259/259/259 260/260/260
v 2.500753 7.389687 -2.300000
v 2.650000 7.360000 -2.300000
v 2.650000 7.360000 -2.200000
v 2.500753 7.389687 -2.200000
vt 0.200753 7.389687
vt 0.350000 7.360000
vt 0.450000 7.360000
vt 0.300753 7.389687
vn -0.195090 -0.980785 0.000000
vn -0.195090 -0.980785 0.000000
vn -0.195090 -0.980785 0.000000
vn -0.195090 -0.980785 0.000000
f 261/261/261 262/262/262 263/263/263
f 261/261/261 263/263/263 264/264/264
v 2.650000 7.360000 -2.300000
v 2.799247 7.389687 -2.300000
v 2.799247 7.389687 -2.200000
v 2.650000 7.360000 -2.200000
vt 0.350000 7.360000
vt 0.499247 7.389687
vt 0.599247 7.389687
vt 0.450000 7.360000
vn 0.195090 -0.980785 0.000000
vn 0.195090 -0.980785 0.000000
vn 0.195090 -0.980785 0.000000
vn 0.195090 -0.980785 0.000000
f 265/265/265 266/266/266 267/267/267
f 265/265/265 267/267/267 268/268/268
v 2.799247 7.389687 -2.300000
v 2.925772 7.474228 -2.300000
v 2.925772 7.474228 -2.200000
v 2.799247 7.389687 -2.200000
vt 0.499247 7.389687
vt 0.625772 7.474228
vt 0.725772 7.474228
vt 0.599247 7.389687
vn 0.555570 -0.831470 0.000000
vn 0.555570 -0.831470 0.000000
vn 0.555570 -0.831470 0.000000
vn 0.555570 -0.831470 0.000000
f 269/269/269 270/270/270 271/271/271
f 269/269/269 271/271/271 272/272/272
v 2.925772 7.474228 -2.300000
v 3.010313 7.600753 -2.300000
v 3.010313 7.600753 -2.200000
v 2.925772 7.474228 -2.200000
vt 0.625772 7.474228
vt 0.710313 7.600753
vt 0.810313 7.600753
vt 0.725772 7.474228
vn 0.831470 -0.555570 0.000000
vn 0.831470 -0.555570 0.000000
vn 0.831470 -0.555570 0.000000
vn 0.831470 -0.555570 0.000000
f 273/273/273 274/274/274 275/275/275
f 273/273/273 275/275/275 276/276/276
v 3.010313 7.600753 -2.300000
v 3.040000 7.750000 -2.300000
v 3.040000 7.750000 -2.200000
v 3.010313 7.600753 -2.200000
vt 0.710313 7.600753
vt 0.740000 7.750000
vt 0.840000 7.750000
vt 0.810313 7.600753
vn 0.980785 -0.195090 0.000000
vn 0.980785 -0.195090 0.000000
vn 0.980785 -0.195090 0.000000
vn 0.980785 -0.195090 0.000000
f 277/277/277 278/278/278 279/279/279
f 277/277/277 279/279/279 280/280/280
v 3.040000 7.750000 -2.300000
v 3.010313 7.899247 -2.300000
v 3.010313 7.899247 -2.200000
v 3.040000 7.750000 -2.200000
vt 0.740000 7.750000
vt 0.710313 7.899247
vt 0.810313 7.899247
vt 0.840000 7.750000
vn 0.980785 0.195090 0.000000
vn 0.980785 0.195090 0.000000
vn 0.980785 0.195090 0.000000
vn 0.980785 0.195090 0.000000
f 281/281/281 282/282/282 283/283/283
f 281/281/281 283/283/283 284/284/284
v 3.010313 7.899247 -2.300000
v 2.925772 8.025772 -2.300000
v 2.925772 8.025772 -2.200000
v 3.010313 7.899247 -2.200000
vt 0.710313 7.899247
vt 0.625772 8.025772
vt 0.725772 8.025772
vt 0.810313 7.899247
vn 0.831470 0.555570 0.000000
vn 0.831470 0.555570 0.000000
vn 0.831470 0.555570 0.000000
vn 0.831470 0.555570 0.000000
f 285/285/285 286/286/286 287/287/287
f 285/285/285 287/287/287 288/288/288
v 2.925772 8.025772 -2.300000
v 2.799247 8.110313 -2.300000
v 2.799247 8.110313 -2.200000
v 2.925772 8.025772 -2.200000
vt 0.625772 8.025772
vt 0.499247 8.110313
vt 0.599247 8.110313
vt 0.725772 8.025772
vn 0.555570 0.831470 0.000000
vn 0.555570 0.831470 0.000000
vn 0.555570 0.831470 0.000000
vn 0.555570 0.831470 0.000000
f 289/289/289 290/290/290 291/291/291
f 289/289/289 291/291/291 292/292/292
v 2.799247 8.110313 -2.300000
v 2.650000 8.140000 -2.300000
v 2.650000 8.140000 -2.200000
v 2.799247 8.110313 -2.200000
vt 0.499247 8.110313
vt 0.350000 8.140000
vt 0.450000 8.140000
vt 0.599247 8.110313
vn 0.195090 0.980785 0.000000
vn 0.195090 0.980785 0.000000
vn 0.195090 0.980785 0.000000
vn 0.195090 0.980785 0.000000
f 293/293/293 294/294/294 295/295/295
f 293/293/293 295/295/295 296/296/296
v 2.650000 8.140000 -2.300000
v 2.500753 8.110313 -2.300000
v 2.500753 8.110313 -2.200000
v 2.650000 8.140000 -2.200000
vt 0.350000 8.140000
vt 0.200753 8.110313
vt 0.300753 8.110313
vt 0.450000 8.140000
vn -0.195090 0.980785 0.000000
vn -0.195090 0.980785 0.000000
vn -0.195090 0.980785 0.000000
vn -0.195090 0.980785 0.000000
f 297/297/297 298/298/298 299/299/299
f 297/297/297 299/299/299 300/300/300
v 2.500753 8.110313 -2.300000
v 2.374228 8.025772 -2.300000
v 2.374228 8.025772 -2.200000
v 2.500753 8.110313 -2.200000
vt 0.200753 8.110313
vt 0.074228 8.025772
vt 0.174228 8.025772
vt 0.300753 8.110313
vn -0.555570 0.831470 0.000000
vn -0.555570 0.831470 0.000000
vn -0.555570 0.831470 0.000000
vn -0.555570 0.831470 0.000000
f 301/301/301 302/302/302 303/303/303
f 301/301/301 303/303/303 304/304/304
v 2.374228 8.025772 -2.300000
v 2.289687 7.899247 -2.300000
v 2.289687 7.899247 -2.200000
v 2.374228 8.025772 -2.200000
vt 0.074228 8.025772
vt -0.010313 7.899247
vt 0.089687 7.899247
vt 0.174228 8.025772
vn -0.831470 0.555570 0.000000
vn -0.831470 0.555570 0.000000
vn -0.831470 0.555570 0.000000
vn -0.831470 0.555570 0.000000
f 305/305/305 306/306/306 307/307/307
f 305/305/305 307/307/307 308/308/308
v 2.289687 7.899247 -2.300000
v 2.260000 7.750000 -2.300000
v 2.260000 7.750000 -2.200000
v 2.289687 7.899247 -2.200000
vt -0.010313 7.899247
vt -0.040000 7.750000
vt 0.060000 7.750000
vt 0.089687 7.899247
vn -0.980785 0.195090 0.000000
vn -0.980785 0.195090 0.000000
vn -0.980785 0.195090 0.000000
vn -0.980785 0.195090 0.000000
f 309/309/309 310/310/310 311/311/311
f 309/309/309 311/311/311 312/312/312
v -2.231820 4.181820 0.000000
v -2.200000 4.195000 0.000000
v -2.168180 4.181820 0.000000
v -2.155000 4.150000 0.000000
v -2.168180 4.118180 0.000000
v -2.200000 4.105000 0.000000
v -2.231820 4.118180 0.000000
v -2.245000 4.150000 0.000000
vt -2.231820 4.181820
vt -2.200000 4.195000
vt -2.168180 4.181820
vt -2.155000 4.150000
vt -2.168180 4.118180
vt -2.200000 4.105000
vt -2.231820 4.118180
vt -2.245000 4.150000
vn 0.000000 0.000000 -1.000000
vn 0.000000 0.000000 -1.000000
vn 0.000000 0.000000 -1.000000
vn 0.000000 0.000000 -1.000000
vn 0.000000 0.000000 -1.000000
vn 0.000000 0.000000 -1.000000
vn 0.000000 0.000000 -1.000000
vn 0.000000 0.000000 -1.000000
f 313/313/313 314/314/314 315/315/315
f 313/313/313 315/315/315 316/316/316
f 313/313/313 316/316/316 317/317/317
f 313/313/313 317/317/317 318/318/318
f 313/313/313 318/318/318 319/319/319
f 313/313/313 319/319/319 320/320/320
v -2.245000 4.150000 5.900000
v -2.231820 4.118180 5.900000
v -2.200000 4.105000 5.900000
v -2.168180 4.118180 5.900000
v -2.155000 4.150000 5.900000
v -2.168180 4.181820 5.900000
v -2.200000 4.195000 5.900000
v -2.231820 4.181820 5.900000
vt 3.655000 4.150000
vt 3.668180 4.118180
vt 3.700000 4.105000
vt 3.731820 4.118180
vt 3.745000 4.150000
vt 3.731820 4.181820
vt 3.700000 4.195000
vt 3.668180 4.181820
vn 0.000000 0.000000 1.000000
vn 0.000000 0.000000 1.000000
vn 0.000000 0.000000 1.000000
vn 0.000000 0.000000 1.000000
vn 0.000000 0.000000 1.000000
vn 0.000000 0.000000 1.000000
vn 0.000000 0.000000 1.000000
vn 0.000000 0.000000 1.000000
f 321/321/321 322/322/322 323/323/323
f 321/321/321 323/323/323 324/324/324
f 321/321/321 324/324/324 325/325/325
f 321/321/321 325/325/325 326/326/326
f 321/321/321 326/326/326 327/327/327
f 321/321/321 327/327/327 328/328/328
v -2.245000 4.150000 0.000000
v -2.231820 4.118180 0.000000
v -2.231820 4.118180 5.900000
v -2.245000 4.150000 5.900000
vt -2.245000 4.150000
vt -2.231820 4.118180
vt 3.668180 4.118180
vt 3.655000 4.150000
vn -0.923880 -0.382683 0.000000
vn -0.923880 -0.382683 0.000000
vn -0.923880 -0.382683 0.000000
vn -0.923880 -0.382683 0.000000
f 329/329/329 330/330/330 331/331/331
f 329/329/329 331/331/331 332/332/332
v -2.231820 4.118180 0.000000
v -2.200000 4.105000 0.000000
v -2.200000 4.105000 5.900000
v -2.231820 4.118180 5.900000
vt -2.231820 4.118180
vt -2.200000 4.105000
vt 3.700000 4.105000
vt 3.668180 4.118180
vn -0.382683 -0.923880 0.000000
vn -0.382683 -0.923880 0.000000
vn -0.382683 -0.923880 0.000000
vn -0.382683 -0.923880 0.000000
f 333/333/333 334/334/334 335/335/335
f 333/333/333 335/335/335 336/336/336
v -2.200000 4.105000 0.000000
v -2.168180 4.118180 0.000000
v -2.168180 4.118180 5.900000
v -2.200000 4.105000 5.900000
vt -2.200000 4.105000
vt -2.168180 4.118180
vt 3.731820 4.118180
vt 3.700000 4.105000
vn 0.382683 -0.923880 0.000000
vn 0.382683 -0.923880 0.000000
vn 0.382683 -0.923880 0.000000
vn 0.382683 -0.923880 0.000000
f 337/337/337 338/338/338 339/339/339
f 337/337/337 339/339/339 340/340/340
v -2.168180 4.118180 0.000000
v -2.155000 4.150000 0.000000
v -2.155000 4.150000 5.900000
v -2.168180 4.118180 5.900000
vt -2.168180 4.118180
vt -2.155000 4.150000
vt 3.745000 4.150000
vt 3.731820 4.118180
vn 0.923880 -0.382683 0.000000
vn 0.923880 -0.382683 0.000000
vn 0.923880 -0.382683 0.000000
vn 0.923880 -0.382683 0.000000
f 341/341/341 342/342/342 343/343/343
f 341/341/341 343/343/343 344/344/344
v -2.155000 4.150000 0.000000
v -2.168180 4.181820 0.000000
v -2.168180 4.181820 5.900000
v -2.155000 4.150000 5.900000
vt -2.155000 4.150000
vt -2.168180 4.181820
vt 3.731820 4.181820
vt 3.745000 4.150000
vn 0.923880 0.382683 0.000000
vn 0.923880 0.382683 0.000000
vn 0.923880 0.382683 0.000000
vn 0.923880 0.382683 0.000000
f 345/345/345 346/346/346 347/347/347
f 345/345/345 347/347/347 348/348/348
v -2.168180 4.181820 0.000000
v -2.200000 4.195000 0.000000
v -2.200000 4.195000 5.900000
v -2.168180 4.181820 5.900000
vt -2.168180 4.181820
vt -2.200000 4.195000
vt 3.700000 4.195000
vt 3.731820 4.181820
vn 0.382683 0.923880 0.000000
vn 0.382683 0.923880 0.000000
vn 0.382683 0.923880 0.000000
vn 0.382683 0.923880 0.000000
f 349/349/349 350/350/350 351/351/351
f 349/349/349 351/351/351 352/352/352
v -2.200000 4.195000 0.000000
v -2.231820 4.181820 0.000000
v -2.231820 4.181820 5.900000
v -2.200000 4.195000 5.900000
vt -2.200000 4.195000
vt -2.231820 4.181820
vt 3.668180 4.181820
vt 3.700000 4.195000
vn -0.382683 0.923880 0.000000
vn -0.382683 0.923880 0.000000
vn -0.382683 0.923880 0.000000
vn -0.382683 0.923880 0.000000
f 353/353/353 354/354/354 355/355/355
f 353/353/353 355/355/355 356/356/356
v -2.231820 4.181820 0.000000
v -2.245000 4.150000 0.000000
v -2.245000 4.150000 5.900000
v -2.231820 4.181820 5.900000
vt -2.231820 4.181820
vt -2.245000 4.150000
vt 3.655000 4.150000
vt 3.668180 4.181820
vn -0.923880 0.382683 0.000000
vn -0.923880 0.382683 0.000000
vn -0.923880 0.382683 0.000000
vn -0.923880 0.382683 0.000000
f 357/357/357 358/358/358 359/359/359
f 357/357/357 359/359/359 360/360/360
v -2.231820 4.731820 0.000000
v -2.200000 4.745000 0.000000
v -2.168180 4.731820 0.000000
v -2.155000 4.700000 0.000000
v -2.168180 4.668180 0.000000
v -2.200000 4.655000 0.000000
v -2.231820 4.668180 0.000000
v -2.245000 4.700000 0.000000
vt -2.231820 4.731820
vt -2.200000 4.745000
vt -2.168180 4.731820
vt -2.155000 4.700000
vt -2.168180 4.668180
vt -2.200000 4.655000
vt -2.231820 4.668180
vt -2.245000 4.700000
vn 0.000000 0.000000 -1.000000
vn 0.000000 0.000000 -1.000000
vn 0.000000 0.000000 -1.000000
vn 0.000000 0.000000 -1.000000
vn 0.000000 0.000000 -1.000000
vn 0.000000 0.000000 -1.000000
vn 0.000000 0.000000 -1.000000
vn 0.000000 0.000000 -1.000000
f 361/361/361 362/362/362 363/363/363
f 361/361/361 363/363/363 364/364/364
f 361/361/361 364/364/364 365/365/365
f 361/361/361 365/365/365 366/366/366
f 361/361/361 366/366/366 367/367/367
f 361/361/361 367/367/367 368/368/368
v -2.245000 4.700000 5.900000
v -2.231820 4.668180 5.900000
v -2.200000 4.655000 5.900000
v -2.168180 4.668180 5.900000
v -2.155000 4.700000 5.900000
v -2.168180 4.731820 5.900000
v -2.200000 4.745000 5.900000
v -2.231820 4.731820 5.900000
vt 3.655000 4.700000
vt 3.668180 4.668180
vt 3.700000 4.655000
vt 3.731820 4.668180
vt 3.745000 4.700000
vt 3.731820 4.731820
vt 3.700000 4.745000
vt 3.668180 4.731820
vn 0.000000 0.000000 1.000000
vn 0.000000 0.000000 1.000000
vn 0.000000 0.000000 1.000000
vn 0.000000 0.000000 1.000000
vn 0.000000 0.000000 1.000000
vn 0.000000 0.000000 1.000000
vn 0.000000 0.000000 1.000000
vn 0.000000 0.000000 1.000000
f 369/369/369 370/370/370 371/371/371
f 369/369/369 371/371/371 372/372/372
f 369/369/369 372/372/372 373/373/373
f 369/369/369 373/373/373 374/374/374
f 369/369/369 374/374/374 375/375/375
f 369/369/369 375/375/375 376/376/376
v -2.245000 4.700000 0.000000
v -2.231820 4.668180 0.000000
v -2.231820 4.668180 5.900000
v -2.245000 4.700000 5.900000
vt -2.245000 4.700000
vt -2.231820 4.668180
vt 3.668180 4.668180
vt 3.655000 4.700000
vn -0.923880 -0.382683 0.000000
vn -0.923880 -0.382683 0.000000
vn -0.923880 -0.382683 0.000000
vn -0.923880 -0.382683 0.000000
f 377/377/377 378/378/378 379/379/379
f 377/377/377 379/379/379 380/380/380
v -2.231820 4.668180 0.000000
v -2.200000 4.655000 0.000000
v -2.200000 4.655000 5.900000
v -2.231820 4.668180 5.900000
vt -2.231820 4.668180
vt -2.200000 4.655000
vt 3.700000 4.655000
vt 3.668180 4.668180
vn -0.382683 -0.923880 0.000000
vn -0.382683 -0.923880 0.000000
vn -0.382683 -0.923880 0.000000
vn -0.382683 -0.923880 0.000000
f 381/381/381 382/382/382 383/383/383
f 381/381/381 383/383/383 384/384/384
v -2.200000 4.655000 0.000000
v -2.168180 4.668180 0.000000
v -2.168180 4.668180 5.900000
v -2.200000 4.655000 5.900000
vt -2.200000 4.655000
vt -2.168180 4.668180
vt 3.731820 4.668180
vt 3.700000 4.655000
vn 0.382683 -0.923880 0.000000
vn 0.382683 -0.923880 0.000000
vn 0.382683 -0.923880 0.000000
vn 0.382683 -0.923880 0.000000
f 385/385/385 386/386/386 387/387/387
f 385/385/385 387/387/387 388/388/388
v -2.168180 4.668180 0.000000
v -2.155000 4.700000 0.000000
v -2.155000 4.700000 5.900000
v -2.168180 4.668180 5.900000
vt -2.168180 4.668180
vt -2.155000 4.700000
vt 3.745000 4.700000
vt 3.731820 4.668180
vn 0.923880 -0.382683 0.000000
vn 0.923880 -0.382683 0.000000
vn 0.923880 -0.382683 0.000000
vn 0.923880 -0.382683 0.000000
f 389/389/389 390/390/390 391/391/391
f 389/389/389 391/391/391 392/392/392
v -2.155000 4.700000 0.000000
v -2.168180 4.731820 0.000000
v -2.168180 4.731820 5.900000
v -2.155000 4.700000 5.900000
vt -2.155000 4.700000
vt -2.168180 4.731820
vt 3.731820 4.731820
vt 3.745000 4.700000
vn 0.923880 0.382683 0.000000
vn 0.923880 0.382683 0.000000
vn 0.923880 0.382683 0.000000
vn 0.923880 0.382683 0.000000
f 393/393/393 394/394/394 395/395/395
f 393/393/393 395/395/395 396/396/396
v -2.168180 4.731820 0.000000
v -2.200000 4.745000 0.000000
v -2.200000 4.745000 5.900000
v -2.168180 4.731820 5.900000
vt -2.168180 4.731820
vt -2.200000 4.745000
vt 3.700000 4.745000
vt 3.731820 4.731820
vn 0.382683 0.923880 0.000000
vn 0.382683 0.923880 0.000000
vn 0.382683 0.923880 0.000000
vn 0.382683 0.923880 0.000000
f 397/397/397 398/398/398 399/399/399
f 397/397/397 399/399/399 400/400/400
v -2.200000 4.745000 0.000000
v -2.231820 4.731820 0.000000
v -2.231820 4.731820 5.900000
v -2.200000 4.745000 5.900000
vt -2.200000 4.745000
vt -2.231820 4.731820
vt 3.668180 4.731820
vt 3.700000 4.745000
vn -0.382683 0.923880 0.000000
vn -0.382683 0.923880 0.000000
vn -0.382683 0.923880 0.000000
vn -0.382683 0.923880 0.000000
f 401/401/401 402/402/402 403/403/403
f 401/401/401 403/403/403 404/404/404
v -2.231820 4.731820 0.000000
v -2.245000 4.700000 0.000000
v -2.245000 4.700000 5.900000
v -2.231820 4.731820 5.900000
vt -2.231820 4.731820
vt -2.245000 4.700000
vt 3.655000 4.700000
vt 3.668180 4.731820
vn -0.923880 0.382683 0.000000
vn -0.923880 0.382683 0.000000
vn -0.923880 0.382683 0.000000
vn -0.923880 0.382683 0.000000
f 405/405/405 406/406/406 407/407/407
f 405/405/405 407/407/407 408/408/408
v -2.231820 5.381820 0.000000
v -2.200000 5.395000 0.000000
v -2.168180 5.381820 0.000000
v -2.155000 5.350000 0.000000
v -2.168180 5.318180 0.000000
v -2.200000 5.305000 0.000000
v -2.231820 5.318180 0.000000
v -2.245000 5.350000 0.000000
vt -2.231820 5.381820
vt -2.200000 5.395000
vt -2.168180 5.381820
vt -2.155000 5.350000
vt -2.168180 5.318180
vt -2.200000 5.305000
vt -2.231820 5.318180
vt -2.245000 5.350000
vn 0.000000 0.000000 -1.000000
vn 0.000000 0.000000 -1.000000
vn 0.000000 0.000000 -1.000000
vn 0.000000 0.000000 -1.000000
vn 0.000000 0.000000 -1.000000
vn 0.000000 0.000000 -1.000000
vn 0.000000 0.000000 -1.000000
vn 0.000000 0.000000 -1.000000
f 409/409/409 410/410/410 411/411/411
f 409/409/409 411/411/411 412/412/412
f 409/409/409 412/412/412 413/413/413
f 409/409/409 413/413/413 414/414/414
f 409/409/409 414/414/414 415/415/415
f 409/409/409 415/415/415 416/416/416
v -2.245000 5.350000 5.900000
v -2.231820 5.318180 5.900000
v -2.200000 5.305000 5.900000
v -2.168180 5.318180 5.900000
v -2.155000 5.350000 5.900000
v -2.168180 5.381820 5.900000
v -2.200000 5.395000 5.900000
v -2.231820 5.381820 5.900000
vt 3.655000 5.350000
vt 3.668180 5.318180
vt 3.700000 5.305000
vt 3.731820 5.318180
vt 3.745000 5.350000
vt 3.731820 5.381820
vt 3.700000 5.395000
vt 3.668180 5.381820
vn 0.000000 0.000000 1.000000
vn 0.000000 0.000000 1.000000
vn 0.000000 0.000000 1.000000
vn 0.000000 0.000000 1.000000
vn 0.000000 0.000000 1.000000
vn 0.000000 0.000000 1.000000
vn 0.000000 0.000000 1.000000
vn 0.000000 0.000000 1.000000
f 417/417/417 418/418/418 419/419/419
f 417/417/417 419/419/419 420/420/420
f 417/417/417 420/420/420 421/421/421
f 417/417/417 421/421/421 422/422/422
f 417/417/417 422/422/422 423/423/423
f 417/417/417 423/423/423 424/424/424
v -2.245000 5.350000 0.000000
v -2.231820 5.318180 0.000000
v -2.231820 5.318180 5.900000
v -2.245000 5.350000 5.900000
vt -2.245000 5.350000
vt -2.231820 5.318180
vt 3.668180 5.318180
vt 3.655000 5.350000
vn -0.923880 -0.382683 0.000000
vn -0.923880 -0.382683 0.000000
vn -0.923880 -0.382683 0.000000
vn -0.923880 -0.382683 0.000000
f 425/425/425 426/426/426 427/427/427
f 425/425/425 427/427/427 428/428/428
v -2.231820 5.318180 0.000000
v -2.200000 5.305000 0.000000
v -2.200000 5.305000 5.900000
v -2.231820 5.318180 5.900000
vt -2.231820 5.318180
vt -2.200000 5.305000
vt 3.700000 5.305000
vt 3.668180 5.318180
vn -0.382683 -0.923880 0.000000
vn -0.382683 -0.923880 0.000000
vn -0.382683 -0.923880 0.000000
vn -0.382683 -0.923880 0.000000
f 429/429/429 430/430/430 431/431/431
f 429/429/429 431/431/431 432/432/432
v -2.200000 5.305000 0.000000
v -2.168180 5.318180 0.000000
v -2.168180 5.318180 5.900000
v -2.200000 5.305000 5.900000
vt -2.200000 5.305000
vt -2.168180 5.318180
vt 3.731820 5.318180
vt 3.700000 5.305000
vn 0.382683 -0.923880 0.000000
vn 0.382683 -0.923880 0.000000
vn 0.382683 -0.923880 0.000000
vn 0.382683 -0.923880 0.000000
f 433/433/433 434/434/434 435/435/435
f 433/433/433 435/435/435 436/436/436
v -2.168180 5.318180 0.000000
v -2.155000 5.350000 0.000000
v -2.155000 5.350000 5.900000
v -2.168180 5.318180 5.900000
vt -2.168180 5.318180
vt -2.155000 5.350000
vt 3.745000 5.350000
vt 3.731820 5.318180
vn 0.923880 -0.382683 0.000000
vn 0.923880 -0.382683 0.000000
vn 0.923880 -0.382683 0.000000
vn 0.923880 -0.382683 0.000000
f 437/437/437 438/438/438 439/439/439
f 437/437/437 439/439/439 440/440/440
v -2.155000 5.350000 0.000000
v -2.168180 5.381820 0.000000
v -2.168180 5.381820 5.900000
v -2.155000 5.350000 5.900000
vt -2.155000 5.350000
vt -2.168180 5.381820
vt 3.731820 5.381820
vt 3.745000 5.350000
vn 0.923880 0.382683 0.000000
vn 0.923880 0.382683 0.000000
vn 0.923880 0.382683 0.000000
vn 0.923880 0.382683 0.000000
f 441/441/441 442/442/442 443/443/443
f 441/441/441 443/443/443 444/444/444
v -2.168180 5.381820 0.000000
v -2.200000 5.395000 0.000000
v -2.200000 5.395000 5.900000
v -2.168180 5.381820 5.900000
vt -2.168180 5.381820
vt -2.200000 5.395000
vt 3.700000 5.395000
vt 3.731820 5.381820
vn 0.382683 0.923880 0.000000
vn 0.382683 0.923880 0.000000
vn 0.382683 0.923880 0.000000
vn 0.382683 0.923880 0.000000
f 445/445/445 446/446/446 447/447/447
f 445/445/445 447/447/447 448/448/448
v -2.200000 5.395000 0.000000
v -2.231820 5.381820 0.000000
v -2.231820 5.381820 5.900000
v -2.200000 5.395000 5.900000
vt -2.200000 5.395000
vt -2.231820 5.381820
vt 3.668180 5.381820
vt 3.700000 5.395000
vn -0.382683 0.923880 0.000000
vn -0.382683 0.923880 0.000000
vn -0.382683 0.923880 0.000000
vn -0.382683 0.923880 0.000000
f 449/449/449 450/450/450 451/451/451
f 449/449/449 451/451/451 452/452/452
v -2.231820 5.381820 0.000000
v -2.245000 5.350000 0.000000
v -2.245000 5.350000 5.900000
v -2.231820 5.381820 5.900000
vt -2.231820 5.381820
vt -2.245000 5.350000
vt 3.655000 5.350000
vt 3.668180 5.381820
vn -0.923880 0.382683 0.000000
vn -0.923880 0.382683 0.000000
vn -0.923880 0.382683 0.000000
vn -0.923880 0.382683 0.000000
f 453/453/453 454/454/454 455/455/455
f 453/453/453 455/455/455 456/456/456
v 2.168180 4.181820 0.000000
v 2.200000 4.195000 0.000000
v 2.231820 4.181820 0.000000
v 2.245000 4.150000 0.000000
v 2.231820 4.118180 0.000000
v 2.200000 4.105000 0.000000
v 2.168180 4.118180 0.000000
v 2.155000 4.150000 0.000000
vt 2.168180 4.181820
vt 2.200000 4.195000
vt 2.231820 4.181820
vt 2.245000 4.150000
vt 2.231820 4.118180
vt 2.200000 4.105000
vt 2.168180 4.118180
vt 2.155000 4.150000
vn 0.000000 0.000000 -1.000000
vn 0.000000 0.000000 -1.000000
vn 0.000000 0.000000 -1.000000
vn 0.000000 0.000000 -1.000000
vn 0.000000 0.000000 -1.000000
vn 0.000000 0.000000 -1.000000
vn 0.000000 0.000000 -1.000000
vn 0.000000 0.000000 -1.000000
f 457/457/457 458/458/458 459/459/459
f 457/457/457 459/459/459 460/460/460
f 457/457/457 460/460/460 461/461/461
f 457/457/457 461/461/461 462/462/462
f 457/457/457 462/462/462 463/463/463
f 457/457/457 463/463/463 464/464/464
v 2.155000 4.150000 5.900000
v 2.168180 4.118180 5.900000
v 2.200000 4.105000 5.900000
v 2.231820 4.118180 5.900000
v 2.245000 4.150000 5.900000
v 2.231820 4.181820 5.900000
v 2.200000 4.195000 5.900000
v 2.168180 4.181820 5.900000
vt 8.055000 4.150000
vt 8.068180 4.118180
vt 8.100000 4.105000
vt 8.131820 4.118180
vt 8.145000 4.150000
vt 8.131820 4.181820
vt 8.100000 4.195000
vt 8.068180 4.181820
vn 0.000000 0.000000 1.000000
vn 0.000000 0.000000 1.000000
vn 0.000000 0.000000 1.000000
vn 0.000000 0.000000 1.000000
vn 0.000000 0.000000 1.000000
vn 0.000000 0.000000 1.000000
vn 0.000000 0.000000 1.000000
vn 0.000000 0.000000 1.000000
f 465/465/465 466/466/466 467/467/467
f 465/465/465 467/467/467 468/468/468
f 465/465/465 468/468/468 469/469/469
f 465/465/465 469/469/469 470/470/470
f 465/465/465 470/470/470 471/471/471
f 465/465/465 471/471/471 472/472/472
v 2.155000 4.150000 0.000000
v 2.168180 4.118180 0.000000
v 2.168180 4.118180 5.900000
v 2.155000 4.150000 5.900000
vt 2.155000 4.150000
vt 2.168180 4.118180
vt 8.068180 4.118180
vt 8.055000 4.150000
vn -0.923880 -0.382683 0.000000
vn -0.923880 -0.382683 0.000000
vn -0.923880 -0.382683 0.000000
vn -0.923880 -0.382683 0.000000
f 473/473/473 474/474/474 475/475/475
f 473/473/473 475/475/475 476/476/476
v 2.168180 4.118180 0.000000
v 2.200000 4.105000 0.000000
v 2.200000 4.105000 5.900000
v 2.168180 4.118180 5.900000
vt 2.168180 4.118180
vt 2.200000 4.105000
vt 8.100000 4.105000
vt 8.068180 4.118180
vn -0.382683 -0.923880 0.000000
vn -0.382683 -0.923880 0.000000
vn -0.382683 -0.923880 0.000000
vn -0.382683 -0.923880 0.000000
f 477/477/477 478/478/478 479/479/479
f 477/477/477 479/479/479 480/480/480
v 2.200000 4.105000 0.000000
v 2.231820 4.118180 0.000000
v 2.231820 4.118180 5.900000
v 2.200000 4.105000 5.900000
vt 2.200000 4.105000
vt 2.231820 4.118180
vt 8.131820 4.118180
vt 8.100000 4.105000
vn 0.382683 -0.923880 0.000000
vn 0.382683 -0.923880 0.000000
vn 0.382683 -0.923880 0.000000
vn 0.382683 -0.923880 0.000000
f 481/481/481 482/482/482 483/483/483
f 481/481/481 483/483/483 484/484/484
v 2.231820 4.118180 0.000000
v 2.245000 4.150000 0.000000
v 2.245000 4.150000 5.900000
v 2.231820 4.118180 5.900000
vt 2.231820 4.118180
vt 2.245000 4.150000
vt 8.145000 4.150000
vt 8.131820 4.118180
vn 0.923880 -0.382683 0.000000
vn 0.923880 -0.382683 0.000000
vn 0.923880 -0.382683 0.000000
vn 0.923880 -0.382683 0.000000
f 485/485/485 486/486/486 487/487/487
f 485/485/485 487/487/487 488/488/488
v 2.245000 4.150000 0.000000
v 2.231820 4.181820 0.000000
v 2.231820 4.181820 5.900000
v 2.245000 4.150000 5.900000
vt 2.245000 4.150000
vt 2.231820 4.181820
vt 8.131820 4.181820
vt 8.145000 4.150000
vn 0.923880 0.382683 0.000000
vn 0.923880 0.382683 0.000000
vn 0.923880 0.382683 0.000000
vn 0.923880 0.382683 0.000000
f 489/489/489 490/490/490 491/491/491
f 489/489/489 491/491/491 492/492/492
v 2.231820 4.181820 0.000000
v 2.200000 4.195000 0.000000
v 2.200000 4.195000 5.900000
v 2.231820 4.181820 5.900000
vt 2.231820 4.181820
vt 2.200000 4.195000
vt 8.100000 4.195000
vt 8.131820 4.181820
vn 0.382683 0.923880 0.000000
vn 0.382683 0.923880 0.000000
vn 0.382683 0.923880 0.000000
vn 0.382683 0.923880 0.000000
f 493/493/493 494/494/494 495/495/495
f 493/493/493 495/495/495 496/496/496
v 2.200000 4.195000 0.000000
v 2.168180 4.181820 0.000000
v 2.168180 4.181820 5.900000
v 2.200000 4.195000 5.900000
vt 2.200000 4.195000
vt 2.168180 4.181820
vt 8.068180 4.181820
vt 8.100000 4.195000
vn -0.382683 0.923880 0.000000
vn -0.382683 0.923880 0.000000
vn -0.382683 0.923880 0.000000
vn -0.382683 0.923880 0.000000
f 497/497/497 498/498/498 499/499/499
f 497/497/497 499/499/499 500/500/500
v 2.168180 4.181820 0.000000
v 2.155000 4.150000 0.000000
v 2.155000 4.150000 5.900000
v 2.168180 4.181820 5.900000
vt 2.168180 4.181820
vt 2.155000 4.150000
vt 8.055000 4.150000
vt 8.068180 4.181820
vn -0.923880 0.382683 0.000000
vn -0.923880 0.382683 0.000000
vn -0.923880 0.382683 0.000000
vn -0.923880 0.382683 0.000000
f 501/501/501 502/502/502 503/503/503
f 501/501/501 503/503/503 504/504/504
v 2.168180 4.731820 0.000000
v 2.200000 4.745000 0.000000
v 2.231820 4.731820 0.000000
v 2.245000 4.700000 0.000000
v 2.231820 4.668180 0.000000
v 2.200000 4.655000 0.000000
v 2.168180 4.668180 0.000000
v 2.155000 4.700000 0.000000
vt 2.168180 4.731820
vt 2.200000 4.745000
vt 2.231820 4.731820
vt 2.245000 4.700000
vt 2.231820 4.668180
vt 2.200000 4.655000
vt 2.168180 4.668180
vt 2.155000 4.700000
vn 0.000000 0.000000 -1.000000
vn 0.000000 0.000000 -1.000000
vn 0.000000 0.000000 -1.000000
vn 0.000000 0.000000 -1.000000
vn 0.000000 0.000000 -1.000000
vn 0.000000 0.000000 -1.000000
vn 0.000000 0.000000 -1.000000
vn 0.000000 0.000000 -1.000000
f 505/505/505 506/506/506 507/507/507
f 505/505/505 507/507/507 508/508/508
f 505/505/505 508/508/508 509/509/509
f 505/505/505 509/509/509 510/510/510
f 505/505/505 510/510/510 511/511/511
f 505/505/505 511/511/511 512/512/512
v 2.155000 4.700000 5.900000
v 2.168180 4.668180 5.900000
v 2.200000 4.655000 5.900000
v 2.231820 4.668180 5.900000
v 2.245000 4.700000 5.900000
v 2.231820 4.731820 5.900000
v 2.200000 4.745000 5.900000
v 2.168180 4.731820 5.900000
vt 8.055000 4.700000
vt 8.068180 4.668180
vt 8.100000 4.655000
vt 8.131820 4.668180
vt 8.145000 4.700000
vt 8.131820 4.731820
vt 8.100000 4.745000
vt 8.068180 4.731820
vn 0.000000 0.000000 1.000000
vn 0.000000 0.000000 1.000000
vn 0.000000 0.000000 1.000000
vn 0.000000 0.000000 1.000000
vn 0.000000 0.000000 1.000000
vn 0.000000 0.000000 1.000000
vn 0.000000 0.000000 1.000000
vn 0.000000 0.000000 1.000000
f 513/513/513 514/514/514 515/515/515
f 513/513/513 515/515/515 516/516/516
f 513/513/513 516/516/516 517/517/517
f 513/513/513 517/517/517 518/518/518
f 513/513/513 518/518/518 519/519/519
f 513/513/513 519/519/519 520/520/520
v 2.155000 4.700000 0.000000
v 2.168180 4.668180 0.000000
v 2.168180 4.668180 5.900000
v 2.155000 4.700000 5.900000
vt 2.155000 4.700000
vt 2.168180 4.668180
vt 8.068180 4.668180
vt 8.055000 4.700000
vn -0.923880 -0.382683 0.000000
vn -0.923880 -0.382683 0.000000
vn -0.923880 -0.382683 0.000000
vn -0.923880 -0.382683 0.000000
f 521/521/521 522/522/522 523/523/523
f 521/521/521 523/523/523 524/524/524
v 2.168180 4.668180 0.000000
v 2.200000 4.655000 0.000000
v 2.200000 4.655000 5.900000
v 2.168180 4.668180 5.900000
vt 2.168180 4.668180
vt 2.200000 4.655000
vt 8.100000 4.655000
vt 8.068180 4.668180
vn -0.382683 -0.923880 0.000000
vn -0.382683 -0.923880 0.000000
vn -0.382683 -0.923880 0.000000
vn -0.382683 -0.923880 0.000000
f 525/525/525 526/526/526 527/527/527
f 525/525/525 527/527/527 528/528/528
v 2.200000 4.655000 0.000000
v 2.231820 4.668180 0.000000
v 2.231820 4.668180 5.900000
v 2.200000 4.655000 5.900000
vt 2.200000 4.655000
vt 2.231820 4.668180
vt 8.131820 4.668180
vt 8.100000 4.655000
vn 0.382683 -0.923880 0.000000
vn 0.382683 -0.923880 0.000000
vn 0.382683 -0.923880 0.000000
vn 0.382683 -0.923880 0.000000
f 529/529/529 530/530/530 531/531/531
f 529/529/529 531/531/531 532/532/532
v 2.231820 4.668180 0.000000
v 2.245000 4.700000 0.000000
v 2.245000 4.700000 5.900000
v 2.231820 4.668180 5.900000
vt 2.231820 4.668180
vt 2.245000 4.700000
vt 8.145000 4.700000
vt 8.131820 4.668180
vn 0.923880 -0.382683 0.000000
vn 0.923880 -0.382683 0.000000
vn 0.923880 -0.382683 0.000000
vn 0.923880 -0.382683 0.000000
f 533/533/533 534/534/534 535/535/535
f 533/533/533 535/535/535 536/536/536
v 2.245000 4.700000 0.000000
v 2.231820 4.731820 0.000000
v 2.231820 4.731820 5.900000
v 2.245000 4.700000 5.900000
vt 2.245000 4.700000
vt 2.231820 4.731820
vt 8.131820 4.731820
vt 8.145000 4.700000
vn 0.923880 0.382683 0.000000
vn 0.923880 0.382683 0.000000
vn 0.923880 0.382683 0.000000
vn 0.923880 0.382683 0.000000
f 537/537/537 538/538/538 539/539/539
f 537/537/537 539/539/539 540/540/540
v 2.231820 4.731820 0.000000
v 2.200000 4.745000 0.000000
v 2.200000 4.745000 5.900000
v 2.231820 4.731820 5.900000
vt 2.231820 4.731820
vt 2.200000 4.745000
vt 8.100000 4.745000
vt 8.131820 4.731820
vn 0.382683 0.923880 0.000000
vn 0.382683 0.923880 0.000000
vn 0.382683 0.923880 0.000000
vn 0.382683 0.923880 0.000000
f 541/541/541 542/542/542 543/543/543
f 541/541/541 543/543/543 544/544/544
v 2.200000 4.745000 0.000000
v 2.168180 4.731820 0.000000
v 2.168180 4.731820 5.900000
v 2.200000 4.745000 5.900000
vt 2.200000 4.745000
vt 2.168180 4.731820
vt 8.068180 4.731820
vt 8.100000 4.745000
vn -0.382683 0.923880 0.000000
vn -0.382683 0.923880 0.000000
vn -0.382683 0.923880 0.000000
vn -0.382683 0.923880 0.000000
f 545/545/545 546/546/546 547/547/547
f 545/545/545 547/547/547 548/548/548
v 2.168180 4.731820 0.000000
v 2.155000 4.700000 0.000000
v 2.155000 4.700000 5.900000
v 2.168180 4.731820 5.900000
vt 2.168180 4.731820
vt 2.155000 4.700000
vt 8.055000 4.700000
vt 8.068180 4.731820
vn -0.923880 0.382683 0.000000
vn -0.923880 0.382683 0.000000
vn -0.923880 0.382683 0.000000
vn -0.923880 0.382683 0.000000
f 549/549/549 550/550/550 551/551/551
f 549/549/549 551/551/551 552/552/552
v 2.168180 5.381820 0.000000
v 2.200000 5.395000 0.000000
v 2.231820 5.381820 0.000000
v 2.245000 5.350000 0.000000
v 2.231820 5.318180 0.000000
v 2.200000 5.305000 0.000000
v 2.168180 5.318180 0.000000
v 2.155000 5.350000 0.000000
vt 2.168180 5.381820
vt 2.200000 5.395000
vt 2.231820 5.381820
vt 2.245000 5.350000
vt 2.231820 5.318180
vt 2.200000 5.305000
vt 2.168180 5.318180
vt 2.155000 5.350000
vn 0.000000 0.000000 -1.000000
vn 0.000000 0.000000 -1.000000
vn 0.000000 0.000000 -1.000000
vn 0.000000 0.000000 -1.000000
vn 0.000000 0.000000 -1.000000
vn 0.000000 0.000000 -1.000000
vn 0.000000 0.000000 -1.000000
vn 0.000000 0.000000 -1.000000
f 553/553/553 554/554/554 555/555/555
f 553/553/553 555/555/555 556/556/556
f 553/553/553 556/556/556 557/557/557
f 553/553/553 557/557/557 558/558/558
f 553/553/553 558/558/558 559/559/559
f 553/553/553 559/559/559 560/560/560
v 2.155000 5.350000 5.900000
v 2.168180 5.318180 5.900000
v 2.200000 5.305000 5.900000
v 2.231820 5.318180 5.900000
v 2.245000 5.350000 5.900000
v 2.231820 5.381820 5.900000
v 2.200000 5.395000 5.900000
v 2.168180 5.381820 5.900000
vt 8.055000 5.350000
vt 8.068180 5.318180
vt 8.100000 5.305000
vt 8.131820 5.318180
vt 8.145000 5.350000
vt 8.131820 5.381820
vt 8.100000 5.395000
vt 8.068180 5.381820
vn 0.000000 0.000000 1.000000
vn 0.000000 0.000000 1.000000
vn 0.000000 0.000000 1.000000
vn 0.000000 0.000000 1.000000
vn 0.000000 0.000000 1.000000
vn 0.000000 0.000000 1.000000
vn 0.000000 0.000000 1.000000
vn 0.000000 0.000000 1.000000
f 561/561/561 562/562/562 563/563/563
f 561/561/561 563/563/563 564/564/564
f 561/561/561 564/564/564 565/565/565
f 561/561/561 565/565/565 566/566/566
f 561/561/561 566/566/566 567/567/567
f 561/561/561 567/567/567 568/568/568
v 2.155000 5.350000 0.000000
v 2.168180 5.318180 0.000000
v 2.168180 5.318180 5.900000
v 2.155000 5.350000 5.900000
vt 2.155000 5.350000
vt 2.168180 5.318180
vt 8.068180 5.318180
vt 8.055000 5.350000
vn -0.923880 -0.382683 0.000000
vn -0.923880 -0.382683 0.000000
vn -0.923880 -0.382683 0.000000
vn -0.923880 -0.382683 0.000000
f 569/569/569 570/570/570 571/571/571
f 569/569/569 571/571/571 572/572/572
v 2.168180 5.318180 0.000000
v 2.200000 5.305000 0.000000
v 2.200000 5.305000 5.900000
v 2.168180 5.318180 5.900000
vt 2.168180 5.318180
vt 2.200000 5.305000
vt 8.100000 5.305000
vt 8.068180 5.318180
vn -0.382683 -0.923880 0.000000
vn -0.382683 -0.923880 0.000000
vn -0.382683 -0.923880 0.000000
vn -0.382683 -0.923880 0.000000
f 573/573/573 574/574/574 575/575/575
f 573/573/573 575/575/575 576/576/576
v 2.200000 5.305000 0.000000
v 2.231820 5.318180 0.000000
v 2.231820 5.318180 5.900000
v 2.200000 5.305000 5.900000
vt 2.200000 5.305000
vt 2.231820 5.318180
vt 8.131820 5.318180
vt 8.100000 5.305000
vn 0.382683 -0.923880 0.000000
vn 0.382683 -0.923880 0.000000
vn 0.382683 -0.923880 0.000000
vn 0.382683 -0.923880 0.000000
f 577/577/577 578/578/578 579/579/579
f 577/577/577 579/579/579 580/580/580
v 2.231820 5.318180 0.000000
v 2.245000 5.350000 0.000000
v 2.245000 5.350000 5.900000
v 2.231820 5.318180 5.900000
vt 2.231820 5.318180
vt 2.245000 5.350000
vt 8.145000 5.350000
vt 8.131820 5.318180
vn 0.923880 -0.382683 0.000000
vn 0.923880 -0.382683 0.000000
vn 0.923880 -0.382683 0.000000
vn 0.923880 -0.382683 0.000000
f 581/581/581 582/582/582 583/583/583
f 581/581/581 583/583/583 584/584/584
v 2.245000 5.350000 0.000000
v 2.231820 5.381820 0.000000
v 2.231820 5.381820 5.900000
v 2.245000 5.350000 5.900000
vt 2.245000 5.350000
vt 2.231820 5.381820
vt 8.131820 5.381820
vt 8.145000 5.350000
vn 0.923880 0.382683 0.000000
vn 0.923880 0.382683 0.000000
vn 0.923880 0.382683 0.000000
vn 0.923880 0.382683 0.000000
f 585/585/585 586/586/586 587/587/587
f 585/585/585 587/587/587 588/588/588
v 2.231820 5.381820 0.000000
v 2.200000 5.395000 0.000000
v 2.200000 5.395000 5.900000
v 2.231820 5.381820 5.900000
vt 2.231820 5.381820
vt 2.200000 5.395000
vt 8.100000 5.395000
vt 8.131820 5.381820
vn 0.382683 0.923880 0.000000
vn 0.382683 0.923880 0.000000
vn 0.382683 0.923880 0.000000
vn 0.382683 0.923880 0.000000
f 589/589/589 590/590/590 591/591/591
f 589/589/589 591/591/591 592/592/592
v 2.200000 5.395000 0.000000
v 2.168180 5.381820 0.000000
v 2.168180 5.381820 5.900000
v 2.200000 5.395000 5.900000
vt 2.200000 5.395000
vt 2.168180 5.381820
vt 8.068180 5.381820
vt 8.100000 5.395000
vn -0.382683 0.923880 0.000000
vn -0.382683 0.923880 0.000000
vn -0.382683 0.923880 0.000000
vn -0.382683 0.923880 0.000000
f 593/593/593 594/594/594 595/595/595
f 593/593/593 595/595/595 596/596/596
v 2.168180 5.381820 0.000000
v 2.155000 5.350000 0.000000
v 2.155000 5.350000 5.900000
v 2.168180 5.381820 5.900000
vt 2.168180 5.381820
vt 2.155000 5.350000
vt 8.055000 5.350000
vt 8.068180 5.381820
vn -0.923880 0.382683 0.000000
vn -0.923880 0.382683 0.000000
vn -0.923880 0.382683 0.000000
vn -0.923880 0.382683 0.000000
f 597/597/597 598/598/598 599/599/599
f 597/597/597 599/599/599 600/600/600
