# Original MODUS Black Start coastal presentation. Authored static geometry; no third-party source.
o coastal_cavern_floor
v -8.700000 0.002500 -18.000000
v -8.700000 0.017500 -18.000000
v -4.300000 0.017500 -18.000000
v -4.300000 0.002500 -18.000000
vt -26.700000 0.002500
vt -26.700000 0.017500
vt -22.300000 0.017500
vt -22.300000 0.002500
vn 0.000000 0.000000 -1.000000
vn 0.000000 0.000000 -1.000000
vn 0.000000 0.000000 -1.000000
vn 0.000000 0.000000 -1.000000
f 1/1/1 2/2/2 3/3/3
f 1/1/1 3/3/3 4/4/4
v -8.700000 0.002500 18.000000
v -4.300000 0.002500 18.000000
v -4.300000 0.017500 18.000000
v -8.700000 0.017500 18.000000
vt 9.300000 0.002500
vt 13.700000 0.002500
vt 13.700000 0.017500
vt 9.300000 0.017500
vn 0.000000 0.000000 1.000000
vn 0.000000 0.000000 1.000000
vn 0.000000 0.000000 1.000000
vn 0.000000 0.000000 1.000000
f 5/5/5 6/6/6 7/7/7
f 5/5/5 7/7/7 8/8/8
v -8.700000 0.002500 -18.000000
v -8.700000 0.002500 18.000000
v -8.700000 0.017500 18.000000
v -8.700000 0.017500 -18.000000
vt -26.700000 0.002500
vt 9.300000 0.002500
vt 9.300000 0.017500
vt -26.700000 0.017500
vn -1.000000 0.000000 0.000000
vn -1.000000 0.000000 0.000000
vn -1.000000 0.000000 0.000000
vn -1.000000 0.000000 0.000000
f 9/9/9 10/10/10 11/11/11
f 9/9/9 11/11/11 12/12/12
v -4.300000 0.002500 -18.000000
v -4.300000 0.017500 -18.000000
v -4.300000 0.017500 18.000000
v -4.300000 0.002500 18.000000
vt -22.300000 0.002500
vt -22.300000 0.017500
vt 13.700000 0.017500
vt 13.700000 0.002500
vn 1.000000 0.000000 0.000000
vn 1.000000 0.000000 0.000000
vn 1.000000 0.000000 0.000000
vn 1.000000 0.000000 0.000000
f 13/13/13 14/14/14 15/15/15
f 13/13/13 15/15/15 16/16/16
v -8.700000 0.002500 -18.000000
v -4.300000 0.002500 -18.000000
v -4.300000 0.002500 18.000000
v -8.700000 0.002500 18.000000
vt -26.700000 0.002500
vt -22.300000 0.002500
vt 13.700000 0.002500
vt 9.300000 0.002500
vn 0.000000 -1.000000 0.000000
vn 0.000000 -1.000000 0.000000
vn 0.000000 -1.000000 0.000000
vn 0.000000 -1.000000 0.000000
f 17/17/17 18/18/18 19/19/19
f 17/17/17 19/19/19 20/20/20
v -8.700000 0.017500 -18.000000
v -8.700000 0.017500 18.000000
v -4.300000 0.017500 18.000000
v -4.300000 0.017500 -18.000000
vt -26.700000 0.017500
vt 9.300000 0.017500
vt 13.700000 0.017500
vt -22.300000 0.017500
vn 0.000000 1.000000 0.000000
vn 0.000000 1.000000 0.000000
vn 0.000000 1.000000 0.000000
vn 0.000000 1.000000 0.000000
f 21/21/21 22/22/22 23/23/23
f 21/21/21 23/23/23 24/24/24
