# Original MODUS Black Start coastal presentation. Authored static geometry; no third-party source.
o coastal_cavern_dark_metal
v -9.100000 3.195962 -11.954038
v -9.100000 3.215000 -12.000000
v -9.100000 3.195962 -12.045962
v -9.100000 3.150000 -12.065000
v -9.100000 3.104038 -12.045962
v -9.100000 3.085000 -12.000000
v -9.100000 3.104038 -11.954038
v -9.100000 3.150000 -11.935000
vt -21.054038 3.195962
vt -21.100000 3.215000
vt -21.145962 3.195962
vt -21.165000 3.150000
vt -21.145962 3.104038
vt -21.100000 3.085000
vt -21.054038 3.104038
vt -21.035000 3.150000
vn -1.000000 0.000000 0.000000
vn -1.000000 0.000000 0.000000
vn -1.000000 0.000000 0.000000
vn -1.000000 0.000000 0.000000
vn -1.000000 0.000000 0.000000
vn -1.000000 0.000000 0.000000
vn -1.000000 0.000000 0.000000
vn -1.000000 0.000000 0.000000
f 1/1/1 2/2/2 3/3/3
f 1/1/1 3/3/3 4/4/4
f 1/1/1 4/4/4 5/5/5
f 1/1/1 5/5/5 6/6/6
f 1/1/1 6/6/6 7/7/7
f 1/1/1 7/7/7 8/8/8
v -7.900000 3.150000 -11.935000
v -7.900000 3.104038 -11.954038
v -7.900000 3.085000 -12.000000
v -7.900000 3.104038 -12.045962
v -7.900000 3.150000 -12.065000
v -7.900000 3.195962 -12.045962
v -7.900000 3.215000 -12.000000
v -7.900000 3.195962 -11.954038
vt -19.835000 3.150000
vt -19.854038 3.104038
vt -19.900000 3.085000
vt -19.945962 3.104038
vt -19.965000 3.150000
vt -19.945962 3.195962
vt -19.900000 3.215000
vt -19.854038 3.195962
vn 1.000000 0.000000 0.000000
vn 1.000000 0.000000 0.000000
vn 1.000000 0.000000 0.000000
vn 1.000000 0.000000 0.000000
vn 1.000000 0.000000 0.000000
vn 1.000000 0.000000 0.000000
vn 1.000000 0.000000 0.000000
vn 1.000000 0.000000 0.000000
f 9/9/9 10/10/10 11/11/11
f 9/9/9 11/11/11 12/12/12
f 9/9/9 12/12/12 13/13/13
f 9/9/9 13/13/13 14/14/14
f 9/9/9 14/14/14 15/15/15
f 9/9/9 15/15/15 16/16/16
v -9.100000 3.150000 -11.935000
v -9.100000 3.104038 -11.954038
v -7.900000 3.104038 -11.954038
v -7.900000 3.150000 -11.935000
vt -21.035000 3.150000
vt -21.054038 3.104038
vt -19.854038 3.104038
vt -19.835000 3.150000
vn 0.000000 -0.382683 0.923880
vn 0.000000 -0.382683 0.923880
vn 0.000000 -0.382683 0.923880
vn 0.000000 -0.382683 0.923880
f 17/17/17 18/18/18 19/19/19
f 17/17/17 19/19/19 20/20/20
v -9.100000 3.104038 -11.954038
v -9.100000 3.085000 -12.000000
v -7.900000 3.085000 -12.000000
v -7.900000 3.104038 -11.954038
vt -21.054038 3.104038
vt -21.100000 3.085000
vt -19.900000 3.085000
vt -19.854038 3.104038
vn 0.000000 -0.923880 0.382683
vn 0.000000 -0.923880 0.382683
vn 0.000000 -0.923880 0.382683
vn 0.000000 -0.923880 0.382683
f 21/21/21 22/22/22 23/23/23
f 21/21/21 23/23/23 24/24/24
v -9.100000 3.085000 -12.000000
v -9.100000 3.104038 -12.045962
v -7.900000 3.104038 -12.045962
v -7.900000 3.085000 -12.000000
vt -21.100000 3.085000
vt -21.145962 3.104038
vt -19.945962 3.104038
vt -19.900000 3.085000
vn 0.000000 -0.923880 -0.382683
vn 0.000000 -0.923880 -0.382683
vn 0.000000 -0.923880 -0.382683
vn 0.000000 -0.923880 -0.382683
f 25/25/25 26/26/26 27/27/27
f 25/25/25 27/27/27 28/28/28
v -9.100000 3.104038 -12.045962
v -9.100000 3.150000 -12.065000
v -7.900000 3.150000 -12.065000
v -7.900000 3.104038 -12.045962
vt -21.145962 3.104038
vt -21.165000 3.150000
vt -19.965000 3.150000
vt -19.945962 3.104038
vn 0.000000 -0.382683 -0.923880
vn 0.000000 -0.382683 -0.923880
vn 0.000000 -0.382683 -0.923880
vn 0.000000 -0.382683 -0.923880
f 29/29/29 30/30/30 31/31/31
f 29/29/29 31/31/31 32/32/32
v -9.100000 3.150000 -12.065000
v -9.100000 3.195962 -12.045962
v -7.900000 3.195962 -12.045962
v -7.900000 3.150000 -12.065000
vt -21.165000 3.150000
vt -21.145962 3.195962
vt -19.945962 3.195962
vt -19.965000 3.150000
vn 0.000000 0.382683 -0.923880
vn 0.000000 0.382683 -0.923880
vn 0.000000 0.382683 -0.923880
vn 0.000000 0.382683 -0.923880
f 33/33/33 34/34/34 35/35/35
f 33/33/33 35/35/35 36/36/36
v -9.100000 3.195962 -12.045962
v -9.100000 3.215000 -12.000000
v -7.900000 3.215000 -12.000000
v -7.900000 3.195962 -12.045962
vt -21.145962 3.195962
vt -21.100000 3.215000
vt -19.900000 3.215000
vt -19.945962 3.195962
vn 0.000000 0.923880 -0.382683
vn 0.000000 0.923880 -0.382683
vn 0.000000 0.923880 -0.382683
vn 0.000000 0.923880 -0.382683
f 37/37/37 38/38/38 39/39/39
f 37/37/37 39/39/39 40/40/40
v -9.100000 3.215000 -12.000000
v -9.100000 3.195962 -11.954038
v -7.900000 3.195962 -11.954038
v -7.900000 3.215000 -12.000000
vt -21.100000 3.215000
vt -21.054038 3.195962
vt -19.854038 3.195962
vt -19.900000 3.215000
vn 0.000000 0.923880 0.382683
vn 0.000000 0.923880 0.382683
vn 0.000000 0.923880 0.382683
vn 0.000000 0.923880 0.382683
f 41/41/41 42/42/42 43/43/43
f 41/41/41 43/43/43 44/44/44
v -9.100000 3.195962 -11.954038
v -9.100000 3.150000 -11.935000
v -7.900000 3.150000 -11.935000
v -7.900000 3.195962 -11.954038
vt -21.054038 3.195962
vt -21.035000 3.150000
vt -19.835000 3.150000
vt -19.854038 3.195962
vn 0.000000 0.382683 0.923880
vn 0.000000 0.382683 0.923880
vn 0.000000 0.382683 0.923880
vn 0.000000 0.382683 0.923880
f 45/45/45 46/46/46 47/47/47
f 45/45/45 47/47/47 48/48/48
v -9.240000 3.035000 -12.220000
v -9.240000 3.285000 -12.220000
v -7.460000 3.285000 -12.220000
v -7.460000 3.035000 -12.220000
vt -21.460000 3.035000
vt -21.460000 3.285000
vt -19.680000 3.285000
vt -19.680000 3.035000
vn 0.000000 0.000000 -1.000000
vn 0.000000 0.000000 -1.000000
vn 0.000000 0.000000 -1.000000
vn 0.000000 0.000000 -1.000000
f 49/49/49 50/50/50 51/51/51
f 49/49/49 51/51/51 52/52/52
v -9.240000 3.035000 -11.780000
v -7.460000 3.035000 -11.780000
v -7.460000 3.285000 -11.780000
v -9.240000 3.285000 -11.780000
vt -21.020000 3.035000
vt -19.240000 3.035000
vt -19.240000 3.285000
vt -21.020000 3.285000
vn 0.000000 0.000000 1.000000
vn 0.000000 0.000000 1.000000
vn 0.000000 0.000000 1.000000
vn 0.000000 0.000000 1.000000
f 53/53/53 54/54/54 55/55/55
f 53/53/53 55/55/55 56/56/56
v -9.240000 3.035000 -12.220000
v -9.240000 3.035000 -11.780000
v -9.240000 3.285000 -11.780000
v -9.240000 3.285000 -12.220000
vt -21.460000 3.035000
vt -21.020000 3.035000
vt -21.020000 3.285000
vt -21.460000 3.285000
vn -1.000000 0.000000 0.000000
vn -1.000000 0.000000 0.000000
vn -1.000000 0.000000 0.000000
vn -1.000000 0.000000 0.000000
f 57/57/57 58/58/58 59/59/59
f 57/57/57 59/59/59 60/60/60
v -7.460000 3.035000 -12.220000
v -7.460000 3.285000 -12.220000
v -7.460000 3.285000 -11.780000
v -7.460000 3.035000 -11.780000
vt -19.680000 3.035000
vt -19.680000 3.285000
vt -19.240000 3.285000
vt -19.240000 3.035000
vn 1.000000 0.000000 0.000000
vn 1.000000 0.000000 0.000000
vn 1.000000 0.000000 0.000000
vn 1.000000 0.000000 0.000000
f 61/61/61 62/62/62 63/63/63
f 61/61/61 63/63/63 64/64/64
v -9.240000 3.035000 -12.220000
v -7.460000 3.035000 -12.220000
v -7.460000 3.035000 -11.780000
v -9.240000 3.035000 -11.780000
vt -21.460000 3.035000
vt -19.680000 3.035000
vt -19.240000 3.035000
vt -21.020000 3.035000
vn 0.000000 -1.000000 0.000000
vn 0.000000 -1.000000 0.000000
vn 0.000000 -1.000000 0.000000
vn 0.000000 -1.000000 0.000000
f 65/65/65 66/66/66 67/67/67
f 65/65/65 67/67/67 68/68/68
v -9.240000 3.285000 -12.220000
v -9.240000 3.285000 -11.780000
v -7.460000 3.285000 -11.780000
v -7.460000 3.285000 -12.220000
vt -21.460000 3.285000
vt -21.020000 3.285000
vt -19.240000 3.285000
vt -19.680000 3.285000
vn 0.000000 1.000000 0.000000
vn 0.000000 1.000000 0.000000
vn 0.000000 1.000000 0.000000
vn 0.000000 1.000000 0.000000
f 69/69/69 70/70/70 71/71/71
f 69/69/69 71/71/71 72/72/72
v -9.100000 3.195962 -5.954038
v -9.100000 3.215000 -6.000000
v -9.100000 3.195962 -6.045962
v -9.100000 3.150000 -6.065000
v -9.100000 3.104038 -6.045962
v -9.100000 3.085000 -6.000000
v -9.100000 3.104038 -5.954038
v -9.100000 3.150000 -5.935000
vt -15.054038 3.195962
vt -15.100000 3.215000
vt -15.145962 3.195962
vt -15.165000 3.150000
vt -15.145962 3.104038
vt -15.100000 3.085000
vt -15.054038 3.104038
vt -15.035000 3.150000
vn -1.000000 0.000000 0.000000
vn -1.000000 0.000000 0.000000
vn -1.000000 0.000000 0.000000
vn -1.000000 0.000000 0.000000
vn -1.000000 0.000000 0.000000
vn -1.000000 0.000000 0.000000
vn -1.000000 0.000000 0.000000
vn -1.000000 0.000000 0.000000
f 73/73/73 74/74/74 75/75/75
f 73/73/73 75/75/75 76/76/76
f 73/73/73 76/76/76 77/77/77
f 73/73/73 77/77/77 78/78/78
f 73/73/73 78/78/78 79/79/79
f 73/73/73 79/79/79 80/80/80
v -7.900000 3.150000 -5.935000
v -7.900000 3.104038 -5.954038
v -7.900000 3.085000 -6.000000
v -7.900000 3.104038 -6.045962
v -7.900000 3.150000 -6.065000
v -7.900000 3.195962 -6.045962
v -7.900000 3.215000 -6.000000
v -7.900000 3.195962 -5.954038
vt -13.835000 3.150000
vt -13.854038 3.104038
vt -13.900000 3.085000
vt -13.945962 3.104038
vt -13.965000 3.150000
vt -13.945962 3.195962
vt -13.900000 3.215000
vt -13.854038 3.195962
vn 1.000000 0.000000 0.000000
vn 1.000000 0.000000 0.000000
vn 1.000000 0.000000 0.000000
vn 1.000000 0.000000 0.000000
vn 1.000000 0.000000 0.000000
vn 1.000000 0.000000 0.000000
vn 1.000000 0.000000 0.000000
vn 1.000000 0.000000 0.000000
f 81/81/81 82/82/82 83/83/83
f 81/81/81 83/83/83 84/84/84
f 81/81/81 84/84/84 85/85/85
f 81/81/81 85/85/85 86/86/86
f 81/81/81 86/86/86 87/87/87
f 81/81/81 87/87/87 88/88/88
v -9.100000 3.150000 -5.935000
v -9.100000 3.104038 -5.954038
v -7.900000 3.104038 -5.954038
v -7.900000 3.150000 -5.935000
vt -15.035000 3.150000
vt -15.054038 3.104038
vt -13.854038 3.104038
vt -13.835000 3.150000
vn 0.000000 -0.382683 0.923880
vn 0.000000 -0.382683 0.923880
vn 0.000000 -0.382683 0.923880
vn 0.000000 -0.382683 0.923880
f 89/89/89 90/90/90 91/91/91
f 89/89/89 91/91/91 92/92/92
v -9.100000 3.104038 -5.954038
v -9.100000 3.085000 -6.000000
v -7.900000 3.085000 -6.000000
v -7.900000 3.104038 -5.954038
vt -15.054038 3.104038
vt -15.100000 3.085000
vt -13.900000 3.085000
vt -13.854038 3.104038
vn 0.000000 -0.923880 0.382683
vn 0.000000 -0.923880 0.382683
vn 0.000000 -0.923880 0.382683
vn 0.000000 -0.923880 0.382683
f 93/93/93 94/94/94 95/95/95
f 93/93/93 95/95/95 96/96/96
v -9.100000 3.085000 -6.000000
v -9.100000 3.104038 -6.045962
v -7.900000 3.104038 -6.045962
v -7.900000 3.085000 -6.000000
vt -15.100000 3.085000
vt -15.145962 3.104038
vt -13.945962 3.104038
vt -13.900000 3.085000
vn 0.000000 -0.923880 -0.382683
vn 0.000000 -0.923880 -0.382683
vn 0.000000 -0.923880 -0.382683
vn 0.000000 -0.923880 -0.382683
f 97/97/97 98/98/98 99/99/99
f 97/97/97 99/99/99 100/100/100
v -9.100000 3.104038 -6.045962
v -9.100000 3.150000 -6.065000
v -7.900000 3.150000 -6.065000
v -7.900000 3.104038 -6.045962
vt -15.145962 3.104038
vt -15.165000 3.150000
vt -13.965000 3.150000
vt -13.945962 3.104038
vn 0.000000 -0.382683 -0.923880
vn 0.000000 -0.382683 -0.923880
vn 0.000000 -0.382683 -0.923880
vn 0.000000 -0.382683 -0.923880
f 101/101/101 102/102/102 103/103/103
f 101/101/101 103/103/103 104/104/104
v -9.100000 3.150000 -6.065000
v -9.100000 3.195962 -6.045962
v -7.900000 3.195962 -6.045962
v -7.900000 3.150000 -6.065000
vt -15.165000 3.150000
vt -15.145962 3.195962
vt -13.945962 3.195962
vt -13.965000 3.150000
vn 0.000000 0.382683 -0.923880
vn 0.000000 0.382683 -0.923880
vn 0.000000 0.382683 -0.923880
vn 0.000000 0.382683 -0.923880
f 105/105/105 106/106/106 107/107/107
f 105/105/105 107/107/107 108/108/108
v -9.100000 3.195962 -6.045962
v -9.100000 3.215000 -6.000000
v -7.900000 3.215000 -6.000000
v -7.900000 3.195962 -6.045962
vt -15.145962 3.195962
vt -15.100000 3.215000
vt -13.900000 3.215000
vt -13.945962 3.195962
vn 0.000000 0.923880 -0.382683
vn 0.000000 0.923880 -0.382683
vn 0.000000 0.923880 -0.382683
vn 0.000000 0.923880 -0.382683
f 109/109/109 110/110/110 111/111/111
f 109/109/109 111/111/111 112/112/112
v -9.100000 3.215000 -6.000000
v -9.100000 3.195962 -5.954038
v -7.900000 3.195962 -5.954038
v -7.900000 3.215000 -6.000000
vt -15.100000 3.215000
vt -15.054038 3.195962
vt -13.854038 3.195962
vt -13.900000 3.215000
vn 0.000000 0.923880 0.382683
vn 0.000000 0.923880 0.382683
vn 0.000000 0.923880 0.382683
vn 0.000000 0.923880 0.382683
f 113/113/113 114/114/114 115/115/115
f 113/113/113 115/115/115 116/116/116
v -9.100000 3.195962 -5.954038
v -9.100000 3.150000 -5.935000
v -7.900000 3.150000 -5.935000
v -7.900000 3.195962 -5.954038
vt -15.054038 3.195962
vt -15.035000 3.150000
vt -13.835000 3.150000
vt -13.854038 3.195962
vn 0.000000 0.382683 0.923880
vn 0.000000 0.382683 0.923880
vn 0.000000 0.382683 0.923880
vn 0.000000 0.382683 0.923880
f 117/117/117 118/118/118 119/119/119
f 117/117/117 119/119/119 120/120/120
v -9.240000 3.035000 -6.220000
v -9.240000 3.285000 -6.220000
v -7.460000 3.285000 -6.220000
v -7.460000 3.035000 -6.220000
vt -15.460000 3.035000
vt -15.460000 3.285000
vt -13.680000 3.285000
vt -13.680000 3.035000
vn 0.000000 0.000000 -1.000000
vn 0.000000 0.000000 -1.000000
vn 0.000000 0.000000 -1.000000
vn 0.000000 0.000000 -1.000000
f 121/121/121 122/122/122 123/123/123
f 121/121/121 123/123/123 124/124/124
v -9.240000 3.035000 -5.780000
v -7.460000 3.035000 -5.780000
v -7.460000 3.285000 -5.780000
v -9.240000 3.285000 -5.780000
vt -15.020000 3.035000
vt -13.240000 3.035000
vt -13.240000 3.285000
vt -15.020000 3.285000
vn 0.000000 0.000000 1.000000
vn 0.000000 0.000000 1.000000
vn 0.000000 0.000000 1.000000
vn 0.000000 0.000000 1.000000
f 125/125/125 126/126/126 127/127/127
f 125/125/125 127/127/127 128/128/128
v -9.240000 3.035000 -6.220000
v -9.240000 3.035000 -5.780000
v -9.240000 3.285000 -5.780000
v -9.240000 3.285000 -6.220000
vt -15.460000 3.035000
vt -15.020000 3.035000
vt -15.020000 3.285000
vt -15.460000 3.285000
vn -1.000000 0.000000 0.000000
vn -1.000000 0.000000 0.000000
vn -1.000000 0.000000 0.000000
vn -1.000000 0.000000 0.000000
f 129/129/129 130/130/130 131/131/131
f 129/129/129 131/131/131 132/132/132
v -7.460000 3.035000 -6.220000
v -7.460000 3.285000 -6.220000
v -7.460000 3.285000 -5.780000
v -7.460000 3.035000 -5.780000
vt -13.680000 3.035000
vt -13.680000 3.285000
vt -13.240000 3.285000
vt -13.240000 3.035000
vn 1.000000 0.000000 0.000000
vn 1.000000 0.000000 0.000000
vn 1.000000 0.000000 0.000000
vn 1.000000 0.000000 0.000000
f 133/133/133 134/134/134 135/135/135
f 133/133/133 135/135/135 136/136/136
v -9.240000 3.035000 -6.220000
v -7.460000 3.035000 -6.220000
v -7.460000 3.035000 -5.780000
v -9.240000 3.035000 -5.780000
vt -15.460000 3.035000
vt -13.680000 3.035000
vt -13.240000 3.035000
vt -15.020000 3.035000
vn 0.000000 -1.000000 0.000000
vn 0.000000 -1.000000 0.000000
vn 0.000000 -1.000000 0.000000
vn 0.000000 -1.000000 0.000000
f 137/137/137 138/138/138 139/139/139
f 137/137/137 139/139/139 140/140/140
v -9.240000 3.285000 -6.220000
v -9.240000 3.285000 -5.780000
v -7.460000 3.285000 -5.780000
v -7.460000 3.285000 -6.220000
vt -15.460000 3.285000
vt -15.020000 3.285000
vt -13.240000 3.285000
vt -13.680000 3.285000
vn 0.000000 1.000000 0.000000
vn 0.000000 1.000000 0.000000
vn 0.000000 1.000000 0.000000
vn 0.000000 1.000000 0.000000
f 141/141/141 142/142/142 143/143/143
f 141/141/141 143/143/143 144/144/144
v -9.100000 3.195962 0.045962
v -9.100000 3.215000 -0.000000
v -9.100000 3.195962 -0.045962
v -9.100000 3.150000 -0.065000
v -9.100000 3.104038 -0.045962
v -9.100000 3.085000 0.000000
v -9.100000 3.104038 0.045962
v -9.100000 3.150000 0.065000
vt -9.054038 3.195962
vt -9.100000 3.215000
vt -9.145962 3.195962
vt -9.165000 3.150000
vt -9.145962 3.104038
vt -9.100000 3.085000
vt -9.054038 3.104038
vt -9.035000 3.150000
vn -1.000000 0.000000 0.000000
vn -1.000000 0.000000 0.000000
vn -1.000000 0.000000 0.000000
vn -1.000000 0.000000 0.000000
vn -1.000000 0.000000 0.000000
vn -1.000000 0.000000 0.000000
vn -1.000000 0.000000 0.000000
vn -1.000000 0.000000 0.000000
f 145/145/145 146/146/146 147/147/147
f 145/145/145 147/147/147 148/148/148
f 145/145/145 148/148/148 149/149/149
f 145/145/145 149/149/149 150/150/150
f 145/145/145 150/150/150 151/151/151
f 145/145/145 151/151/151 152/152/152
v -7.900000 3.150000 0.065000
v -7.900000 3.104038 0.045962
v -7.900000 3.085000 0.000000
v -7.900000 3.104038 -0.045962
v -7.900000 3.150000 -0.065000
v -7.900000 3.195962 -0.045962
v -7.900000 3.215000 -0.000000
v -7.900000 3.195962 0.045962
vt -7.835000 3.150000
vt -7.854038 3.104038
vt -7.900000 3.085000
vt -7.945962 3.104038
vt -7.965000 3.150000
vt -7.945962 3.195962
vt -7.900000 3.215000
vt -7.854038 3.195962
vn 1.000000 0.000000 0.000000
vn 1.000000 0.000000 0.000000
vn 1.000000 0.000000 0.000000
vn 1.000000 0.000000 0.000000
vn 1.000000 0.000000 0.000000
vn 1.000000 0.000000 0.000000
vn 1.000000 0.000000 0.000000
vn 1.000000 0.000000 0.000000
f 153/153/153 154/154/154 155/155/155
f 153/153/153 155/155/155 156/156/156
f 153/153/153 156/156/156 157/157/157
f 153/153/153 157/157/157 158/158/158
f 153/153/153 158/158/158 159/159/159
f 153/153/153 159/159/159 160/160/160
v -9.100000 3.150000 0.065000
v -9.100000 3.104038 0.045962
v -7.900000 3.104038 0.045962
v -7.900000 3.150000 0.065000
vt -9.035000 3.150000
vt -9.054038 3.104038
vt -7.854038 3.104038
vt -7.835000 3.150000
vn 0.000000 -0.382683 0.923880
vn 0.000000 -0.382683 0.923880
vn 0.000000 -0.382683 0.923880
vn 0.000000 -0.382683 0.923880
f 161/161/161 162/162/162 163/163/163
f 161/161/161 163/163/163 164/164/164
v -9.100000 3.104038 0.045962
v -9.100000 3.085000 0.000000
v -7.900000 3.085000 0.000000
v -7.900000 3.104038 0.045962
vt -9.054038 3.104038
vt -9.100000 3.085000
vt -7.900000 3.085000
vt -7.854038 3.104038
vn 0.000000 -0.923880 0.382683
vn 0.000000 -0.923880 0.382683
vn 0.000000 -0.923880 0.382683
vn 0.000000 -0.923880 0.382683
f 165/165/165 166/166/166 167/167/167
f 165/165/165 167/167/167 168/168/168
v -9.100000 3.085000 0.000000
v -9.100000 3.104038 -0.045962
v -7.900000 3.104038 -0.045962
v -7.900000 3.085000 0.000000
vt -9.100000 3.085000
vt -9.145962 3.104038
vt -7.945962 3.104038
vt -7.900000 3.085000
vn 0.000000 -0.923880 -0.382683
vn 0.000000 -0.923880 -0.382683
vn 0.000000 -0.923880 -0.382683
vn 0.000000 -0.923880 -0.382683
f 169/169/169 170/170/170 171/171/171
f 169/169/169 171/171/171 172/172/172
v -9.100000 3.104038 -0.045962
v -9.100000 3.150000 -0.065000
v -7.900000 3.150000 -0.065000
v -7.900000 3.104038 -0.045962
vt -9.145962 3.104038
vt -9.165000 3.150000
vt -7.965000 3.150000
vt -7.945962 3.104038
vn 0.000000 -0.382683 -0.923880
vn 0.000000 -0.382683 -0.923880
vn 0.000000 -0.382683 -0.923880
vn 0.000000 -0.382683 -0.923880
f 173/173/173 174/174/174 175/175/175
f 173/173/173 175/175/175 176/176/176
v -9.100000 3.150000 -0.065000
v -9.100000 3.195962 -0.045962
v -7.900000 3.195962 -0.045962
v -7.900000 3.150000 -0.065000
vt -9.165000 3.150000
vt -9.145962 3.195962
vt -7.945962 3.195962
vt -7.965000 3.150000
vn 0.000000 0.382683 -0.923880
vn 0.000000 0.382683 -0.923880
vn 0.000000 0.382683 -0.923880
vn 0.000000 0.382683 -0.923880
f 177/177/177 178/178/178 179/179/179
f 177/177/177 179/179/179 180/180/180
v -9.100000 3.195962 -0.045962
v -9.100000 3.215000 -0.000000
v -7.900000 3.215000 -0.000000
v -7.900000 3.195962 -0.045962
vt -9.145962 3.195962
vt -9.100000 3.215000
vt -7.900000 3.215000
vt -7.945962 3.195962
vn 0.000000 0.923880 -0.382683
vn 0.000000 0.923880 -0.382683
vn 0.000000 0.923880 -0.382683
vn 0.000000 0.923880 -0.382683
f 181/181/181 182/182/182 183/183/183
f 181/181/181 183/183/183 184/184/184
v -9.100000 3.215000 -0.000000
v -9.100000 3.195962 0.045962
v -7.900000 3.195962 0.045962
v -7.900000 3.215000 -0.000000
vt -9.100000 3.215000
vt -9.054038 3.195962
vt -7.854038 3.195962
vt -7.900000 3.215000
vn 0.000000 0.923880 0.382683
vn 0.000000 0.923880 0.382683
vn 0.000000 0.923880 0.382683
vn 0.000000 0.923880 0.382683
f 185/185/185 186/186/186 187/187/187
f 185/185/185 187/187/187 188/188/188
v -9.100000 3.195962 0.045962
v -9.100000 3.150000 0.065000
v -7.900000 3.150000 0.065000
v -7.900000 3.195962 0.045962
vt -9.054038 3.195962
vt -9.035000 3.150000
vt -7.835000 3.150000
vt -7.854038 3.195962
vn 0.000000 0.382683 0.923880
vn 0.000000 0.382683 0.923880
vn 0.000000 0.382683 0.923880
vn 0.000000 0.382683 0.923880
f 189/189/189 190/190/190 191/191/191
f 189/189/189 191/191/191 192/192/192
v -9.240000 3.035000 -0.220000
v -9.240000 3.285000 -0.220000
v -7.460000 3.285000 -0.220000
v -7.460000 3.035000 -0.220000
vt -9.460000 3.035000
vt -9.460000 3.285000
vt -7.680000 3.285000
vt -7.680000 3.035000
vn 0.000000 0.000000 -1.000000
vn 0.000000 0.000000 -1.000000
vn 0.000000 0.000000 -1.000000
vn 0.000000 0.000000 -1.000000
f 193/193/193 194/194/194 195/195/195
f 193/193/193 195/195/195 196/196/196
v -9.240000 3.035000 0.220000
v -7.460000 3.035000 0.220000
v -7.460000 3.285000 0.220000
v -9.240000 3.285000 0.220000
vt -9.020000 3.035000
vt -7.240000 3.035000
vt -7.240000 3.285000
vt -9.020000 3.285000
vn 0.000000 0.000000 1.000000
vn 0.000000 0.000000 1.000000
vn 0.000000 0.000000 1.000000
vn 0.000000 0.000000 1.000000
f 197/197/197 198/198/198 199/199/199
f 197/197/197 199/199/199 200/200/200
v -9.240000 3.035000 -0.220000
v -9.240000 3.035000 0.220000
v -9.240000 3.285000 0.220000
v -9.240000 3.285000 -0.220000
vt -9.460000 3.035000
vt -9.020000 3.035000
vt -9.020000 3.285000
vt -9.460000 3.285000
vn -1.000000 0.000000 0.000000
vn -1.000000 0.000000 0.000000
vn -1.000000 0.000000 0.000000
vn -1.000000 0.000000 0.000000
f 201/201/201 202/202/202 203/203/203
f 201/201/201 203/203/203 204/204/204
v -7.460000 3.035000 -0.220000
v -7.460000 3.285000 -0.220000
v -7.460000 3.285000 0.220000
v -7.460000 3.035000 0.220000
vt -7.680000 3.035000
vt -7.680000 3.285000
vt -7.240000 3.285000
vt -7.240000 3.035000
vn 1.000000 0.000000 0.000000
vn 1.000000 0.000000 0.000000
vn 1.000000 0.000000 0.000000
vn 1.000000 0.000000 0.000000
f 205/205/205 206/206/206 207/207/207
f 205/205/205 207/207/207 208/208/208
v -9.240000 3.035000 -0.220000
v -7.460000 3.035000 -0.220000
v -7.460000 3.035000 0.220000
v -9.240000 3.035000 0.220000
vt -9.460000 3.035000
vt -7.680000 3.035000
vt -7.240000 3.035000
vt -9.020000 3.035000
vn 0.000000 -1.000000 0.000000
vn 0.000000 -1.000000 0.000000
vn 0.000000 -1.000000 0.000000
vn 0.000000 -1.000000 0.000000
f 209/209/209 210/210/210 211/211/211
f 209/209/209 211/211/211 212/212/212
v -9.240000 3.285000 -0.220000
v -9.240000 3.285000 0.220000
v -7.460000 3.285000 0.220000
v -7.460000 3.285000 -0.220000
vt -9.460000 3.285000
vt -9.020000 3.285000
vt -7.240000 3.285000
vt -7.680000 3.285000
vn 0.000000 1.000000 0.000000
vn 0.000000 1.000000 0.000000
vn 0.000000 1.000000 0.000000
vn 0.000000 1.000000 0.000000
f 213/213/213 214/214/214 215/215/215
f 213/213/213 215/215/215 216/216/216
v -9.100000 3.195962 6.045962
v -9.100000 3.215000 6.000000
v -9.100000 3.195962 5.954038
v -9.100000 3.150000 5.935000
v -9.100000 3.104038 5.954038
v -9.100000 3.085000 6.000000
v -9.100000 3.104038 6.045962
v -9.100000 3.150000 6.065000
vt -3.054038 3.195962
vt -3.100000 3.215000
vt -3.145962 3.195962
vt -3.165000 3.150000
vt -3.145962 3.104038
vt -3.100000 3.085000
vt -3.054038 3.104038
vt -3.035000 3.150000
vn -1.000000 0.000000 0.000000
vn -1.000000 0.000000 0.000000
vn -1.000000 0.000000 0.000000
vn -1.000000 0.000000 0.000000
vn -1.000000 0.000000 0.000000
vn -1.000000 0.000000 0.000000
vn -1.000000 0.000000 0.000000
vn -1.000000 0.000000 0.000000
f 217/217/217 218/218/218 219/219/219
f 217/217/217 219/219/219 220/220/220
f 217/217/217 220/220/220 221/221/221
f 217/217/217 221/221/221 222/222/222
f 217/217/217 222/222/222 223/223/223
f 217/217/217 223/223/223 224/224/224
v -7.900000 3.150000 6.065000
v -7.900000 3.104038 6.045962
v -7.900000 3.085000 6.000000
v -7.900000 3.104038 5.954038
v -7.900000 3.150000 5.935000
v -7.900000 3.195962 5.954038
v -7.900000 3.215000 6.000000
v -7.900000 3.195962 6.045962
vt -1.835000 3.150000
vt -1.854038 3.104038
vt -1.900000 3.085000
vt -1.945962 3.104038
vt -1.965000 3.150000
vt -1.945962 3.195962
vt -1.900000 3.215000
vt -1.854038 3.195962
vn 1.000000 0.000000 0.000000
vn 1.000000 0.000000 0.000000
vn 1.000000 0.000000 0.000000
vn 1.000000 0.000000 0.000000
vn 1.000000 0.000000 0.000000
vn 1.000000 0.000000 0.000000
vn 1.000000 0.000000 0.000000
vn 1.000000 0.000000 0.000000
f 225/225/225 226/226/226 227/227/227
f 225/225/225 227/227/227 228/228/228
f 225/225/225 228/228/228 229/229/229
f 225/225/225 229/229/229 230/230/230
f 225/225/225 230/230/230 231/231/231
f 225/225/225 231/231/231 232/232/232
v -9.100000 3.150000 6.065000
v -9.100000 3.104038 6.045962
v -7.900000 3.104038 6.045962
v -7.900000 3.150000 6.065000
vt -3.035000 3.150000
vt -3.054038 3.104038
vt -1.854038 3.104038
vt -1.835000 3.150000
vn 0.000000 -0.382683 0.923880
vn 0.000000 -0.382683 0.923880
vn 0.000000 -0.382683 0.923880
vn 0.000000 -0.382683 0.923880
f 233/233/233 234/234/234 235/235/235
f 233/233/233 235/235/235 236/236/236
v -9.100000 3.104038 6.045962
v -9.100000 3.085000 6.000000
v -7.900000 3.085000 6.000000
v -7.900000 3.104038 6.045962
vt -3.054038 3.104038
vt -3.100000 3.085000
vt -1.900000 3.085000
vt -1.854038 3.104038
vn 0.000000 -0.923880 0.382683
vn 0.000000 -0.923880 0.382683
vn 0.000000 -0.923880 0.382683
vn 0.000000 -0.923880 0.382683
f 237/237/237 238/238/238 239/239/239
f 237/237/237 239/239/239 240/240/240
v -9.100000 3.085000 6.000000
v -9.100000 3.104038 5.954038
v -7.900000 3.104038 5.954038
v -7.900000 3.085000 6.000000
vt -3.100000 3.085000
vt -3.145962 3.104038
vt -1.945962 3.104038
vt -1.900000 3.085000
vn 0.000000 -0.923880 -0.382683
vn 0.000000 -0.923880 -0.382683
vn 0.000000 -0.923880 -0.382683
vn 0.000000 -0.923880 -0.382683
f 241/241/241 242/242/242 243/243/243
f 241/241/241 243/243/243 244/244/244
v -9.100000 3.104038 5.954038
v -9.100000 3.150000 5.935000
v -7.900000 3.150000 5.935000
v -7.900000 3.104038 5.954038
vt -3.145962 3.104038
vt -3.165000 3.150000
vt -1.965000 3.150000
vt -1.945962 3.104038
vn 0.000000 -0.382683 -0.923880
vn 0.000000 -0.382683 -0.923880
vn 0.000000 -0.382683 -0.923880
vn 0.000000 -0.382683 -0.923880
f 245/245/245 246/246/246 247/247/247
f 245/245/245 247/247/247 248/248/248
v -9.100000 3.150000 5.935000
v -9.100000 3.195962 5.954038
v -7.900000 3.195962 5.954038
v -7.900000 3.150000 5.935000
vt -3.165000 3.150000
vt -3.145962 3.195962
vt -1.945962 3.195962
vt -1.965000 3.150000
vn 0.000000 0.382683 -0.923880
vn 0.000000 0.382683 -0.923880
vn 0.000000 0.382683 -0.923880
vn 0.000000 0.382683 -0.923880
f 249/249/249 250/250/250 251/251/251
f 249/249/249 251/251/251 252/252/252
v -9.100000 3.195962 5.954038
v -9.100000 3.215000 6.000000
v -7.900000 3.215000 6.000000
v -7.900000 3.195962 5.954038
vt -3.145962 3.195962
vt -3.100000 3.215000
vt -1.900000 3.215000
vt -1.945962 3.195962
vn 0.000000 0.923880 -0.382683
vn 0.000000 0.923880 -0.382683
vn 0.000000 0.923880 -0.382683
vn 0.000000 0.923880 -0.382683
f 253/253/253 254/254/254 255/255/255
f 253/253/253 255/255/255 256/256/256
v -9.100000 3.215000 6.000000
v -9.100000 3.195962 6.045962
v -7.900000 3.195962 6.045962
v -7.900000 3.215000 6.000000
vt -3.100000 3.215000
vt -3.054038 3.195962
vt -1.854038 3.195962
vt -1.900000 3.215000
vn 0.000000 0.923880 0.382683
vn 0.000000 0.923880 0.382683
vn 0.000000 0.923880 0.382683
vn 0.000000 0.923880 0.382683
f 257/257/257 258/258/258 259/259/259
f 257/257/257 259/259/259 260/260/260
v -9.100000 3.195962 6.045962
v -9.100000 3.150000 6.065000
v -7.900000 3.150000 6.065000
v -7.900000 3.195962 6.045962
vt -3.054038 3.195962
vt -3.035000 3.150000
vt -1.835000 3.150000
vt -1.854038 3.195962
vn 0.000000 0.382683 0.923880
vn 0.000000 0.382683 0.923880
vn 0.000000 0.382683 0.923880
vn 0.000000 0.382683 0.923880
f 261/261/261 262/262/262 263/263/263
f 261/261/261 263/263/263 264/264/264
v -9.240000 3.035000 5.780000
v -9.240000 3.285000 5.780000
v -7.460000 3.285000 5.780000
v -7.460000 3.035000 5.780000
vt -3.460000 3.035000
vt -3.460000 3.285000
vt -1.680000 3.285000
vt -1.680000 3.035000
vn 0.000000 0.000000 -1.000000
vn 0.000000 0.000000 -1.000000
vn 0.000000 0.000000 -1.000000
vn 0.000000 0.000000 -1.000000
f 265/265/265 266/266/266 267/267/267
f 265/265/265 267/267/267 268/268/268
v -9.240000 3.035000 6.220000
v -7.460000 3.035000 6.220000
v -7.460000 3.285000 6.220000
v -9.240000 3.285000 6.220000
vt -3.020000 3.035000
vt -1.240000 3.035000
vt -1.240000 3.285000
vt -3.020000 3.285000
vn 0.000000 0.000000 1.000000
vn 0.000000 0.000000 1.000000
vn 0.000000 0.000000 1.000000
vn 0.000000 0.000000 1.000000
f 269/269/269 270/270/270 271/271/271
f 269/269/269 271/271/271 272/272/272
v -9.240000 3.035000 5.780000
v -9.240000 3.035000 6.220000
v -9.240000 3.285000 6.220000
v -9.240000 3.285000 5.780000
vt -3.460000 3.035000
vt -3.020000 3.035000
vt -3.020000 3.285000
vt -3.460000 3.285000
vn -1.000000 0.000000 0.000000
vn -1.000000 0.000000 0.000000
vn -1.000000 0.000000 0.000000
vn -1.000000 0.000000 0.000000
f 273/273/273 274/274/274 275/275/275
f 273/273/273 275/275/275 276/276/276
v -7.460000 3.035000 5.780000
v -7.460000 3.285000 5.780000
v -7.460000 3.285000 6.220000
v -7.460000 3.035000 6.220000
vt -1.680000 3.035000
vt -1.680000 3.285000
vt -1.240000 3.285000
vt -1.240000 3.035000
vn 1.000000 0.000000 0.000000
vn 1.000000 0.000000 0.000000
vn 1.000000 0.000000 0.000000
vn 1.000000 0.000000 0.000000
f 277/277/277 278/278/278 279/279/279
f 277/277/277 279/279/279 280/280/280
v -9.240000 3.035000 5.780000
v -7.460000 3.035000 5.780000
v -7.460000 3.035000 6.220000
v -9.240000 3.035000 6.220000
vt -3.460000 3.035000
vt -1.680000 3.035000
vt -1.240000 3.035000
vt -3.020000 3.035000
vn 0.000000 -1.000000 0.000000
vn 0.000000 -1.000000 0.000000
vn 0.000000 -1.000000 0.000000
vn 0.000000 -1.000000 0.000000
f 281/281/281 282/282/282 283/283/283
f 281/281/281 283/283/283 284/284/284
v -9.240000 3.285000 5.780000
v -9.240000 3.285000 6.220000
v -7.460000 3.285000 6.220000
v -7.460000 3.285000 5.780000
vt -3.460000 3.285000
vt -3.020000 3.285000
vt -1.240000 3.285000
vt -1.680000 3.285000
vn 0.000000 1.000000 0.000000
vn 0.000000 1.000000 0.000000
vn 0.000000 1.000000 0.000000
vn 0.000000 1.000000 0.000000
f 285/285/285 286/286/286 287/287/287
f 285/285/285 287/287/287 288/288/288
v -9.100000 3.195962 12.045962
v -9.100000 3.215000 12.000000
v -9.100000 3.195962 11.954038
v -9.100000 3.150000 11.935000
v -9.100000 3.104038 11.954038
v -9.100000 3.085000 12.000000
v -9.100000 3.104038 12.045962
v -9.100000 3.150000 12.065000
vt 2.945962 3.195962
vt 2.900000 3.215000
vt 2.854038 3.195962
vt 2.835000 3.150000
vt 2.854038 3.104038
vt 2.900000 3.085000
vt 2.945962 3.104038
vt 2.965000 3.150000
vn -1.000000 0.000000 0.000000
vn -1.000000 0.000000 0.000000
vn -1.000000 0.000000 0.000000
vn -1.000000 0.000000 0.000000
vn -1.000000 0.000000 0.000000
vn -1.000000 0.000000 0.000000
vn -1.000000 0.000000 0.000000
vn -1.000000 0.000000 0.000000
f 289/289/289 290/290/290 291/291/291
f 289/289/289 291/291/291 292/292/292
f 289/289/289 292/292/292 293/293/293
f 289/289/289 293/293/293 294/294/294
f 289/289/289 294/294/294 295/295/295
f 289/289/289 295/295/295 296/296/296
v -7.900000 3.150000 12.065000
v -7.900000 3.104038 12.045962
v -7.900000 3.085000 12.000000
v -7.900000 3.104038 11.954038
v -7.900000 3.150000 11.935000
v -7.900000 3.195962 11.954038
v -7.900000 3.215000 12.000000
v -7.900000 3.195962 12.045962
vt 4.165000 3.150000
vt 4.145962 3.104038
vt 4.100000 3.085000
vt 4.054038 3.104038
vt 4.035000 3.150000
vt 4.054038 3.195962
vt 4.100000 3.215000
vt 4.145962 3.195962
vn 1.000000 0.000000 0.000000
vn 1.000000 0.000000 0.000000
vn 1.000000 0.000000 0.000000
vn 1.000000 0.000000 0.000000
vn 1.000000 0.000000 0.000000
vn 1.000000 0.000000 0.000000
vn 1.000000 0.000000 0.000000
vn 1.000000 0.000000 0.000000
f 297/297/297 298/298/298 299/299/299
f 297/297/297 299/299/299 300/300/300
f 297/297/297 300/300/300 301/301/301
f 297/297/297 301/301/301 302/302/302
f 297/297/297 302/302/302 303/303/303
f 297/297/297 303/303/303 304/304/304
v -9.100000 3.150000 12.065000
v -9.100000 3.104038 12.045962
v -7.900000 3.104038 12.045962
v -7.900000 3.150000 12.065000
vt 2.965000 3.150000
vt 2.945962 3.104038
vt 4.145962 3.104038
vt 4.165000 3.150000
vn 0.000000 -0.382683 0.923880
vn 0.000000 -0.382683 0.923880
vn 0.000000 -0.382683 0.923880
vn 0.000000 -0.382683 0.923880
f 305/305/305 306/306/306 307/307/307
f 305/305/305 307/307/307 308/308/308
v -9.100000 3.104038 12.045962
v -9.100000 3.085000 12.000000
v -7.900000 3.085000 12.000000
v -7.900000 3.104038 12.045962
vt 2.945962 3.104038
vt 2.900000 3.085000
vt 4.100000 3.085000
vt 4.145962 3.104038
vn 0.000000 -0.923880 0.382683
vn 0.000000 -0.923880 0.382683
vn 0.000000 -0.923880 0.382683
vn 0.000000 -0.923880 0.382683
f 309/309/309 310/310/310 311/311/311
f 309/309/309 311/311/311 312/312/312
v -9.100000 3.085000 12.000000
v -9.100000 3.104038 11.954038
v -7.900000 3.104038 11.954038
v -7.900000 3.085000 12.000000
vt 2.900000 3.085000
vt 2.854038 3.104038
vt 4.054038 3.104038
vt 4.100000 3.085000
vn 0.000000 -0.923880 -0.382683
vn 0.000000 -0.923880 -0.382683
vn 0.000000 -0.923880 -0.382683
vn 0.000000 -0.923880 -0.382683
f 313/313/313 314/314/314 315/315/315
f 313/313/313 315/315/315 316/316/316
v -9.100000 3.104038 11.954038
v -9.100000 3.150000 11.935000
v -7.900000 3.150000 11.935000
v -7.900000 3.104038 11.954038
vt 2.854038 3.104038
vt 2.835000 3.150000
vt 4.035000 3.150000
vt 4.054038 3.104038
vn 0.000000 -0.382683 -0.923880
vn 0.000000 -0.382683 -0.923880
vn 0.000000 -0.382683 -0.923880
vn 0.000000 -0.382683 -0.923880
f 317/317/317 318/318/318 319/319/319
f 317/317/317 319/319/319 320/320/320
v -9.100000 3.150000 11.935000
v -9.100000 3.195962 11.954038
v -7.900000 3.195962 11.954038
v -7.900000 3.150000 11.935000
vt 2.835000 3.150000
vt 2.854038 3.195962
vt 4.054038 3.195962
vt 4.035000 3.150000
vn 0.000000 0.382683 -0.923880
vn 0.000000 0.382683 -0.923880
vn 0.000000 0.382683 -0.923880
vn 0.000000 0.382683 -0.923880
f 321/321/321 322/322/322 323/323/323
f 321/321/321 323/323/323 324/324/324
v -9.100000 3.195962 11.954038
v -9.100000 3.215000 12.000000
v -7.900000 3.215000 12.000000
v -7.900000 3.195962 11.954038
vt 2.854038 3.195962
vt 2.900000 3.215000
vt 4.100000 3.215000
vt 4.054038 3.195962
vn 0.000000 0.923880 -0.382683
vn 0.000000 0.923880 -0.382683
vn 0.000000 0.923880 -0.382683
vn 0.000000 0.923880 -0.382683
f 325/325/325 326/326/326 327/327/327
f 325/325/325 327/327/327 328/328/328
v -9.100000 3.215000 12.000000
v -9.100000 3.195962 12.045962
v -7.900000 3.195962 12.045962
v -7.900000 3.215000 12.000000
vt 2.900000 3.215000
vt 2.945962 3.195962
vt 4.145962 3.195962
vt 4.100000 3.215000
vn 0.000000 0.923880 0.382683
vn 0.000000 0.923880 0.382683
vn 0.000000 0.923880 0.382683
vn 0.000000 0.923880 0.382683
f 329/329/329 330/330/330 331/331/331
f 329/329/329 331/331/331 332/332/332
v -9.100000 3.195962 12.045962
v -9.100000 3.150000 12.065000
v -7.900000 3.150000 12.065000
v -7.900000 3.195962 12.045962
vt 2.945962 3.195962
vt 2.965000 3.150000
vt 4.165000 3.150000
vt 4.145962 3.195962
vn 0.000000 0.382683 0.923880
vn 0.000000 0.382683 0.923880
vn 0.000000 0.382683 0.923880
vn 0.000000 0.382683 0.923880
f 333/333/333 334/334/334 335/335/335
f 333/333/333 335/335/335 336/336/336
v -9.240000 3.035000 11.780000
v -9.240000 3.285000 11.780000
v -7.460000 3.285000 11.780000
v -7.460000 3.035000 11.780000
vt 2.540000 3.035000
vt 2.540000 3.285000
vt 4.320000 3.285000
vt 4.320000 3.035000
vn 0.000000 0.000000 -1.000000
vn 0.000000 0.000000 -1.000000
vn 0.000000 0.000000 -1.000000
vn 0.000000 0.000000 -1.000000
f 337/337/337 338/338/338 339/339/339
f 337/337/337 339/339/339 340/340/340
v -9.240000 3.035000 12.220000
v -7.460000 3.035000 12.220000
v -7.460000 3.285000 12.220000
v -9.240000 3.285000 12.220000
vt 2.980000 3.035000
vt 4.760000 3.035000
vt 4.760000 3.285000
vt 2.980000 3.285000
vn 0.000000 0.000000 1.000000
vn 0.000000 0.000000 1.000000
vn 0.000000 0.000000 1.000000
vn 0.000000 0.000000 1.000000
f 341/341/341 342/342/342 343/343/343
f 341/341/341 343/343/343 344/344/344
v -9.240000 3.035000 11.780000
v -9.240000 3.035000 12.220000
v -9.240000 3.285000 12.220000
v -9.240000 3.285000 11.780000
vt 2.540000 3.035000
vt 2.980000 3.035000
vt 2.980000 3.285000
vt 2.540000 3.285000
vn -1.000000 0.000000 0.000000
vn -1.000000 0.000000 0.000000
vn -1.000000 0.000000 0.000000
vn -1.000000 0.000000 0.000000
f 345/345/345 346/346/346 347/347/347
f 345/345/345 347/347/347 348/348/348
v -7.460000 3.035000 11.780000
v -7.460000 3.285000 11.780000
v -7.460000 3.285000 12.220000
v -7.460000 3.035000 12.220000
vt 4.320000 3.035000
vt 4.320000 3.285000
vt 4.760000 3.285000
vt 4.760000 3.035000
vn 1.000000 0.000000 0.000000
vn 1.000000 0.000000 0.000000
vn 1.000000 0.000000 0.000000
vn 1.000000 0.000000 0.000000
f 349/349/349 350/350/350 351/351/351
f 349/349/349 351/351/351 352/352/352
v -9.240000 3.035000 11.780000
v -7.460000 3.035000 11.780000
v -7.460000 3.035000 12.220000
v -9.240000 3.035000 12.220000
vt 2.540000 3.035000
vt 4.320000 3.035000
vt 4.760000 3.035000
vt 2.980000 3.035000
vn 0.000000 -1.000000 0.000000
vn 0.000000 -1.000000 0.000000
vn 0.000000 -1.000000 0.000000
vn 0.000000 -1.000000 0.000000
f 353/353/353 354/354/354 355/355/355
f 353/353/353 355/355/355 356/356/356
v -9.240000 3.285000 11.780000
v -9.240000 3.285000 12.220000
v -7.460000 3.285000 12.220000
v -7.460000 3.285000 11.780000
vt 2.540000 3.285000
vt 2.980000 3.285000
vt 4.760000 3.285000
vt 4.320000 3.285000
vn 0.000000 1.000000 0.000000
vn 0.000000 1.000000 0.000000
vn 0.000000 1.000000 0.000000
vn 0.000000 1.000000 0.000000
f 357/357/357 358/358/358 359/359/359
f 357/357/357 359/359/359 360/360/360
v -9.510000 3.700000 -18.000000
v -9.510000 3.900000 -18.000000
v -9.390000 3.900000 -18.000000
v -9.390000 3.700000 -18.000000
vt -27.510000 3.700000
vt -27.510000 3.900000
vt -27.390000 3.900000
vt -27.390000 3.700000
vn 0.000000 0.000000 -1.000000
vn 0.000000 0.000000 -1.000000
vn 0.000000 0.000000 -1.000000
vn 0.000000 0.000000 -1.000000
f 361/361/361 362/362/362 363/363/363
f 361/361/361 363/363/363 364/364/364
v -9.510000 3.700000 -14.000000
v -9.390000 3.700000 -14.000000
v -9.390000 3.900000 -14.000000
v -9.510000 3.900000 -14.000000
vt -23.510000 3.700000
vt -23.390000 3.700000
vt -23.390000 3.900000
vt -23.510000 3.900000
vn 0.000000 0.000000 1.000000
vn 0.000000 0.000000 1.000000
vn 0.000000 0.000000 1.000000
vn 0.000000 0.000000 1.000000
f 365/365/365 366/366/366 367/367/367
f 365/365/365 367/367/367 368/368/368
v -9.510000 3.700000 -18.000000
v -9.510000 3.700000 -14.000000
v -9.510000 3.900000 -14.000000
v -9.510000 3.900000 -18.000000
vt -27.510000 3.700000
vt -23.510000 3.700000
vt -23.510000 3.900000
vt -27.510000 3.900000
vn -1.000000 0.000000 0.000000
vn -1.000000 0.000000 0.000000
vn -1.000000 0.000000 0.000000
vn -1.000000 0.000000 0.000000
f 369/369/369 370/370/370 371/371/371
f 369/369/369 371/371/371 372/372/372
v -9.390000 3.700000 -18.000000
v -9.390000 3.900000 -18.000000
v -9.390000 3.900000 -14.000000
v -9.390000 3.700000 -14.000000
vt -27.390000 3.700000
vt -27.390000 3.900000
vt -23.390000 3.900000
vt -23.390000 3.700000
vn 1.000000 0.000000 0.000000
vn 1.000000 0.000000 0.000000
vn 1.000000 0.000000 0.000000
vn 1.000000 0.000000 0.000000
f 373/373/373 374/374/374 375/375/375
f 373/373/373 375/375/375 376/376/376
v -9.510000 3.700000 -18.000000
v -9.390000 3.700000 -18.000000
v -9.390000 3.700000 -14.000000
v -9.510000 3.700000 -14.000000
vt -27.510000 3.700000
vt -27.390000 3.700000
vt -23.390000 3.700000
vt -23.510000 3.700000
vn 0.000000 -1.000000 0.000000
vn 0.000000 -1.000000 0.000000
vn 0.000000 -1.000000 0.000000
vn 0.000000 -1.000000 0.000000
f 377/377/377 378/378/378 379/379/379
f 377/377/377 379/379/379 380/380/380
v -9.510000 3.900000 -18.000000
v -9.510000 3.900000 -14.000000
v -9.390000 3.900000 -14.000000
v -9.390000 3.900000 -18.000000
vt -27.510000 3.900000
vt -23.510000 3.900000
vt -23.390000 3.900000
vt -27.390000 3.900000
vn 0.000000 1.000000 0.000000
vn 0.000000 1.000000 0.000000
vn 0.000000 1.000000 0.000000
vn 0.000000 1.000000 0.000000
f 381/381/381 382/382/382 383/383/383
f 381/381/381 383/383/383 384/384/384
v -7.260000 3.700000 -18.000000
v -7.260000 3.900000 -18.000000
v -7.140000 3.900000 -18.000000
v -7.140000 3.700000 -18.000000
vt -25.260000 3.700000
vt -25.260000 3.900000
vt -25.140000 3.900000
vt -25.140000 3.700000
vn 0.000000 0.000000 -1.000000
vn 0.000000 0.000000 -1.000000
vn 0.000000 0.000000 -1.000000
vn 0.000000 0.000000 -1.000000
f 385/385/385 386/386/386 387/387/387
f 385/385/385 387/387/387 388/388/388
v -7.260000 3.700000 -14.000000
v -7.140000 3.700000 -14.000000
v -7.140000 3.900000 -14.000000
v -7.260000 3.900000 -14.000000
vt -21.260000 3.700000
vt -21.140000 3.700000
vt -21.140000 3.900000
vt -21.260000 3.900000
vn 0.000000 0.000000 1.000000
vn 0.000000 0.000000 1.000000
vn 0.000000 0.000000 1.000000
vn 0.000000 0.000000 1.000000
f 389/389/389 390/390/390 391/391/391
f 389/389/389 391/391/391 392/392/392
v -7.260000 3.700000 -18.000000
v -7.260000 3.700000 -14.000000
v -7.260000 3.900000 -14.000000
v -7.260000 3.900000 -18.000000
vt -25.260000 3.700000
vt -21.260000 3.700000
vt -21.260000 3.900000
vt -25.260000 3.900000
vn -1.000000 0.000000 0.000000
vn -1.000000 0.000000 0.000000
vn -1.000000 0.000000 0.000000
vn -1.000000 0.000000 0.000000
f 393/393/393 394/394/394 395/395/395
f 393/393/393 395/395/395 396/396/396
v -7.140000 3.700000 -18.000000
v -7.140000 3.900000 -18.000000
v -7.140000 3.900000 -14.000000
v -7.140000 3.700000 -14.000000
vt -25.140000 3.700000
vt -25.140000 3.900000
vt -21.140000 3.900000
vt -21.140000 3.700000
vn 1.000000 0.000000 0.000000
vn 1.000000 0.000000 0.000000
vn 1.000000 0.000000 0.000000
vn 1.000000 0.000000 0.000000
f 397/397/397 398/398/398 399/399/399
f 397/397/397 399/399/399 400/400/400
v -7.260000 3.700000 -18.000000
v -7.140000 3.700000 -18.000000
v -7.140000 3.700000 -14.000000
v -7.260000 3.700000 -14.000000
vt -25.260000 3.700000
vt -25.140000 3.700000
vt -21.140000 3.700000
vt -21.260000 3.700000
vn 0.000000 -1.000000 0.000000
vn 0.000000 -1.000000 0.000000
vn 0.000000 -1.000000 0.000000
vn 0.000000 -1.000000 0.000000
f 401/401/401 402/402/402 403/403/403
f 401/401/401 403/403/403 404/404/404
v -7.260000 3.900000 -18.000000
v -7.260000 3.900000 -14.000000
v -7.140000 3.900000 -14.000000
v -7.140000 3.900000 -18.000000
vt -25.260000 3.900000
vt -21.260000 3.900000
vt -21.140000 3.900000
vt -25.140000 3.900000
vn 0.000000 1.000000 0.000000
vn 0.000000 1.000000 0.000000
vn 0.000000 1.000000 0.000000
vn 0.000000 1.000000 0.000000
f 405/405/405 406/406/406 407/407/407
f 405/405/405 407/407/407 408/408/408
v -9.510000 3.700000 14.000000
v -9.510000 3.900000 14.000000
v -9.390000 3.900000 14.000000
v -9.390000 3.700000 14.000000
vt 4.490000 3.700000
vt 4.490000 3.900000
vt 4.610000 3.900000
vt 4.610000 3.700000
vn 0.000000 0.000000 -1.000000
vn 0.000000 0.000000 -1.000000
vn 0.000000 0.000000 -1.000000
vn 0.000000 0.000000 -1.000000
f 409/409/409 410/410/410 411/411/411
f 409/409/409 411/411/411 412/412/412
v -9.510000 3.700000 18.000000
v -9.390000 3.700000 18.000000
v -9.390000 3.900000 18.000000
v -9.510000 3.900000 18.000000
vt 8.490000 3.700000
vt 8.610000 3.700000
vt 8.610000 3.900000
vt 8.490000 3.900000
vn 0.000000 0.000000 1.000000
vn 0.000000 0.000000 1.000000
vn 0.000000 0.000000 1.000000
vn 0.000000 0.000000 1.000000
f 413/413/413 414/414/414 415/415/415
f 413/413/413 415/415/415 416/416/416
v -9.510000 3.700000 14.000000
v -9.510000 3.700000 18.000000
v -9.510000 3.900000 18.000000
v -9.510000 3.900000 14.000000
vt 4.490000 3.700000
vt 8.490000 3.700000
vt 8.490000 3.900000
vt 4.490000 3.900000
vn -1.000000 0.000000 0.000000
vn -1.000000 0.000000 0.000000
vn -1.000000 0.000000 0.000000
vn -1.000000 0.000000 0.000000
f 417/417/417 418/418/418 419/419/419
f 417/417/417 419/419/419 420/420/420
v -9.390000 3.700000 14.000000
v -9.390000 3.900000 14.000000
v -9.390000 3.900000 18.000000
v -9.390000 3.700000 18.000000
vt 4.610000 3.700000
vt 4.610000 3.900000
vt 8.610000 3.900000
vt 8.610000 3.700000
vn 1.000000 0.000000 0.000000
vn 1.000000 0.000000 0.000000
vn 1.000000 0.000000 0.000000
vn 1.000000 0.000000 0.000000
f 421/421/421 422/422/422 423/423/423
f 421/421/421 423/423/423 424/424/424
v -9.510000 3.700000 14.000000
v -9.390000 3.700000 14.000000
v -9.390000 3.700000 18.000000
v -9.510000 3.700000 18.000000
vt 4.490000 3.700000
vt 4.610000 3.700000
vt 8.610000 3.700000
vt 8.490000 3.700000
vn 0.000000 -1.000000 0.000000
vn 0.000000 -1.000000 0.000000
vn 0.000000 -1.000000 0.000000
vn 0.000000 -1.000000 0.000000
f 425/425/425 426/426/426 427/427/427
f 425/425/425 427/427/427 428/428/428
v -9.510000 3.900000 14.000000
v -9.510000 3.900000 18.000000
v -9.390000 3.900000 18.000000
v -9.390000 3.900000 14.000000
vt 4.490000 3.900000
vt 8.490000 3.900000
vt 8.610000 3.900000
vt 4.610000 3.900000
vn 0.000000 1.000000 0.000000
vn 0.000000 1.000000 0.000000
vn 0.000000 1.000000 0.000000
vn 0.000000 1.000000 0.000000
f 429/429/429 430/430/430 431/431/431
f 429/429/429 431/431/431 432/432/432
v -7.260000 3.700000 14.000000
v -7.260000 3.900000 14.000000
v -7.140000 3.900000 14.000000
v -7.140000 3.700000 14.000000
vt 6.740000 3.700000
vt 6.740000 3.900000
vt 6.860000 3.900000
vt 6.860000 3.700000
vn 0.000000 0.000000 -1.000000
vn 0.000000 0.000000 -1.000000
vn 0.000000 0.000000 -1.000000
vn 0.000000 0.000000 -1.000000
f 433/433/433 434/434/434 435/435/435
f 433/433/433 435/435/435 436/436/436
v -7.260000 3.700000 18.000000
v -7.140000 3.700000 18.000000
v -7.140000 3.900000 18.000000
v -7.260000 3.900000 18.000000
vt 10.740000 3.700000
vt 10.860000 3.700000
vt 10.860000 3.900000
vt 10.740000 3.900000
vn 0.000000 0.000000 1.000000
vn 0.000000 0.000000 1.000000
vn 0.000000 0.000000 1.000000
vn 0.000000 0.000000 1.000000
f 437/437/437 438/438/438 439/439/439
f 437/437/437 439/439/439 440/440/440
v -7.260000 3.700000 14.000000
v -7.260000 3.700000 18.000000
v -7.260000 3.900000 18.000000
v -7.260000 3.900000 14.000000
vt 6.740000 3.700000
vt 10.740000 3.700000
vt 10.740000 3.900000
vt 6.740000 3.900000
vn -1.000000 0.000000 0.000000
vn -1.000000 0.000000 0.000000
vn -1.000000 0.000000 0.000000
vn -1.000000 0.000000 0.000000
f 441/441/441 442/442/442 443/443/443
f 441/441/441 443/443/443 444/444/444
v -7.140000 3.700000 14.000000
v -7.140000 3.900000 14.000000
v -7.140000 3.900000 18.000000
v -7.140000 3.700000 18.000000
vt 6.860000 3.700000
vt 6.860000 3.900000
vt 10.860000 3.900000
vt 10.860000 3.700000
vn 1.000000 0.000000 0.000000
vn 1.000000 0.000000 0.000000
vn 1.000000 0.000000 0.000000
vn 1.000000 0.000000 0.000000
f 445/445/445 446/446/446 447/447/447
f 445/445/445 447/447/447 448/448/448
v -7.260000 3.700000 14.000000
v -7.140000 3.700000 14.000000
v -7.140000 3.700000 18.000000
v -7.260000 3.700000 18.000000
vt 6.740000 3.700000
vt 6.860000 3.700000
vt 10.860000 3.700000
vt 10.740000 3.700000
vn 0.000000 -1.000000 0.000000
vn 0.000000 -1.000000 0.000000
vn 0.000000 -1.000000 0.000000
vn 0.000000 -1.000000 0.000000
f 449/449/449 450/450/450 451/451/451
f 449/449/449 451/451/451 452/452/452
v -7.260000 3.900000 14.000000
v -7.260000 3.900000 18.000000
v -7.140000 3.900000 18.000000
v -7.140000 3.900000 14.000000
vt 6.740000 3.900000
vt 10.740000 3.900000
vt 10.860000 3.900000
vt 6.860000 3.900000
vn 0.000000 1.000000 0.000000
vn 0.000000 1.000000 0.000000
vn 0.000000 1.000000 0.000000
vn 0.000000 1.000000 0.000000
f 453/453/453 454/454/454 455/455/455
f 453/453/453 455/455/455 456/456/456
