# Original Breakwater Station authored geometry
o control_room_glass
v 7.83 1 -6
v 7.83 5.8 -6
v 7.87 5.8 -6
v 7.87 1 -6
vt 0 0
vt 4.8 0
vt 4.8 0.04
vt 0 0.04
vn 0 0 -1
vn 0 0 -1
vn 0 0 -1
vn 0 0 -1
f 1/1/1 2/2/2 3/3/3
f 1/1/1 3/3/3 4/4/4
v 7.83 1 5
v 7.87 1 5
v 7.87 5.8 5
v 7.83 5.8 5
vt 0 0
vt 0.04 0
vt 0.04 4.8
vt 0 4.8
vn 0 0 1
vn 0 0 1
vn 0 0 1
vn 0 0 1
f 5/5/5 6/6/6 7/7/7
f 5/5/5 7/7/7 8/8/8
v 7.83 1 -6
v 7.83 1 5
v 7.83 5.8 5
v 7.83 5.8 -6
vt 0 0
vt 11 0
vt 11 4.8
vt 0 4.8
vn -1 0 0
vn -1 0 0
vn -1 0 0
vn -1 0 0
f 9/9/9 10/10/10 11/11/11
f 9/9/9 11/11/11 12/12/12
v 7.87 1 -6
v 7.87 5.8 -6
v 7.87 5.8 5
v 7.87 1 5
vt 0 0
vt 4.8 0
vt 4.8 11
vt 0 11
vn 1 0 0
vn 1 0 0
vn 1 0 0
vn 1 0 0
f 13/13/13 14/14/14 15/15/15
f 13/13/13 15/15/15 16/16/16
v 7.83 1 -6
v 7.87 1 -6
v 7.87 1 5
v 7.83 1 5
vt 0 0
vt 0.04 0
vt 0.04 11
vt 0 11
vn 0 -1 0
vn 0 -1 0
vn 0 -1 0
vn 0 -1 0
f 17/17/17 18/18/18 19/19/19
f 17/17/17 19/19/19 20/20/20
v 7.83 5.8 -6
v 7.83 5.8 5
v 7.87 5.8 5
v 7.87 5.8 -6
vt 0 0
vt 11 0
vt 11 0.04
vt 0 0.04
vn 0 1 0
vn 0 1 0
vn 0 1 0
vn 0 1 0
f 21/21/21 22/22/22 23/23/23
f 21/21/21 23/23/23 24/24/24
