# Original Breakwater Station authored geometry
o control_room_teal_enamel
v -7.6575 1.08 -9.65
v -7.6575 1.22 -9.65
v -7.6025 1.22 -9.65
v -7.6025 1.08 -9.65
vt 0 0
vt 0.14 0
vt 0.14 0.055
vt 0 0.055
vn 0 0 -1
vn 0 0 -1
vn 0 0 -1
vn 0 0 -1
f 1/1/1 2/2/2 3/3/3
f 1/1/1 3/3/3 4/4/4
v -7.6575 1.08 9.65
v -7.6025 1.08 9.65
v -7.6025 1.22 9.65
v -7.6575 1.22 9.65
vt 0 0
vt 0.055 0
vt 0.055 0.14
vt 0 0.14
vn 0 0 1
vn 0 0 1
vn 0 0 1
vn 0 0 1
f 5/5/5 6/6/6 7/7/7
f 5/5/5 7/7/7 8/8/8
v -7.6575 1.08 -9.65
v -7.6575 1.08 9.65
v -7.6575 1.22 9.65
v -7.6575 1.22 -9.65
vt 0 0
vt 19.3 0
vt 19.3 0.14
vt 0 0.14
vn -1 0 0
vn -1 0 0
vn -1 0 0
vn -1 0 0
f 9/9/9 10/10/10 11/11/11
f 9/9/9 11/11/11 12/12/12
v -7.6025 1.08 -9.65
v -7.6025 1.22 -9.65
v -7.6025 1.22 9.65
v -7.6025 1.08 9.65
vt 0 0
vt 0.14 0
vt 0.14 19.3
vt 0 19.3
vn 1 0 0
vn 1 0 0
vn 1 0 0
vn 1 0 0
f 13/13/13 14/14/14 15/15/15
f 13/13/13 15/15/15 16/16/16
v -7.6575 1.08 -9.65
v -7.6025 1.08 -9.65
v -7.6025 1.08 9.65
v -7.6575 1.08 9.65
vt 0 0
vt 0.055 0
vt 0.055 19.3
vt 0 19.3
vn 0 -1 0
vn 0 -1 0
vn 0 -1 0
vn 0 -1 0
f 17/17/17 18/18/18 19/19/19
f 17/17/17 19/19/19 20/20/20
v -7.6575 1.22 -9.65
v -7.6575 1.22 9.65
v -7.6025 1.22 9.65
v -7.6025 1.22 -9.65
vt 0 0
vt 19.3 0
vt 19.3 0.055
vt 0 0.055
vn 0 1 0
vn 0 1 0
vn 0 1 0
vn 0 1 0
f 21/21/21 22/22/22 23/23/23
f 21/21/21 23/23/23 24/24/24
v 7.6025 1.08 -9.65
v 7.6025 1.22 -9.65
v 7.6575 1.22 -9.65
v 7.6575 1.08 -9.65
vt 0 0
vt 0.14 0
vt 0.14 0.055
vt 0 0.055
vn 0 0 -1
vn 0 0 -1
vn 0 0 -1
vn 0 0 -1
f 25/25/25 26/26/26 27/27/27
f 25/25/25 27/27/27 28/28/28
v 7.6025 1.08 9.65
v 7.6575 1.08 9.65
v 7.6575 1.22 9.65
v 7.6025 1.22 9.65
vt 0 0
vt 0.055 0
vt 0.055 0.14
vt 0 0.14
vn 0 0 1
vn 0 0 1
vn 0 0 1
vn 0 0 1
f 29/29/29 30/30/30 31/31/31
f 29/29/29 31/31/31 32/32/32
v 7.6025 1.08 -9.65
v 7.6025 1.08 9.65
v 7.6025 1.22 9.65
v 7.6025 1.22 -9.65
vt 0 0
vt 19.3 0
vt 19.3 0.14
vt 0 0.14
vn -1 0 0
vn -1 0 0
vn -1 0 0
vn -1 0 0
f 33/33/33 34/34/34 35/35/35
f 33/33/33 35/35/35 36/36/36
v 7.6575 1.08 -9.65
v 7.6575 1.22 -9.65
v 7.6575 1.22 9.65
v 7.6575 1.08 9.65
vt 0 0
vt 0.14 0
vt 0.14 19.3
vt 0 19.3
vn 1 0 0
vn 1 0 0
vn 1 0 0
vn 1 0 0
f 37/37/37 38/38/38 39/39/39
f 37/37/37 39/39/39 40/40/40
v 7.6025 1.08 -9.65
v 7.6575 1.08 -9.65
v 7.6575 1.08 9.65
v 7.6025 1.08 9.65
vt 0 0
vt 0.055 0
vt 0.055 19.3
vt 0 19.3
vn 0 -1 0
vn 0 -1 0
vn 0 -1 0
vn 0 -1 0
f 41/41/41 42/42/42 43/43/43
f 41/41/41 43/43/43 44/44/44
v 7.6025 1.22 -9.65
v 7.6025 1.22 9.65
v 7.6575 1.22 9.65
v 7.6575 1.22 -9.65
vt 0 0
vt 19.3 0
vt 19.3 0.055
vt 0 0.055
vn 0 1 0
vn 0 1 0
vn 0 1 0
vn 0 1 0
f 45/45/45 46/46/46 47/47/47
f 45/45/45 47/47/47 48/48/48
v -2.36 0.016 -9.2
v -2.36 0.034 -9.2
v -2.24 0.034 -9.2
v -2.24 0.016 -9.2
vt 0 0
vt 0.018 0
vt 0.018 0.12
vt 0 0.12
vn 0 0 -1
vn 0 0 -1
vn 0 0 -1
vn 0 0 -1
f 49/49/49 50/50/50 51/51/51
f 49/49/49 51/51/51 52/52/52
v -2.36 0.016 8.6
v -2.24 0.016 8.6
v -2.24 0.034 8.6
v -2.36 0.034 8.6
vt 0 0
vt 0.12 0
vt 0.12 0.018
vt 0 0.018
vn 0 0 1
vn 0 0 1
vn 0 0 1
vn 0 0 1
f 53/53/53 54/54/54 55/55/55
f 53/53/53 55/55/55 56/56/56
v -2.36 0.016 -9.2
v -2.36 0.016 8.6
v -2.36 0.034 8.6
v -2.36 0.034 -9.2
vt 0 0
vt 17.8 0
vt 17.8 0.018
vt 0 0.018
vn -1 0 0
vn -1 0 0
vn -1 0 0
vn -1 0 0
f 57/57/57 58/58/58 59/59/59
f 57/57/57 59/59/59 60/60/60
v -2.24 0.016 -9.2
v -2.24 0.034 -9.2
v -2.24 0.034 8.6
v -2.24 0.016 8.6
vt 0 0
vt 0.018 0
vt 0.018 17.8
vt 0 17.8
vn 1 0 0
vn 1 0 0
vn 1 0 0
vn 1 0 0
f 61/61/61 62/62/62 63/63/63
f 61/61/61 63/63/63 64/64/64
v -2.36 0.016 -9.2
v -2.24 0.016 -9.2
v -2.24 0.016 8.6
v -2.36 0.016 8.6
vt 0 0
vt 0.12 0
vt 0.12 17.8
vt 0 17.8
vn 0 -1 0
vn 0 -1 0
vn 0 -1 0
vn 0 -1 0
f 65/65/65 66/66/66 67/67/67
f 65/65/65 67/67/67 68/68/68
v -2.36 0.034 -9.2
v -2.36 0.034 8.6
v -2.24 0.034 8.6
v -2.24 0.034 -9.2
vt 0 0
vt 17.8 0
vt 17.8 0.12
vt 0 0.12
vn 0 1 0
vn 0 1 0
vn 0 1 0
vn 0 1 0
f 69/69/69 70/70/70 71/71/71
f 69/69/69 71/71/71 72/72/72
v 2.24 0.016 -9.2
v 2.24 0.034 -9.2
v 2.36 0.034 -9.2
v 2.36 0.016 -9.2
vt 0 0
vt 0.018 0
vt 0.018 0.12
vt 0 0.12
vn 0 0 -1
vn 0 0 -1
vn 0 0 -1
vn 0 0 -1
f 73/73/73 74/74/74 75/75/75
f 73/73/73 75/75/75 76/76/76
v 2.24 0.016 8.6
v 2.36 0.016 8.6
v 2.36 0.034 8.6
v 2.24 0.034 8.6
vt 0 0
vt 0.12 0
vt 0.12 0.018
vt 0 0.018
vn 0 0 1
vn 0 0 1
vn 0 0 1
vn 0 0 1
f 77/77/77 78/78/78 79/79/79
f 77/77/77 79/79/79 80/80/80
v 2.24 0.016 -9.2
v 2.24 0.016 8.6
v 2.24 0.034 8.6
v 2.24 0.034 -9.2
vt 0 0
vt 17.8 0
vt 17.8 0.018
vt 0 0.018
vn -1 0 0
vn -1 0 0
vn -1 0 0
vn -1 0 0
f 81/81/81 82/82/82 83/83/83
f 81/81/81 83/83/83 84/84/84
v 2.36 0.016 -9.2
v 2.36 0.034 -9.2
v 2.36 0.034 8.6
v 2.36 0.016 8.6
vt 0 0
vt 0.018 0
vt 0.018 17.8
vt 0 17.8
vn 1 0 0
vn 1 0 0
vn 1 0 0
vn 1 0 0
f 85/85/85 86/86/86 87/87/87
f 85/85/85 87/87/87 88/88/88
v 2.24 0.016 -9.2
v 2.36 0.016 -9.2
v 2.36 0.016 8.6
v 2.24 0.016 8.6
vt 0 0
vt 0.12 0
vt 0.12 17.8
vt 0 17.8
vn 0 -1 0
vn 0 -1 0
vn 0 -1 0
vn 0 -1 0
f 89/89/89 90/90/90 91/91/91
f 89/89/89 91/91/91 92/92/92
v 2.24 0.034 -9.2
v 2.24 0.034 8.6
v 2.36 0.034 8.6
v 2.36 0.034 -9.2
vt 0 0
vt 17.8 0
vt 17.8 0.12
vt 0 0.12
vn 0 1 0
vn 0 1 0
vn 0 1 0
vn 0 1 0
f 93/93/93 94/94/94 95/95/95
f 93/93/93 95/95/95 96/96/96
v -6.68 1.105 -9.06
v -6.68 5.755 -9.06
v -6.42 5.755 -9.06
v -6.42 1.105 -9.06
vt 0 0
vt 4.65 0
vt 4.65 0.26
vt 0 0.26
vn 0 0 -1
vn 0 0 -1
vn 0 0 -1
vn 0 0 -1
f 97/97/97 98/98/98 99/99/99
f 97/97/97 99/99/99 100/100/100
v -6.68 1.105 -8.86
v -6.42 1.105 -8.86
v -6.42 5.755 -8.86
v -6.68 5.755 -8.86
vt 0 0
vt 0.26 0
vt 0.26 4.65
vt 0 4.65
vn 0 0 1
vn 0 0 1
vn 0 0 1
vn 0 0 1
f 101/101/101 102/102/102 103/103/103
f 101/101/101 103/103/103 104/104/104
v -6.68 1.105 -9.06
v -6.68 1.105 -8.86
v -6.68 5.755 -8.86
v -6.68 5.755 -9.06
vt 0 0
vt 0.2 0
vt 0.2 4.65
vt 0 4.65
vn -1 0 0
vn -1 0 0
vn -1 0 0
vn -1 0 0
f 105/105/105 106/106/106 107/107/107
f 105/105/105 107/107/107 108/108/108
v -6.42 1.105 -9.06
v -6.42 5.755 -9.06
v -6.42 5.755 -8.86
v -6.42 1.105 -8.86
vt 0 0
vt 4.65 0
vt 4.65 0.2
vt 0 0.2
vn 1 0 0
vn 1 0 0
vn 1 0 0
vn 1 0 0
f 109/109/109 110/110/110 111/111/111
f 109/109/109 111/111/111 112/112/112
v -6.68 1.105 -9.06
v -6.42 1.105 -9.06
v -6.42 1.105 -8.86
v -6.68 1.105 -8.86
vt 0 0
vt 0.26 0
vt 0.26 0.2
vt 0 0.2
vn 0 -1 0
vn 0 -1 0
vn 0 -1 0
vn 0 -1 0
f 113/113/113 114/114/114 115/115/115
f 113/113/113 115/115/115 116/116/116
v -6.68 5.755 -9.06
v -6.68 5.755 -8.86
v -6.42 5.755 -8.86
v -6.42 5.755 -9.06
vt 0 0
vt 0.2 0
vt 0.2 0.26
vt 0 0.26
vn 0 1 0
vn 0 1 0
vn 0 1 0
vn 0 1 0
f 117/117/117 118/118/118 119/119/119
f 117/117/117 119/119/119 120/120/120
v 6.42 1.105 -9.06
v 6.42 5.755 -9.06
v 6.68 5.755 -9.06
v 6.68 1.105 -9.06
vt 0 0
vt 4.65 0
vt 4.65 0.26
vt 0 0.26
vn 0 0 -1
vn 0 0 -1
vn 0 0 -1
vn 0 0 -1
f 121/121/121 122/122/122 123/123/123
f 121/121/121 123/123/123 124/124/124
v 6.42 1.105 -8.86
v 6.68 1.105 -8.86
v 6.68 5.755 -8.86
v 6.42 5.755 -8.86
vt 0 0
vt 0.26 0
vt 0.26 4.65
vt 0 4.65
vn 0 0 1
vn 0 0 1
vn 0 0 1
vn 0 0 1
f 125/125/125 126/126/126 127/127/127
f 125/125/125 127/127/127 128/128/128
v 6.42 1.105 -9.06
v 6.42 1.105 -8.86
v 6.42 5.755 -8.86
v 6.42 5.755 -9.06
vt 0 0
vt 0.2 0
vt 0.2 4.65
vt 0 4.65
vn -1 0 0
vn -1 0 0
vn -1 0 0
vn -1 0 0
f 129/129/129 130/130/130 131/131/131
f 129/129/129 131/131/131 132/132/132
v 6.68 1.105 -9.06
v 6.68 5.755 -9.06
v 6.68 5.755 -8.86
v 6.68 1.105 -8.86
vt 0 0
vt 4.65 0
vt 4.65 0.2
vt 0 0.2
vn 1 0 0
vn 1 0 0
vn 1 0 0
vn 1 0 0
f 133/133/133 134/134/134 135/135/135
f 133/133/133 135/135/135 136/136/136
v 6.42 1.105 -9.06
v 6.68 1.105 -9.06
v 6.68 1.105 -8.86
v 6.42 1.105 -8.86
vt 0 0
vt 0.26 0
vt 0.26 0.2
vt 0 0.2
vn 0 -1 0
vn 0 -1 0
vn 0 -1 0
vn 0 -1 0
f 137/137/137 138/138/138 139/139/139
f 137/137/137 139/139/139 140/140/140
v 6.42 5.755 -9.06
v 6.42 5.755 -8.86
v 6.68 5.755 -8.86
v 6.68 5.755 -9.06
vt 0 0
vt 0.2 0
vt 0.2 0.26
vt 0 0.26
vn 0 1 0
vn 0 1 0
vn 0 1 0
vn 0 1 0
f 141/141/141 142/142/142 143/143/143
f 141/141/141 143/143/143 144/144/144
v -6.65 1.1 -9.06
v -6.65 1.3 -9.06
v 6.65 1.3 -9.06
v 6.65 1.1 -9.06
vt 0 0
vt 0.2 0
vt 0.2 13.3
vt 0 13.3
vn 0 0 -1
vn 0 0 -1
vn 0 0 -1
vn 0 0 -1
f 145/145/145 146/146/146 147/147/147
f 145/145/145 147/147/147 148/148/148
v -6.65 1.1 -8.86
v 6.65 1.1 -8.86
v 6.65 1.3 -8.86
v -6.65 1.3 -8.86
vt 0 0
vt 13.3 0
vt 13.3 0.2
vt 0 0.2
vn 0 0 1
vn 0 0 1
vn 0 0 1
vn 0 0 1
f 149/149/149 150/150/150 151/151/151
f 149/149/149 151/151/151 152/152/152
v -6.65 1.1 -9.06
v -6.65 1.1 -8.86
v -6.65 1.3 -8.86
v -6.65 1.3 -9.06
vt 0 0
vt 0.2 0
vt 0.2 0.2
vt 0 0.2
vn -1 0 0
vn -1 0 0
vn -1 0 0
vn -1 0 0
f 153/153/153 154/154/154 155/155/155
f 153/153/153 155/155/155 156/156/156
v 6.65 1.1 -9.06
v 6.65 1.3 -9.06
v 6.65 1.3 -8.86
v 6.65 1.1 -8.86
vt 0 0
vt 0.2 0
vt 0.2 0.2
vt 0 0.2
vn 1 0 0
vn 1 0 0
vn 1 0 0
vn 1 0 0
f 157/157/157 158/158/158 159/159/159
f 157/157/157 159/159/159 160/160/160
v -6.65 1.1 -9.06
v 6.65 1.1 -9.06
v 6.65 1.1 -8.86
v -6.65 1.1 -8.86
vt 0 0
vt 13.3 0
vt 13.3 0.2
vt 0 0.2
vn 0 -1 0
vn 0 -1 0
vn 0 -1 0
vn 0 -1 0
f 161/161/161 162/162/162 163/163/163
f 161/161/161 163/163/163 164/164/164
v -6.65 1.3 -9.06
v -6.65 1.3 -8.86
v 6.65 1.3 -8.86
v 6.65 1.3 -9.06
vt 0 0
vt 0.2 0
vt 0.2 13.3
vt 0 13.3
vn 0 1 0
vn 0 1 0
vn 0 1 0
vn 0 1 0
f 165/165/165 166/166/166 167/167/167
f 165/165/165 167/167/167 168/168/168
v -6.65 5.55 -9.06
v -6.65 5.75 -9.06
v 6.65 5.75 -9.06
v 6.65 5.55 -9.06
vt 0 0
vt 0.2 0
vt 0.2 13.3
vt 0 13.3
vn 0 0 -1
vn 0 0 -1
vn 0 0 -1
vn 0 0 -1
f 169/169/169 170/170/170 171/171/171
f 169/169/169 171/171/171 172/172/172
v -6.65 5.55 -8.86
v 6.65 5.55 -8.86
v 6.65 5.75 -8.86
v -6.65 5.75 -8.86
vt 0 0
vt 13.3 0
vt 13.3 0.2
vt 0 0.2
vn 0 0 1
vn 0 0 1
vn 0 0 1
vn 0 0 1
f 173/173/173 174/174/174 175/175/175
f 173/173/173 175/175/175 176/176/176
v -6.65 5.55 -9.06
v -6.65 5.55 -8.86
v -6.65 5.75 -8.86
v -6.65 5.75 -9.06
vt 0 0
vt 0.2 0
vt 0.2 0.2
vt 0 0.2
vn -1 0 0
vn -1 0 0
vn -1 0 0
vn -1 0 0
f 177/177/177 178/178/178 179/179/179
f 177/177/177 179/179/179 180/180/180
v 6.65 5.55 -9.06
v 6.65 5.75 -9.06
v 6.65 5.75 -8.86
v 6.65 5.55 -8.86
vt 0 0
vt 0.2 0
vt 0.2 0.2
vt 0 0.2
vn 1 0 0
vn 1 0 0
vn 1 0 0
vn 1 0 0
f 181/181/181 182/182/182 183/183/183
f 181/181/181 183/183/183 184/184/184
v -6.65 5.55 -9.06
v 6.65 5.55 -9.06
v 6.65 5.55 -8.86
v -6.65 5.55 -8.86
vt 0 0
vt 13.3 0
vt 13.3 0.2
vt 0 0.2
vn 0 -1 0
vn 0 -1 0
vn 0 -1 0
vn 0 -1 0
f 185/185/185 186/186/186 187/187/187
f 185/185/185 187/187/187 188/188/188
v -6.65 5.75 -9.06
v -6.65 5.75 -8.86
v 6.65 5.75 -8.86
v 6.65 5.75 -9.06
vt 0 0
vt 0.2 0
vt 0.2 13.3
vt 0 13.3
vn 0 1 0
vn 0 1 0
vn 0 1 0
vn 0 1 0
f 189/189/189 190/190/190 191/191/191
f 189/189/189 191/191/191 192/192/192
v -2.035 2.715 -8.927
v -2.035 2.985 -8.927
v -1.565 2.985 -8.927
v -1.565 2.715 -8.927
vt 0 0
vt 0.27 0
vt 0.27 0.47
vt 0 0.47
vn 0 0 -1
vn 0 0 -1
vn 0 0 -1
vn 0 0 -1
f 193/193/193 194/194/194 195/195/195
f 193/193/193 195/195/195 196/196/196
v -2.035 2.715 -8.907
v -1.565 2.715 -8.907
v -1.565 2.985 -8.907
v -2.035 2.985 -8.907
vt 0 0
vt 0.47 0
vt 0.47 0.27
vt 0 0.27
vn 0 0 1
vn 0 0 1
vn 0 0 1
vn 0 0 1
f 197/197/197 198/198/198 199/199/199
f 197/197/197 199/199/199 200/200/200
v -2.035 2.715 -8.927
v -2.035 2.715 -8.907
v -2.035 2.985 -8.907
v -2.035 2.985 -8.927
vt 0 0
vt 0.02 0
vt 0.02 0.27
vt 0 0.27
vn -1 0 0
vn -1 0 0
vn -1 0 0
vn -1 0 0
f 201/201/201 202/202/202 203/203/203
f 201/201/201 203/203/203 204/204/204
v -1.565 2.715 -8.927
v -1.565 2.985 -8.927
v -1.565 2.985 -8.907
v -1.565 2.715 -8.907
vt 0 0
vt 0.27 0
vt 0.27 0.02
vt 0 0.02
vn 1 0 0
vn 1 0 0
vn 1 0 0
vn 1 0 0
f 205/205/205 206/206/206 207/207/207
f 205/205/205 207/207/207 208/208/208
v -2.035 2.715 -8.927
v -1.565 2.715 -8.927
v -1.565 2.715 -8.907
v -2.035 2.715 -8.907
vt 0 0
vt 0.47 0
vt 0.47 0.02
vt 0 0.02
vn 0 -1 0
vn 0 -1 0
vn 0 -1 0
vn 0 -1 0
f 209/209/209 210/210/210 211/211/211
f 209/209/209 211/211/211 212/212/212
v -2.035 2.985 -8.927
v -2.035 2.985 -8.907
v -1.565 2.985 -8.907
v -1.565 2.985 -8.927
vt 0 0
vt 0.02 0
vt 0.02 0.47
vt 0 0.47
vn 0 1 0
vn 0 1 0
vn 0 1 0
vn 0 1 0
f 213/213/213 214/214/214 215/215/215
f 213/213/213 215/215/215 216/216/216
v -2.035 3.365 -8.927
v -2.035 3.635 -8.927
v -1.565 3.635 -8.927
v -1.565 3.365 -8.927
vt 0 0
vt 0.27 0
vt 0.27 0.47
vt 0 0.47
vn 0 0 -1
vn 0 0 -1
vn 0 0 -1
vn 0 0 -1
f 217/217/217 218/218/218 219/219/219
f 217/217/217 219/219/219 220/220/220
v -2.035 3.365 -8.907
v -1.565 3.365 -8.907
v -1.565 3.635 -8.907
v -2.035 3.635 -8.907
vt 0 0
vt 0.47 0
vt 0.47 0.27
vt 0 0.27
vn 0 0 1
vn 0 0 1
vn 0 0 1
vn 0 0 1
f 221/221/221 222/222/222 223/223/223
f 221/221/221 223/223/223 224/224/224
v -2.035 3.365 -8.927
v -2.035 3.365 -8.907
v -2.035 3.635 -8.907
v -2.035 3.635 -8.927
vt 0 0
vt 0.02 0
vt 0.02 0.27
vt 0 0.27
vn -1 0 0
vn -1 0 0
vn -1 0 0
vn -1 0 0
f 225/225/225 226/226/226 227/227/227
f 225/225/225 227/227/227 228/228/228
v -1.565 3.365 -8.927
v -1.565 3.635 -8.927
v -1.565 3.635 -8.907
v -1.565 3.365 -8.907
vt 0 0
vt 0.27 0
vt 0.27 0.02
vt 0 0.02
vn 1 0 0
vn 1 0 0
vn 1 0 0
vn 1 0 0
f 229/229/229 230/230/230 231/231/231
f 229/229/229 231/231/231 232/232/232
v -2.035 3.365 -8.927
v -1.565 3.365 -8.927
v -1.565 3.365 -8.907
v -2.035 3.365 -8.907
vt 0 0
vt 0.47 0
vt 0.47 0.02
vt 0 0.02
vn 0 -1 0
vn 0 -1 0
vn 0 -1 0
vn 0 -1 0
f 233/233/233 234/234/234 235/235/235
f 233/233/233 235/235/235 236/236/236
v -2.035 3.635 -8.927
v -2.035 3.635 -8.907
v -1.565 3.635 -8.907
v -1.565 3.635 -8.927
vt 0 0
vt 0.02 0
vt 0.02 0.47
vt 0 0.47
vn 0 1 0
vn 0 1 0
vn 0 1 0
vn 0 1 0
f 237/237/237 238/238/238 239/239/239
f 237/237/237 239/239/239 240/240/240
v -2.035 4.015 -8.927
v -2.035 4.285 -8.927
v -1.565 4.285 -8.927
v -1.565 4.015 -8.927
vt 0 0
vt 0.27 0
vt 0.27 0.47
vt 0 0.47
vn 0 0 -1
vn 0 0 -1
vn 0 0 -1
vn 0 0 -1
f 241/241/241 242/242/242 243/243/243
f 241/241/241 243/243/243 244/244/244
v -2.035 4.015 -8.907
v -1.565 4.015 -8.907
v -1.565 4.285 -8.907
v -2.035 4.285 -8.907
vt 0 0
vt 0.47 0
vt 0.47 0.27
vt 0 0.27
vn 0 0 1
vn 0 0 1
vn 0 0 1
vn 0 0 1
f 245/245/245 246/246/246 247/247/247
f 245/245/245 247/247/247 248/248/248
v -2.035 4.015 -8.927
v -2.035 4.015 -8.907
v -2.035 4.285 -8.907
v -2.035 4.285 -8.927
vt 0 0
vt 0.02 0
vt 0.02 0.27
vt 0 0.27
vn -1 0 0
vn -1 0 0
vn -1 0 0
vn -1 0 0
f 249/249/249 250/250/250 251/251/251
f 249/249/249 251/251/251 252/252/252
v -1.565 4.015 -8.927
v -1.565 4.285 -8.927
v -1.565 4.285 -8.907
v -1.565 4.015 -8.907
vt 0 0
vt 0.27 0
vt 0.27 0.02
vt 0 0.02
vn 1 0 0
vn 1 0 0
vn 1 0 0
vn 1 0 0
f 253/253/253 254/254/254 255/255/255
f 253/253/253 255/255/255 256/256/256
v -2.035 4.015 -8.927
v -1.565 4.015 -8.927
v -1.565 4.015 -8.907
v -2.035 4.015 -8.907
vt 0 0
vt 0.47 0
vt 0.47 0.02
vt 0 0.02
vn 0 -1 0
vn 0 -1 0
vn 0 -1 0
vn 0 -1 0
f 257/257/257 258/258/258 259/259/259
f 257/257/257 259/259/259 260/260/260
v -2.035 4.285 -8.927
v -2.035 4.285 -8.907
v -1.565 4.285 -8.907
v -1.565 4.285 -8.927
vt 0 0
vt 0.02 0
vt 0.02 0.47
vt 0 0.47
vn 0 1 0
vn 0 1 0
vn 0 1 0
vn 0 1 0
f 261/261/261 262/262/262 263/263/263
f 261/261/261 263/263/263 264/264/264
v -0.835 2.715 -8.927
v -0.835 2.985 -8.927
v -0.365 2.985 -8.927
v -0.365 2.715 -8.927
vt 0 0
vt 0.27 0
vt 0.27 0.47
vt 0 0.47
vn 0 0 -1
vn 0 0 -1
vn 0 0 -1
vn 0 0 -1
f 265/265/265 266/266/266 267/267/267
f 265/265/265 267/267/267 268/268/268
v -0.835 2.715 -8.907
v -0.365 2.715 -8.907
v -0.365 2.985 -8.907
v -0.835 2.985 -8.907
vt 0 0
vt 0.47 0
vt 0.47 0.27
vt 0 0.27
vn 0 0 1
vn 0 0 1
vn 0 0 1
vn 0 0 1
f 269/269/269 270/270/270 271/271/271
f 269/269/269 271/271/271 272/272/272
v -0.835 2.715 -8.927
v -0.835 2.715 -8.907
v -0.835 2.985 -8.907
v -0.835 2.985 -8.927
vt 0 0
vt 0.02 0
vt 0.02 0.27
vt 0 0.27
vn -1 0 0
vn -1 0 0
vn -1 0 0
vn -1 0 0
f 273/273/273 274/274/274 275/275/275
f 273/273/273 275/275/275 276/276/276
v -0.365 2.715 -8.927
v -0.365 2.985 -8.927
v -0.365 2.985 -8.907
v -0.365 2.715 -8.907
vt 0 0
vt 0.27 0
vt 0.27 0.02
vt 0 0.02
vn 1 0 0
vn 1 0 0
vn 1 0 0
vn 1 0 0
f 277/277/277 278/278/278 279/279/279
f 277/277/277 279/279/279 280/280/280
v -0.835 2.715 -8.927
v -0.365 2.715 -8.927
v -0.365 2.715 -8.907
v -0.835 2.715 -8.907
vt 0 0
vt 0.47 0
vt 0.47 0.02
vt 0 0.02
vn 0 -1 0
vn 0 -1 0
vn 0 -1 0
vn 0 -1 0
f 281/281/281 282/282/282 283/283/283
f 281/281/281 283/283/283 284/284/284
v -0.835 2.985 -8.927
v -0.835 2.985 -8.907
v -0.365 2.985 -8.907
v -0.365 2.985 -8.927
vt 0 0
vt 0.02 0
vt 0.02 0.47
vt 0 0.47
vn 0 1 0
vn 0 1 0
vn 0 1 0
vn 0 1 0
f 285/285/285 286/286/286 287/287/287
f 285/285/285 287/287/287 288/288/288
v -0.835 3.365 -8.927
v -0.835 3.635 -8.927
v -0.365 3.635 -8.927
v -0.365 3.365 -8.927
vt 0 0
vt 0.27 0
vt 0.27 0.47
vt 0 0.47
vn 0 0 -1
vn 0 0 -1
vn 0 0 -1
vn 0 0 -1
f 289/289/289 290/290/290 291/291/291
f 289/289/289 291/291/291 292/292/292
v -0.835 3.365 -8.907
v -0.365 3.365 -8.907
v -0.365 3.635 -8.907
v -0.835 3.635 -8.907
vt 0 0
vt 0.47 0
vt 0.47 0.27
vt 0 0.27
vn 0 0 1
vn 0 0 1
vn 0 0 1
vn 0 0 1
f 293/293/293 294/294/294 295/295/295
f 293/293/293 295/295/295 296/296/296
v -0.835 3.365 -8.927
v -0.835 3.365 -8.907
v -0.835 3.635 -8.907
v -0.835 3.635 -8.927
vt 0 0
vt 0.02 0
vt 0.02 0.27
vt 0 0.27
vn -1 0 0
vn -1 0 0
vn -1 0 0
vn -1 0 0
f 297/297/297 298/298/298 299/299/299
f 297/297/297 299/299/299 300/300/300
v -0.365 3.365 -8.927
v -0.365 3.635 -8.927
v -0.365 3.635 -8.907
v -0.365 3.365 -8.907
vt 0 0
vt 0.27 0
vt 0.27 0.02
vt 0 0.02
vn 1 0 0
vn 1 0 0
vn 1 0 0
vn 1 0 0
f 301/301/301 302/302/302 303/303/303
f 301/301/301 303/303/303 304/304/304
v -0.835 3.365 -8.927
v -0.365 3.365 -8.927
v -0.365 3.365 -8.907
v -0.835 3.365 -8.907
vt 0 0
vt 0.47 0
vt 0.47 0.02
vt 0 0.02
vn 0 -1 0
vn 0 -1 0
vn 0 -1 0
vn 0 -1 0
f 305/305/305 306/306/306 307/307/307
f 305/305/305 307/307/307 308/308/308
v -0.835 3.635 -8.927
v -0.835 3.635 -8.907
v -0.365 3.635 -8.907
v -0.365 3.635 -8.927
vt 0 0
vt 0.02 0
vt 0.02 0.47
vt 0 0.47
vn 0 1 0
vn 0 1 0
vn 0 1 0
vn 0 1 0
f 309/309/309 310/310/310 311/311/311
f 309/309/309 311/311/311 312/312/312
v -0.835 4.015 -8.927
v -0.835 4.285 -8.927
v -0.365 4.285 -8.927
v -0.365 4.015 -8.927
vt 0 0
vt 0.27 0
vt 0.27 0.47
vt 0 0.47
vn 0 0 -1
vn 0 0 -1
vn 0 0 -1
vn 0 0 -1
f 313/313/313 314/314/314 315/315/315
f 313/313/313 315/315/315 316/316/316
v -0.835 4.015 -8.907
v -0.365 4.015 -8.907
v -0.365 4.285 -8.907
v -0.835 4.285 -8.907
vt 0 0
vt 0.47 0
vt 0.47 0.27
vt 0 0.27
vn 0 0 1
vn 0 0 1
vn 0 0 1
vn 0 0 1
f 317/317/317 318/318/318 319/319/319
f 317/317/317 319/319/319 320/320/320
v -0.835 4.015 -8.927
v -0.835 4.015 -8.907
v -0.835 4.285 -8.907
v -0.835 4.285 -8.927
vt 0 0
vt 0.02 0
vt 0.02 0.27
vt 0 0.27
vn -1 0 0
vn -1 0 0
vn -1 0 0
vn -1 0 0
f 321/321/321 322/322/322 323/323/323
f 321/321/321 323/323/323 324/324/324
v -0.365 4.015 -8.927
v -0.365 4.285 -8.927
v -0.365 4.285 -8.907
v -0.365 4.015 -8.907
vt 0 0
vt 0.27 0
vt 0.27 0.02
vt 0 0.02
vn 1 0 0
vn 1 0 0
vn 1 0 0
vn 1 0 0
f 325/325/325 326/326/326 327/327/327
f 325/325/325 327/327/327 328/328/328
v -0.835 4.015 -8.927
v -0.365 4.015 -8.927
v -0.365 4.015 -8.907
v -0.835 4.015 -8.907
vt 0 0
vt 0.47 0
vt 0.47 0.02
vt 0 0.02
vn 0 -1 0
vn 0 -1 0
vn 0 -1 0
vn 0 -1 0
f 329/329/329 330/330/330 331/331/331
f 329/329/329 331/331/331 332/332/332
v -0.835 4.285 -8.927
v -0.835 4.285 -8.907
v -0.365 4.285 -8.907
v -0.365 4.285 -8.927
vt 0 0
vt 0.02 0
vt 0.02 0.47
vt 0 0.47
vn 0 1 0
vn 0 1 0
vn 0 1 0
vn 0 1 0
f 333/333/333 334/334/334 335/335/335
f 333/333/333 335/335/335 336/336/336
v 0.365 2.715 -8.927
v 0.365 2.985 -8.927
v 0.835 2.985 -8.927
v 0.835 2.715 -8.927
vt 0 0
vt 0.27 0
vt 0.27 0.47
vt 0 0.47
vn 0 0 -1
vn 0 0 -1
vn 0 0 -1
vn 0 0 -1
f 337/337/337 338/338/338 339/339/339
f 337/337/337 339/339/339 340/340/340
v 0.365 2.715 -8.907
v 0.835 2.715 -8.907
v 0.835 2.985 -8.907
v 0.365 2.985 -8.907
vt 0 0
vt 0.47 0
vt 0.47 0.27
vt 0 0.27
vn 0 0 1
vn 0 0 1
vn 0 0 1
vn 0 0 1
f 341/341/341 342/342/342 343/343/343
f 341/341/341 343/343/343 344/344/344
v 0.365 2.715 -8.927
v 0.365 2.715 -8.907
v 0.365 2.985 -8.907
v 0.365 2.985 -8.927
vt 0 0
vt 0.02 0
vt 0.02 0.27
vt 0 0.27
vn -1 0 0
vn -1 0 0
vn -1 0 0
vn -1 0 0
f 345/345/345 346/346/346 347/347/347
f 345/345/345 347/347/347 348/348/348
v 0.835 2.715 -8.927
v 0.835 2.985 -8.927
v 0.835 2.985 -8.907
v 0.835 2.715 -8.907
vt 0 0
vt 0.27 0
vt 0.27 0.02
vt 0 0.02
vn 1 0 0
vn 1 0 0
vn 1 0 0
vn 1 0 0
f 349/349/349 350/350/350 351/351/351
f 349/349/349 351/351/351 352/352/352
v 0.365 2.715 -8.927
v 0.835 2.715 -8.927
v 0.835 2.715 -8.907
v 0.365 2.715 -8.907
vt 0 0
vt 0.47 0
vt 0.47 0.02
vt 0 0.02
vn 0 -1 0
vn 0 -1 0
vn 0 -1 0
vn 0 -1 0
f 353/353/353 354/354/354 355/355/355
f 353/353/353 355/355/355 356/356/356
v 0.365 2.985 -8.927
v 0.365 2.985 -8.907
v 0.835 2.985 -8.907
v 0.835 2.985 -8.927
vt 0 0
vt 0.02 0
vt 0.02 0.47
vt 0 0.47
vn 0 1 0
vn 0 1 0
vn 0 1 0
vn 0 1 0
f 357/357/357 358/358/358 359/359/359
f 357/357/357 359/359/359 360/360/360
v 0.365 3.365 -8.927
v 0.365 3.635 -8.927
v 0.835 3.635 -8.927
v 0.835 3.365 -8.927
vt 0 0
vt 0.27 0
vt 0.27 0.47
vt 0 0.47
vn 0 0 -1
vn 0 0 -1
vn 0 0 -1
vn 0 0 -1
f 361/361/361 362/362/362 363/363/363
f 361/361/361 363/363/363 364/364/364
v 0.365 3.365 -8.907
v 0.835 3.365 -8.907
v 0.835 3.635 -8.907
v 0.365 3.635 -8.907
vt 0 0
vt 0.47 0
vt 0.47 0.27
vt 0 0.27
vn 0 0 1
vn 0 0 1
vn 0 0 1
vn 0 0 1
f 365/365/365 366/366/366 367/367/367
f 365/365/365 367/367/367 368/368/368
v 0.365 3.365 -8.927
v 0.365 3.365 -8.907
v 0.365 3.635 -8.907
v 0.365 3.635 -8.927
vt 0 0
vt 0.02 0
vt 0.02 0.27
vt 0 0.27
vn -1 0 0
vn -1 0 0
vn -1 0 0
vn -1 0 0
f 369/369/369 370/370/370 371/371/371
f 369/369/369 371/371/371 372/372/372
v 0.835 3.365 -8.927
v 0.835 3.635 -8.927
v 0.835 3.635 -8.907
v 0.835 3.365 -8.907
vt 0 0
vt 0.27 0
vt 0.27 0.02
vt 0 0.02
vn 1 0 0
vn 1 0 0
vn 1 0 0
vn 1 0 0
f 373/373/373 374/374/374 375/375/375
f 373/373/373 375/375/375 376/376/376
v 0.365 3.365 -8.927
v 0.835 3.365 -8.927
v 0.835 3.365 -8.907
v 0.365 3.365 -8.907
vt 0 0
vt 0.47 0
vt 0.47 0.02
vt 0 0.02
vn 0 -1 0
vn 0 -1 0
vn 0 -1 0
vn 0 -1 0
f 377/377/377 378/378/378 379/379/379
f 377/377/377 379/379/379 380/380/380
v 0.365 3.635 -8.927
v 0.365 3.635 -8.907
v 0.835 3.635 -8.907
v 0.835 3.635 -8.927
vt 0 0
vt 0.02 0
vt 0.02 0.47
vt 0 0.47
vn 0 1 0
vn 0 1 0
vn 0 1 0
vn 0 1 0
f 381/381/381 382/382/382 383/383/383
f 381/381/381 383/383/383 384/384/384
v 0.365 4.015 -8.927
v 0.365 4.285 -8.927
v 0.835 4.285 -8.927
v 0.835 4.015 -8.927
vt 0 0
vt 0.27 0
vt 0.27 0.47
vt 0 0.47
vn 0 0 -1
vn 0 0 -1
vn 0 0 -1
vn 0 0 -1
f 385/385/385 386/386/386 387/387/387
f 385/385/385 387/387/387 388/388/388
v 0.365 4.015 -8.907
v 0.835 4.015 -8.907
v 0.835 4.285 -8.907
v 0.365 4.285 -8.907
vt 0 0
vt 0.47 0
vt 0.47 0.27
vt 0 0.27
vn 0 0 1
vn 0 0 1
vn 0 0 1
vn 0 0 1
f 389/389/389 390/390/390 391/391/391
f 389/389/389 391/391/391 392/392/392
v 0.365 4.015 -8.927
v 0.365 4.015 -8.907
v 0.365 4.285 -8.907
v 0.365 4.285 -8.927
vt 0 0
vt 0.02 0
vt 0.02 0.27
vt 0 0.27
vn -1 0 0
vn -1 0 0
vn -1 0 0
vn -1 0 0
f 393/393/393 394/394/394 395/395/395
f 393/393/393 395/395/395 396/396/396
v 0.835 4.015 -8.927
v 0.835 4.285 -8.927
v 0.835 4.285 -8.907
v 0.835 4.015 -8.907
vt 0 0
vt 0.27 0
vt 0.27 0.02
vt 0 0.02
vn 1 0 0
vn 1 0 0
vn 1 0 0
vn 1 0 0
f 397/397/397 398/398/398 399/399/399
f 397/397/397 399/399/399 400/400/400
v 0.365 4.015 -8.927
v 0.835 4.015 -8.927
v 0.835 4.015 -8.907
v 0.365 4.015 -8.907
vt 0 0
vt 0.47 0
vt 0.47 0.02
vt 0 0.02
vn 0 -1 0
vn 0 -1 0
vn 0 -1 0
vn 0 -1 0
f 401/401/401 402/402/402 403/403/403
f 401/401/401 403/403/403 404/404/404
v 0.365 4.285 -8.927
v 0.365 4.285 -8.907
v 0.835 4.285 -8.907
v 0.835 4.285 -8.927
vt 0 0
vt 0.02 0
vt 0.02 0.47
vt 0 0.47
vn 0 1 0
vn 0 1 0
vn 0 1 0
vn 0 1 0
f 405/405/405 406/406/406 407/407/407
f 405/405/405 407/407/407 408/408/408
v 1.565 2.715 -8.927
v 1.565 2.985 -8.927
v 2.035 2.985 -8.927
v 2.035 2.715 -8.927
vt 0 0
vt 0.27 0
vt 0.27 0.47
vt 0 0.47
vn 0 0 -1
vn 0 0 -1
vn 0 0 -1
vn 0 0 -1
f 409/409/409 410/410/410 411/411/411
f 409/409/409 411/411/411 412/412/412
v 1.565 2.715 -8.907
v 2.035 2.715 -8.907
v 2.035 2.985 -8.907
v 1.565 2.985 -8.907
vt 0 0
vt 0.47 0
vt 0.47 0.27
vt 0 0.27
vn 0 0 1
vn 0 0 1
vn 0 0 1
vn 0 0 1
f 413/413/413 414/414/414 415/415/415
f 413/413/413 415/415/415 416/416/416
v 1.565 2.715 -8.927
v 1.565 2.715 -8.907
v 1.565 2.985 -8.907
v 1.565 2.985 -8.927
vt 0 0
vt 0.02 0
vt 0.02 0.27
vt 0 0.27
vn -1 0 0
vn -1 0 0
vn -1 0 0
vn -1 0 0
f 417/417/417 418/418/418 419/419/419
f 417/417/417 419/419/419 420/420/420
v 2.035 2.715 -8.927
v 2.035 2.985 -8.927
v 2.035 2.985 -8.907
v 2.035 2.715 -8.907
vt 0 0
vt 0.27 0
vt 0.27 0.02
vt 0 0.02
vn 1 0 0
vn 1 0 0
vn 1 0 0
vn 1 0 0
f 421/421/421 422/422/422 423/423/423
f 421/421/421 423/423/423 424/424/424
v 1.565 2.715 -8.927
v 2.035 2.715 -8.927
v 2.035 2.715 -8.907
v 1.565 2.715 -8.907
vt 0 0
vt 0.47 0
vt 0.47 0.02
vt 0 0.02
vn 0 -1 0
vn 0 -1 0
vn 0 -1 0
vn 0 -1 0
f 425/425/425 426/426/426 427/427/427
f 425/425/425 427/427/427 428/428/428
v 1.565 2.985 -8.927
v 1.565 2.985 -8.907
v 2.035 2.985 -8.907
v 2.035 2.985 -8.927
vt 0 0
vt 0.02 0
vt 0.02 0.47
vt 0 0.47
vn 0 1 0
vn 0 1 0
vn 0 1 0
vn 0 1 0
f 429/429/429 430/430/430 431/431/431
f 429/429/429 431/431/431 432/432/432
v 1.565 3.365 -8.927
v 1.565 3.635 -8.927
v 2.035 3.635 -8.927
v 2.035 3.365 -8.927
vt 0 0
vt 0.27 0
vt 0.27 0.47
vt 0 0.47
vn 0 0 -1
vn 0 0 -1
vn 0 0 -1
vn 0 0 -1
f 433/433/433 434/434/434 435/435/435
f 433/433/433 435/435/435 436/436/436
v 1.565 3.365 -8.907
v 2.035 3.365 -8.907
v 2.035 3.635 -8.907
v 1.565 3.635 -8.907
vt 0 0
vt 0.47 0
vt 0.47 0.27
vt 0 0.27
vn 0 0 1
vn 0 0 1
vn 0 0 1
vn 0 0 1
f 437/437/437 438/438/438 439/439/439
f 437/437/437 439/439/439 440/440/440
v 1.565 3.365 -8.927
v 1.565 3.365 -8.907
v 1.565 3.635 -8.907
v 1.565 3.635 -8.927
vt 0 0
vt 0.02 0
vt 0.02 0.27
vt 0 0.27
vn -1 0 0
vn -1 0 0
vn -1 0 0
vn -1 0 0
f 441/441/441 442/442/442 443/443/443
f 441/441/441 443/443/443 444/444/444
v 2.035 3.365 -8.927
v 2.035 3.635 -8.927
v 2.035 3.635 -8.907
v 2.035 3.365 -8.907
vt 0 0
vt 0.27 0
vt 0.27 0.02
vt 0 0.02
vn 1 0 0
vn 1 0 0
vn 1 0 0
vn 1 0 0
f 445/445/445 446/446/446 447/447/447
f 445/445/445 447/447/447 448/448/448
v 1.565 3.365 -8.927
v 2.035 3.365 -8.927
v 2.035 3.365 -8.907
v 1.565 3.365 -8.907
vt 0 0
vt 0.47 0
vt 0.47 0.02
vt 0 0.02
vn 0 -1 0
vn 0 -1 0
vn 0 -1 0
vn 0 -1 0
f 449/449/449 450/450/450 451/451/451
f 449/449/449 451/451/451 452/452/452
v 1.565 3.635 -8.927
v 1.565 3.635 -8.907
v 2.035 3.635 -8.907
v 2.035 3.635 -8.927
vt 0 0
vt 0.02 0
vt 0.02 0.47
vt 0 0.47
vn 0 1 0
vn 0 1 0
vn 0 1 0
vn 0 1 0
f 453/453/453 454/454/454 455/455/455
f 453/453/453 455/455/455 456/456/456
v 1.565 4.015 -8.927
v 1.565 4.285 -8.927
v 2.035 4.285 -8.927
v 2.035 4.015 -8.927
vt 0 0
vt 0.27 0
vt 0.27 0.47
vt 0 0.47
vn 0 0 -1
vn 0 0 -1
vn 0 0 -1
vn 0 0 -1
f 457/457/457 458/458/458 459/459/459
f 457/457/457 459/459/459 460/460/460
v 1.565 4.015 -8.907
v 2.035 4.015 -8.907
v 2.035 4.285 -8.907
v 1.565 4.285 -8.907
vt 0 0
vt 0.47 0
vt 0.47 0.27
vt 0 0.27
vn 0 0 1
vn 0 0 1
vn 0 0 1
vn 0 0 1
f 461/461/461 462/462/462 463/463/463
f 461/461/461 463/463/463 464/464/464
v 1.565 4.015 -8.927
v 1.565 4.015 -8.907
v 1.565 4.285 -8.907
v 1.565 4.285 -8.927
vt 0 0
vt 0.02 0
vt 0.02 0.27
vt 0 0.27
vn -1 0 0
vn -1 0 0
vn -1 0 0
vn -1 0 0
f 465/465/465 466/466/466 467/467/467
f 465/465/465 467/467/467 468/468/468
v 2.035 4.015 -8.927
v 2.035 4.285 -8.927
v 2.035 4.285 -8.907
v 2.035 4.015 -8.907
vt 0 0
vt 0.27 0
vt 0.27 0.02
vt 0 0.02
vn 1 0 0
vn 1 0 0
vn 1 0 0
vn 1 0 0
f 469/469/469 470/470/470 471/471/471
f 469/469/469 471/471/471 472/472/472
v 1.565 4.015 -8.927
v 2.035 4.015 -8.927
v 2.035 4.015 -8.907
v 1.565 4.015 -8.907
vt 0 0
vt 0.47 0
vt 0.47 0.02
vt 0 0.02
vn 0 -1 0
vn 0 -1 0
vn 0 -1 0
vn 0 -1 0
f 473/473/473 474/474/474 475/475/475
f 473/473/473 475/475/475 476/476/476
v 1.565 4.285 -8.927
v 1.565 4.285 -8.907
v 2.035 4.285 -8.907
v 2.035 4.285 -8.927
vt 0 0
vt 0.02 0
vt 0.02 0.47
vt 0 0.47
vn 0 1 0
vn 0 1 0
vn 0 1 0
vn 0 1 0
f 477/477/477 478/478/478 479/479/479
f 477/477/477 479/479/479 480/480/480
v -5.98 0 -8.68
v -5.98 1.3 -8.68
v -3.28 1.3 -8.68
v -3.28 0 -8.68
vt 0 0
vt 1.3 0
vt 1.3 2.7
vt 0 2.7
vn 0 0 -1
vn 0 0 -1
vn 0 0 -1
vn 0 0 -1
f 481/481/481 482/482/482 483/483/483
f 481/481/481 483/483/483 484/484/484
v -5.98 0 -7.28
v -3.28 0 -7.28
v -3.28 1.3 -7.28
v -5.98 1.3 -7.28
vt 0 0
vt 2.7 0
vt 2.7 1.3
vt 0 1.3
vn 0 0 1
vn 0 0 1
vn 0 0 1
vn 0 0 1
f 485/485/485 486/486/486 487/487/487
f 485/485/485 487/487/487 488/488/488
v -5.98 0 -8.68
v -5.98 0 -7.28
v -5.98 1.3 -7.28
v -5.98 1.3 -8.68
vt 0 0
vt 1.4 0
vt 1.4 1.3
vt 0 1.3
vn -1 0 0
vn -1 0 0
vn -1 0 0
vn -1 0 0
f 489/489/489 490/490/490 491/491/491
f 489/489/489 491/491/491 492/492/492
v -3.28 0 -8.68
v -3.28 1.3 -8.68
v -3.28 1.3 -7.28
v -3.28 0 -7.28
vt 0 0
vt 1.3 0
vt 1.3 1.4
vt 0 1.4
vn 1 0 0
vn 1 0 0
vn 1 0 0
vn 1 0 0
f 493/493/493 494/494/494 495/495/495
f 493/493/493 495/495/495 496/496/496
v -5.98 0 -8.68
v -3.28 0 -8.68
v -3.28 0 -7.28
v -5.98 0 -7.28
vt 0 0
vt 2.7 0
vt 2.7 1.4
vt 0 1.4
vn 0 -1 0
vn 0 -1 0
vn 0 -1 0
vn 0 -1 0
f 497/497/497 498/498/498 499/499/499
f 497/497/497 499/499/499 500/500/500
v -5.98 1.3 -8.68
v -5.98 1.3 -7.28
v -3.28 1.3 -7.28
v -3.28 1.3 -8.68
vt 0 0
vt 1.4 0
vt 1.4 2.7
vt 0 2.7
vn 0 1 0
vn 0 1 0
vn 0 1 0
vn 0 1 0
f 501/501/501 502/502/502 503/503/503
f 501/501/501 503/503/503 504/504/504
v 3.28 0 -8.68
v 3.28 1.3 -8.68
v 5.98 1.3 -8.68
v 5.98 0 -8.68
vt 0 0
vt 1.3 0
vt 1.3 2.7
vt 0 2.7
vn 0 0 -1
vn 0 0 -1
vn 0 0 -1
vn 0 0 -1
f 505/505/505 506/506/506 507/507/507
f 505/505/505 507/507/507 508/508/508
v 3.28 0 -7.28
v 5.98 0 -7.28
v 5.98 1.3 -7.28
v 3.28 1.3 -7.28
vt 0 0
vt 2.7 0
vt 2.7 1.3
vt 0 1.3
vn 0 0 1
vn 0 0 1
vn 0 0 1
vn 0 0 1
f 509/509/509 510/510/510 511/511/511
f 509/509/509 511/511/511 512/512/512
v 3.28 0 -8.68
v 3.28 0 -7.28
v 3.28 1.3 -7.28
v 3.28 1.3 -8.68
vt 0 0
vt 1.4 0
vt 1.4 1.3
vt 0 1.3
vn -1 0 0
vn -1 0 0
vn -1 0 0
vn -1 0 0
f 513/513/513 514/514/514 515/515/515
f 513/513/513 515/515/515 516/516/516
v 5.98 0 -8.68
v 5.98 1.3 -8.68
v 5.98 1.3 -7.28
v 5.98 0 -7.28
vt 0 0
vt 1.3 0
vt 1.3 1.4
vt 0 1.4
vn 1 0 0
vn 1 0 0
vn 1 0 0
vn 1 0 0
f 517/517/517 518/518/518 519/519/519
f 517/517/517 519/519/519 520/520/520
v 3.28 0 -8.68
v 5.98 0 -8.68
v 5.98 0 -7.28
v 3.28 0 -7.28
vt 0 0
vt 2.7 0
vt 2.7 1.4
vt 0 1.4
vn 0 -1 0
vn 0 -1 0
vn 0 -1 0
vn 0 -1 0
f 521/521/521 522/522/522 523/523/523
f 521/521/521 523/523/523 524/524/524
v 3.28 1.3 -8.68
v 3.28 1.3 -7.28
v 5.98 1.3 -7.28
v 5.98 1.3 -8.68
vt 0 0
vt 1.4 0
vt 1.4 2.7
vt 0 2.7
vn 0 1 0
vn 0 1 0
vn 0 1 0
vn 0 1 0
f 525/525/525 526/526/526 527/527/527
f 525/525/525 527/527/527 528/528/528
v 6.32 0.3 -5.95
v 6.32 0.66 -5.95
v 7.44 0.66 -5.95
v 7.44 0.3 -5.95
vt 0 0
vt 0.36 0
vt 0.36 1.12
vt 0 1.12
vn 0 0 -1
vn 0 0 -1
vn 0 0 -1
vn 0 0 -1
f 529/529/529 530/530/530 531/531/531
f 529/529/529 531/531/531 532/532/532
v 6.32 0.3 4.95
v 7.44 0.3 4.95
v 7.44 0.66 4.95
v 6.32 0.66 4.95
vt 0 0
vt 1.12 0
vt 1.12 0.36
vt 0 0.36
vn 0 0 1
vn 0 0 1
vn 0 0 1
vn 0 0 1
f 533/533/533 534/534/534 535/535/535
f 533/533/533 535/535/535 536/536/536
v 6.32 0.3 -5.95
v 6.32 0.3 4.95
v 6.32 0.66 4.95
v 6.32 0.66 -5.95
vt 0 0
vt 10.9 0
vt 10.9 0.36
vt 0 0.36
vn -1 0 0
vn -1 0 0
vn -1 0 0
vn -1 0 0
f 537/537/537 538/538/538 539/539/539
f 537/537/537 539/539/539 540/540/540
v 7.44 0.3 -5.95
v 7.44 0.66 -5.95
v 7.44 0.66 4.95
v 7.44 0.3 4.95
vt 0 0
vt 0.36 0
vt 0.36 10.9
vt 0 10.9
vn 1 0 0
vn 1 0 0
vn 1 0 0
vn 1 0 0
f 541/541/541 542/542/542 543/543/543
f 541/541/541 543/543/543 544/544/544
v 6.32 0.3 -5.95
v 7.44 0.3 -5.95
v 7.44 0.3 4.95
v 6.32 0.3 4.95
vt 0 0
vt 1.12 0
vt 1.12 10.9
vt 0 10.9
vn 0 -1 0
vn 0 -1 0
vn 0 -1 0
vn 0 -1 0
f 545/545/545 546/546/546 547/547/547
f 545/545/545 547/547/547 548/548/548
v 6.32 0.66 -5.95
v 6.32 0.66 4.95
v 7.44 0.66 4.95
v 7.44 0.66 -5.95
vt 0 0
vt 10.9 0
vt 10.9 1.12
vt 0 1.12
vn 0 1 0
vn 0 1 0
vn 0 1 0
vn 0 1 0
f 549/549/549 550/550/550 551/551/551
f 549/549/549 551/551/551 552/552/552
v -7.25 0.9 -3.045
v -7.25 4.2 -3.045
v -7.13 4.2 -3.045
v -7.13 0.9 -3.045
vt 0 0
vt 3.3 0
vt 3.3 0.12
vt 0 0.12
vn 0 0 -1
vn 0 0 -1
vn 0 0 -1
vn 0 0 -1
f 553/553/553 554/554/554 555/555/555
f 553/553/553 555/555/555 556/556/556
v -7.25 0.9 -2.955
v -7.13 0.9 -2.955
v -7.13 4.2 -2.955
v -7.25 4.2 -2.955
vt 0 0
vt 0.12 0
vt 0.12 3.3
vt 0 3.3
vn 0 0 1
vn 0 0 1
vn 0 0 1
vn 0 0 1
f 557/557/557 558/558/558 559/559/559
f 557/557/557 559/559/559 560/560/560
v -7.25 0.9 -3.045
v -7.25 0.9 -2.955
v -7.25 4.2 -2.955
v -7.25 4.2 -3.045
vt 0 0
vt 0.09 0
vt 0.09 3.3
vt 0 3.3
vn -1 0 0
vn -1 0 0
vn -1 0 0
vn -1 0 0
f 561/561/561 562/562/562 563/563/563
f 561/561/561 563/563/563 564/564/564
v -7.13 0.9 -3.045
v -7.13 4.2 -3.045
v -7.13 4.2 -2.955
v -7.13 0.9 -2.955
vt 0 0
vt 3.3 0
vt 3.3 0.09
vt 0 0.09
vn 1 0 0
vn 1 0 0
vn 1 0 0
vn 1 0 0
f 565/565/565 566/566/566 567/567/567
f 565/565/565 567/567/567 568/568/568
v -7.25 0.9 -3.045
v -7.13 0.9 -3.045
v -7.13 0.9 -2.955
v -7.25 0.9 -2.955
vt 0 0
vt 0.12 0
vt 0.12 0.09
vt 0 0.09
vn 0 -1 0
vn 0 -1 0
vn 0 -1 0
vn 0 -1 0
f 569/569/569 570/570/570 571/571/571
f 569/569/569 571/571/571 572/572/572
v -7.25 4.2 -3.045
v -7.25 4.2 -2.955
v -7.13 4.2 -2.955
v -7.13 4.2 -3.045
vt 0 0
vt 0.09 0
vt 0.09 0.12
vt 0 0.12
vn 0 1 0
vn 0 1 0
vn 0 1 0
vn 0 1 0
f 573/573/573 574/574/574 575/575/575
f 573/573/573 575/575/575 576/576/576
v -7.25 0.9 -2.445
v -7.25 4.2 -2.445
v -7.13 4.2 -2.445
v -7.13 0.9 -2.445
vt 0 0
vt 3.3 0
vt 3.3 0.12
vt 0 0.12
vn 0 0 -1
vn 0 0 -1
vn 0 0 -1
vn 0 0 -1
f 577/577/577 578/578/578 579/579/579
f 577/577/577 579/579/579 580/580/580
v -7.25 0.9 -2.355
v -7.13 0.9 -2.355
v -7.13 4.2 -2.355
v -7.25 4.2 -2.355
vt 0 0
vt 0.12 0
vt 0.12 3.3
vt 0 3.3
vn 0 0 1
vn 0 0 1
vn 0 0 1
vn 0 0 1
f 581/581/581 582/582/582 583/583/583
f 581/581/581 583/583/583 584/584/584
v -7.25 0.9 -2.445
v -7.25 0.9 -2.355
v -7.25 4.2 -2.355
v -7.25 4.2 -2.445
vt 0 0
vt 0.09 0
vt 0.09 3.3
vt 0 3.3
vn -1 0 0
vn -1 0 0
vn -1 0 0
vn -1 0 0
f 585/585/585 586/586/586 587/587/587
f 585/585/585 587/587/587 588/588/588
v -7.13 0.9 -2.445
v -7.13 4.2 -2.445
v -7.13 4.2 -2.355
v -7.13 0.9 -2.355
vt 0 0
vt 3.3 0
vt 3.3 0.09
vt 0 0.09
vn 1 0 0
vn 1 0 0
vn 1 0 0
vn 1 0 0
f 589/589/589 590/590/590 591/591/591
f 589/589/589 591/591/591 592/592/592
v -7.25 0.9 -2.445
v -7.13 0.9 -2.445
v -7.13 0.9 -2.355
v -7.25 0.9 -2.355
vt 0 0
vt 0.12 0
vt 0.12 0.09
vt 0 0.09
vn 0 -1 0
vn 0 -1 0
vn 0 -1 0
vn 0 -1 0
f 593/593/593 594/594/594 595/595/595
f 593/593/593 595/595/595 596/596/596
v -7.25 4.2 -2.445
v -7.25 4.2 -2.355
v -7.13 4.2 -2.355
v -7.13 4.2 -2.445
vt 0 0
vt 0.09 0
vt 0.09 0.12
vt 0 0.12
vn 0 1 0
vn 0 1 0
vn 0 1 0
vn 0 1 0
f 597/597/597 598/598/598 599/599/599
f 597/597/597 599/599/599 600/600/600
v -7.25 0.9 -1.845
v -7.25 4.2 -1.845
v -7.13 4.2 -1.845
v -7.13 0.9 -1.845
vt 0 0
vt 3.3 0
vt 3.3 0.12
vt 0 0.12
vn 0 0 -1
vn 0 0 -1
vn 0 0 -1
vn 0 0 -1
f 601/601/601 602/602/602 603/603/603
f 601/601/601 603/603/603 604/604/604
v -7.25 0.9 -1.755
v -7.13 0.9 -1.755
v -7.13 4.2 -1.755
v -7.25 4.2 -1.755
vt 0 0
vt 0.12 0
vt 0.12 3.3
vt 0 3.3
vn 0 0 1
vn 0 0 1
vn 0 0 1
vn 0 0 1
f 605/605/605 606/606/606 607/607/607
f 605/605/605 607/607/607 608/608/608
v -7.25 0.9 -1.845
v -7.25 0.9 -1.755
v -7.25 4.2 -1.755
v -7.25 4.2 -1.845
vt 0 0
vt 0.09 0
vt 0.09 3.3
vt 0 3.3
vn -1 0 0
vn -1 0 0
vn -1 0 0
vn -1 0 0
f 609/609/609 610/610/610 611/611/611
f 609/609/609 611/611/611 612/612/612
v -7.13 0.9 -1.845
v -7.13 4.2 -1.845
v -7.13 4.2 -1.755
v -7.13 0.9 -1.755
vt 0 0
vt 3.3 0
vt 3.3 0.09
vt 0 0.09
vn 1 0 0
vn 1 0 0
vn 1 0 0
vn 1 0 0
f 613/613/613 614/614/614 615/615/615
f 613/613/613 615/615/615 616/616/616
v -7.25 0.9 -1.845
v -7.13 0.9 -1.845
v -7.13 0.9 -1.755
v -7.25 0.9 -1.755
vt 0 0
vt 0.12 0
vt 0.12 0.09
vt 0 0.09
vn 0 -1 0
vn 0 -1 0
vn 0 -1 0
vn 0 -1 0
f 617/617/617 618/618/618 619/619/619
f 617/617/617 619/619/619 620/620/620
v -7.25 4.2 -1.845
v -7.25 4.2 -1.755
v -7.13 4.2 -1.755
v -7.13 4.2 -1.845
vt 0 0
vt 0.09 0
vt 0.09 0.12
vt 0 0.12
vn 0 1 0
vn 0 1 0
vn 0 1 0
vn 0 1 0
f 621/621/621 622/622/622 623/623/623
f 621/621/621 623/623/623 624/624/624
v -7.25 0.9 -1.245
v -7.25 4.2 -1.245
v -7.13 4.2 -1.245
v -7.13 0.9 -1.245
vt 0 0
vt 3.3 0
vt 3.3 0.12
vt 0 0.12
vn 0 0 -1
vn 0 0 -1
vn 0 0 -1
vn 0 0 -1
f 625/625/625 626/626/626 627/627/627
f 625/625/625 627/627/627 628/628/628
v -7.25 0.9 -1.155
v -7.13 0.9 -1.155
v -7.13 4.2 -1.155
v -7.25 4.2 -1.155
vt 0 0
vt 0.12 0
vt 0.12 3.3
vt 0 3.3
vn 0 0 1
vn 0 0 1
vn 0 0 1
vn 0 0 1
f 629/629/629 630/630/630 631/631/631
f 629/629/629 631/631/631 632/632/632
v -7.25 0.9 -1.245
v -7.25 0.9 -1.155
v -7.25 4.2 -1.155
v -7.25 4.2 -1.245
vt 0 0
vt 0.09 0
vt 0.09 3.3
vt 0 3.3
vn -1 0 0
vn -1 0 0
vn -1 0 0
vn -1 0 0
f 633/633/633 634/634/634 635/635/635
f 633/633/633 635/635/635 636/636/636
v -7.13 0.9 -1.245
v -7.13 4.2 -1.245
v -7.13 4.2 -1.155
v -7.13 0.9 -1.155
vt 0 0
vt 3.3 0
vt 3.3 0.09
vt 0 0.09
vn 1 0 0
vn 1 0 0
vn 1 0 0
vn 1 0 0
f 637/637/637 638/638/638 639/639/639
f 637/637/637 639/639/639 640/640/640
v -7.25 0.9 -1.245
v -7.13 0.9 -1.245
v -7.13 0.9 -1.155
v -7.25 0.9 -1.155
vt 0 0
vt 0.12 0
vt 0.12 0.09
vt 0 0.09
vn 0 -1 0
vn 0 -1 0
vn 0 -1 0
vn 0 -1 0
f 641/641/641 642/642/642 643/643/643
f 641/641/641 643/643/643 644/644/644
v -7.25 4.2 -1.245
v -7.25 4.2 -1.155
v -7.13 4.2 -1.155
v -7.13 4.2 -1.245
vt 0 0
vt 0.09 0
vt 0.09 0.12
vt 0 0.12
vn 0 1 0
vn 0 1 0
vn 0 1 0
vn 0 1 0
f 645/645/645 646/646/646 647/647/647
f 645/645/645 647/647/647 648/648/648
v -7.25 0.9 -0.645
v -7.25 4.2 -0.645
v -7.13 4.2 -0.645
v -7.13 0.9 -0.645
vt 0 0
vt 3.3 0
vt 3.3 0.12
vt 0 0.12
vn 0 0 -1
vn 0 0 -1
vn 0 0 -1
vn 0 0 -1
f 649/649/649 650/650/650 651/651/651
f 649/649/649 651/651/651 652/652/652
v -7.25 0.9 -0.555
v -7.13 0.9 -0.555
v -7.13 4.2 -0.555
v -7.25 4.2 -0.555
vt 0 0
vt 0.12 0
vt 0.12 3.3
vt 0 3.3
vn 0 0 1
vn 0 0 1
vn 0 0 1
vn 0 0 1
f 653/653/653 654/654/654 655/655/655
f 653/653/653 655/655/655 656/656/656
v -7.25 0.9 -0.645
v -7.25 0.9 -0.555
v -7.25 4.2 -0.555
v -7.25 4.2 -0.645
vt 0 0
vt 0.09 0
vt 0.09 3.3
vt 0 3.3
vn -1 0 0
vn -1 0 0
vn -1 0 0
vn -1 0 0
f 657/657/657 658/658/658 659/659/659
f 657/657/657 659/659/659 660/660/660
v -7.13 0.9 -0.645
v -7.13 4.2 -0.645
v -7.13 4.2 -0.555
v -7.13 0.9 -0.555
vt 0 0
vt 3.3 0
vt 3.3 0.09
vt 0 0.09
vn 1 0 0
vn 1 0 0
vn 1 0 0
vn 1 0 0
f 661/661/661 662/662/662 663/663/663
f 661/661/661 663/663/663 664/664/664
v -7.25 0.9 -0.645
v -7.13 0.9 -0.645
v -7.13 0.9 -0.555
v -7.25 0.9 -0.555
vt 0 0
vt 0.12 0
vt 0.12 0.09
vt 0 0.09
vn 0 -1 0
vn 0 -1 0
vn 0 -1 0
vn 0 -1 0
f 665/665/665 666/666/666 667/667/667
f 665/665/665 667/667/667 668/668/668
v -7.25 4.2 -0.645
v -7.25 4.2 -0.555
v -7.13 4.2 -0.555
v -7.13 4.2 -0.645
vt 0 0
vt 0.09 0
vt 0.09 0.12
vt 0 0.12
vn 0 1 0
vn 0 1 0
vn 0 1 0
vn 0 1 0
f 669/669/669 670/670/670 671/671/671
f 669/669/669 671/671/671 672/672/672
v -7.25 0.9 -0.045
v -7.25 4.2 -0.045
v -7.13 4.2 -0.045
v -7.13 0.9 -0.045
vt 0 0
vt 3.3 0
vt 3.3 0.12
vt 0 0.12
vn 0 0 -1
vn 0 0 -1
vn 0 0 -1
vn 0 0 -1
f 673/673/673 674/674/674 675/675/675
f 673/673/673 675/675/675 676/676/676
v -7.25 0.9 0.045
v -7.13 0.9 0.045
v -7.13 4.2 0.045
v -7.25 4.2 0.045
vt 0 0
vt 0.12 0
vt 0.12 3.3
vt 0 3.3
vn 0 0 1
vn 0 0 1
vn 0 0 1
vn 0 0 1
f 677/677/677 678/678/678 679/679/679
f 677/677/677 679/679/679 680/680/680
v -7.25 0.9 -0.045
v -7.25 0.9 0.045
v -7.25 4.2 0.045
v -7.25 4.2 -0.045
vt 0 0
vt 0.09 0
vt 0.09 3.3
vt 0 3.3
vn -1 0 0
vn -1 0 0
vn -1 0 0
vn -1 0 0
f 681/681/681 682/682/682 683/683/683
f 681/681/681 683/683/683 684/684/684
v -7.13 0.9 -0.045
v -7.13 4.2 -0.045
v -7.13 4.2 0.045
v -7.13 0.9 0.045
vt 0 0
vt 3.3 0
vt 3.3 0.09
vt 0 0.09
vn 1 0 0
vn 1 0 0
vn 1 0 0
vn 1 0 0
f 685/685/685 686/686/686 687/687/687
f 685/685/685 687/687/687 688/688/688
v -7.25 0.9 -0.045
v -7.13 0.9 -0.045
v -7.13 0.9 0.045
v -7.25 0.9 0.045
vt 0 0
vt 0.12 0
vt 0.12 0.09
vt 0 0.09
vn 0 -1 0
vn 0 -1 0
vn 0 -1 0
vn 0 -1 0
f 689/689/689 690/690/690 691/691/691
f 689/689/689 691/691/691 692/692/692
v -7.25 4.2 -0.045
v -7.25 4.2 0.045
v -7.13 4.2 0.045
v -7.13 4.2 -0.045
vt 0 0
vt 0.09 0
vt 0.09 0.12
vt 0 0.12
vn 0 1 0
vn 0 1 0
vn 0 1 0
vn 0 1 0
f 693/693/693 694/694/694 695/695/695
f 693/693/693 695/695/695 696/696/696
v -7.25 0.9 0.555
v -7.25 4.2 0.555
v -7.13 4.2 0.555
v -7.13 0.9 0.555
vt 0 0
vt 3.3 0
vt 3.3 0.12
vt 0 0.12
vn 0 0 -1
vn 0 0 -1
vn 0 0 -1
vn 0 0 -1
f 697/697/697 698/698/698 699/699/699
f 697/697/697 699/699/699 700/700/700
v -7.25 0.9 0.645
v -7.13 0.9 0.645
v -7.13 4.2 0.645
v -7.25 4.2 0.645
vt 0 0
vt 0.12 0
vt 0.12 3.3
vt 0 3.3
vn 0 0 1
vn 0 0 1
vn 0 0 1
vn 0 0 1
f 701/701/701 702/702/702 703/703/703
f 701/701/701 703/703/703 704/704/704
v -7.25 0.9 0.555
v -7.25 0.9 0.645
v -7.25 4.2 0.645
v -7.25 4.2 0.555
vt 0 0
vt 0.09 0
vt 0.09 3.3
vt 0 3.3
vn -1 0 0
vn -1 0 0
vn -1 0 0
vn -1 0 0
f 705/705/705 706/706/706 707/707/707
f 705/705/705 707/707/707 708/708/708
v -7.13 0.9 0.555
v -7.13 4.2 0.555
v -7.13 4.2 0.645
v -7.13 0.9 0.645
vt 0 0
vt 3.3 0
vt 3.3 0.09
vt 0 0.09
vn 1 0 0
vn 1 0 0
vn 1 0 0
vn 1 0 0
f 709/709/709 710/710/710 711/711/711
f 709/709/709 711/711/711 712/712/712
v -7.25 0.9 0.555
v -7.13 0.9 0.555
v -7.13 0.9 0.645
v -7.25 0.9 0.645
vt 0 0
vt 0.12 0
vt 0.12 0.09
vt 0 0.09
vn 0 -1 0
vn 0 -1 0
vn 0 -1 0
vn 0 -1 0
f 713/713/713 714/714/714 715/715/715
f 713/713/713 715/715/715 716/716/716
v -7.25 4.2 0.555
v -7.25 4.2 0.645
v -7.13 4.2 0.645
v -7.13 4.2 0.555
vt 0 0
vt 0.09 0
vt 0.09 0.12
vt 0 0.12
vn 0 1 0
vn 0 1 0
vn 0 1 0
vn 0 1 0
f 717/717/717 718/718/718 719/719/719
f 717/717/717 719/719/719 720/720/720
v -7.25 0.9 1.155
v -7.25 4.2 1.155
v -7.13 4.2 1.155
v -7.13 0.9 1.155
vt 0 0
vt 3.3 0
vt 3.3 0.12
vt 0 0.12
vn 0 0 -1
vn 0 0 -1
vn 0 0 -1
vn 0 0 -1
f 721/721/721 722/722/722 723/723/723
f 721/721/721 723/723/723 724/724/724
v -7.25 0.9 1.245
v -7.13 0.9 1.245
v -7.13 4.2 1.245
v -7.25 4.2 1.245
vt 0 0
vt 0.12 0
vt 0.12 3.3
vt 0 3.3
vn 0 0 1
vn 0 0 1
vn 0 0 1
vn 0 0 1
f 725/725/725 726/726/726 727/727/727
f 725/725/725 727/727/727 728/728/728
v -7.25 0.9 1.155
v -7.25 0.9 1.245
v -7.25 4.2 1.245
v -7.25 4.2 1.155
vt 0 0
vt 0.09 0
vt 0.09 3.3
vt 0 3.3
vn -1 0 0
vn -1 0 0
vn -1 0 0
vn -1 0 0
f 729/729/729 730/730/730 731/731/731
f 729/729/729 731/731/731 732/732/732
v -7.13 0.9 1.155
v -7.13 4.2 1.155
v -7.13 4.2 1.245
v -7.13 0.9 1.245
vt 0 0
vt 3.3 0
vt 3.3 0.09
vt 0 0.09
vn 1 0 0
vn 1 0 0
vn 1 0 0
vn 1 0 0
f 733/733/733 734/734/734 735/735/735
f 733/733/733 735/735/735 736/736/736
v -7.25 0.9 1.155
v -7.13 0.9 1.155
v -7.13 0.9 1.245
v -7.25 0.9 1.245
vt 0 0
vt 0.12 0
vt 0.12 0.09
vt 0 0.09
vn 0 -1 0
vn 0 -1 0
vn 0 -1 0
vn 0 -1 0
f 737/737/737 738/738/738 739/739/739
f 737/737/737 739/739/739 740/740/740
v -7.25 4.2 1.155
v -7.25 4.2 1.245
v -7.13 4.2 1.245
v -7.13 4.2 1.155
vt 0 0
vt 0.09 0
vt 0.09 0.12
vt 0 0.12
vn 0 1 0
vn 0 1 0
vn 0 1 0
vn 0 1 0
f 741/741/741 742/742/742 743/743/743
f 741/741/741 743/743/743 744/744/744
v -7.25 0.9 1.755
v -7.25 4.2 1.755
v -7.13 4.2 1.755
v -7.13 0.9 1.755
vt 0 0
vt 3.3 0
vt 3.3 0.12
vt 0 0.12
vn 0 0 -1
vn 0 0 -1
vn 0 0 -1
vn 0 0 -1
f 745/745/745 746/746/746 747/747/747
f 745/745/745 747/747/747 748/748/748
v -7.25 0.9 1.845
v -7.13 0.9 1.845
v -7.13 4.2 1.845
v -7.25 4.2 1.845
vt 0 0
vt 0.12 0
vt 0.12 3.3
vt 0 3.3
vn 0 0 1
vn 0 0 1
vn 0 0 1
vn 0 0 1
f 749/749/749 750/750/750 751/751/751
f 749/749/749 751/751/751 752/752/752
v -7.25 0.9 1.755
v -7.25 0.9 1.845
v -7.25 4.2 1.845
v -7.25 4.2 1.755
vt 0 0
vt 0.09 0
vt 0.09 3.3
vt 0 3.3
vn -1 0 0
vn -1 0 0
vn -1 0 0
vn -1 0 0
f 753/753/753 754/754/754 755/755/755
f 753/753/753 755/755/755 756/756/756
v -7.13 0.9 1.755
v -7.13 4.2 1.755
v -7.13 4.2 1.845
v -7.13 0.9 1.845
vt 0 0
vt 3.3 0
vt 3.3 0.09
vt 0 0.09
vn 1 0 0
vn 1 0 0
vn 1 0 0
vn 1 0 0
f 757/757/757 758/758/758 759/759/759
f 757/757/757 759/759/759 760/760/760
v -7.25 0.9 1.755
v -7.13 0.9 1.755
v -7.13 0.9 1.845
v -7.25 0.9 1.845
vt 0 0
vt 0.12 0
vt 0.12 0.09
vt 0 0.09
vn 0 -1 0
vn 0 -1 0
vn 0 -1 0
vn 0 -1 0
f 761/761/761 762/762/762 763/763/763
f 761/761/761 763/763/763 764/764/764
v -7.25 4.2 1.755
v -7.25 4.2 1.845
v -7.13 4.2 1.845
v -7.13 4.2 1.755
vt 0 0
vt 0.09 0
vt 0.09 0.12
vt 0 0.12
vn 0 1 0
vn 0 1 0
vn 0 1 0
vn 0 1 0
f 765/765/765 766/766/766 767/767/767
f 765/765/765 767/767/767 768/768/768
v -7.25 0.9 2.355
v -7.25 4.2 2.355
v -7.13 4.2 2.355
v -7.13 0.9 2.355
vt 0 0
vt 3.3 0
vt 3.3 0.12
vt 0 0.12
vn 0 0 -1
vn 0 0 -1
vn 0 0 -1
vn 0 0 -1
f 769/769/769 770/770/770 771/771/771
f 769/769/769 771/771/771 772/772/772
v -7.25 0.9 2.445
v -7.13 0.9 2.445
v -7.13 4.2 2.445
v -7.25 4.2 2.445
vt 0 0
vt 0.12 0
vt 0.12 3.3
vt 0 3.3
vn 0 0 1
vn 0 0 1
vn 0 0 1
vn 0 0 1
f 773/773/773 774/774/774 775/775/775
f 773/773/773 775/775/775 776/776/776
v -7.25 0.9 2.355
v -7.25 0.9 2.445
v -7.25 4.2 2.445
v -7.25 4.2 2.355
vt 0 0
vt 0.09 0
vt 0.09 3.3
vt 0 3.3
vn -1 0 0
vn -1 0 0
vn -1 0 0
vn -1 0 0
f 777/777/777 778/778/778 779/779/779
f 777/777/777 779/779/779 780/780/780
v -7.13 0.9 2.355
v -7.13 4.2 2.355
v -7.13 4.2 2.445
v -7.13 0.9 2.445
vt 0 0
vt 3.3 0
vt 3.3 0.09
vt 0 0.09
vn 1 0 0
vn 1 0 0
vn 1 0 0
vn 1 0 0
f 781/781/781 782/782/782 783/783/783
f 781/781/781 783/783/783 784/784/784
v -7.25 0.9 2.355
v -7.13 0.9 2.355
v -7.13 0.9 2.445
v -7.25 0.9 2.445
vt 0 0
vt 0.12 0
vt 0.12 0.09
vt 0 0.09
vn 0 -1 0
vn 0 -1 0
vn 0 -1 0
vn 0 -1 0
f 785/785/785 786/786/786 787/787/787
f 785/785/785 787/787/787 788/788/788
v -7.25 4.2 2.355
v -7.25 4.2 2.445
v -7.13 4.2 2.445
v -7.13 4.2 2.355
vt 0 0
vt 0.09 0
vt 0.09 0.12
vt 0 0.12
vn 0 1 0
vn 0 1 0
vn 0 1 0
vn 0 1 0
f 789/789/789 790/790/790 791/791/791
f 789/789/789 791/791/791 792/792/792
v -7.25 0.9 2.955
v -7.25 4.2 2.955
v -7.13 4.2 2.955
v -7.13 0.9 2.955
vt 0 0
vt 3.3 0
vt 3.3 0.12
vt 0 0.12
vn 0 0 -1
vn 0 0 -1
vn 0 0 -1
vn 0 0 -1
f 793/793/793 794/794/794 795/795/795
f 793/793/793 795/795/795 796/796/796
v -7.25 0.9 3.045
v -7.13 0.9 3.045
v -7.13 4.2 3.045
v -7.25 4.2 3.045
vt 0 0
vt 0.12 0
vt 0.12 3.3
vt 0 3.3
vn 0 0 1
vn 0 0 1
vn 0 0 1
vn 0 0 1
f 797/797/797 798/798/798 799/799/799
f 797/797/797 799/799/799 800/800/800
v -7.25 0.9 2.955
v -7.25 0.9 3.045
v -7.25 4.2 3.045
v -7.25 4.2 2.955
vt 0 0
vt 0.09 0
vt 0.09 3.3
vt 0 3.3
vn -1 0 0
vn -1 0 0
vn -1 0 0
vn -1 0 0
f 801/801/801 802/802/802 803/803/803
f 801/801/801 803/803/803 804/804/804
v -7.13 0.9 2.955
v -7.13 4.2 2.955
v -7.13 4.2 3.045
v -7.13 0.9 3.045
vt 0 0
vt 3.3 0
vt 3.3 0.09
vt 0 0.09
vn 1 0 0
vn 1 0 0
vn 1 0 0
vn 1 0 0
f 805/805/805 806/806/806 807/807/807
f 805/805/805 807/807/807 808/808/808
v -7.25 0.9 2.955
v -7.13 0.9 2.955
v -7.13 0.9 3.045
v -7.25 0.9 3.045
vt 0 0
vt 0.12 0
vt 0.12 0.09
vt 0 0.09
vn 0 -1 0
vn 0 -1 0
vn 0 -1 0
vn 0 -1 0
f 809/809/809 810/810/810 811/811/811
f 809/809/809 811/811/811 812/812/812
v -7.25 4.2 2.955
v -7.25 4.2 3.045
v -7.13 4.2 3.045
v -7.13 4.2 2.955
vt 0 0
vt 0.09 0
vt 0.09 0.12
vt 0 0.12
vn 0 1 0
vn 0 1 0
vn 0 1 0
vn 0 1 0
f 813/813/813 814/814/814 815/815/815
f 813/813/813 815/815/815 816/816/816
v -7.25 0.9 3.555
v -7.25 4.2 3.555
v -7.13 4.2 3.555
v -7.13 0.9 3.555
vt 0 0
vt 3.3 0
vt 3.3 0.12
vt 0 0.12
vn 0 0 -1
vn 0 0 -1
vn 0 0 -1
vn 0 0 -1
f 817/817/817 818/818/818 819/819/819
f 817/817/817 819/819/819 820/820/820
v -7.25 0.9 3.645
v -7.13 0.9 3.645
v -7.13 4.2 3.645
v -7.25 4.2 3.645
vt 0 0
vt 0.12 0
vt 0.12 3.3
vt 0 3.3
vn 0 0 1
vn 0 0 1
vn 0 0 1
vn 0 0 1
f 821/821/821 822/822/822 823/823/823
f 821/821/821 823/823/823 824/824/824
v -7.25 0.9 3.555
v -7.25 0.9 3.645
v -7.25 4.2 3.645
v -7.25 4.2 3.555
vt 0 0
vt 0.09 0
vt 0.09 3.3
vt 0 3.3
vn -1 0 0
vn -1 0 0
vn -1 0 0
vn -1 0 0
f 825/825/825 826/826/826 827/827/827
f 825/825/825 827/827/827 828/828/828
v -7.13 0.9 3.555
v -7.13 4.2 3.555
v -7.13 4.2 3.645
v -7.13 0.9 3.645
vt 0 0
vt 3.3 0
vt 3.3 0.09
vt 0 0.09
vn 1 0 0
vn 1 0 0
vn 1 0 0
vn 1 0 0
f 829/829/829 830/830/830 831/831/831
f 829/829/829 831/831/831 832/832/832
v -7.25 0.9 3.555
v -7.13 0.9 3.555
v -7.13 0.9 3.645
v -7.25 0.9 3.645
vt 0 0
vt 0.12 0
vt 0.12 0.09
vt 0 0.09
vn 0 -1 0
vn 0 -1 0
vn 0 -1 0
vn 0 -1 0
f 833/833/833 834/834/834 835/835/835
f 833/833/833 835/835/835 836/836/836
v -7.25 4.2 3.555
v -7.25 4.2 3.645
v -7.13 4.2 3.645
v -7.13 4.2 3.555
vt 0 0
vt 0.09 0
vt 0.09 0.12
vt 0 0.12
vn 0 1 0
vn 0 1 0
vn 0 1 0
vn 0 1 0
f 837/837/837 838/838/838 839/839/839
f 837/837/837 839/839/839 840/840/840
v -7.26 1.15 -0.225
v -7.26 1.27 -0.225
v -5.64 1.27 -0.225
v -5.64 1.15 -0.225
vt 0 0
vt 0.12 0
vt 0.12 1.62
vt 0 1.62
vn 0 0 -1
vn 0 0 -1
vn 0 0 -1
vn 0 0 -1
f 841/841/841 842/842/842 843/843/843
f 841/841/841 843/843/843 844/844/844
v -7.26 1.15 3.525
v -5.64 1.15 3.525
v -5.64 1.27 3.525
v -7.26 1.27 3.525
vt 0 0
vt 1.62 0
vt 1.62 0.12
vt 0 0.12
vn 0 0 1
vn 0 0 1
vn 0 0 1
vn 0 0 1
f 845/845/845 846/846/846 847/847/847
f 845/845/845 847/847/847 848/848/848
v -7.26 1.15 -0.225
v -7.26 1.15 3.525
v -7.26 1.27 3.525
v -7.26 1.27 -0.225
vt 0 0
vt 3.75 0
vt 3.75 0.12
vt 0 0.12
vn -1 0 0
vn -1 0 0
vn -1 0 0
vn -1 0 0
f 849/849/849 850/850/850 851/851/851
f 849/849/849 851/851/851 852/852/852
v -5.64 1.15 -0.225
v -5.64 1.27 -0.225
v -5.64 1.27 3.525
v -5.64 1.15 3.525
vt 0 0
vt 0.12 0
vt 0.12 3.75
vt 0 3.75
vn 1 0 0
vn 1 0 0
vn 1 0 0
vn 1 0 0
f 853/853/853 854/854/854 855/855/855
f 853/853/853 855/855/855 856/856/856
v -7.26 1.15 -0.225
v -5.64 1.15 -0.225
v -5.64 1.15 3.525
v -7.26 1.15 3.525
vt 0 0
vt 1.62 0
vt 1.62 3.75
vt 0 3.75
vn 0 -1 0
vn 0 -1 0
vn 0 -1 0
vn 0 -1 0
f 857/857/857 858/858/858 859/859/859
f 857/857/857 859/859/859 860/860/860
v -7.26 1.27 -0.225
v -7.26 1.27 3.525
v -5.64 1.27 3.525
v -5.64 1.27 -0.225
vt 0 0
vt 3.75 0
vt 3.75 1.62
vt 0 1.62
vn 0 1 0
vn 0 1 0
vn 0 1 0
vn 0 1 0
f 861/861/861 862/862/862 863/863/863
f 861/861/861 863/863/863 864/864/864
