# Original Breakwater Station authored geometry
o control_room_salt_concrete
v -8 -0.3 -10
v -8 0 -10
v 8 0 -10
v 8 -0.3 -10
vt 0 0
vt 0.3 0
vt 0.3 16
vt 0 16
vn 0 0 -1
vn 0 0 -1
vn 0 0 -1
vn 0 0 -1
f 1/1/1 2/2/2 3/3/3
f 1/1/1 3/3/3 4/4/4
v -8 -0.3 10
v 8 -0.3 10
v 8 0 10
v -8 0 10
vt 0 0
vt 16 0
vt 16 0.3
vt 0 0.3
vn 0 0 1
vn 0 0 1
vn 0 0 1
vn 0 0 1
f 5/5/5 6/6/6 7/7/7
f 5/5/5 7/7/7 8/8/8
v -8 -0.3 -10
v -8 -0.3 10
v -8 0 10
v -8 0 -10
vt 0 0
vt 20 0
vt 20 0.3
vt 0 0.3
vn -1 0 0
vn -1 0 0
vn -1 0 0
vn -1 0 0
f 9/9/9 10/10/10 11/11/11
f 9/9/9 11/11/11 12/12/12
v 8 -0.3 -10
v 8 0 -10
v 8 0 10
v 8 -0.3 10
vt 0 0
vt 0.3 0
vt 0.3 20
vt 0 20
vn 1 0 0
vn 1 0 0
vn 1 0 0
vn 1 0 0
f 13/13/13 14/14/14 15/15/15
f 13/13/13 15/15/15 16/16/16
v -8 -0.3 -10
v 8 -0.3 -10
v 8 -0.3 10
v -8 -0.3 10
vt 0 0
vt 16 0
vt 16 20
vt 0 20
vn 0 -1 0
vn 0 -1 0
vn 0 -1 0
vn 0 -1 0
f 17/17/17 18/18/18 19/19/19
f 17/17/17 19/19/19 20/20/20
v -8 0 -10
v -8 0 10
v 8 0 10
v 8 0 -10
vt 0 0
vt 20 0
vt 20 16
vt 0 16
vn 0 1 0
vn 0 1 0
vn 0 1 0
vn 0 1 0
f 21/21/21 22/22/22 23/23/23
f 21/21/21 23/23/23 24/24/24
v -8 7.7 -10
v -8 8 -10
v 8 8 -10
v 8 7.7 -10
vt 0 0
vt 0.3 0
vt 0.3 16
vt 0 16
vn 0 0 -1
vn 0 0 -1
vn 0 0 -1
vn 0 0 -1
f 25/25/25 26/26/26 27/27/27
f 25/25/25 27/27/27 28/28/28
v -8 7.7 10
v 8 7.7 10
v 8 8 10
v -8 8 10
vt 0 0
vt 16 0
vt 16 0.3
vt 0 0.3
vn 0 0 1
vn 0 0 1
vn 0 0 1
vn 0 0 1
f 29/29/29 30/30/30 31/31/31
f 29/29/29 31/31/31 32/32/32
v -8 7.7 -10
v -8 7.7 10
v -8 8 10
v -8 8 -10
vt 0 0
vt 20 0
vt 20 0.3
vt 0 0.3
vn -1 0 0
vn -1 0 0
vn -1 0 0
vn -1 0 0
f 33/33/33 34/34/34 35/35/35
f 33/33/33 35/35/35 36/36/36
v 8 7.7 -10
v 8 8 -10
v 8 8 10
v 8 7.7 10
vt 0 0
vt 0.3 0
vt 0.3 20
vt 0 20
vn 1 0 0
vn 1 0 0
vn 1 0 0
vn 1 0 0
f 37/37/37 38/38/38 39/39/39
f 37/37/37 39/39/39 40/40/40
v -8 7.7 -10
v 8 7.7 -10
v 8 7.7 10
v -8 7.7 10
vt 0 0
vt 16 0
vt 16 20
vt 0 20
vn 0 -1 0
vn 0 -1 0
vn 0 -1 0
vn 0 -1 0
f 41/41/41 42/42/42 43/43/43
f 41/41/41 43/43/43 44/44/44
v -8 8 -10
v -8 8 10
v 8 8 10
v 8 8 -10
vt 0 0
vt 20 0
vt 20 16
vt 0 16
vn 0 1 0
vn 0 1 0
vn 0 1 0
vn 0 1 0
f 45/45/45 46/46/46 47/47/47
f 45/45/45 47/47/47 48/48/48
v -8 0 -10
v -8 8 -10
v -7.65 8 -10
v -7.65 0 -10
vt 0 0
vt 8 0
vt 8 0.35
vt 0 0.35
vn 0 0 -1
vn 0 0 -1
vn 0 0 -1
vn 0 0 -1
f 49/49/49 50/50/50 51/51/51
f 49/49/49 51/51/51 52/52/52
v -8 0 10
v -7.65 0 10
v -7.65 8 10
v -8 8 10
vt 0 0
vt 0.35 0
vt 0.35 8
vt 0 8
vn 0 0 1
vn 0 0 1
vn 0 0 1
vn 0 0 1
f 53/53/53 54/54/54 55/55/55
f 53/53/53 55/55/55 56/56/56
v -8 0 -10
v -8 0 10
v -8 8 10
v -8 8 -10
vt 0 0
vt 20 0
vt 20 8
vt 0 8
vn -1 0 0
vn -1 0 0
vn -1 0 0
vn -1 0 0
f 57/57/57 58/58/58 59/59/59
f 57/57/57 59/59/59 60/60/60
v -7.65 0 -10
v -7.65 8 -10
v -7.65 8 10
v -7.65 0 10
vt 0 0
vt 8 0
vt 8 20
vt 0 20
vn 1 0 0
vn 1 0 0
vn 1 0 0
vn 1 0 0
f 61/61/61 62/62/62 63/63/63
f 61/61/61 63/63/63 64/64/64
v -8 0 -10
v -7.65 0 -10
v -7.65 0 10
v -8 0 10
vt 0 0
vt 0.35 0
vt 0.35 20
vt 0 20
vn 0 -1 0
vn 0 -1 0
vn 0 -1 0
vn 0 -1 0
f 65/65/65 66/66/66 67/67/67
f 65/65/65 67/67/67 68/68/68
v -8 8 -10
v -8 8 10
v -7.65 8 10
v -7.65 8 -10
vt 0 0
vt 20 0
vt 20 0.35
vt 0 0.35
vn 0 1 0
vn 0 1 0
vn 0 1 0
vn 0 1 0
f 69/69/69 70/70/70 71/71/71
f 69/69/69 71/71/71 72/72/72
v 7.65 0 -10
v 7.65 1 -10
v 8 1 -10
v 8 0 -10
vt 0 0
vt 1 0
vt 1 0.35
vt 0 0.35
vn 0 0 -1
vn 0 0 -1
vn 0 0 -1
vn 0 0 -1
f 73/73/73 74/74/74 75/75/75
f 73/73/73 75/75/75 76/76/76
v 7.65 0 10
v 8 0 10
v 8 1 10
v 7.65 1 10
vt 0 0
vt 0.35 0
vt 0.35 1
vt 0 1
vn 0 0 1
vn 0 0 1
vn 0 0 1
vn 0 0 1
f 77/77/77 78/78/78 79/79/79
f 77/77/77 79/79/79 80/80/80
v 7.65 0 -10
v 7.65 0 10
v 7.65 1 10
v 7.65 1 -10
vt 0 0
vt 20 0
vt 20 1
vt 0 1
vn -1 0 0
vn -1 0 0
vn -1 0 0
vn -1 0 0
f 81/81/81 82/82/82 83/83/83
f 81/81/81 83/83/83 84/84/84
v 8 0 -10
v 8 1 -10
v 8 1 10
v 8 0 10
vt 0 0
vt 1 0
vt 1 20
vt 0 20
vn 1 0 0
vn 1 0 0
vn 1 0 0
vn 1 0 0
f 85/85/85 86/86/86 87/87/87
f 85/85/85 87/87/87 88/88/88
v 7.65 0 -10
v 8 0 -10
v 8 0 10
v 7.65 0 10
vt 0 0
vt 0.35 0
vt 0.35 20
vt 0 20
vn 0 -1 0
vn 0 -1 0
vn 0 -1 0
vn 0 -1 0
f 89/89/89 90/90/90 91/91/91
f 89/89/89 91/91/91 92/92/92
v 7.65 1 -10
v 7.65 1 10
v 8 1 10
v 8 1 -10
vt 0 0
vt 20 0
vt 20 0.35
vt 0 0.35
vn 0 1 0
vn 0 1 0
vn 0 1 0
vn 0 1 0
f 93/93/93 94/94/94 95/95/95
f 93/93/93 95/95/95 96/96/96
v 7.65 5.8 -10
v 7.65 8 -10
v 8 8 -10
v 8 5.8 -10
vt 0 0
vt 2.2 0
vt 2.2 0.35
vt 0 0.35
vn 0 0 -1
vn 0 0 -1
vn 0 0 -1
vn 0 0 -1
f 97/97/97 98/98/98 99/99/99
f 97/97/97 99/99/99 100/100/100
v 7.65 5.8 10
v 8 5.8 10
v 8 8 10
v 7.65 8 10
vt 0 0
vt 0.35 0
vt 0.35 2.2
vt 0 2.2
vn 0 0 1
vn 0 0 1
vn 0 0 1
vn 0 0 1
f 101/101/101 102/102/102 103/103/103
f 101/101/101 103/103/103 104/104/104
v 7.65 5.8 -10
v 7.65 5.8 10
v 7.65 8 10
v 7.65 8 -10
vt 0 0
vt 20 0
vt 20 2.2
vt 0 2.2
vn -1 0 0
vn -1 0 0
vn -1 0 0
vn -1 0 0
f 105/105/105 106/106/106 107/107/107
f 105/105/105 107/107/107 108/108/108
v 8 5.8 -10
v 8 8 -10
v 8 8 10
v 8 5.8 10
vt 0 0
vt 2.2 0
vt 2.2 20
vt 0 20
vn 1 0 0
vn 1 0 0
vn 1 0 0
vn 1 0 0
f 109/109/109 110/110/110 111/111/111
f 109/109/109 111/111/111 112/112/112
v 7.65 5.8 -10
v 8 5.8 -10
v 8 5.8 10
v 7.65 5.8 10
vt 0 0
vt 0.35 0
vt 0.35 20
vt 0 20
vn 0 -1 0
vn 0 -1 0
vn 0 -1 0
vn 0 -1 0
f 113/113/113 114/114/114 115/115/115
f 113/113/113 115/115/115 116/116/116
v 7.65 8 -10
v 7.65 8 10
v 8 8 10
v 8 8 -10
vt 0 0
vt 20 0
vt 20 0.35
vt 0 0.35
vn 0 1 0
vn 0 1 0
vn 0 1 0
vn 0 1 0
f 117/117/117 118/118/118 119/119/119
f 117/117/117 119/119/119 120/120/120
v 7.65 1 -10
v 7.65 5.8 -10
v 8 5.8 -10
v 8 1 -10
vt 0 0
vt 4.8 0
vt 4.8 0.35
vt 0 0.35
vn 0 0 -1
vn 0 0 -1
vn 0 0 -1
vn 0 0 -1
f 121/121/121 122/122/122 123/123/123
f 121/121/121 123/123/123 124/124/124
v 7.65 1 -6
v 8 1 -6
v 8 5.8 -6
v 7.65 5.8 -6
vt 0 0
vt 0.35 0
vt 0.35 4.8
vt 0 4.8
vn 0 0 1
vn 0 0 1
vn 0 0 1
vn 0 0 1
f 125/125/125 126/126/126 127/127/127
f 125/125/125 127/127/127 128/128/128
v 7.65 1 -10
v 7.65 1 -6
v 7.65 5.8 -6
v 7.65 5.8 -10
vt 0 0
vt 4 0
vt 4 4.8
vt 0 4.8
vn -1 0 0
vn -1 0 0
vn -1 0 0
vn -1 0 0
f 129/129/129 130/130/130 131/131/131
f 129/129/129 131/131/131 132/132/132
v 8 1 -10
v 8 5.8 -10
v 8 5.8 -6
v 8 1 -6
vt 0 0
vt 4.8 0
vt 4.8 4
vt 0 4
vn 1 0 0
vn 1 0 0
vn 1 0 0
vn 1 0 0
f 133/133/133 134/134/134 135/135/135
f 133/133/133 135/135/135 136/136/136
v 7.65 1 -10
v 8 1 -10
v 8 1 -6
v 7.65 1 -6
vt 0 0
vt 0.35 0
vt 0.35 4
vt 0 4
vn 0 -1 0
vn 0 -1 0
vn 0 -1 0
vn 0 -1 0
f 137/137/137 138/138/138 139/139/139
f 137/137/137 139/139/139 140/140/140
v 7.65 5.8 -10
v 7.65 5.8 -6
v 8 5.8 -6
v 8 5.8 -10
vt 0 0
vt 4 0
vt 4 0.35
vt 0 0.35
vn 0 1 0
vn 0 1 0
vn 0 1 0
vn 0 1 0
f 141/141/141 142/142/142 143/143/143
f 141/141/141 143/143/143 144/144/144
v 7.65 1 5
v 7.65 5.8 5
v 8 5.8 5
v 8 1 5
vt 0 0
vt 4.8 0
vt 4.8 0.35
vt 0 0.35
vn 0 0 -1
vn 0 0 -1
vn 0 0 -1
vn 0 0 -1
f 145/145/145 146/146/146 147/147/147
f 145/145/145 147/147/147 148/148/148
v 7.65 1 10
v 8 1 10
v 8 5.8 10
v 7.65 5.8 10
vt 0 0
vt 0.35 0
vt 0.35 4.8
vt 0 4.8
vn 0 0 1
vn 0 0 1
vn 0 0 1
vn 0 0 1
f 149/149/149 150/150/150 151/151/151
f 149/149/149 151/151/151 152/152/152
v 7.65 1 5
v 7.65 1 10
v 7.65 5.8 10
v 7.65 5.8 5
vt 0 0
vt 5 0
vt 5 4.8
vt 0 4.8
vn -1 0 0
vn -1 0 0
vn -1 0 0
vn -1 0 0
f 153/153/153 154/154/154 155/155/155
f 153/153/153 155/155/155 156/156/156
v 8 1 5
v 8 5.8 5
v 8 5.8 10
v 8 1 10
vt 0 0
vt 4.8 0
vt 4.8 5
vt 0 5
vn 1 0 0
vn 1 0 0
vn 1 0 0
vn 1 0 0
f 157/157/157 158/158/158 159/159/159
f 157/157/157 159/159/159 160/160/160
v 7.65 1 5
v 8 1 5
v 8 1 10
v 7.65 1 10
vt 0 0
vt 0.35 0
vt 0.35 5
vt 0 5
vn 0 -1 0
vn 0 -1 0
vn 0 -1 0
vn 0 -1 0
f 161/161/161 162/162/162 163/163/163
f 161/161/161 163/163/163 164/164/164
v 7.65 5.8 5
v 7.65 5.8 10
v 8 5.8 10
v 8 5.8 5
vt 0 0
vt 5 0
vt 5 0.35
vt 0 0.35
vn 0 1 0
vn 0 1 0
vn 0 1 0
vn 0 1 0
f 165/165/165 166/166/166 167/167/167
f 165/165/165 167/167/167 168/168/168
v 7 0.87 -6.15
v 7 1.03 -6.15
v 7.9 1.03 -6.15
v 7.9 0.87 -6.15
vt 0 0
vt 0.16 0
vt 0.16 0.9
vt 0 0.9
vn 0 0 -1
vn 0 0 -1
vn 0 0 -1
vn 0 0 -1
f 169/169/169 170/170/170 171/171/171
f 169/169/169 171/171/171 172/172/172
v 7 0.87 5.15
v 7.9 0.87 5.15
v 7.9 1.03 5.15
v 7 1.03 5.15
vt 0 0
vt 0.9 0
vt 0.9 0.16
vt 0 0.16
vn 0 0 1
vn 0 0 1
vn 0 0 1
vn 0 0 1
f 173/173/173 174/174/174 175/175/175
f 173/173/173 175/175/175 176/176/176
v 7 0.87 -6.15
v 7 0.87 5.15
v 7 1.03 5.15
v 7 1.03 -6.15
vt 0 0
vt 11.3 0
vt 11.3 0.16
vt 0 0.16
vn -1 0 0
vn -1 0 0
vn -1 0 0
vn -1 0 0
f 177/177/177 178/178/178 179/179/179
f 177/177/177 179/179/179 180/180/180
v 7.9 0.87 -6.15
v 7.9 1.03 -6.15
v 7.9 1.03 5.15
v 7.9 0.87 5.15
vt 0 0
vt 0.16 0
vt 0.16 11.3
vt 0 11.3
vn 1 0 0
vn 1 0 0
vn 1 0 0
vn 1 0 0
f 181/181/181 182/182/182 183/183/183
f 181/181/181 183/183/183 184/184/184
v 7 0.87 -6.15
v 7.9 0.87 -6.15
v 7.9 0.87 5.15
v 7 0.87 5.15
vt 0 0
vt 0.9 0
vt 0.9 11.3
vt 0 11.3
vn 0 -1 0
vn 0 -1 0
vn 0 -1 0
vn 0 -1 0
f 185/185/185 186/186/186 187/187/187
f 185/185/185 187/187/187 188/188/188
v 7 1.03 -6.15
v 7 1.03 5.15
v 7.9 1.03 5.15
v 7.9 1.03 -6.15
vt 0 0
vt 11.3 0
vt 11.3 0.9
vt 0 0.9
vn 0 1 0
vn 0 1 0
vn 0 1 0
vn 0 1 0
f 189/189/189 190/190/190 191/191/191
f 189/189/189 191/191/191 192/192/192
v -8 0 -10
v -8 8 -10
v 8 8 -10
v 8 0 -10
vt 0 0
vt 8 0
vt 8 16
vt 0 16
vn 0 0 -1
vn 0 0 -1
vn 0 0 -1
vn 0 0 -1
f 193/193/193 194/194/194 195/195/195
f 193/193/193 195/195/195 196/196/196
v -8 0 -9.65
v 8 0 -9.65
v 8 8 -9.65
v -8 8 -9.65
vt 0 0
vt 16 0
vt 16 8
vt 0 8
vn 0 0 1
vn 0 0 1
vn 0 0 1
vn 0 0 1
f 197/197/197 198/198/198 199/199/199
f 197/197/197 199/199/199 200/200/200
v -8 0 -10
v -8 0 -9.65
v -8 8 -9.65
v -8 8 -10
vt 0 0
vt 0.35 0
vt 0.35 8
vt 0 8
vn -1 0 0
vn -1 0 0
vn -1 0 0
vn -1 0 0
f 201/201/201 202/202/202 203/203/203
f 201/201/201 203/203/203 204/204/204
v 8 0 -10
v 8 8 -10
v 8 8 -9.65
v 8 0 -9.65
vt 0 0
vt 8 0
vt 8 0.35
vt 0 0.35
vn 1 0 0
vn 1 0 0
vn 1 0 0
vn 1 0 0
f 205/205/205 206/206/206 207/207/207
f 205/205/205 207/207/207 208/208/208
v -8 0 -10
v 8 0 -10
v 8 0 -9.65
v -8 0 -9.65
vt 0 0
vt 16 0
vt 16 0.35
vt 0 0.35
vn 0 -1 0
vn 0 -1 0
vn 0 -1 0
vn 0 -1 0
f 209/209/209 210/210/210 211/211/211
f 209/209/209 211/211/211 212/212/212
v -8 8 -10
v -8 8 -9.65
v 8 8 -9.65
v 8 8 -10
vt 0 0
vt 0.35 0
vt 0.35 16
vt 0 16
vn 0 1 0
vn 0 1 0
vn 0 1 0
vn 0 1 0
f 213/213/213 214/214/214 215/215/215
f 213/213/213 215/215/215 216/216/216
v -8 0 9.65
v -8 8 9.65
v -2 8 9.65
v -2 0 9.65
vt 0 0
vt 8 0
vt 8 6
vt 0 6
vn 0 0 -1
vn 0 0 -1
vn 0 0 -1
vn 0 0 -1
f 217/217/217 218/218/218 219/219/219
f 217/217/217 219/219/219 220/220/220
v -8 0 10
v -2 0 10
v -2 8 10
v -8 8 10
vt 0 0
vt 6 0
vt 6 8
vt 0 8
vn 0 0 1
vn 0 0 1
vn 0 0 1
vn 0 0 1
f 221/221/221 222/222/222 223/223/223
f 221/221/221 223/223/223 224/224/224
v -8 0 9.65
v -8 0 10
v -8 8 10
v -8 8 9.65
vt 0 0
vt 0.35 0
vt 0.35 8
vt 0 8
vn -1 0 0
vn -1 0 0
vn -1 0 0
vn -1 0 0
f 225/225/225 226/226/226 227/227/227
f 225/225/225 227/227/227 228/228/228
v -2 0 9.65
v -2 8 9.65
v -2 8 10
v -2 0 10
vt 0 0
vt 8 0
vt 8 0.35
vt 0 0.35
vn 1 0 0
vn 1 0 0
vn 1 0 0
vn 1 0 0
f 229/229/229 230/230/230 231/231/231
f 229/229/229 231/231/231 232/232/232
v -8 0 9.65
v -2 0 9.65
v -2 0 10
v -8 0 10
vt 0 0
vt 6 0
vt 6 0.35
vt 0 0.35
vn 0 -1 0
vn 0 -1 0
vn 0 -1 0
vn 0 -1 0
f 233/233/233 234/234/234 235/235/235
f 233/233/233 235/235/235 236/236/236
v -8 8 9.65
v -8 8 10
v -2 8 10
v -2 8 9.65
vt 0 0
vt 0.35 0
vt 0.35 6
vt 0 6
vn 0 1 0
vn 0 1 0
vn 0 1 0
vn 0 1 0
f 237/237/237 238/238/238 239/239/239
f 237/237/237 239/239/239 240/240/240
v 2 0 9.65
v 2 8 9.65
v 8 8 9.65
v 8 0 9.65
vt 0 0
vt 8 0
vt 8 6
vt 0 6
vn 0 0 -1
vn 0 0 -1
vn 0 0 -1
vn 0 0 -1
f 241/241/241 242/242/242 243/243/243
f 241/241/241 243/243/243 244/244/244
v 2 0 10
v 8 0 10
v 8 8 10
v 2 8 10
vt 0 0
vt 6 0
vt 6 8
vt 0 8
vn 0 0 1
vn 0 0 1
vn 0 0 1
vn 0 0 1
f 245/245/245 246/246/246 247/247/247
f 245/245/245 247/247/247 248/248/248
v 2 0 9.65
v 2 0 10
v 2 8 10
v 2 8 9.65
vt 0 0
vt 0.35 0
vt 0.35 8
vt 0 8
vn -1 0 0
vn -1 0 0
vn -1 0 0
vn -1 0 0
f 249/249/249 250/250/250 251/251/251
f 249/249/249 251/251/251 252/252/252
v 8 0 9.65
v 8 8 9.65
v 8 8 10
v 8 0 10
vt 0 0
vt 8 0
vt 8 0.35
vt 0 0.35
vn 1 0 0
vn 1 0 0
vn 1 0 0
vn 1 0 0
f 253/253/253 254/254/254 255/255/255
f 253/253/253 255/255/255 256/256/256
v 2 0 9.65
v 8 0 9.65
v 8 0 10
v 2 0 10
vt 0 0
vt 6 0
vt 6 0.35
vt 0 0.35
vn 0 -1 0
vn 0 -1 0
vn 0 -1 0
vn 0 -1 0
f 257/257/257 258/258/258 259/259/259
f 257/257/257 259/259/259 260/260/260
v 2 8 9.65
v 2 8 10
v 8 8 10
v 8 8 9.65
vt 0 0
vt 0.35 0
vt 0.35 6
vt 0 6
vn 0 1 0
vn 0 1 0
vn 0 1 0
vn 0 1 0
f 261/261/261 262/262/262 263/263/263
f 261/261/261 263/263/263 264/264/264
v -2 3 9.65
v -2 8 9.65
v 2 8 9.65
v 2 3 9.65
vt 0 0
vt 5 0
vt 5 4
vt 0 4
vn 0 0 -1
vn 0 0 -1
vn 0 0 -1
vn 0 0 -1
f 265/265/265 266/266/266 267/267/267
f 265/265/265 267/267/267 268/268/268
v -2 3 10
v 2 3 10
v 2 8 10
v -2 8 10
vt 0 0
vt 4 0
vt 4 5
vt 0 5
vn 0 0 1
vn 0 0 1
vn 0 0 1
vn 0 0 1
f 269/269/269 270/270/270 271/271/271
f 269/269/269 271/271/271 272/272/272
v -2 3 9.65
v -2 3 10
v -2 8 10
v -2 8 9.65
vt 0 0
vt 0.35 0
vt 0.35 5
vt 0 5
vn -1 0 0
vn -1 0 0
vn -1 0 0
vn -1 0 0
f 273/273/273 274/274/274 275/275/275
f 273/273/273 275/275/275 276/276/276
v 2 3 9.65
v 2 8 9.65
v 2 8 10
v 2 3 10
vt 0 0
vt 5 0
vt 5 0.35
vt 0 0.35
vn 1 0 0
vn 1 0 0
vn 1 0 0
vn 1 0 0
f 277/277/277 278/278/278 279/279/279
f 277/277/277 279/279/279 280/280/280
v -2 3 9.65
v 2 3 9.65
v 2 3 10
v -2 3 10
vt 0 0
vt 4 0
vt 4 0.35
vt 0 0.35
vn 0 -1 0
vn 0 -1 0
vn 0 -1 0
vn 0 -1 0
f 281/281/281 282/282/282 283/283/283
f 281/281/281 283/283/283 284/284/284
v -2 8 9.65
v -2 8 10
v 2 8 10
v 2 8 9.65
vt 0 0
vt 0.35 0
vt 0.35 4
vt 0 4
vn 0 1 0
vn 0 1 0
vn 0 1 0
vn 0 1 0
f 285/285/285 286/286/286 287/287/287
f 285/285/285 287/287/287 288/288/288
