# Original Breakwater Station authored geometry
o pump_hall_amber_light
v -2.1975 1.175 -11.3525
v -2.1975 2.625 -11.3525
v -2.1625 2.625 -11.3525
v -2.1625 1.175 -11.3525
vt 0 0
vt 1.45 0
vt 1.45 0.035
vt 0 0.035
vn 0 0 -1
vn 0 0 -1
vn 0 0 -1
vn 0 0 -1
f 1/1/1 2/2/2 3/3/3
f 1/1/1 3/3/3 4/4/4
v -2.1975 1.175 -11.3275
v -2.1625 1.175 -11.3275
v -2.1625 2.625 -11.3275
v -2.1975 2.625 -11.3275
vt 0 0
vt 0.035 0
vt 0.035 1.45
vt 0 1.45
vn 0 0 1
vn 0 0 1
vn 0 0 1
vn 0 0 1
f 5/5/5 6/6/6 7/7/7
f 5/5/5 7/7/7 8/8/8
v -2.1975 1.175 -11.3525
v -2.1975 1.175 -11.3275
v -2.1975 2.625 -11.3275
v -2.1975 2.625 -11.3525
vt 0 0
vt 0.025 0
vt 0.025 1.45
vt 0 1.45
vn -1 0 0
vn -1 0 0
vn -1 0 0
vn -1 0 0
f 9/9/9 10/10/10 11/11/11
f 9/9/9 11/11/11 12/12/12
v -2.1625 1.175 -11.3525
v -2.1625 2.625 -11.3525
v -2.1625 2.625 -11.3275
v -2.1625 1.175 -11.3275
vt 0 0
vt 1.45 0
vt 1.45 0.025
vt 0 0.025
vn 1 0 0
vn 1 0 0
vn 1 0 0
vn 1 0 0
f 13/13/13 14/14/14 15/15/15
f 13/13/13 15/15/15 16/16/16
v -2.1975 1.175 -11.3525
v -2.1625 1.175 -11.3525
v -2.1625 1.175 -11.3275
v -2.1975 1.175 -11.3275
vt 0 0
vt 0.035 0
vt 0.035 0.025
vt 0 0.025
vn 0 -1 0
vn 0 -1 0
vn 0 -1 0
vn 0 -1 0
f 17/17/17 18/18/18 19/19/19
f 17/17/17 19/19/19 20/20/20
v -2.1975 2.625 -11.3525
v -2.1975 2.625 -11.3275
v -2.1625 2.625 -11.3275
v -2.1625 2.625 -11.3525
vt 0 0
vt 0.025 0
vt 0.025 0.035
vt 0 0.035
vn 0 1 0
vn 0 1 0
vn 0 1 0
vn 0 1 0
f 21/21/21 22/22/22 23/23/23
f 21/21/21 23/23/23 24/24/24
v 2.1625 1.175 -11.3525
v 2.1625 2.625 -11.3525
v 2.1975 2.625 -11.3525
v 2.1975 1.175 -11.3525
vt 0 0
vt 1.45 0
vt 1.45 0.035
vt 0 0.035
vn 0 0 -1
vn 0 0 -1
vn 0 0 -1
vn 0 0 -1
f 25/25/25 26/26/26 27/27/27
f 25/25/25 27/27/27 28/28/28
v 2.1625 1.175 -11.3275
v 2.1975 1.175 -11.3275
v 2.1975 2.625 -11.3275
v 2.1625 2.625 -11.3275
vt 0 0
vt 0.035 0
vt 0.035 1.45
vt 0 1.45
vn 0 0 1
vn 0 0 1
vn 0 0 1
vn 0 0 1
f 29/29/29 30/30/30 31/31/31
f 29/29/29 31/31/31 32/32/32
v 2.1625 1.175 -11.3525
v 2.1625 1.175 -11.3275
v 2.1625 2.625 -11.3275
v 2.1625 2.625 -11.3525
vt 0 0
vt 0.025 0
vt 0.025 1.45
vt 0 1.45
vn -1 0 0
vn -1 0 0
vn -1 0 0
vn -1 0 0
f 33/33/33 34/34/34 35/35/35
f 33/33/33 35/35/35 36/36/36
v 2.1975 1.175 -11.3525
v 2.1975 2.625 -11.3525
v 2.1975 2.625 -11.3275
v 2.1975 1.175 -11.3275
vt 0 0
vt 1.45 0
vt 1.45 0.025
vt 0 0.025
vn 1 0 0
vn 1 0 0
vn 1 0 0
vn 1 0 0
f 37/37/37 38/38/38 39/39/39
f 37/37/37 39/39/39 40/40/40
v 2.1625 1.175 -11.3525
v 2.1975 1.175 -11.3525
v 2.1975 1.175 -11.3275
v 2.1625 1.175 -11.3275
vt 0 0
vt 0.035 0
vt 0.035 0.025
vt 0 0.025
vn 0 -1 0
vn 0 -1 0
vn 0 -1 0
vn 0 -1 0
f 41/41/41 42/42/42 43/43/43
f 41/41/41 43/43/43 44/44/44
v 2.1625 2.625 -11.3525
v 2.1625 2.625 -11.3275
v 2.1975 2.625 -11.3275
v 2.1975 2.625 -11.3525
vt 0 0
vt 0.025 0
vt 0.025 0.035
vt 0 0.035
vn 0 1 0
vn 0 1 0
vn 0 1 0
vn 0 1 0
f 45/45/45 46/46/46 47/47/47
f 45/45/45 47/47/47 48/48/48
v -2.1975 1.175 11.3275
v -2.1975 2.625 11.3275
v -2.1625 2.625 11.3275
v -2.1625 1.175 11.3275
vt 0 0
vt 1.45 0
vt 1.45 0.035
vt 0 0.035
vn 0 0 -1
vn 0 0 -1
vn 0 0 -1
vn 0 0 -1
f 49/49/49 50/50/50 51/51/51
f 49/49/49 51/51/51 52/52/52
v -2.1975 1.175 11.3525
v -2.1625 1.175 11.3525
v -2.1625 2.625 11.3525
v -2.1975 2.625 11.3525
vt 0 0
vt 0.035 0
vt 0.035 1.45
vt 0 1.45
vn 0 0 1
vn 0 0 1
vn 0 0 1
vn 0 0 1
f 53/53/53 54/54/54 55/55/55
f 53/53/53 55/55/55 56/56/56
v -2.1975 1.175 11.3275
v -2.1975 1.175 11.3525
v -2.1975 2.625 11.3525
v -2.1975 2.625 11.3275
vt 0 0
vt 0.025 0
vt 0.025 1.45
vt 0 1.45
vn -1 0 0
vn -1 0 0
vn -1 0 0
vn -1 0 0
f 57/57/57 58/58/58 59/59/59
f 57/57/57 59/59/59 60/60/60
v -2.1625 1.175 11.3275
v -2.1625 2.625 11.3275
v -2.1625 2.625 11.3525
v -2.1625 1.175 11.3525
vt 0 0
vt 1.45 0
vt 1.45 0.025
vt 0 0.025
vn 1 0 0
vn 1 0 0
vn 1 0 0
vn 1 0 0
f 61/61/61 62/62/62 63/63/63
f 61/61/61 63/63/63 64/64/64
v -2.1975 1.175 11.3275
v -2.1625 1.175 11.3275
v -2.1625 1.175 11.3525
v -2.1975 1.175 11.3525
vt 0 0
vt 0.035 0
vt 0.035 0.025
vt 0 0.025
vn 0 -1 0
vn 0 -1 0
vn 0 -1 0
vn 0 -1 0
f 65/65/65 66/66/66 67/67/67
f 65/65/65 67/67/67 68/68/68
v -2.1975 2.625 11.3275
v -2.1975 2.625 11.3525
v -2.1625 2.625 11.3525
v -2.1625 2.625 11.3275
vt 0 0
vt 0.025 0
vt 0.025 0.035
vt 0 0.035
vn 0 1 0
vn 0 1 0
vn 0 1 0
vn 0 1 0
f 69/69/69 70/70/70 71/71/71
f 69/69/69 71/71/71 72/72/72
v 2.1625 1.175 11.3275
v 2.1625 2.625 11.3275
v 2.1975 2.625 11.3275
v 2.1975 1.175 11.3275
vt 0 0
vt 1.45 0
vt 1.45 0.035
vt 0 0.035
vn 0 0 -1
vn 0 0 -1
vn 0 0 -1
vn 0 0 -1
f 73/73/73 74/74/74 75/75/75
f 73/73/73 75/75/75 76/76/76
v 2.1625 1.175 11.3525
v 2.1975 1.175 11.3525
v 2.1975 2.625 11.3525
v 2.1625 2.625 11.3525
vt 0 0
vt 0.035 0
vt 0.035 1.45
vt 0 1.45
vn 0 0 1
vn 0 0 1
vn 0 0 1
vn 0 0 1
f 77/77/77 78/78/78 79/79/79
f 77/77/77 79/79/79 80/80/80
v 2.1625 1.175 11.3275
v 2.1625 1.175 11.3525
v 2.1625 2.625 11.3525
v 2.1625 2.625 11.3275
vt 0 0
vt 0.025 0
vt 0.025 1.45
vt 0 1.45
vn -1 0 0
vn -1 0 0
vn -1 0 0
vn -1 0 0
f 81/81/81 82/82/82 83/83/83
f 81/81/81 83/83/83 84/84/84
v 2.1975 1.175 11.3275
v 2.1975 2.625 11.3275
v 2.1975 2.625 11.3525
v 2.1975 1.175 11.3525
vt 0 0
vt 1.45 0
vt 1.45 0.025
vt 0 0.025
vn 1 0 0
vn 1 0 0
vn 1 0 0
vn 1 0 0
f 85/85/85 86/86/86 87/87/87
f 85/85/85 87/87/87 88/88/88
v 2.1625 1.175 11.3275
v 2.1975 1.175 11.3275
v 2.1975 1.175 11.3525
v 2.1625 1.175 11.3525
vt 0 0
vt 0.035 0
vt 0.035 0.025
vt 0 0.025
vn 0 -1 0
vn 0 -1 0
vn 0 -1 0
vn 0 -1 0
f 89/89/89 90/90/90 91/91/91
f 89/89/89 91/91/91 92/92/92
v 2.1625 2.625 11.3275
v 2.1625 2.625 11.3525
v 2.1975 2.625 11.3525
v 2.1975 2.625 11.3275
vt 0 0
vt 0.025 0
vt 0.025 0.035
vt 0 0.035
vn 0 1 0
vn 0 1 0
vn 0 1 0
vn 0 1 0
f 93/93/93 94/94/94 95/95/95
f 93/93/93 95/95/95 96/96/96
v 5.18 2.37 -8.9825
v 5.18 2.43 -8.9825
v 5.42 2.43 -8.9825
v 5.42 2.37 -8.9825
vt 0 0
vt 0.06 0
vt 0.06 0.24
vt 0 0.24
vn 0 0 -1
vn 0 0 -1
vn 0 0 -1
vn 0 0 -1
f 97/97/97 98/98/98 99/99/99
f 97/97/97 99/99/99 100/100/100
v 5.18 2.37 -8.9575
v 5.42 2.37 -8.9575
v 5.42 2.43 -8.9575
v 5.18 2.43 -8.9575
vt 0 0
vt 0.24 0
vt 0.24 0.06
vt 0 0.06
vn 0 0 1
vn 0 0 1
vn 0 0 1
vn 0 0 1
f 101/101/101 102/102/102 103/103/103
f 101/101/101 103/103/103 104/104/104
v 5.18 2.37 -8.9825
v 5.18 2.37 -8.9575
v 5.18 2.43 -8.9575
v 5.18 2.43 -8.9825
vt 0 0
vt 0.025 0
vt 0.025 0.06
vt 0 0.06
vn -1 0 0
vn -1 0 0
vn -1 0 0
vn -1 0 0
f 105/105/105 106/106/106 107/107/107
f 105/105/105 107/107/107 108/108/108
v 5.42 2.37 -8.9825
v 5.42 2.43 -8.9825
v 5.42 2.43 -8.9575
v 5.42 2.37 -8.9575
vt 0 0
vt 0.06 0
vt 0.06 0.025
vt 0 0.025
vn 1 0 0
vn 1 0 0
vn 1 0 0
vn 1 0 0
f 109/109/109 110/110/110 111/111/111
f 109/109/109 111/111/111 112/112/112
v 5.18 2.37 -8.9825
v 5.42 2.37 -8.9825
v 5.42 2.37 -8.9575
v 5.18 2.37 -8.9575
vt 0 0
vt 0.24 0
vt 0.24 0.025
vt 0 0.025
vn 0 -1 0
vn 0 -1 0
vn 0 -1 0
vn 0 -1 0
f 113/113/113 114/114/114 115/115/115
f 113/113/113 115/115/115 116/116/116
v 5.18 2.43 -8.9825
v 5.18 2.43 -8.9575
v 5.42 2.43 -8.9575
v 5.42 2.43 -8.9825
vt 0 0
vt 0.025 0
vt 0.025 0.24
vt 0 0.24
vn 0 1 0
vn 0 1 0
vn 0 1 0
vn 0 1 0
f 117/117/117 118/118/118 119/119/119
f 117/117/117 119/119/119 120/120/120
v 5.88 2.37 -8.9825
v 5.88 2.43 -8.9825
v 6.12 2.43 -8.9825
v 6.12 2.37 -8.9825
vt 0 0
vt 0.06 0
vt 0.06 0.24
vt 0 0.24
vn 0 0 -1
vn 0 0 -1
vn 0 0 -1
vn 0 0 -1
f 121/121/121 122/122/122 123/123/123
f 121/121/121 123/123/123 124/124/124
v 5.88 2.37 -8.9575
v 6.12 2.37 -8.9575
v 6.12 2.43 -8.9575
v 5.88 2.43 -8.9575
vt 0 0
vt 0.24 0
vt 0.24 0.06
vt 0 0.06
vn 0 0 1
vn 0 0 1
vn 0 0 1
vn 0 0 1
f 125/125/125 126/126/126 127/127/127
f 125/125/125 127/127/127 128/128/128
v 5.88 2.37 -8.9825
v 5.88 2.37 -8.9575
v 5.88 2.43 -8.9575
v 5.88 2.43 -8.9825
vt 0 0
vt 0.025 0
vt 0.025 0.06
vt 0 0.06
vn -1 0 0
vn -1 0 0
vn -1 0 0
vn -1 0 0
f 129/129/129 130/130/130 131/131/131
f 129/129/129 131/131/131 132/132/132
v 6.12 2.37 -8.9825
v 6.12 2.43 -8.9825
v 6.12 2.43 -8.9575
v 6.12 2.37 -8.9575
vt 0 0
vt 0.06 0
vt 0.06 0.025
vt 0 0.025
vn 1 0 0
vn 1 0 0
vn 1 0 0
vn 1 0 0
f 133/133/133 134/134/134 135/135/135
f 133/133/133 135/135/135 136/136/136
v 5.88 2.37 -8.9825
v 6.12 2.37 -8.9825
v 6.12 2.37 -8.9575
v 5.88 2.37 -8.9575
vt 0 0
vt 0.24 0
vt 0.24 0.025
vt 0 0.025
vn 0 -1 0
vn 0 -1 0
vn 0 -1 0
vn 0 -1 0
f 137/137/137 138/138/138 139/139/139
f 137/137/137 139/139/139 140/140/140
v 5.88 2.43 -8.9825
v 5.88 2.43 -8.9575
v 6.12 2.43 -8.9575
v 6.12 2.43 -8.9825
vt 0 0
vt 0.025 0
vt 0.025 0.24
vt 0 0.24
vn 0 1 0
vn 0 1 0
vn 0 1 0
vn 0 1 0
f 141/141/141 142/142/142 143/143/143
f 141/141/141 143/143/143 144/144/144
v 6.58 2.37 -8.9825
v 6.58 2.43 -8.9825
v 6.82 2.43 -8.9825
v 6.82 2.37 -8.9825
vt 0 0
vt 0.06 0
vt 0.06 0.24
vt 0 0.24
vn 0 0 -1
vn 0 0 -1
vn 0 0 -1
vn 0 0 -1
f 145/145/145 146/146/146 147/147/147
f 145/145/145 147/147/147 148/148/148
v 6.58 2.37 -8.9575
v 6.82 2.37 -8.9575
v 6.82 2.43 -8.9575
v 6.58 2.43 -8.9575
vt 0 0
vt 0.24 0
vt 0.24 0.06
vt 0 0.06
vn 0 0 1
vn 0 0 1
vn 0 0 1
vn 0 0 1
f 149/149/149 150/150/150 151/151/151
f 149/149/149 151/151/151 152/152/152
v 6.58 2.37 -8.9825
v 6.58 2.37 -8.9575
v 6.58 2.43 -8.9575
v 6.58 2.43 -8.9825
vt 0 0
vt 0.025 0
vt 0.025 0.06
vt 0 0.06
vn -1 0 0
vn -1 0 0
vn -1 0 0
vn -1 0 0
f 153/153/153 154/154/154 155/155/155
f 153/153/153 155/155/155 156/156/156
v 6.82 2.37 -8.9825
v 6.82 2.43 -8.9825
v 6.82 2.43 -8.9575
v 6.82 2.37 -8.9575
vt 0 0
vt 0.06 0
vt 0.06 0.025
vt 0 0.025
vn 1 0 0
vn 1 0 0
vn 1 0 0
vn 1 0 0
f 157/157/157 158/158/158 159/159/159
f 157/157/157 159/159/159 160/160/160
v 6.58 2.37 -8.9825
v 6.82 2.37 -8.9825
v 6.82 2.37 -8.9575
v 6.58 2.37 -8.9575
vt 0 0
vt 0.24 0
vt 0.24 0.025
vt 0 0.025
vn 0 -1 0
vn 0 -1 0
vn 0 -1 0
vn 0 -1 0
f 161/161/161 162/162/162 163/163/163
f 161/161/161 163/163/163 164/164/164
v 6.58 2.43 -8.9825
v 6.58 2.43 -8.9575
v 6.82 2.43 -8.9575
v 6.82 2.43 -8.9825
vt 0 0
vt 0.025 0
vt 0.025 0.24
vt 0 0.24
vn 0 1 0
vn 0 1 0
vn 0 1 0
vn 0 1 0
f 165/165/165 166/166/166 167/167/167
f 165/165/165 167/167/167 168/168/168
v 5.25 3.1375 -8.91
v 5.25 3.1625 -8.91
v 6.75 3.1625 -8.91
v 6.75 3.1375 -8.91
vt 0 0
vt 0.025 0
vt 0.025 1.5
vt 0 1.5
vn 0 0 -1
vn 0 0 -1
vn 0 0 -1
vn 0 0 -1
f 169/169/169 170/170/170 171/171/171
f 169/169/169 171/171/171 172/172/172
v 5.25 3.1375 -8.69
v 6.75 3.1375 -8.69
v 6.75 3.1625 -8.69
v 5.25 3.1625 -8.69
vt 0 0
vt 1.5 0
vt 1.5 0.025
vt 0 0.025
vn 0 0 1
vn 0 0 1
vn 0 0 1
vn 0 0 1
f 173/173/173 174/174/174 175/175/175
f 173/173/173 175/175/175 176/176/176
v 5.25 3.1375 -8.91
v 5.25 3.1375 -8.69
v 5.25 3.1625 -8.69
v 5.25 3.1625 -8.91
vt 0 0
vt 0.22 0
vt 0.22 0.025
vt 0 0.025
vn -1 0 0
vn -1 0 0
vn -1 0 0
vn -1 0 0
f 177/177/177 178/178/178 179/179/179
f 177/177/177 179/179/179 180/180/180
v 6.75 3.1375 -8.91
v 6.75 3.1625 -8.91
v 6.75 3.1625 -8.69
v 6.75 3.1375 -8.69
vt 0 0
vt 0.025 0
vt 0.025 0.22
vt 0 0.22
vn 1 0 0
vn 1 0 0
vn 1 0 0
vn 1 0 0
f 181/181/181 182/182/182 183/183/183
f 181/181/181 183/183/183 184/184/184
v 5.25 3.1375 -8.91
v 6.75 3.1375 -8.91
v 6.75 3.1375 -8.69
v 5.25 3.1375 -8.69
vt 0 0
vt 1.5 0
vt 1.5 0.22
vt 0 0.22
vn 0 -1 0
vn 0 -1 0
vn 0 -1 0
vn 0 -1 0
f 185/185/185 186/186/186 187/187/187
f 185/185/185 187/187/187 188/188/188
v 5.25 3.1625 -8.91
v 5.25 3.1625 -8.69
v 6.75 3.1625 -8.69
v 6.75 3.1625 -8.91
vt 0 0
vt 0.22 0
vt 0.22 1.5
vt 0 1.5
vn 0 1 0
vn 0 1 0
vn 0 1 0
vn 0 1 0
f 189/189/189 190/190/190 191/191/191
f 189/189/189 191/191/191 192/192/192
v -3.565 0.59 3.1575
v -3.565 0.71 3.1575
v -3.435 0.71 3.1575
v -3.435 0.59 3.1575
vt 0 0
vt 0.12 0
vt 0.12 0.13
vt 0 0.13
vn 0 0 -1
vn 0 0 -1
vn 0 0 -1
vn 0 0 -1
f 193/193/193 194/194/194 195/195/195
f 193/193/193 195/195/195 196/196/196
v -3.565 0.59 3.1825
v -3.435 0.59 3.1825
v -3.435 0.71 3.1825
v -3.565 0.71 3.1825
vt 0 0
vt 0.13 0
vt 0.13 0.12
vt 0 0.12
vn 0 0 1
vn 0 0 1
vn 0 0 1
vn 0 0 1
f 197/197/197 198/198/198 199/199/199
f 197/197/197 199/199/199 200/200/200
v -3.565 0.59 3.1575
v -3.565 0.59 3.1825
v -3.565 0.71 3.1825
v -3.565 0.71 3.1575
vt 0 0
vt 0.025 0
vt 0.025 0.12
vt 0 0.12
vn -1 0 0
vn -1 0 0
vn -1 0 0
vn -1 0 0
f 201/201/201 202/202/202 203/203/203
f 201/201/201 203/203/203 204/204/204
v -3.435 0.59 3.1575
v -3.435 0.71 3.1575
v -3.435 0.71 3.1825
v -3.435 0.59 3.1825
vt 0 0
vt 0.12 0
vt 0.12 0.025
vt 0 0.025
vn 1 0 0
vn 1 0 0
vn 1 0 0
vn 1 0 0
f 205/205/205 206/206/206 207/207/207
f 205/205/205 207/207/207 208/208/208
v -3.565 0.59 3.1575
v -3.435 0.59 3.1575
v -3.435 0.59 3.1825
v -3.565 0.59 3.1825
vt 0 0
vt 0.13 0
vt 0.13 0.025
vt 0 0.025
vn 0 -1 0
vn 0 -1 0
vn 0 -1 0
vn 0 -1 0
f 209/209/209 210/210/210 211/211/211
f 209/209/209 211/211/211 212/212/212
v -3.565 0.71 3.1575
v -3.565 0.71 3.1825
v -3.435 0.71 3.1825
v -3.435 0.71 3.1575
vt 0 0
vt 0.025 0
vt 0.025 0.13
vt 0 0.13
vn 0 1 0
vn 0 1 0
vn 0 1 0
vn 0 1 0
f 213/213/213 214/214/214 215/215/215
f 213/213/213 215/215/215 216/216/216
v 3.435 0.59 3.1575
v 3.435 0.71 3.1575
v 3.565 0.71 3.1575
v 3.565 0.59 3.1575
vt 0 0
vt 0.12 0
vt 0.12 0.13
vt 0 0.13
vn 0 0 -1
vn 0 0 -1
vn 0 0 -1
vn 0 0 -1
f 217/217/217 218/218/218 219/219/219
f 217/217/217 219/219/219 220/220/220
v 3.435 0.59 3.1825
v 3.565 0.59 3.1825
v 3.565 0.71 3.1825
v 3.435 0.71 3.1825
vt 0 0
vt 0.13 0
vt 0.13 0.12
vt 0 0.12
vn 0 0 1
vn 0 0 1
vn 0 0 1
vn 0 0 1
f 221/221/221 222/222/222 223/223/223
f 221/221/221 223/223/223 224/224/224
v 3.435 0.59 3.1575
v 3.435 0.59 3.1825
v 3.435 0.71 3.1825
v 3.435 0.71 3.1575
vt 0 0
vt 0.025 0
vt 0.025 0.12
vt 0 0.12
vn -1 0 0
vn -1 0 0
vn -1 0 0
vn -1 0 0
f 225/225/225 226/226/226 227/227/227
f 225/225/225 227/227/227 228/228/228
v 3.565 0.59 3.1575
v 3.565 0.71 3.1575
v 3.565 0.71 3.1825
v 3.565 0.59 3.1825
vt 0 0
vt 0.12 0
vt 0.12 0.025
vt 0 0.025
vn 1 0 0
vn 1 0 0
vn 1 0 0
vn 1 0 0
f 229/229/229 230/230/230 231/231/231
f 229/229/229 231/231/231 232/232/232
v 3.435 0.59 3.1575
v 3.565 0.59 3.1575
v 3.565 0.59 3.1825
v 3.435 0.59 3.1825
vt 0 0
vt 0.13 0
vt 0.13 0.025
vt 0 0.025
vn 0 -1 0
vn 0 -1 0
vn 0 -1 0
vn 0 -1 0
f 233/233/233 234/234/234 235/235/235
f 233/233/233 235/235/235 236/236/236
v 3.435 0.71 3.1575
v 3.435 0.71 3.1825
v 3.565 0.71 3.1825
v 3.565 0.71 3.1575
vt 0 0
vt 0.025 0
vt 0.025 0.13
vt 0 0.13
vn 0 1 0
vn 0 1 0
vn 0 1 0
vn 0 1 0
f 237/237/237 238/238/238 239/239/239
f 237/237/237 239/239/239 240/240/240
